M48
; DRILL file {KiCad 8.0.4} date 2024-07-28T20:40:06+0200
; FORMAT={-:-/ absolute / inch / decimal}
; #@! TF.CreationDate,2024-07-28T20:40:06+02:00
; #@! TF.GenerationSoftware,Kicad,Pcbnew,8.0.4
; #@! TF.FileFunction,Plated,1,2,PTH
FMAT,2
INCH
; #@! TA.AperFunction,Plated,PTH,ComponentDrill
T1C0.0118
; #@! TA.AperFunction,Plated,PTH,ViaDrill
T2C0.0157
; #@! TA.AperFunction,Plated,PTH,ComponentDrill
T3C0.0394
; #@! TA.AperFunction,Plated,PTH,ComponentDrill
T4C0.0512
; #@! TA.AperFunction,Plated,PTH,ComponentDrill
T5C0.1260
%
G90
G05
T1
X4.5531Y-1.8287
X4.5531Y-1.876
X4.5531Y-1.9272
X4.5531Y-1.9705
X4.6004Y-1.8287
X4.6004Y-1.876
X4.6004Y-1.9272
X4.6004Y-1.9705
T2
X3.878Y-3.0118
X3.8878Y-2.126
X3.8878Y-3.3465
X3.8976Y-2.4606
X3.8976Y-2.5591
X3.8976Y-2.6575
X3.8976Y-2.7264
X3.9272Y-2.9626
X3.9567Y-1.6339
X4.0157Y-1.9094
X4.0157Y-1.9685
X4.0157Y-2.4311
X4.0157Y-3.2087
X4.0748Y-2.4311
X4.0748Y-3.2087
X4.124Y-1.9882
X4.1339Y-2.4311
X4.1339Y-3.2087
X4.1535Y-1.6339
X4.1929Y-1.9882
X4.2421Y-3.1693
X4.252Y-1.8701
X4.2717Y-3.3071
X4.2913Y-2.3917
X4.2913Y-2.4606
X4.2913Y-2.6575
X4.2913Y-2.7264
X4.311Y-3.0118
X4.311Y-3.0906
X4.311Y-3.1496
X4.3307Y-2.9528
X4.3898Y-1.9882
X4.4783Y-3.3465
X4.5079Y-2.9528
X4.5079Y-3.0315
X4.5472Y-2.1457
X4.5866Y-2.0866
X4.6457Y-2.4409
X4.6457Y-3.1496
X4.7441Y-2.3622
X4.7441Y-3.0709
X4.8622Y-2.3228
X4.8622Y-2.4409
X4.8622Y-3.0315
X4.8622Y-3.1496
X4.8819Y-1.6535
X4.8819Y-1.752
X4.9016Y-3.5039
X4.9409Y-2.0866
X4.9409Y-2.2047
X4.9409Y-2.7953
X4.9409Y-2.9134
X5.1181Y-3.4843
X5.1378Y-2.6969
X5.1378Y-3.3268
X5.1772Y-2.185
X5.1772Y-2.4213
X5.1772Y-2.4606
X5.1772Y-2.6181
X5.1772Y-2.6575
X5.1772Y-3.0118
X5.1772Y-3.0512
X5.1969Y-3.4843
X5.2165Y-2.126
X5.2362Y-2.185
X5.4331Y-1.9291
X5.4331Y-3.2087
T3
X3.9323Y-3.4449
X4.0323Y-3.4449
X4.1323Y-3.4449
X4.2323Y-3.4449
X4.3323Y-3.4449
X4.4323Y-3.4449
X4.5323Y-3.4449
T4
X5.327Y-2.0591
X5.327Y-2.2591
X5.327Y-2.4591
X5.327Y-2.6591
X5.327Y-2.8591
X5.327Y-3.0591
T5
X5.315Y-1.7717
X5.315Y-3.3465
M30
