%TF.GenerationSoftware,KiCad,Pcbnew,8.0.4*%
%TF.CreationDate,2024-07-28T20:40:06+02:00*%
%TF.ProjectId,DCWiFiSwitch,44435769-4669-4537-9769-7463682e6b69,rev?*%
%TF.SameCoordinates,Original*%
%TF.FileFunction,Soldermask,Top*%
%TF.FilePolarity,Negative*%
%FSLAX46Y46*%
G04 Gerber Fmt 4.6, Leading zero omitted, Abs format (unit mm)*
G04 Created by KiCad (PCBNEW 8.0.4) date 2024-07-28 20:40:06*
%MOMM*%
%LPD*%
G01*
G04 APERTURE LIST*
G04 Aperture macros list*
%AMRoundRect*
0 Rectangle with rounded corners*
0 $1 Rounding radius*
0 $2 $3 $4 $5 $6 $7 $8 $9 X,Y pos of 4 corners*
0 Add a 4 corners polygon primitive as box body*
4,1,4,$2,$3,$4,$5,$6,$7,$8,$9,$2,$3,0*
0 Add four circle primitives for the rounded corners*
1,1,$1+$1,$2,$3*
1,1,$1+$1,$4,$5*
1,1,$1+$1,$6,$7*
1,1,$1+$1,$8,$9*
0 Add four rect primitives between the rounded corners*
20,1,$1+$1,$2,$3,$4,$5,0*
20,1,$1+$1,$4,$5,$6,$7,0*
20,1,$1+$1,$6,$7,$8,$9,0*
20,1,$1+$1,$8,$9,$2,$3,0*%
G04 Aperture macros list end*
%ADD10RoundRect,0.200000X-0.200000X-0.275000X0.200000X-0.275000X0.200000X0.275000X-0.200000X0.275000X0*%
%ADD11RoundRect,0.200000X-0.275000X0.200000X-0.275000X-0.200000X0.275000X-0.200000X0.275000X0.200000X0*%
%ADD12RoundRect,0.218750X-0.256250X0.218750X-0.256250X-0.218750X0.256250X-0.218750X0.256250X0.218750X0*%
%ADD13RoundRect,0.200000X0.275000X-0.200000X0.275000X0.200000X-0.275000X0.200000X-0.275000X-0.200000X0*%
%ADD14C,5.700000*%
%ADD15R,1.550000X0.600000*%
%ADD16R,2.600000X3.100000*%
%ADD17C,3.200000*%
%ADD18R,3.700000X1.100000*%
%ADD19RoundRect,0.250000X-0.650000X1.000000X-0.650000X-1.000000X0.650000X-1.000000X0.650000X1.000000X0*%
%ADD20R,1.780000X2.000000*%
%ADD21RoundRect,0.250000X-0.625000X0.375000X-0.625000X-0.375000X0.625000X-0.375000X0.625000X0.375000X0*%
%ADD22R,2.600000X2.600000*%
%ADD23C,2.600000*%
%ADD24RoundRect,0.200000X0.200000X0.275000X-0.200000X0.275000X-0.200000X-0.275000X0.200000X-0.275000X0*%
%ADD25R,1.000000X2.500000*%
%ADD26R,1.800000X1.000000*%
%ADD27RoundRect,0.225000X0.250000X-0.225000X0.250000X0.225000X-0.250000X0.225000X-0.250000X-0.225000X0*%
%ADD28RoundRect,0.250000X1.000000X0.650000X-1.000000X0.650000X-1.000000X-0.650000X1.000000X-0.650000X0*%
%ADD29RoundRect,0.250000X0.375000X0.625000X-0.375000X0.625000X-0.375000X-0.625000X0.375000X-0.625000X0*%
%ADD30RoundRect,0.150000X0.150000X-0.587500X0.150000X0.587500X-0.150000X0.587500X-0.150000X-0.587500X0*%
%ADD31R,1.000000X0.750000*%
%ADD32R,1.700000X1.700000*%
%ADD33O,1.700000X1.700000*%
%ADD34RoundRect,0.225000X-0.250000X0.225000X-0.250000X-0.225000X0.250000X-0.225000X0.250000X0.225000X0*%
%ADD35RoundRect,0.225000X-0.225000X-0.250000X0.225000X-0.250000X0.225000X0.250000X-0.225000X0.250000X0*%
%ADD36RoundRect,0.250000X-0.650000X0.325000X-0.650000X-0.325000X0.650000X-0.325000X0.650000X0.325000X0*%
G04 APERTURE END LIST*
D10*
%TO.C,R20*%
X99675000Y-79000000D03*
X101325000Y-79000000D03*
%TD*%
D11*
%TO.C,R19*%
X100500000Y-82425000D03*
X100500000Y-84075000D03*
%TD*%
D12*
%TO.C,D4*%
X120750000Y-67712500D03*
X120750000Y-69287500D03*
%TD*%
D13*
%TO.C,R17*%
X102000000Y-54325000D03*
X102000000Y-52675000D03*
%TD*%
D14*
%TO.C,H3*%
X135000000Y-45000000D03*
%TD*%
%TO.C,H4*%
X135000000Y-85000000D03*
%TD*%
D15*
%TO.C,U1*%
X113550000Y-46345000D03*
X113550000Y-47615000D03*
X113550000Y-48885000D03*
X113550000Y-50155000D03*
X118950000Y-50155000D03*
X118950000Y-48885000D03*
X118950000Y-47615000D03*
X118950000Y-46345000D03*
D16*
X116250000Y-48250000D03*
%TD*%
D13*
%TO.C,R8*%
X123250000Y-69325000D03*
X123250000Y-67675000D03*
%TD*%
D17*
%TO.C,H1*%
X95000000Y-45000000D03*
%TD*%
D18*
%TO.C,L1*%
X109750000Y-42250000D03*
X109750000Y-45250000D03*
%TD*%
D12*
%TO.C,D6*%
X120750000Y-85712500D03*
X120750000Y-87287500D03*
%TD*%
D19*
%TO.C,D5*%
X127250000Y-78500000D03*
X127250000Y-82500000D03*
%TD*%
D20*
%TO.C,U3*%
X120730000Y-82765000D03*
X123270000Y-82765000D03*
X123270000Y-73235000D03*
X120730000Y-73235000D03*
%TD*%
D17*
%TO.C,H2*%
X95000000Y-85000000D03*
%TD*%
D11*
%TO.C,R9*%
X118000000Y-67675000D03*
X118000000Y-69325000D03*
%TD*%
D21*
%TO.C,F3*%
X127250000Y-72600000D03*
X127250000Y-75400000D03*
%TD*%
D22*
%TO.C,J1*%
X135305000Y-77700000D03*
D23*
X135305000Y-72620000D03*
X135305000Y-67540000D03*
X135305000Y-62460000D03*
X135305000Y-57380000D03*
X135305000Y-52300000D03*
%TD*%
D24*
%TO.C,R6*%
X118075000Y-60000000D03*
X116425000Y-60000000D03*
%TD*%
D13*
%TO.C,R10*%
X118000000Y-83325000D03*
X118000000Y-81675000D03*
%TD*%
D25*
%TO.C,U4*%
X98750000Y-72600000D03*
X100750000Y-72600000D03*
X102750000Y-72600000D03*
X104750000Y-72600000D03*
X106750000Y-72600000D03*
X108750000Y-72600000D03*
X110750000Y-72600000D03*
X112750000Y-72600000D03*
D26*
X114250000Y-70000000D03*
X114250000Y-68000000D03*
X114250000Y-66000000D03*
X114250000Y-64000000D03*
X114250000Y-62000000D03*
X114250000Y-60000000D03*
D25*
X112750000Y-57400000D03*
X110750000Y-57400000D03*
X108750000Y-57400000D03*
X106750000Y-57400000D03*
X104750000Y-57400000D03*
X102750000Y-57400000D03*
X100750000Y-57400000D03*
X98750000Y-57400000D03*
%TD*%
D27*
%TO.C,C1*%
X113250000Y-44025000D03*
X113250000Y-42475000D03*
%TD*%
D24*
%TO.C,R7*%
X118075000Y-56750000D03*
X116425000Y-56750000D03*
%TD*%
D28*
%TO.C,D2*%
X120250000Y-43250000D03*
X116250000Y-43250000D03*
%TD*%
D29*
%TO.C,F1*%
X130150000Y-42750000D03*
X127350000Y-42750000D03*
%TD*%
D10*
%TO.C,R1*%
X104175000Y-49000000D03*
X105825000Y-49000000D03*
%TD*%
D11*
%TO.C,R14*%
X118000000Y-85675000D03*
X118000000Y-87325000D03*
%TD*%
D10*
%TO.C,R16*%
X111175000Y-82500000D03*
X112825000Y-82500000D03*
%TD*%
D20*
%TO.C,U2*%
X120730000Y-64765000D03*
X123270000Y-64765000D03*
X123270000Y-55235000D03*
X120730000Y-55235000D03*
%TD*%
D10*
%TO.C,R15*%
X111175000Y-80500000D03*
X112825000Y-80500000D03*
%TD*%
D13*
%TO.C,R3*%
X106000000Y-54325000D03*
X106000000Y-52675000D03*
%TD*%
%TO.C,R5*%
X118000000Y-65325000D03*
X118000000Y-63675000D03*
%TD*%
D30*
%TO.C,Q2*%
X126300000Y-87437500D03*
X128200000Y-87437500D03*
X127250000Y-85562500D03*
%TD*%
D13*
%TO.C,R2*%
X108000000Y-54325000D03*
X108000000Y-52675000D03*
%TD*%
D31*
%TO.C,SW1*%
X106000000Y-46875000D03*
X100000000Y-46875000D03*
X106000000Y-43125000D03*
X100000000Y-43125000D03*
%TD*%
D32*
%TO.C,J2*%
X99880000Y-87500000D03*
D33*
X102420000Y-87500000D03*
X104960000Y-87500000D03*
X107500000Y-87500000D03*
X110040000Y-87500000D03*
X112580000Y-87500000D03*
X115120000Y-87500000D03*
%TD*%
D34*
%TO.C,C3*%
X121250000Y-47475000D03*
X121250000Y-49025000D03*
%TD*%
D35*
%TO.C,C4*%
X111725000Y-52500000D03*
X113275000Y-52500000D03*
%TD*%
D13*
%TO.C,R13*%
X123250000Y-87325000D03*
X123250000Y-85675000D03*
%TD*%
D19*
%TO.C,D3*%
X127250000Y-60500000D03*
X127250000Y-64500000D03*
%TD*%
D30*
%TO.C,Q1*%
X126300000Y-69437500D03*
X128200000Y-69437500D03*
X127250000Y-67562500D03*
%TD*%
D19*
%TO.C,D1*%
X127250000Y-46250000D03*
X127250000Y-50250000D03*
%TD*%
D35*
%TO.C,C6*%
X111225000Y-78500000D03*
X112775000Y-78500000D03*
%TD*%
D36*
%TO.C,C2*%
X123750000Y-46775000D03*
X123750000Y-49725000D03*
%TD*%
D24*
%TO.C,R12*%
X118075000Y-78000000D03*
X116425000Y-78000000D03*
%TD*%
D21*
%TO.C,F2*%
X127250000Y-54600000D03*
X127250000Y-57400000D03*
%TD*%
D24*
%TO.C,R18*%
X113325000Y-54500000D03*
X111675000Y-54500000D03*
%TD*%
%TO.C,R11*%
X118075000Y-74750000D03*
X116425000Y-74750000D03*
%TD*%
D11*
%TO.C,R4*%
X104000000Y-52675000D03*
X104000000Y-54325000D03*
%TD*%
D35*
%TO.C,C5*%
X111225000Y-76500000D03*
X112775000Y-76500000D03*
%TD*%
M02*
