%TF.GenerationSoftware,KiCad,Pcbnew,8.0.4*%
%TF.CreationDate,2024-07-28T20:40:06+02:00*%
%TF.ProjectId,DCWiFiSwitch,44435769-4669-4537-9769-7463682e6b69,rev?*%
%TF.SameCoordinates,Original*%
%TF.FileFunction,Legend,Top*%
%TF.FilePolarity,Positive*%
%FSLAX46Y46*%
G04 Gerber Fmt 4.6, Leading zero omitted, Abs format (unit mm)*
G04 Created by KiCad (PCBNEW 8.0.4) date 2024-07-28 20:40:06*
%MOMM*%
%LPD*%
G01*
G04 APERTURE LIST*
G04 Aperture macros list*
%AMRoundRect*
0 Rectangle with rounded corners*
0 $1 Rounding radius*
0 $2 $3 $4 $5 $6 $7 $8 $9 X,Y pos of 4 corners*
0 Add a 4 corners polygon primitive as box body*
4,1,4,$2,$3,$4,$5,$6,$7,$8,$9,$2,$3,0*
0 Add four circle primitives for the rounded corners*
1,1,$1+$1,$2,$3*
1,1,$1+$1,$4,$5*
1,1,$1+$1,$6,$7*
1,1,$1+$1,$8,$9*
0 Add four rect primitives between the rounded corners*
20,1,$1+$1,$2,$3,$4,$5,0*
20,1,$1+$1,$4,$5,$6,$7,0*
20,1,$1+$1,$6,$7,$8,$9,0*
20,1,$1+$1,$8,$9,$2,$3,0*%
G04 Aperture macros list end*
%ADD10C,0.200000*%
%ADD11C,0.150000*%
%ADD12C,0.120000*%
%ADD13RoundRect,0.200000X-0.200000X-0.275000X0.200000X-0.275000X0.200000X0.275000X-0.200000X0.275000X0*%
%ADD14RoundRect,0.200000X-0.275000X0.200000X-0.275000X-0.200000X0.275000X-0.200000X0.275000X0.200000X0*%
%ADD15RoundRect,0.218750X-0.256250X0.218750X-0.256250X-0.218750X0.256250X-0.218750X0.256250X0.218750X0*%
%ADD16RoundRect,0.200000X0.275000X-0.200000X0.275000X0.200000X-0.275000X0.200000X-0.275000X-0.200000X0*%
%ADD17C,5.700000*%
%ADD18R,1.550000X0.600000*%
%ADD19R,2.600000X3.100000*%
%ADD20C,3.200000*%
%ADD21R,3.700000X1.100000*%
%ADD22RoundRect,0.250000X-0.650000X1.000000X-0.650000X-1.000000X0.650000X-1.000000X0.650000X1.000000X0*%
%ADD23R,1.780000X2.000000*%
%ADD24RoundRect,0.250000X-0.625000X0.375000X-0.625000X-0.375000X0.625000X-0.375000X0.625000X0.375000X0*%
%ADD25R,2.600000X2.600000*%
%ADD26C,2.600000*%
%ADD27RoundRect,0.200000X0.200000X0.275000X-0.200000X0.275000X-0.200000X-0.275000X0.200000X-0.275000X0*%
%ADD28R,1.000000X2.500000*%
%ADD29R,1.800000X1.000000*%
%ADD30RoundRect,0.225000X0.250000X-0.225000X0.250000X0.225000X-0.250000X0.225000X-0.250000X-0.225000X0*%
%ADD31RoundRect,0.250000X1.000000X0.650000X-1.000000X0.650000X-1.000000X-0.650000X1.000000X-0.650000X0*%
%ADD32RoundRect,0.250000X0.375000X0.625000X-0.375000X0.625000X-0.375000X-0.625000X0.375000X-0.625000X0*%
%ADD33RoundRect,0.150000X0.150000X-0.587500X0.150000X0.587500X-0.150000X0.587500X-0.150000X-0.587500X0*%
%ADD34R,1.000000X0.750000*%
%ADD35R,1.700000X1.700000*%
%ADD36O,1.700000X1.700000*%
%ADD37RoundRect,0.225000X-0.250000X0.225000X-0.250000X-0.225000X0.250000X-0.225000X0.250000X0.225000X0*%
%ADD38RoundRect,0.225000X-0.225000X-0.250000X0.225000X-0.250000X0.225000X0.250000X-0.225000X0.250000X0*%
%ADD39RoundRect,0.250000X-0.650000X0.325000X-0.650000X-0.325000X0.650000X-0.325000X0.650000X0.325000X0*%
G04 APERTURE END LIST*
D10*
X90869673Y-54343409D02*
X91203006Y-54343409D01*
X91345863Y-54867219D02*
X90869673Y-54867219D01*
X90869673Y-54867219D02*
X90869673Y-53867219D01*
X90869673Y-53867219D02*
X91345863Y-53867219D01*
X91726816Y-54819600D02*
X91869673Y-54867219D01*
X91869673Y-54867219D02*
X92107768Y-54867219D01*
X92107768Y-54867219D02*
X92203006Y-54819600D01*
X92203006Y-54819600D02*
X92250625Y-54771980D01*
X92250625Y-54771980D02*
X92298244Y-54676742D01*
X92298244Y-54676742D02*
X92298244Y-54581504D01*
X92298244Y-54581504D02*
X92250625Y-54486266D01*
X92250625Y-54486266D02*
X92203006Y-54438647D01*
X92203006Y-54438647D02*
X92107768Y-54391028D01*
X92107768Y-54391028D02*
X91917292Y-54343409D01*
X91917292Y-54343409D02*
X91822054Y-54295790D01*
X91822054Y-54295790D02*
X91774435Y-54248171D01*
X91774435Y-54248171D02*
X91726816Y-54152933D01*
X91726816Y-54152933D02*
X91726816Y-54057695D01*
X91726816Y-54057695D02*
X91774435Y-53962457D01*
X91774435Y-53962457D02*
X91822054Y-53914838D01*
X91822054Y-53914838D02*
X91917292Y-53867219D01*
X91917292Y-53867219D02*
X92155387Y-53867219D01*
X92155387Y-53867219D02*
X92298244Y-53914838D01*
X92726816Y-54867219D02*
X92726816Y-53867219D01*
X92726816Y-53867219D02*
X93107768Y-53867219D01*
X93107768Y-53867219D02*
X93203006Y-53914838D01*
X93203006Y-53914838D02*
X93250625Y-53962457D01*
X93250625Y-53962457D02*
X93298244Y-54057695D01*
X93298244Y-54057695D02*
X93298244Y-54200552D01*
X93298244Y-54200552D02*
X93250625Y-54295790D01*
X93250625Y-54295790D02*
X93203006Y-54343409D01*
X93203006Y-54343409D02*
X93107768Y-54391028D01*
X93107768Y-54391028D02*
X92726816Y-54391028D01*
X93726816Y-54486266D02*
X94488721Y-54486266D01*
X95488720Y-54867219D02*
X94917292Y-54867219D01*
X95203006Y-54867219D02*
X95203006Y-53867219D01*
X95203006Y-53867219D02*
X95107768Y-54010076D01*
X95107768Y-54010076D02*
X95012530Y-54105314D01*
X95012530Y-54105314D02*
X94917292Y-54152933D01*
X95869673Y-53962457D02*
X95917292Y-53914838D01*
X95917292Y-53914838D02*
X96012530Y-53867219D01*
X96012530Y-53867219D02*
X96250625Y-53867219D01*
X96250625Y-53867219D02*
X96345863Y-53914838D01*
X96345863Y-53914838D02*
X96393482Y-53962457D01*
X96393482Y-53962457D02*
X96441101Y-54057695D01*
X96441101Y-54057695D02*
X96441101Y-54152933D01*
X96441101Y-54152933D02*
X96393482Y-54295790D01*
X96393482Y-54295790D02*
X95822054Y-54867219D01*
X95822054Y-54867219D02*
X96441101Y-54867219D01*
X97203006Y-54343409D02*
X96869673Y-54343409D01*
X96869673Y-54867219D02*
X96869673Y-53867219D01*
X96869673Y-53867219D02*
X97345863Y-53867219D01*
X101155387Y-64367219D02*
X101155387Y-65081504D01*
X101155387Y-65081504D02*
X101107768Y-65224361D01*
X101107768Y-65224361D02*
X101012530Y-65319600D01*
X101012530Y-65319600D02*
X100869673Y-65367219D01*
X100869673Y-65367219D02*
X100774435Y-65367219D01*
X102107768Y-65367219D02*
X101631578Y-65367219D01*
X101631578Y-65367219D02*
X101631578Y-64367219D01*
X103012530Y-65271980D02*
X102964911Y-65319600D01*
X102964911Y-65319600D02*
X102822054Y-65367219D01*
X102822054Y-65367219D02*
X102726816Y-65367219D01*
X102726816Y-65367219D02*
X102583959Y-65319600D01*
X102583959Y-65319600D02*
X102488721Y-65224361D01*
X102488721Y-65224361D02*
X102441102Y-65129123D01*
X102441102Y-65129123D02*
X102393483Y-64938647D01*
X102393483Y-64938647D02*
X102393483Y-64795790D01*
X102393483Y-64795790D02*
X102441102Y-64605314D01*
X102441102Y-64605314D02*
X102488721Y-64510076D01*
X102488721Y-64510076D02*
X102583959Y-64414838D01*
X102583959Y-64414838D02*
X102726816Y-64367219D01*
X102726816Y-64367219D02*
X102822054Y-64367219D01*
X102822054Y-64367219D02*
X102964911Y-64414838D01*
X102964911Y-64414838D02*
X103012530Y-64462457D01*
X103726816Y-64367219D02*
X103726816Y-65081504D01*
X103726816Y-65081504D02*
X103679197Y-65224361D01*
X103679197Y-65224361D02*
X103583959Y-65319600D01*
X103583959Y-65319600D02*
X103441102Y-65367219D01*
X103441102Y-65367219D02*
X103345864Y-65367219D01*
X104679197Y-65367219D02*
X104203007Y-65367219D01*
X104203007Y-65367219D02*
X104203007Y-64367219D01*
X105583959Y-65271980D02*
X105536340Y-65319600D01*
X105536340Y-65319600D02*
X105393483Y-65367219D01*
X105393483Y-65367219D02*
X105298245Y-65367219D01*
X105298245Y-65367219D02*
X105155388Y-65319600D01*
X105155388Y-65319600D02*
X105060150Y-65224361D01*
X105060150Y-65224361D02*
X105012531Y-65129123D01*
X105012531Y-65129123D02*
X104964912Y-64938647D01*
X104964912Y-64938647D02*
X104964912Y-64795790D01*
X104964912Y-64795790D02*
X105012531Y-64605314D01*
X105012531Y-64605314D02*
X105060150Y-64510076D01*
X105060150Y-64510076D02*
X105155388Y-64414838D01*
X105155388Y-64414838D02*
X105298245Y-64367219D01*
X105298245Y-64367219D02*
X105393483Y-64367219D01*
X105393483Y-64367219D02*
X105536340Y-64414838D01*
X105536340Y-64414838D02*
X105583959Y-64462457D01*
X106298245Y-64367219D02*
X106298245Y-65081504D01*
X106298245Y-65081504D02*
X106250626Y-65224361D01*
X106250626Y-65224361D02*
X106155388Y-65319600D01*
X106155388Y-65319600D02*
X106012531Y-65367219D01*
X106012531Y-65367219D02*
X105917293Y-65367219D01*
X107250626Y-65367219D02*
X106774436Y-65367219D01*
X106774436Y-65367219D02*
X106774436Y-64367219D01*
X108155388Y-65271980D02*
X108107769Y-65319600D01*
X108107769Y-65319600D02*
X107964912Y-65367219D01*
X107964912Y-65367219D02*
X107869674Y-65367219D01*
X107869674Y-65367219D02*
X107726817Y-65319600D01*
X107726817Y-65319600D02*
X107631579Y-65224361D01*
X107631579Y-65224361D02*
X107583960Y-65129123D01*
X107583960Y-65129123D02*
X107536341Y-64938647D01*
X107536341Y-64938647D02*
X107536341Y-64795790D01*
X107536341Y-64795790D02*
X107583960Y-64605314D01*
X107583960Y-64605314D02*
X107631579Y-64510076D01*
X107631579Y-64510076D02*
X107726817Y-64414838D01*
X107726817Y-64414838D02*
X107869674Y-64367219D01*
X107869674Y-64367219D02*
X107964912Y-64367219D01*
X107964912Y-64367219D02*
X108107769Y-64414838D01*
X108107769Y-64414838D02*
X108155388Y-64462457D01*
X108869674Y-64367219D02*
X108869674Y-65081504D01*
X108869674Y-65081504D02*
X108822055Y-65224361D01*
X108822055Y-65224361D02*
X108726817Y-65319600D01*
X108726817Y-65319600D02*
X108583960Y-65367219D01*
X108583960Y-65367219D02*
X108488722Y-65367219D01*
X109822055Y-65367219D02*
X109345865Y-65367219D01*
X109345865Y-65367219D02*
X109345865Y-64367219D01*
X110726817Y-65271980D02*
X110679198Y-65319600D01*
X110679198Y-65319600D02*
X110536341Y-65367219D01*
X110536341Y-65367219D02*
X110441103Y-65367219D01*
X110441103Y-65367219D02*
X110298246Y-65319600D01*
X110298246Y-65319600D02*
X110203008Y-65224361D01*
X110203008Y-65224361D02*
X110155389Y-65129123D01*
X110155389Y-65129123D02*
X110107770Y-64938647D01*
X110107770Y-64938647D02*
X110107770Y-64795790D01*
X110107770Y-64795790D02*
X110155389Y-64605314D01*
X110155389Y-64605314D02*
X110203008Y-64510076D01*
X110203008Y-64510076D02*
X110298246Y-64414838D01*
X110298246Y-64414838D02*
X110441103Y-64367219D01*
X110441103Y-64367219D02*
X110536341Y-64367219D01*
X110536341Y-64367219D02*
X110679198Y-64414838D01*
X110679198Y-64414838D02*
X110726817Y-64462457D01*
D11*
X99857142Y-78024819D02*
X99523809Y-77548628D01*
X99285714Y-78024819D02*
X99285714Y-77024819D01*
X99285714Y-77024819D02*
X99666666Y-77024819D01*
X99666666Y-77024819D02*
X99761904Y-77072438D01*
X99761904Y-77072438D02*
X99809523Y-77120057D01*
X99809523Y-77120057D02*
X99857142Y-77215295D01*
X99857142Y-77215295D02*
X99857142Y-77358152D01*
X99857142Y-77358152D02*
X99809523Y-77453390D01*
X99809523Y-77453390D02*
X99761904Y-77501009D01*
X99761904Y-77501009D02*
X99666666Y-77548628D01*
X99666666Y-77548628D02*
X99285714Y-77548628D01*
X100238095Y-77120057D02*
X100285714Y-77072438D01*
X100285714Y-77072438D02*
X100380952Y-77024819D01*
X100380952Y-77024819D02*
X100619047Y-77024819D01*
X100619047Y-77024819D02*
X100714285Y-77072438D01*
X100714285Y-77072438D02*
X100761904Y-77120057D01*
X100761904Y-77120057D02*
X100809523Y-77215295D01*
X100809523Y-77215295D02*
X100809523Y-77310533D01*
X100809523Y-77310533D02*
X100761904Y-77453390D01*
X100761904Y-77453390D02*
X100190476Y-78024819D01*
X100190476Y-78024819D02*
X100809523Y-78024819D01*
X101428571Y-77024819D02*
X101523809Y-77024819D01*
X101523809Y-77024819D02*
X101619047Y-77072438D01*
X101619047Y-77072438D02*
X101666666Y-77120057D01*
X101666666Y-77120057D02*
X101714285Y-77215295D01*
X101714285Y-77215295D02*
X101761904Y-77405771D01*
X101761904Y-77405771D02*
X101761904Y-77643866D01*
X101761904Y-77643866D02*
X101714285Y-77834342D01*
X101714285Y-77834342D02*
X101666666Y-77929580D01*
X101666666Y-77929580D02*
X101619047Y-77977200D01*
X101619047Y-77977200D02*
X101523809Y-78024819D01*
X101523809Y-78024819D02*
X101428571Y-78024819D01*
X101428571Y-78024819D02*
X101333333Y-77977200D01*
X101333333Y-77977200D02*
X101285714Y-77929580D01*
X101285714Y-77929580D02*
X101238095Y-77834342D01*
X101238095Y-77834342D02*
X101190476Y-77643866D01*
X101190476Y-77643866D02*
X101190476Y-77405771D01*
X101190476Y-77405771D02*
X101238095Y-77215295D01*
X101238095Y-77215295D02*
X101285714Y-77120057D01*
X101285714Y-77120057D02*
X101333333Y-77072438D01*
X101333333Y-77072438D02*
X101428571Y-77024819D01*
X102454819Y-84392857D02*
X101978628Y-84726190D01*
X102454819Y-84964285D02*
X101454819Y-84964285D01*
X101454819Y-84964285D02*
X101454819Y-84583333D01*
X101454819Y-84583333D02*
X101502438Y-84488095D01*
X101502438Y-84488095D02*
X101550057Y-84440476D01*
X101550057Y-84440476D02*
X101645295Y-84392857D01*
X101645295Y-84392857D02*
X101788152Y-84392857D01*
X101788152Y-84392857D02*
X101883390Y-84440476D01*
X101883390Y-84440476D02*
X101931009Y-84488095D01*
X101931009Y-84488095D02*
X101978628Y-84583333D01*
X101978628Y-84583333D02*
X101978628Y-84964285D01*
X102454819Y-83440476D02*
X102454819Y-84011904D01*
X102454819Y-83726190D02*
X101454819Y-83726190D01*
X101454819Y-83726190D02*
X101597676Y-83821428D01*
X101597676Y-83821428D02*
X101692914Y-83916666D01*
X101692914Y-83916666D02*
X101740533Y-84011904D01*
X102454819Y-82964285D02*
X102454819Y-82773809D01*
X102454819Y-82773809D02*
X102407200Y-82678571D01*
X102407200Y-82678571D02*
X102359580Y-82630952D01*
X102359580Y-82630952D02*
X102216723Y-82535714D01*
X102216723Y-82535714D02*
X102026247Y-82488095D01*
X102026247Y-82488095D02*
X101645295Y-82488095D01*
X101645295Y-82488095D02*
X101550057Y-82535714D01*
X101550057Y-82535714D02*
X101502438Y-82583333D01*
X101502438Y-82583333D02*
X101454819Y-82678571D01*
X101454819Y-82678571D02*
X101454819Y-82869047D01*
X101454819Y-82869047D02*
X101502438Y-82964285D01*
X101502438Y-82964285D02*
X101550057Y-83011904D01*
X101550057Y-83011904D02*
X101645295Y-83059523D01*
X101645295Y-83059523D02*
X101883390Y-83059523D01*
X101883390Y-83059523D02*
X101978628Y-83011904D01*
X101978628Y-83011904D02*
X102026247Y-82964285D01*
X102026247Y-82964285D02*
X102073866Y-82869047D01*
X102073866Y-82869047D02*
X102073866Y-82678571D01*
X102073866Y-82678571D02*
X102026247Y-82583333D01*
X102026247Y-82583333D02*
X101978628Y-82535714D01*
X101978628Y-82535714D02*
X101883390Y-82488095D01*
X120954819Y-71738094D02*
X119954819Y-71738094D01*
X119954819Y-71738094D02*
X119954819Y-71499999D01*
X119954819Y-71499999D02*
X120002438Y-71357142D01*
X120002438Y-71357142D02*
X120097676Y-71261904D01*
X120097676Y-71261904D02*
X120192914Y-71214285D01*
X120192914Y-71214285D02*
X120383390Y-71166666D01*
X120383390Y-71166666D02*
X120526247Y-71166666D01*
X120526247Y-71166666D02*
X120716723Y-71214285D01*
X120716723Y-71214285D02*
X120811961Y-71261904D01*
X120811961Y-71261904D02*
X120907200Y-71357142D01*
X120907200Y-71357142D02*
X120954819Y-71499999D01*
X120954819Y-71499999D02*
X120954819Y-71738094D01*
X120288152Y-70309523D02*
X120954819Y-70309523D01*
X119907200Y-70547618D02*
X120621485Y-70785713D01*
X120621485Y-70785713D02*
X120621485Y-70166666D01*
X101024819Y-53142857D02*
X100548628Y-53476190D01*
X101024819Y-53714285D02*
X100024819Y-53714285D01*
X100024819Y-53714285D02*
X100024819Y-53333333D01*
X100024819Y-53333333D02*
X100072438Y-53238095D01*
X100072438Y-53238095D02*
X100120057Y-53190476D01*
X100120057Y-53190476D02*
X100215295Y-53142857D01*
X100215295Y-53142857D02*
X100358152Y-53142857D01*
X100358152Y-53142857D02*
X100453390Y-53190476D01*
X100453390Y-53190476D02*
X100501009Y-53238095D01*
X100501009Y-53238095D02*
X100548628Y-53333333D01*
X100548628Y-53333333D02*
X100548628Y-53714285D01*
X101024819Y-52190476D02*
X101024819Y-52761904D01*
X101024819Y-52476190D02*
X100024819Y-52476190D01*
X100024819Y-52476190D02*
X100167676Y-52571428D01*
X100167676Y-52571428D02*
X100262914Y-52666666D01*
X100262914Y-52666666D02*
X100310533Y-52761904D01*
X100024819Y-51857142D02*
X100024819Y-51190476D01*
X100024819Y-51190476D02*
X101024819Y-51619047D01*
X134238095Y-41604819D02*
X134238095Y-40604819D01*
X134238095Y-41081009D02*
X134809523Y-41081009D01*
X134809523Y-41604819D02*
X134809523Y-40604819D01*
X135190476Y-40604819D02*
X135809523Y-40604819D01*
X135809523Y-40604819D02*
X135476190Y-40985771D01*
X135476190Y-40985771D02*
X135619047Y-40985771D01*
X135619047Y-40985771D02*
X135714285Y-41033390D01*
X135714285Y-41033390D02*
X135761904Y-41081009D01*
X135761904Y-41081009D02*
X135809523Y-41176247D01*
X135809523Y-41176247D02*
X135809523Y-41414342D01*
X135809523Y-41414342D02*
X135761904Y-41509580D01*
X135761904Y-41509580D02*
X135714285Y-41557200D01*
X135714285Y-41557200D02*
X135619047Y-41604819D01*
X135619047Y-41604819D02*
X135333333Y-41604819D01*
X135333333Y-41604819D02*
X135238095Y-41557200D01*
X135238095Y-41557200D02*
X135190476Y-41509580D01*
X134238095Y-81604819D02*
X134238095Y-80604819D01*
X134238095Y-81081009D02*
X134809523Y-81081009D01*
X134809523Y-81604819D02*
X134809523Y-80604819D01*
X135714285Y-80938152D02*
X135714285Y-81604819D01*
X135476190Y-80557200D02*
X135238095Y-81271485D01*
X135238095Y-81271485D02*
X135857142Y-81271485D01*
X117988095Y-51704819D02*
X117988095Y-52514342D01*
X117988095Y-52514342D02*
X118035714Y-52609580D01*
X118035714Y-52609580D02*
X118083333Y-52657200D01*
X118083333Y-52657200D02*
X118178571Y-52704819D01*
X118178571Y-52704819D02*
X118369047Y-52704819D01*
X118369047Y-52704819D02*
X118464285Y-52657200D01*
X118464285Y-52657200D02*
X118511904Y-52609580D01*
X118511904Y-52609580D02*
X118559523Y-52514342D01*
X118559523Y-52514342D02*
X118559523Y-51704819D01*
X119559523Y-52704819D02*
X118988095Y-52704819D01*
X119273809Y-52704819D02*
X119273809Y-51704819D01*
X119273809Y-51704819D02*
X119178571Y-51847676D01*
X119178571Y-51847676D02*
X119083333Y-51942914D01*
X119083333Y-51942914D02*
X118988095Y-51990533D01*
X123454819Y-71166666D02*
X122978628Y-71499999D01*
X123454819Y-71738094D02*
X122454819Y-71738094D01*
X122454819Y-71738094D02*
X122454819Y-71357142D01*
X122454819Y-71357142D02*
X122502438Y-71261904D01*
X122502438Y-71261904D02*
X122550057Y-71214285D01*
X122550057Y-71214285D02*
X122645295Y-71166666D01*
X122645295Y-71166666D02*
X122788152Y-71166666D01*
X122788152Y-71166666D02*
X122883390Y-71214285D01*
X122883390Y-71214285D02*
X122931009Y-71261904D01*
X122931009Y-71261904D02*
X122978628Y-71357142D01*
X122978628Y-71357142D02*
X122978628Y-71738094D01*
X122883390Y-70595237D02*
X122835771Y-70690475D01*
X122835771Y-70690475D02*
X122788152Y-70738094D01*
X122788152Y-70738094D02*
X122692914Y-70785713D01*
X122692914Y-70785713D02*
X122645295Y-70785713D01*
X122645295Y-70785713D02*
X122550057Y-70738094D01*
X122550057Y-70738094D02*
X122502438Y-70690475D01*
X122502438Y-70690475D02*
X122454819Y-70595237D01*
X122454819Y-70595237D02*
X122454819Y-70404761D01*
X122454819Y-70404761D02*
X122502438Y-70309523D01*
X122502438Y-70309523D02*
X122550057Y-70261904D01*
X122550057Y-70261904D02*
X122645295Y-70214285D01*
X122645295Y-70214285D02*
X122692914Y-70214285D01*
X122692914Y-70214285D02*
X122788152Y-70261904D01*
X122788152Y-70261904D02*
X122835771Y-70309523D01*
X122835771Y-70309523D02*
X122883390Y-70404761D01*
X122883390Y-70404761D02*
X122883390Y-70595237D01*
X122883390Y-70595237D02*
X122931009Y-70690475D01*
X122931009Y-70690475D02*
X122978628Y-70738094D01*
X122978628Y-70738094D02*
X123073866Y-70785713D01*
X123073866Y-70785713D02*
X123264342Y-70785713D01*
X123264342Y-70785713D02*
X123359580Y-70738094D01*
X123359580Y-70738094D02*
X123407200Y-70690475D01*
X123407200Y-70690475D02*
X123454819Y-70595237D01*
X123454819Y-70595237D02*
X123454819Y-70404761D01*
X123454819Y-70404761D02*
X123407200Y-70309523D01*
X123407200Y-70309523D02*
X123359580Y-70261904D01*
X123359580Y-70261904D02*
X123264342Y-70214285D01*
X123264342Y-70214285D02*
X123073866Y-70214285D01*
X123073866Y-70214285D02*
X122978628Y-70261904D01*
X122978628Y-70261904D02*
X122931009Y-70309523D01*
X122931009Y-70309523D02*
X122883390Y-70404761D01*
X94238095Y-41604819D02*
X94238095Y-40604819D01*
X94238095Y-41081009D02*
X94809523Y-41081009D01*
X94809523Y-41604819D02*
X94809523Y-40604819D01*
X95809523Y-41604819D02*
X95238095Y-41604819D01*
X95523809Y-41604819D02*
X95523809Y-40604819D01*
X95523809Y-40604819D02*
X95428571Y-40747676D01*
X95428571Y-40747676D02*
X95333333Y-40842914D01*
X95333333Y-40842914D02*
X95238095Y-40890533D01*
X109583333Y-47454819D02*
X109107143Y-47454819D01*
X109107143Y-47454819D02*
X109107143Y-46454819D01*
X110440476Y-47454819D02*
X109869048Y-47454819D01*
X110154762Y-47454819D02*
X110154762Y-46454819D01*
X110154762Y-46454819D02*
X110059524Y-46597676D01*
X110059524Y-46597676D02*
X109964286Y-46692914D01*
X109964286Y-46692914D02*
X109869048Y-46740533D01*
X120761905Y-89204819D02*
X120761905Y-88204819D01*
X120761905Y-88204819D02*
X121000000Y-88204819D01*
X121000000Y-88204819D02*
X121142857Y-88252438D01*
X121142857Y-88252438D02*
X121238095Y-88347676D01*
X121238095Y-88347676D02*
X121285714Y-88442914D01*
X121285714Y-88442914D02*
X121333333Y-88633390D01*
X121333333Y-88633390D02*
X121333333Y-88776247D01*
X121333333Y-88776247D02*
X121285714Y-88966723D01*
X121285714Y-88966723D02*
X121238095Y-89061961D01*
X121238095Y-89061961D02*
X121142857Y-89157200D01*
X121142857Y-89157200D02*
X121000000Y-89204819D01*
X121000000Y-89204819D02*
X120761905Y-89204819D01*
X122190476Y-88204819D02*
X122000000Y-88204819D01*
X122000000Y-88204819D02*
X121904762Y-88252438D01*
X121904762Y-88252438D02*
X121857143Y-88300057D01*
X121857143Y-88300057D02*
X121761905Y-88442914D01*
X121761905Y-88442914D02*
X121714286Y-88633390D01*
X121714286Y-88633390D02*
X121714286Y-89014342D01*
X121714286Y-89014342D02*
X121761905Y-89109580D01*
X121761905Y-89109580D02*
X121809524Y-89157200D01*
X121809524Y-89157200D02*
X121904762Y-89204819D01*
X121904762Y-89204819D02*
X122095238Y-89204819D01*
X122095238Y-89204819D02*
X122190476Y-89157200D01*
X122190476Y-89157200D02*
X122238095Y-89109580D01*
X122238095Y-89109580D02*
X122285714Y-89014342D01*
X122285714Y-89014342D02*
X122285714Y-88776247D01*
X122285714Y-88776247D02*
X122238095Y-88681009D01*
X122238095Y-88681009D02*
X122190476Y-88633390D01*
X122190476Y-88633390D02*
X122095238Y-88585771D01*
X122095238Y-88585771D02*
X121904762Y-88585771D01*
X121904762Y-88585771D02*
X121809524Y-88633390D01*
X121809524Y-88633390D02*
X121761905Y-88681009D01*
X121761905Y-88681009D02*
X121714286Y-88776247D01*
X130204819Y-82738094D02*
X129204819Y-82738094D01*
X129204819Y-82738094D02*
X129204819Y-82499999D01*
X129204819Y-82499999D02*
X129252438Y-82357142D01*
X129252438Y-82357142D02*
X129347676Y-82261904D01*
X129347676Y-82261904D02*
X129442914Y-82214285D01*
X129442914Y-82214285D02*
X129633390Y-82166666D01*
X129633390Y-82166666D02*
X129776247Y-82166666D01*
X129776247Y-82166666D02*
X129966723Y-82214285D01*
X129966723Y-82214285D02*
X130061961Y-82261904D01*
X130061961Y-82261904D02*
X130157200Y-82357142D01*
X130157200Y-82357142D02*
X130204819Y-82499999D01*
X130204819Y-82499999D02*
X130204819Y-82738094D01*
X129204819Y-81261904D02*
X129204819Y-81738094D01*
X129204819Y-81738094D02*
X129681009Y-81785713D01*
X129681009Y-81785713D02*
X129633390Y-81738094D01*
X129633390Y-81738094D02*
X129585771Y-81642856D01*
X129585771Y-81642856D02*
X129585771Y-81404761D01*
X129585771Y-81404761D02*
X129633390Y-81309523D01*
X129633390Y-81309523D02*
X129681009Y-81261904D01*
X129681009Y-81261904D02*
X129776247Y-81214285D01*
X129776247Y-81214285D02*
X130014342Y-81214285D01*
X130014342Y-81214285D02*
X130109580Y-81261904D01*
X130109580Y-81261904D02*
X130157200Y-81309523D01*
X130157200Y-81309523D02*
X130204819Y-81404761D01*
X130204819Y-81404761D02*
X130204819Y-81642856D01*
X130204819Y-81642856D02*
X130157200Y-81738094D01*
X130157200Y-81738094D02*
X130109580Y-81785713D01*
X117954819Y-72761904D02*
X118764342Y-72761904D01*
X118764342Y-72761904D02*
X118859580Y-72714285D01*
X118859580Y-72714285D02*
X118907200Y-72666666D01*
X118907200Y-72666666D02*
X118954819Y-72571428D01*
X118954819Y-72571428D02*
X118954819Y-72380952D01*
X118954819Y-72380952D02*
X118907200Y-72285714D01*
X118907200Y-72285714D02*
X118859580Y-72238095D01*
X118859580Y-72238095D02*
X118764342Y-72190476D01*
X118764342Y-72190476D02*
X117954819Y-72190476D01*
X117954819Y-71809523D02*
X117954819Y-71190476D01*
X117954819Y-71190476D02*
X118335771Y-71523809D01*
X118335771Y-71523809D02*
X118335771Y-71380952D01*
X118335771Y-71380952D02*
X118383390Y-71285714D01*
X118383390Y-71285714D02*
X118431009Y-71238095D01*
X118431009Y-71238095D02*
X118526247Y-71190476D01*
X118526247Y-71190476D02*
X118764342Y-71190476D01*
X118764342Y-71190476D02*
X118859580Y-71238095D01*
X118859580Y-71238095D02*
X118907200Y-71285714D01*
X118907200Y-71285714D02*
X118954819Y-71380952D01*
X118954819Y-71380952D02*
X118954819Y-71666666D01*
X118954819Y-71666666D02*
X118907200Y-71761904D01*
X118907200Y-71761904D02*
X118859580Y-71809523D01*
X94238095Y-81604819D02*
X94238095Y-80604819D01*
X94238095Y-81081009D02*
X94809523Y-81081009D01*
X94809523Y-81604819D02*
X94809523Y-80604819D01*
X95238095Y-80700057D02*
X95285714Y-80652438D01*
X95285714Y-80652438D02*
X95380952Y-80604819D01*
X95380952Y-80604819D02*
X95619047Y-80604819D01*
X95619047Y-80604819D02*
X95714285Y-80652438D01*
X95714285Y-80652438D02*
X95761904Y-80700057D01*
X95761904Y-80700057D02*
X95809523Y-80795295D01*
X95809523Y-80795295D02*
X95809523Y-80890533D01*
X95809523Y-80890533D02*
X95761904Y-81033390D01*
X95761904Y-81033390D02*
X95190476Y-81604819D01*
X95190476Y-81604819D02*
X95809523Y-81604819D01*
X116954819Y-68666666D02*
X116478628Y-68999999D01*
X116954819Y-69238094D02*
X115954819Y-69238094D01*
X115954819Y-69238094D02*
X115954819Y-68857142D01*
X115954819Y-68857142D02*
X116002438Y-68761904D01*
X116002438Y-68761904D02*
X116050057Y-68714285D01*
X116050057Y-68714285D02*
X116145295Y-68666666D01*
X116145295Y-68666666D02*
X116288152Y-68666666D01*
X116288152Y-68666666D02*
X116383390Y-68714285D01*
X116383390Y-68714285D02*
X116431009Y-68761904D01*
X116431009Y-68761904D02*
X116478628Y-68857142D01*
X116478628Y-68857142D02*
X116478628Y-69238094D01*
X116954819Y-68190475D02*
X116954819Y-67999999D01*
X116954819Y-67999999D02*
X116907200Y-67904761D01*
X116907200Y-67904761D02*
X116859580Y-67857142D01*
X116859580Y-67857142D02*
X116716723Y-67761904D01*
X116716723Y-67761904D02*
X116526247Y-67714285D01*
X116526247Y-67714285D02*
X116145295Y-67714285D01*
X116145295Y-67714285D02*
X116050057Y-67761904D01*
X116050057Y-67761904D02*
X116002438Y-67809523D01*
X116002438Y-67809523D02*
X115954819Y-67904761D01*
X115954819Y-67904761D02*
X115954819Y-68095237D01*
X115954819Y-68095237D02*
X116002438Y-68190475D01*
X116002438Y-68190475D02*
X116050057Y-68238094D01*
X116050057Y-68238094D02*
X116145295Y-68285713D01*
X116145295Y-68285713D02*
X116383390Y-68285713D01*
X116383390Y-68285713D02*
X116478628Y-68238094D01*
X116478628Y-68238094D02*
X116526247Y-68190475D01*
X116526247Y-68190475D02*
X116573866Y-68095237D01*
X116573866Y-68095237D02*
X116573866Y-67904761D01*
X116573866Y-67904761D02*
X116526247Y-67809523D01*
X116526247Y-67809523D02*
X116478628Y-67761904D01*
X116478628Y-67761904D02*
X116383390Y-67714285D01*
X129001009Y-74333333D02*
X129001009Y-74666666D01*
X129524819Y-74666666D02*
X128524819Y-74666666D01*
X128524819Y-74666666D02*
X128524819Y-74190476D01*
X128524819Y-73904761D02*
X128524819Y-73285714D01*
X128524819Y-73285714D02*
X128905771Y-73619047D01*
X128905771Y-73619047D02*
X128905771Y-73476190D01*
X128905771Y-73476190D02*
X128953390Y-73380952D01*
X128953390Y-73380952D02*
X129001009Y-73333333D01*
X129001009Y-73333333D02*
X129096247Y-73285714D01*
X129096247Y-73285714D02*
X129334342Y-73285714D01*
X129334342Y-73285714D02*
X129429580Y-73333333D01*
X129429580Y-73333333D02*
X129477200Y-73380952D01*
X129477200Y-73380952D02*
X129524819Y-73476190D01*
X129524819Y-73476190D02*
X129524819Y-73761904D01*
X129524819Y-73761904D02*
X129477200Y-73857142D01*
X129477200Y-73857142D02*
X129429580Y-73904761D01*
X130954819Y-48333333D02*
X131669104Y-48333333D01*
X131669104Y-48333333D02*
X131811961Y-48380952D01*
X131811961Y-48380952D02*
X131907200Y-48476190D01*
X131907200Y-48476190D02*
X131954819Y-48619047D01*
X131954819Y-48619047D02*
X131954819Y-48714285D01*
X131954819Y-47333333D02*
X131954819Y-47904761D01*
X131954819Y-47619047D02*
X130954819Y-47619047D01*
X130954819Y-47619047D02*
X131097676Y-47714285D01*
X131097676Y-47714285D02*
X131192914Y-47809523D01*
X131192914Y-47809523D02*
X131240533Y-47904761D01*
X117083333Y-58954819D02*
X116750000Y-58478628D01*
X116511905Y-58954819D02*
X116511905Y-57954819D01*
X116511905Y-57954819D02*
X116892857Y-57954819D01*
X116892857Y-57954819D02*
X116988095Y-58002438D01*
X116988095Y-58002438D02*
X117035714Y-58050057D01*
X117035714Y-58050057D02*
X117083333Y-58145295D01*
X117083333Y-58145295D02*
X117083333Y-58288152D01*
X117083333Y-58288152D02*
X117035714Y-58383390D01*
X117035714Y-58383390D02*
X116988095Y-58431009D01*
X116988095Y-58431009D02*
X116892857Y-58478628D01*
X116892857Y-58478628D02*
X116511905Y-58478628D01*
X117940476Y-57954819D02*
X117750000Y-57954819D01*
X117750000Y-57954819D02*
X117654762Y-58002438D01*
X117654762Y-58002438D02*
X117607143Y-58050057D01*
X117607143Y-58050057D02*
X117511905Y-58192914D01*
X117511905Y-58192914D02*
X117464286Y-58383390D01*
X117464286Y-58383390D02*
X117464286Y-58764342D01*
X117464286Y-58764342D02*
X117511905Y-58859580D01*
X117511905Y-58859580D02*
X117559524Y-58907200D01*
X117559524Y-58907200D02*
X117654762Y-58954819D01*
X117654762Y-58954819D02*
X117845238Y-58954819D01*
X117845238Y-58954819D02*
X117940476Y-58907200D01*
X117940476Y-58907200D02*
X117988095Y-58859580D01*
X117988095Y-58859580D02*
X118035714Y-58764342D01*
X118035714Y-58764342D02*
X118035714Y-58526247D01*
X118035714Y-58526247D02*
X117988095Y-58431009D01*
X117988095Y-58431009D02*
X117940476Y-58383390D01*
X117940476Y-58383390D02*
X117845238Y-58335771D01*
X117845238Y-58335771D02*
X117654762Y-58335771D01*
X117654762Y-58335771D02*
X117559524Y-58383390D01*
X117559524Y-58383390D02*
X117511905Y-58431009D01*
X117511905Y-58431009D02*
X117464286Y-58526247D01*
X117024819Y-83142857D02*
X116548628Y-83476190D01*
X117024819Y-83714285D02*
X116024819Y-83714285D01*
X116024819Y-83714285D02*
X116024819Y-83333333D01*
X116024819Y-83333333D02*
X116072438Y-83238095D01*
X116072438Y-83238095D02*
X116120057Y-83190476D01*
X116120057Y-83190476D02*
X116215295Y-83142857D01*
X116215295Y-83142857D02*
X116358152Y-83142857D01*
X116358152Y-83142857D02*
X116453390Y-83190476D01*
X116453390Y-83190476D02*
X116501009Y-83238095D01*
X116501009Y-83238095D02*
X116548628Y-83333333D01*
X116548628Y-83333333D02*
X116548628Y-83714285D01*
X117024819Y-82190476D02*
X117024819Y-82761904D01*
X117024819Y-82476190D02*
X116024819Y-82476190D01*
X116024819Y-82476190D02*
X116167676Y-82571428D01*
X116167676Y-82571428D02*
X116262914Y-82666666D01*
X116262914Y-82666666D02*
X116310533Y-82761904D01*
X116024819Y-81571428D02*
X116024819Y-81476190D01*
X116024819Y-81476190D02*
X116072438Y-81380952D01*
X116072438Y-81380952D02*
X116120057Y-81333333D01*
X116120057Y-81333333D02*
X116215295Y-81285714D01*
X116215295Y-81285714D02*
X116405771Y-81238095D01*
X116405771Y-81238095D02*
X116643866Y-81238095D01*
X116643866Y-81238095D02*
X116834342Y-81285714D01*
X116834342Y-81285714D02*
X116929580Y-81333333D01*
X116929580Y-81333333D02*
X116977200Y-81380952D01*
X116977200Y-81380952D02*
X117024819Y-81476190D01*
X117024819Y-81476190D02*
X117024819Y-81571428D01*
X117024819Y-81571428D02*
X116977200Y-81666666D01*
X116977200Y-81666666D02*
X116929580Y-81714285D01*
X116929580Y-81714285D02*
X116834342Y-81761904D01*
X116834342Y-81761904D02*
X116643866Y-81809523D01*
X116643866Y-81809523D02*
X116405771Y-81809523D01*
X116405771Y-81809523D02*
X116215295Y-81761904D01*
X116215295Y-81761904D02*
X116120057Y-81714285D01*
X116120057Y-81714285D02*
X116072438Y-81666666D01*
X116072438Y-81666666D02*
X116024819Y-81571428D01*
X96444819Y-76321904D02*
X97254342Y-76321904D01*
X97254342Y-76321904D02*
X97349580Y-76274285D01*
X97349580Y-76274285D02*
X97397200Y-76226666D01*
X97397200Y-76226666D02*
X97444819Y-76131428D01*
X97444819Y-76131428D02*
X97444819Y-75940952D01*
X97444819Y-75940952D02*
X97397200Y-75845714D01*
X97397200Y-75845714D02*
X97349580Y-75798095D01*
X97349580Y-75798095D02*
X97254342Y-75750476D01*
X97254342Y-75750476D02*
X96444819Y-75750476D01*
X96778152Y-74845714D02*
X97444819Y-74845714D01*
X96397200Y-75083809D02*
X97111485Y-75321904D01*
X97111485Y-75321904D02*
X97111485Y-74702857D01*
X113333333Y-41359580D02*
X113285714Y-41407200D01*
X113285714Y-41407200D02*
X113142857Y-41454819D01*
X113142857Y-41454819D02*
X113047619Y-41454819D01*
X113047619Y-41454819D02*
X112904762Y-41407200D01*
X112904762Y-41407200D02*
X112809524Y-41311961D01*
X112809524Y-41311961D02*
X112761905Y-41216723D01*
X112761905Y-41216723D02*
X112714286Y-41026247D01*
X112714286Y-41026247D02*
X112714286Y-40883390D01*
X112714286Y-40883390D02*
X112761905Y-40692914D01*
X112761905Y-40692914D02*
X112809524Y-40597676D01*
X112809524Y-40597676D02*
X112904762Y-40502438D01*
X112904762Y-40502438D02*
X113047619Y-40454819D01*
X113047619Y-40454819D02*
X113142857Y-40454819D01*
X113142857Y-40454819D02*
X113285714Y-40502438D01*
X113285714Y-40502438D02*
X113333333Y-40550057D01*
X114285714Y-41454819D02*
X113714286Y-41454819D01*
X114000000Y-41454819D02*
X114000000Y-40454819D01*
X114000000Y-40454819D02*
X113904762Y-40597676D01*
X113904762Y-40597676D02*
X113809524Y-40692914D01*
X113809524Y-40692914D02*
X113714286Y-40740533D01*
X117333333Y-55454819D02*
X117000000Y-54978628D01*
X116761905Y-55454819D02*
X116761905Y-54454819D01*
X116761905Y-54454819D02*
X117142857Y-54454819D01*
X117142857Y-54454819D02*
X117238095Y-54502438D01*
X117238095Y-54502438D02*
X117285714Y-54550057D01*
X117285714Y-54550057D02*
X117333333Y-54645295D01*
X117333333Y-54645295D02*
X117333333Y-54788152D01*
X117333333Y-54788152D02*
X117285714Y-54883390D01*
X117285714Y-54883390D02*
X117238095Y-54931009D01*
X117238095Y-54931009D02*
X117142857Y-54978628D01*
X117142857Y-54978628D02*
X116761905Y-54978628D01*
X117666667Y-54454819D02*
X118333333Y-54454819D01*
X118333333Y-54454819D02*
X117904762Y-55454819D01*
X122261905Y-43454819D02*
X122261905Y-42454819D01*
X122261905Y-42454819D02*
X122500000Y-42454819D01*
X122500000Y-42454819D02*
X122642857Y-42502438D01*
X122642857Y-42502438D02*
X122738095Y-42597676D01*
X122738095Y-42597676D02*
X122785714Y-42692914D01*
X122785714Y-42692914D02*
X122833333Y-42883390D01*
X122833333Y-42883390D02*
X122833333Y-43026247D01*
X122833333Y-43026247D02*
X122785714Y-43216723D01*
X122785714Y-43216723D02*
X122738095Y-43311961D01*
X122738095Y-43311961D02*
X122642857Y-43407200D01*
X122642857Y-43407200D02*
X122500000Y-43454819D01*
X122500000Y-43454819D02*
X122261905Y-43454819D01*
X123214286Y-42550057D02*
X123261905Y-42502438D01*
X123261905Y-42502438D02*
X123357143Y-42454819D01*
X123357143Y-42454819D02*
X123595238Y-42454819D01*
X123595238Y-42454819D02*
X123690476Y-42502438D01*
X123690476Y-42502438D02*
X123738095Y-42550057D01*
X123738095Y-42550057D02*
X123785714Y-42645295D01*
X123785714Y-42645295D02*
X123785714Y-42740533D01*
X123785714Y-42740533D02*
X123738095Y-42883390D01*
X123738095Y-42883390D02*
X123166667Y-43454819D01*
X123166667Y-43454819D02*
X123785714Y-43454819D01*
X125166666Y-41181009D02*
X124833333Y-41181009D01*
X124833333Y-41704819D02*
X124833333Y-40704819D01*
X124833333Y-40704819D02*
X125309523Y-40704819D01*
X126214285Y-41704819D02*
X125642857Y-41704819D01*
X125928571Y-41704819D02*
X125928571Y-40704819D01*
X125928571Y-40704819D02*
X125833333Y-40847676D01*
X125833333Y-40847676D02*
X125738095Y-40942914D01*
X125738095Y-40942914D02*
X125642857Y-40990533D01*
X107333333Y-49204819D02*
X107000000Y-48728628D01*
X106761905Y-49204819D02*
X106761905Y-48204819D01*
X106761905Y-48204819D02*
X107142857Y-48204819D01*
X107142857Y-48204819D02*
X107238095Y-48252438D01*
X107238095Y-48252438D02*
X107285714Y-48300057D01*
X107285714Y-48300057D02*
X107333333Y-48395295D01*
X107333333Y-48395295D02*
X107333333Y-48538152D01*
X107333333Y-48538152D02*
X107285714Y-48633390D01*
X107285714Y-48633390D02*
X107238095Y-48681009D01*
X107238095Y-48681009D02*
X107142857Y-48728628D01*
X107142857Y-48728628D02*
X106761905Y-48728628D01*
X108285714Y-49204819D02*
X107714286Y-49204819D01*
X108000000Y-49204819D02*
X108000000Y-48204819D01*
X108000000Y-48204819D02*
X107904762Y-48347676D01*
X107904762Y-48347676D02*
X107809524Y-48442914D01*
X107809524Y-48442914D02*
X107714286Y-48490533D01*
X117857142Y-89204819D02*
X117523809Y-88728628D01*
X117285714Y-89204819D02*
X117285714Y-88204819D01*
X117285714Y-88204819D02*
X117666666Y-88204819D01*
X117666666Y-88204819D02*
X117761904Y-88252438D01*
X117761904Y-88252438D02*
X117809523Y-88300057D01*
X117809523Y-88300057D02*
X117857142Y-88395295D01*
X117857142Y-88395295D02*
X117857142Y-88538152D01*
X117857142Y-88538152D02*
X117809523Y-88633390D01*
X117809523Y-88633390D02*
X117761904Y-88681009D01*
X117761904Y-88681009D02*
X117666666Y-88728628D01*
X117666666Y-88728628D02*
X117285714Y-88728628D01*
X118809523Y-89204819D02*
X118238095Y-89204819D01*
X118523809Y-89204819D02*
X118523809Y-88204819D01*
X118523809Y-88204819D02*
X118428571Y-88347676D01*
X118428571Y-88347676D02*
X118333333Y-88442914D01*
X118333333Y-88442914D02*
X118238095Y-88490533D01*
X119666666Y-88538152D02*
X119666666Y-89204819D01*
X119428571Y-88157200D02*
X119190476Y-88871485D01*
X119190476Y-88871485D02*
X119809523Y-88871485D01*
X111357142Y-84454819D02*
X111023809Y-83978628D01*
X110785714Y-84454819D02*
X110785714Y-83454819D01*
X110785714Y-83454819D02*
X111166666Y-83454819D01*
X111166666Y-83454819D02*
X111261904Y-83502438D01*
X111261904Y-83502438D02*
X111309523Y-83550057D01*
X111309523Y-83550057D02*
X111357142Y-83645295D01*
X111357142Y-83645295D02*
X111357142Y-83788152D01*
X111357142Y-83788152D02*
X111309523Y-83883390D01*
X111309523Y-83883390D02*
X111261904Y-83931009D01*
X111261904Y-83931009D02*
X111166666Y-83978628D01*
X111166666Y-83978628D02*
X110785714Y-83978628D01*
X112309523Y-84454819D02*
X111738095Y-84454819D01*
X112023809Y-84454819D02*
X112023809Y-83454819D01*
X112023809Y-83454819D02*
X111928571Y-83597676D01*
X111928571Y-83597676D02*
X111833333Y-83692914D01*
X111833333Y-83692914D02*
X111738095Y-83740533D01*
X113166666Y-83454819D02*
X112976190Y-83454819D01*
X112976190Y-83454819D02*
X112880952Y-83502438D01*
X112880952Y-83502438D02*
X112833333Y-83550057D01*
X112833333Y-83550057D02*
X112738095Y-83692914D01*
X112738095Y-83692914D02*
X112690476Y-83883390D01*
X112690476Y-83883390D02*
X112690476Y-84264342D01*
X112690476Y-84264342D02*
X112738095Y-84359580D01*
X112738095Y-84359580D02*
X112785714Y-84407200D01*
X112785714Y-84407200D02*
X112880952Y-84454819D01*
X112880952Y-84454819D02*
X113071428Y-84454819D01*
X113071428Y-84454819D02*
X113166666Y-84407200D01*
X113166666Y-84407200D02*
X113214285Y-84359580D01*
X113214285Y-84359580D02*
X113261904Y-84264342D01*
X113261904Y-84264342D02*
X113261904Y-84026247D01*
X113261904Y-84026247D02*
X113214285Y-83931009D01*
X113214285Y-83931009D02*
X113166666Y-83883390D01*
X113166666Y-83883390D02*
X113071428Y-83835771D01*
X113071428Y-83835771D02*
X112880952Y-83835771D01*
X112880952Y-83835771D02*
X112785714Y-83883390D01*
X112785714Y-83883390D02*
X112738095Y-83931009D01*
X112738095Y-83931009D02*
X112690476Y-84026247D01*
X120954819Y-53761904D02*
X121764342Y-53761904D01*
X121764342Y-53761904D02*
X121859580Y-53714285D01*
X121859580Y-53714285D02*
X121907200Y-53666666D01*
X121907200Y-53666666D02*
X121954819Y-53571428D01*
X121954819Y-53571428D02*
X121954819Y-53380952D01*
X121954819Y-53380952D02*
X121907200Y-53285714D01*
X121907200Y-53285714D02*
X121859580Y-53238095D01*
X121859580Y-53238095D02*
X121764342Y-53190476D01*
X121764342Y-53190476D02*
X120954819Y-53190476D01*
X121050057Y-52761904D02*
X121002438Y-52714285D01*
X121002438Y-52714285D02*
X120954819Y-52619047D01*
X120954819Y-52619047D02*
X120954819Y-52380952D01*
X120954819Y-52380952D02*
X121002438Y-52285714D01*
X121002438Y-52285714D02*
X121050057Y-52238095D01*
X121050057Y-52238095D02*
X121145295Y-52190476D01*
X121145295Y-52190476D02*
X121240533Y-52190476D01*
X121240533Y-52190476D02*
X121383390Y-52238095D01*
X121383390Y-52238095D02*
X121954819Y-52809523D01*
X121954819Y-52809523D02*
X121954819Y-52190476D01*
X108357142Y-82204819D02*
X108023809Y-81728628D01*
X107785714Y-82204819D02*
X107785714Y-81204819D01*
X107785714Y-81204819D02*
X108166666Y-81204819D01*
X108166666Y-81204819D02*
X108261904Y-81252438D01*
X108261904Y-81252438D02*
X108309523Y-81300057D01*
X108309523Y-81300057D02*
X108357142Y-81395295D01*
X108357142Y-81395295D02*
X108357142Y-81538152D01*
X108357142Y-81538152D02*
X108309523Y-81633390D01*
X108309523Y-81633390D02*
X108261904Y-81681009D01*
X108261904Y-81681009D02*
X108166666Y-81728628D01*
X108166666Y-81728628D02*
X107785714Y-81728628D01*
X109309523Y-82204819D02*
X108738095Y-82204819D01*
X109023809Y-82204819D02*
X109023809Y-81204819D01*
X109023809Y-81204819D02*
X108928571Y-81347676D01*
X108928571Y-81347676D02*
X108833333Y-81442914D01*
X108833333Y-81442914D02*
X108738095Y-81490533D01*
X110214285Y-81204819D02*
X109738095Y-81204819D01*
X109738095Y-81204819D02*
X109690476Y-81681009D01*
X109690476Y-81681009D02*
X109738095Y-81633390D01*
X109738095Y-81633390D02*
X109833333Y-81585771D01*
X109833333Y-81585771D02*
X110071428Y-81585771D01*
X110071428Y-81585771D02*
X110166666Y-81633390D01*
X110166666Y-81633390D02*
X110214285Y-81681009D01*
X110214285Y-81681009D02*
X110261904Y-81776247D01*
X110261904Y-81776247D02*
X110261904Y-82014342D01*
X110261904Y-82014342D02*
X110214285Y-82109580D01*
X110214285Y-82109580D02*
X110166666Y-82157200D01*
X110166666Y-82157200D02*
X110071428Y-82204819D01*
X110071428Y-82204819D02*
X109833333Y-82204819D01*
X109833333Y-82204819D02*
X109738095Y-82157200D01*
X109738095Y-82157200D02*
X109690476Y-82109580D01*
X107954819Y-50666666D02*
X107478628Y-50999999D01*
X107954819Y-51238094D02*
X106954819Y-51238094D01*
X106954819Y-51238094D02*
X106954819Y-50857142D01*
X106954819Y-50857142D02*
X107002438Y-50761904D01*
X107002438Y-50761904D02*
X107050057Y-50714285D01*
X107050057Y-50714285D02*
X107145295Y-50666666D01*
X107145295Y-50666666D02*
X107288152Y-50666666D01*
X107288152Y-50666666D02*
X107383390Y-50714285D01*
X107383390Y-50714285D02*
X107431009Y-50761904D01*
X107431009Y-50761904D02*
X107478628Y-50857142D01*
X107478628Y-50857142D02*
X107478628Y-51238094D01*
X106954819Y-50333332D02*
X106954819Y-49714285D01*
X106954819Y-49714285D02*
X107335771Y-50047618D01*
X107335771Y-50047618D02*
X107335771Y-49904761D01*
X107335771Y-49904761D02*
X107383390Y-49809523D01*
X107383390Y-49809523D02*
X107431009Y-49761904D01*
X107431009Y-49761904D02*
X107526247Y-49714285D01*
X107526247Y-49714285D02*
X107764342Y-49714285D01*
X107764342Y-49714285D02*
X107859580Y-49761904D01*
X107859580Y-49761904D02*
X107907200Y-49809523D01*
X107907200Y-49809523D02*
X107954819Y-49904761D01*
X107954819Y-49904761D02*
X107954819Y-50190475D01*
X107954819Y-50190475D02*
X107907200Y-50285713D01*
X107907200Y-50285713D02*
X107859580Y-50333332D01*
X117024819Y-64666666D02*
X116548628Y-64999999D01*
X117024819Y-65238094D02*
X116024819Y-65238094D01*
X116024819Y-65238094D02*
X116024819Y-64857142D01*
X116024819Y-64857142D02*
X116072438Y-64761904D01*
X116072438Y-64761904D02*
X116120057Y-64714285D01*
X116120057Y-64714285D02*
X116215295Y-64666666D01*
X116215295Y-64666666D02*
X116358152Y-64666666D01*
X116358152Y-64666666D02*
X116453390Y-64714285D01*
X116453390Y-64714285D02*
X116501009Y-64761904D01*
X116501009Y-64761904D02*
X116548628Y-64857142D01*
X116548628Y-64857142D02*
X116548628Y-65238094D01*
X116024819Y-63761904D02*
X116024819Y-64238094D01*
X116024819Y-64238094D02*
X116501009Y-64285713D01*
X116501009Y-64285713D02*
X116453390Y-64238094D01*
X116453390Y-64238094D02*
X116405771Y-64142856D01*
X116405771Y-64142856D02*
X116405771Y-63904761D01*
X116405771Y-63904761D02*
X116453390Y-63809523D01*
X116453390Y-63809523D02*
X116501009Y-63761904D01*
X116501009Y-63761904D02*
X116596247Y-63714285D01*
X116596247Y-63714285D02*
X116834342Y-63714285D01*
X116834342Y-63714285D02*
X116929580Y-63761904D01*
X116929580Y-63761904D02*
X116977200Y-63809523D01*
X116977200Y-63809523D02*
X117024819Y-63904761D01*
X117024819Y-63904761D02*
X117024819Y-64142856D01*
X117024819Y-64142856D02*
X116977200Y-64238094D01*
X116977200Y-64238094D02*
X116929580Y-64285713D01*
X130550057Y-86595238D02*
X130502438Y-86690476D01*
X130502438Y-86690476D02*
X130407200Y-86785714D01*
X130407200Y-86785714D02*
X130264342Y-86928571D01*
X130264342Y-86928571D02*
X130216723Y-87023809D01*
X130216723Y-87023809D02*
X130216723Y-87119047D01*
X130454819Y-87071428D02*
X130407200Y-87166666D01*
X130407200Y-87166666D02*
X130311961Y-87261904D01*
X130311961Y-87261904D02*
X130121485Y-87309523D01*
X130121485Y-87309523D02*
X129788152Y-87309523D01*
X129788152Y-87309523D02*
X129597676Y-87261904D01*
X129597676Y-87261904D02*
X129502438Y-87166666D01*
X129502438Y-87166666D02*
X129454819Y-87071428D01*
X129454819Y-87071428D02*
X129454819Y-86880952D01*
X129454819Y-86880952D02*
X129502438Y-86785714D01*
X129502438Y-86785714D02*
X129597676Y-86690476D01*
X129597676Y-86690476D02*
X129788152Y-86642857D01*
X129788152Y-86642857D02*
X130121485Y-86642857D01*
X130121485Y-86642857D02*
X130311961Y-86690476D01*
X130311961Y-86690476D02*
X130407200Y-86785714D01*
X130407200Y-86785714D02*
X130454819Y-86880952D01*
X130454819Y-86880952D02*
X130454819Y-87071428D01*
X129550057Y-86261904D02*
X129502438Y-86214285D01*
X129502438Y-86214285D02*
X129454819Y-86119047D01*
X129454819Y-86119047D02*
X129454819Y-85880952D01*
X129454819Y-85880952D02*
X129502438Y-85785714D01*
X129502438Y-85785714D02*
X129550057Y-85738095D01*
X129550057Y-85738095D02*
X129645295Y-85690476D01*
X129645295Y-85690476D02*
X129740533Y-85690476D01*
X129740533Y-85690476D02*
X129883390Y-85738095D01*
X129883390Y-85738095D02*
X130454819Y-86309523D01*
X130454819Y-86309523D02*
X130454819Y-85690476D01*
X109954819Y-50666666D02*
X109478628Y-50999999D01*
X109954819Y-51238094D02*
X108954819Y-51238094D01*
X108954819Y-51238094D02*
X108954819Y-50857142D01*
X108954819Y-50857142D02*
X109002438Y-50761904D01*
X109002438Y-50761904D02*
X109050057Y-50714285D01*
X109050057Y-50714285D02*
X109145295Y-50666666D01*
X109145295Y-50666666D02*
X109288152Y-50666666D01*
X109288152Y-50666666D02*
X109383390Y-50714285D01*
X109383390Y-50714285D02*
X109431009Y-50761904D01*
X109431009Y-50761904D02*
X109478628Y-50857142D01*
X109478628Y-50857142D02*
X109478628Y-51238094D01*
X109050057Y-50285713D02*
X109002438Y-50238094D01*
X109002438Y-50238094D02*
X108954819Y-50142856D01*
X108954819Y-50142856D02*
X108954819Y-49904761D01*
X108954819Y-49904761D02*
X109002438Y-49809523D01*
X109002438Y-49809523D02*
X109050057Y-49761904D01*
X109050057Y-49761904D02*
X109145295Y-49714285D01*
X109145295Y-49714285D02*
X109240533Y-49714285D01*
X109240533Y-49714285D02*
X109383390Y-49761904D01*
X109383390Y-49761904D02*
X109954819Y-50333332D01*
X109954819Y-50333332D02*
X109954819Y-49714285D01*
X101666667Y-41907200D02*
X101809524Y-41954819D01*
X101809524Y-41954819D02*
X102047619Y-41954819D01*
X102047619Y-41954819D02*
X102142857Y-41907200D01*
X102142857Y-41907200D02*
X102190476Y-41859580D01*
X102190476Y-41859580D02*
X102238095Y-41764342D01*
X102238095Y-41764342D02*
X102238095Y-41669104D01*
X102238095Y-41669104D02*
X102190476Y-41573866D01*
X102190476Y-41573866D02*
X102142857Y-41526247D01*
X102142857Y-41526247D02*
X102047619Y-41478628D01*
X102047619Y-41478628D02*
X101857143Y-41431009D01*
X101857143Y-41431009D02*
X101761905Y-41383390D01*
X101761905Y-41383390D02*
X101714286Y-41335771D01*
X101714286Y-41335771D02*
X101666667Y-41240533D01*
X101666667Y-41240533D02*
X101666667Y-41145295D01*
X101666667Y-41145295D02*
X101714286Y-41050057D01*
X101714286Y-41050057D02*
X101761905Y-41002438D01*
X101761905Y-41002438D02*
X101857143Y-40954819D01*
X101857143Y-40954819D02*
X102095238Y-40954819D01*
X102095238Y-40954819D02*
X102238095Y-41002438D01*
X102571429Y-40954819D02*
X102809524Y-41954819D01*
X102809524Y-41954819D02*
X103000000Y-41240533D01*
X103000000Y-41240533D02*
X103190476Y-41954819D01*
X103190476Y-41954819D02*
X103428572Y-40954819D01*
X104333333Y-41954819D02*
X103761905Y-41954819D01*
X104047619Y-41954819D02*
X104047619Y-40954819D01*
X104047619Y-40954819D02*
X103952381Y-41097676D01*
X103952381Y-41097676D02*
X103857143Y-41192914D01*
X103857143Y-41192914D02*
X103761905Y-41240533D01*
X96954819Y-88833333D02*
X97669104Y-88833333D01*
X97669104Y-88833333D02*
X97811961Y-88880952D01*
X97811961Y-88880952D02*
X97907200Y-88976190D01*
X97907200Y-88976190D02*
X97954819Y-89119047D01*
X97954819Y-89119047D02*
X97954819Y-89214285D01*
X97050057Y-88404761D02*
X97002438Y-88357142D01*
X97002438Y-88357142D02*
X96954819Y-88261904D01*
X96954819Y-88261904D02*
X96954819Y-88023809D01*
X96954819Y-88023809D02*
X97002438Y-87928571D01*
X97002438Y-87928571D02*
X97050057Y-87880952D01*
X97050057Y-87880952D02*
X97145295Y-87833333D01*
X97145295Y-87833333D02*
X97240533Y-87833333D01*
X97240533Y-87833333D02*
X97383390Y-87880952D01*
X97383390Y-87880952D02*
X97954819Y-88452380D01*
X97954819Y-88452380D02*
X97954819Y-87833333D01*
X121083333Y-51109580D02*
X121035714Y-51157200D01*
X121035714Y-51157200D02*
X120892857Y-51204819D01*
X120892857Y-51204819D02*
X120797619Y-51204819D01*
X120797619Y-51204819D02*
X120654762Y-51157200D01*
X120654762Y-51157200D02*
X120559524Y-51061961D01*
X120559524Y-51061961D02*
X120511905Y-50966723D01*
X120511905Y-50966723D02*
X120464286Y-50776247D01*
X120464286Y-50776247D02*
X120464286Y-50633390D01*
X120464286Y-50633390D02*
X120511905Y-50442914D01*
X120511905Y-50442914D02*
X120559524Y-50347676D01*
X120559524Y-50347676D02*
X120654762Y-50252438D01*
X120654762Y-50252438D02*
X120797619Y-50204819D01*
X120797619Y-50204819D02*
X120892857Y-50204819D01*
X120892857Y-50204819D02*
X121035714Y-50252438D01*
X121035714Y-50252438D02*
X121083333Y-50300057D01*
X121416667Y-50204819D02*
X122035714Y-50204819D01*
X122035714Y-50204819D02*
X121702381Y-50585771D01*
X121702381Y-50585771D02*
X121845238Y-50585771D01*
X121845238Y-50585771D02*
X121940476Y-50633390D01*
X121940476Y-50633390D02*
X121988095Y-50681009D01*
X121988095Y-50681009D02*
X122035714Y-50776247D01*
X122035714Y-50776247D02*
X122035714Y-51014342D01*
X122035714Y-51014342D02*
X121988095Y-51109580D01*
X121988095Y-51109580D02*
X121940476Y-51157200D01*
X121940476Y-51157200D02*
X121845238Y-51204819D01*
X121845238Y-51204819D02*
X121559524Y-51204819D01*
X121559524Y-51204819D02*
X121464286Y-51157200D01*
X121464286Y-51157200D02*
X121416667Y-51109580D01*
X114833333Y-52859580D02*
X114785714Y-52907200D01*
X114785714Y-52907200D02*
X114642857Y-52954819D01*
X114642857Y-52954819D02*
X114547619Y-52954819D01*
X114547619Y-52954819D02*
X114404762Y-52907200D01*
X114404762Y-52907200D02*
X114309524Y-52811961D01*
X114309524Y-52811961D02*
X114261905Y-52716723D01*
X114261905Y-52716723D02*
X114214286Y-52526247D01*
X114214286Y-52526247D02*
X114214286Y-52383390D01*
X114214286Y-52383390D02*
X114261905Y-52192914D01*
X114261905Y-52192914D02*
X114309524Y-52097676D01*
X114309524Y-52097676D02*
X114404762Y-52002438D01*
X114404762Y-52002438D02*
X114547619Y-51954819D01*
X114547619Y-51954819D02*
X114642857Y-51954819D01*
X114642857Y-51954819D02*
X114785714Y-52002438D01*
X114785714Y-52002438D02*
X114833333Y-52050057D01*
X115690476Y-52288152D02*
X115690476Y-52954819D01*
X115452381Y-51907200D02*
X115214286Y-52621485D01*
X115214286Y-52621485D02*
X115833333Y-52621485D01*
X124954819Y-87142857D02*
X124478628Y-87476190D01*
X124954819Y-87714285D02*
X123954819Y-87714285D01*
X123954819Y-87714285D02*
X123954819Y-87333333D01*
X123954819Y-87333333D02*
X124002438Y-87238095D01*
X124002438Y-87238095D02*
X124050057Y-87190476D01*
X124050057Y-87190476D02*
X124145295Y-87142857D01*
X124145295Y-87142857D02*
X124288152Y-87142857D01*
X124288152Y-87142857D02*
X124383390Y-87190476D01*
X124383390Y-87190476D02*
X124431009Y-87238095D01*
X124431009Y-87238095D02*
X124478628Y-87333333D01*
X124478628Y-87333333D02*
X124478628Y-87714285D01*
X124954819Y-86190476D02*
X124954819Y-86761904D01*
X124954819Y-86476190D02*
X123954819Y-86476190D01*
X123954819Y-86476190D02*
X124097676Y-86571428D01*
X124097676Y-86571428D02*
X124192914Y-86666666D01*
X124192914Y-86666666D02*
X124240533Y-86761904D01*
X123954819Y-85857142D02*
X123954819Y-85238095D01*
X123954819Y-85238095D02*
X124335771Y-85571428D01*
X124335771Y-85571428D02*
X124335771Y-85428571D01*
X124335771Y-85428571D02*
X124383390Y-85333333D01*
X124383390Y-85333333D02*
X124431009Y-85285714D01*
X124431009Y-85285714D02*
X124526247Y-85238095D01*
X124526247Y-85238095D02*
X124764342Y-85238095D01*
X124764342Y-85238095D02*
X124859580Y-85285714D01*
X124859580Y-85285714D02*
X124907200Y-85333333D01*
X124907200Y-85333333D02*
X124954819Y-85428571D01*
X124954819Y-85428571D02*
X124954819Y-85714285D01*
X124954819Y-85714285D02*
X124907200Y-85809523D01*
X124907200Y-85809523D02*
X124859580Y-85857142D01*
X129454819Y-58738094D02*
X128454819Y-58738094D01*
X128454819Y-58738094D02*
X128454819Y-58499999D01*
X128454819Y-58499999D02*
X128502438Y-58357142D01*
X128502438Y-58357142D02*
X128597676Y-58261904D01*
X128597676Y-58261904D02*
X128692914Y-58214285D01*
X128692914Y-58214285D02*
X128883390Y-58166666D01*
X128883390Y-58166666D02*
X129026247Y-58166666D01*
X129026247Y-58166666D02*
X129216723Y-58214285D01*
X129216723Y-58214285D02*
X129311961Y-58261904D01*
X129311961Y-58261904D02*
X129407200Y-58357142D01*
X129407200Y-58357142D02*
X129454819Y-58499999D01*
X129454819Y-58499999D02*
X129454819Y-58738094D01*
X128454819Y-57833332D02*
X128454819Y-57214285D01*
X128454819Y-57214285D02*
X128835771Y-57547618D01*
X128835771Y-57547618D02*
X128835771Y-57404761D01*
X128835771Y-57404761D02*
X128883390Y-57309523D01*
X128883390Y-57309523D02*
X128931009Y-57261904D01*
X128931009Y-57261904D02*
X129026247Y-57214285D01*
X129026247Y-57214285D02*
X129264342Y-57214285D01*
X129264342Y-57214285D02*
X129359580Y-57261904D01*
X129359580Y-57261904D02*
X129407200Y-57309523D01*
X129407200Y-57309523D02*
X129454819Y-57404761D01*
X129454819Y-57404761D02*
X129454819Y-57690475D01*
X129454819Y-57690475D02*
X129407200Y-57785713D01*
X129407200Y-57785713D02*
X129359580Y-57833332D01*
X125400057Y-68595238D02*
X125352438Y-68690476D01*
X125352438Y-68690476D02*
X125257200Y-68785714D01*
X125257200Y-68785714D02*
X125114342Y-68928571D01*
X125114342Y-68928571D02*
X125066723Y-69023809D01*
X125066723Y-69023809D02*
X125066723Y-69119047D01*
X125304819Y-69071428D02*
X125257200Y-69166666D01*
X125257200Y-69166666D02*
X125161961Y-69261904D01*
X125161961Y-69261904D02*
X124971485Y-69309523D01*
X124971485Y-69309523D02*
X124638152Y-69309523D01*
X124638152Y-69309523D02*
X124447676Y-69261904D01*
X124447676Y-69261904D02*
X124352438Y-69166666D01*
X124352438Y-69166666D02*
X124304819Y-69071428D01*
X124304819Y-69071428D02*
X124304819Y-68880952D01*
X124304819Y-68880952D02*
X124352438Y-68785714D01*
X124352438Y-68785714D02*
X124447676Y-68690476D01*
X124447676Y-68690476D02*
X124638152Y-68642857D01*
X124638152Y-68642857D02*
X124971485Y-68642857D01*
X124971485Y-68642857D02*
X125161961Y-68690476D01*
X125161961Y-68690476D02*
X125257200Y-68785714D01*
X125257200Y-68785714D02*
X125304819Y-68880952D01*
X125304819Y-68880952D02*
X125304819Y-69071428D01*
X125304819Y-67690476D02*
X125304819Y-68261904D01*
X125304819Y-67976190D02*
X124304819Y-67976190D01*
X124304819Y-67976190D02*
X124447676Y-68071428D01*
X124447676Y-68071428D02*
X124542914Y-68166666D01*
X124542914Y-68166666D02*
X124590533Y-68261904D01*
X124511905Y-44204819D02*
X124511905Y-43204819D01*
X124511905Y-43204819D02*
X124750000Y-43204819D01*
X124750000Y-43204819D02*
X124892857Y-43252438D01*
X124892857Y-43252438D02*
X124988095Y-43347676D01*
X124988095Y-43347676D02*
X125035714Y-43442914D01*
X125035714Y-43442914D02*
X125083333Y-43633390D01*
X125083333Y-43633390D02*
X125083333Y-43776247D01*
X125083333Y-43776247D02*
X125035714Y-43966723D01*
X125035714Y-43966723D02*
X124988095Y-44061961D01*
X124988095Y-44061961D02*
X124892857Y-44157200D01*
X124892857Y-44157200D02*
X124750000Y-44204819D01*
X124750000Y-44204819D02*
X124511905Y-44204819D01*
X126035714Y-44204819D02*
X125464286Y-44204819D01*
X125750000Y-44204819D02*
X125750000Y-43204819D01*
X125750000Y-43204819D02*
X125654762Y-43347676D01*
X125654762Y-43347676D02*
X125559524Y-43442914D01*
X125559524Y-43442914D02*
X125464286Y-43490533D01*
X107833333Y-78859580D02*
X107785714Y-78907200D01*
X107785714Y-78907200D02*
X107642857Y-78954819D01*
X107642857Y-78954819D02*
X107547619Y-78954819D01*
X107547619Y-78954819D02*
X107404762Y-78907200D01*
X107404762Y-78907200D02*
X107309524Y-78811961D01*
X107309524Y-78811961D02*
X107261905Y-78716723D01*
X107261905Y-78716723D02*
X107214286Y-78526247D01*
X107214286Y-78526247D02*
X107214286Y-78383390D01*
X107214286Y-78383390D02*
X107261905Y-78192914D01*
X107261905Y-78192914D02*
X107309524Y-78097676D01*
X107309524Y-78097676D02*
X107404762Y-78002438D01*
X107404762Y-78002438D02*
X107547619Y-77954819D01*
X107547619Y-77954819D02*
X107642857Y-77954819D01*
X107642857Y-77954819D02*
X107785714Y-78002438D01*
X107785714Y-78002438D02*
X107833333Y-78050057D01*
X108690476Y-77954819D02*
X108500000Y-77954819D01*
X108500000Y-77954819D02*
X108404762Y-78002438D01*
X108404762Y-78002438D02*
X108357143Y-78050057D01*
X108357143Y-78050057D02*
X108261905Y-78192914D01*
X108261905Y-78192914D02*
X108214286Y-78383390D01*
X108214286Y-78383390D02*
X108214286Y-78764342D01*
X108214286Y-78764342D02*
X108261905Y-78859580D01*
X108261905Y-78859580D02*
X108309524Y-78907200D01*
X108309524Y-78907200D02*
X108404762Y-78954819D01*
X108404762Y-78954819D02*
X108595238Y-78954819D01*
X108595238Y-78954819D02*
X108690476Y-78907200D01*
X108690476Y-78907200D02*
X108738095Y-78859580D01*
X108738095Y-78859580D02*
X108785714Y-78764342D01*
X108785714Y-78764342D02*
X108785714Y-78526247D01*
X108785714Y-78526247D02*
X108738095Y-78431009D01*
X108738095Y-78431009D02*
X108690476Y-78383390D01*
X108690476Y-78383390D02*
X108595238Y-78335771D01*
X108595238Y-78335771D02*
X108404762Y-78335771D01*
X108404762Y-78335771D02*
X108309524Y-78383390D01*
X108309524Y-78383390D02*
X108261905Y-78431009D01*
X108261905Y-78431009D02*
X108214286Y-78526247D01*
X123583333Y-52109580D02*
X123535714Y-52157200D01*
X123535714Y-52157200D02*
X123392857Y-52204819D01*
X123392857Y-52204819D02*
X123297619Y-52204819D01*
X123297619Y-52204819D02*
X123154762Y-52157200D01*
X123154762Y-52157200D02*
X123059524Y-52061961D01*
X123059524Y-52061961D02*
X123011905Y-51966723D01*
X123011905Y-51966723D02*
X122964286Y-51776247D01*
X122964286Y-51776247D02*
X122964286Y-51633390D01*
X122964286Y-51633390D02*
X123011905Y-51442914D01*
X123011905Y-51442914D02*
X123059524Y-51347676D01*
X123059524Y-51347676D02*
X123154762Y-51252438D01*
X123154762Y-51252438D02*
X123297619Y-51204819D01*
X123297619Y-51204819D02*
X123392857Y-51204819D01*
X123392857Y-51204819D02*
X123535714Y-51252438D01*
X123535714Y-51252438D02*
X123583333Y-51300057D01*
X123964286Y-51300057D02*
X124011905Y-51252438D01*
X124011905Y-51252438D02*
X124107143Y-51204819D01*
X124107143Y-51204819D02*
X124345238Y-51204819D01*
X124345238Y-51204819D02*
X124440476Y-51252438D01*
X124440476Y-51252438D02*
X124488095Y-51300057D01*
X124488095Y-51300057D02*
X124535714Y-51395295D01*
X124535714Y-51395295D02*
X124535714Y-51490533D01*
X124535714Y-51490533D02*
X124488095Y-51633390D01*
X124488095Y-51633390D02*
X123916667Y-52204819D01*
X123916667Y-52204819D02*
X124535714Y-52204819D01*
X115857142Y-79884819D02*
X115523809Y-79408628D01*
X115285714Y-79884819D02*
X115285714Y-78884819D01*
X115285714Y-78884819D02*
X115666666Y-78884819D01*
X115666666Y-78884819D02*
X115761904Y-78932438D01*
X115761904Y-78932438D02*
X115809523Y-78980057D01*
X115809523Y-78980057D02*
X115857142Y-79075295D01*
X115857142Y-79075295D02*
X115857142Y-79218152D01*
X115857142Y-79218152D02*
X115809523Y-79313390D01*
X115809523Y-79313390D02*
X115761904Y-79361009D01*
X115761904Y-79361009D02*
X115666666Y-79408628D01*
X115666666Y-79408628D02*
X115285714Y-79408628D01*
X116809523Y-79884819D02*
X116238095Y-79884819D01*
X116523809Y-79884819D02*
X116523809Y-78884819D01*
X116523809Y-78884819D02*
X116428571Y-79027676D01*
X116428571Y-79027676D02*
X116333333Y-79122914D01*
X116333333Y-79122914D02*
X116238095Y-79170533D01*
X117190476Y-78980057D02*
X117238095Y-78932438D01*
X117238095Y-78932438D02*
X117333333Y-78884819D01*
X117333333Y-78884819D02*
X117571428Y-78884819D01*
X117571428Y-78884819D02*
X117666666Y-78932438D01*
X117666666Y-78932438D02*
X117714285Y-78980057D01*
X117714285Y-78980057D02*
X117761904Y-79075295D01*
X117761904Y-79075295D02*
X117761904Y-79170533D01*
X117761904Y-79170533D02*
X117714285Y-79313390D01*
X117714285Y-79313390D02*
X117142857Y-79884819D01*
X117142857Y-79884819D02*
X117761904Y-79884819D01*
X129001009Y-56333333D02*
X129001009Y-56666666D01*
X129524819Y-56666666D02*
X128524819Y-56666666D01*
X128524819Y-56666666D02*
X128524819Y-56190476D01*
X128620057Y-55857142D02*
X128572438Y-55809523D01*
X128572438Y-55809523D02*
X128524819Y-55714285D01*
X128524819Y-55714285D02*
X128524819Y-55476190D01*
X128524819Y-55476190D02*
X128572438Y-55380952D01*
X128572438Y-55380952D02*
X128620057Y-55333333D01*
X128620057Y-55333333D02*
X128715295Y-55285714D01*
X128715295Y-55285714D02*
X128810533Y-55285714D01*
X128810533Y-55285714D02*
X128953390Y-55333333D01*
X128953390Y-55333333D02*
X129524819Y-55904761D01*
X129524819Y-55904761D02*
X129524819Y-55285714D01*
X110454819Y-55142857D02*
X109978628Y-55476190D01*
X110454819Y-55714285D02*
X109454819Y-55714285D01*
X109454819Y-55714285D02*
X109454819Y-55333333D01*
X109454819Y-55333333D02*
X109502438Y-55238095D01*
X109502438Y-55238095D02*
X109550057Y-55190476D01*
X109550057Y-55190476D02*
X109645295Y-55142857D01*
X109645295Y-55142857D02*
X109788152Y-55142857D01*
X109788152Y-55142857D02*
X109883390Y-55190476D01*
X109883390Y-55190476D02*
X109931009Y-55238095D01*
X109931009Y-55238095D02*
X109978628Y-55333333D01*
X109978628Y-55333333D02*
X109978628Y-55714285D01*
X110454819Y-54190476D02*
X110454819Y-54761904D01*
X110454819Y-54476190D02*
X109454819Y-54476190D01*
X109454819Y-54476190D02*
X109597676Y-54571428D01*
X109597676Y-54571428D02*
X109692914Y-54666666D01*
X109692914Y-54666666D02*
X109740533Y-54761904D01*
X109883390Y-53619047D02*
X109835771Y-53714285D01*
X109835771Y-53714285D02*
X109788152Y-53761904D01*
X109788152Y-53761904D02*
X109692914Y-53809523D01*
X109692914Y-53809523D02*
X109645295Y-53809523D01*
X109645295Y-53809523D02*
X109550057Y-53761904D01*
X109550057Y-53761904D02*
X109502438Y-53714285D01*
X109502438Y-53714285D02*
X109454819Y-53619047D01*
X109454819Y-53619047D02*
X109454819Y-53428571D01*
X109454819Y-53428571D02*
X109502438Y-53333333D01*
X109502438Y-53333333D02*
X109550057Y-53285714D01*
X109550057Y-53285714D02*
X109645295Y-53238095D01*
X109645295Y-53238095D02*
X109692914Y-53238095D01*
X109692914Y-53238095D02*
X109788152Y-53285714D01*
X109788152Y-53285714D02*
X109835771Y-53333333D01*
X109835771Y-53333333D02*
X109883390Y-53428571D01*
X109883390Y-53428571D02*
X109883390Y-53619047D01*
X109883390Y-53619047D02*
X109931009Y-53714285D01*
X109931009Y-53714285D02*
X109978628Y-53761904D01*
X109978628Y-53761904D02*
X110073866Y-53809523D01*
X110073866Y-53809523D02*
X110264342Y-53809523D01*
X110264342Y-53809523D02*
X110359580Y-53761904D01*
X110359580Y-53761904D02*
X110407200Y-53714285D01*
X110407200Y-53714285D02*
X110454819Y-53619047D01*
X110454819Y-53619047D02*
X110454819Y-53428571D01*
X110454819Y-53428571D02*
X110407200Y-53333333D01*
X110407200Y-53333333D02*
X110359580Y-53285714D01*
X110359580Y-53285714D02*
X110264342Y-53238095D01*
X110264342Y-53238095D02*
X110073866Y-53238095D01*
X110073866Y-53238095D02*
X109978628Y-53285714D01*
X109978628Y-53285714D02*
X109931009Y-53333333D01*
X109931009Y-53333333D02*
X109883390Y-53428571D01*
X116607142Y-76634819D02*
X116273809Y-76158628D01*
X116035714Y-76634819D02*
X116035714Y-75634819D01*
X116035714Y-75634819D02*
X116416666Y-75634819D01*
X116416666Y-75634819D02*
X116511904Y-75682438D01*
X116511904Y-75682438D02*
X116559523Y-75730057D01*
X116559523Y-75730057D02*
X116607142Y-75825295D01*
X116607142Y-75825295D02*
X116607142Y-75968152D01*
X116607142Y-75968152D02*
X116559523Y-76063390D01*
X116559523Y-76063390D02*
X116511904Y-76111009D01*
X116511904Y-76111009D02*
X116416666Y-76158628D01*
X116416666Y-76158628D02*
X116035714Y-76158628D01*
X117559523Y-76634819D02*
X116988095Y-76634819D01*
X117273809Y-76634819D02*
X117273809Y-75634819D01*
X117273809Y-75634819D02*
X117178571Y-75777676D01*
X117178571Y-75777676D02*
X117083333Y-75872914D01*
X117083333Y-75872914D02*
X116988095Y-75920533D01*
X118511904Y-76634819D02*
X117940476Y-76634819D01*
X118226190Y-76634819D02*
X118226190Y-75634819D01*
X118226190Y-75634819D02*
X118130952Y-75777676D01*
X118130952Y-75777676D02*
X118035714Y-75872914D01*
X118035714Y-75872914D02*
X117940476Y-75920533D01*
X103954819Y-50666666D02*
X103478628Y-50999999D01*
X103954819Y-51238094D02*
X102954819Y-51238094D01*
X102954819Y-51238094D02*
X102954819Y-50857142D01*
X102954819Y-50857142D02*
X103002438Y-50761904D01*
X103002438Y-50761904D02*
X103050057Y-50714285D01*
X103050057Y-50714285D02*
X103145295Y-50666666D01*
X103145295Y-50666666D02*
X103288152Y-50666666D01*
X103288152Y-50666666D02*
X103383390Y-50714285D01*
X103383390Y-50714285D02*
X103431009Y-50761904D01*
X103431009Y-50761904D02*
X103478628Y-50857142D01*
X103478628Y-50857142D02*
X103478628Y-51238094D01*
X103288152Y-49809523D02*
X103954819Y-49809523D01*
X102907200Y-50047618D02*
X103621485Y-50285713D01*
X103621485Y-50285713D02*
X103621485Y-49666666D01*
X107833333Y-76859580D02*
X107785714Y-76907200D01*
X107785714Y-76907200D02*
X107642857Y-76954819D01*
X107642857Y-76954819D02*
X107547619Y-76954819D01*
X107547619Y-76954819D02*
X107404762Y-76907200D01*
X107404762Y-76907200D02*
X107309524Y-76811961D01*
X107309524Y-76811961D02*
X107261905Y-76716723D01*
X107261905Y-76716723D02*
X107214286Y-76526247D01*
X107214286Y-76526247D02*
X107214286Y-76383390D01*
X107214286Y-76383390D02*
X107261905Y-76192914D01*
X107261905Y-76192914D02*
X107309524Y-76097676D01*
X107309524Y-76097676D02*
X107404762Y-76002438D01*
X107404762Y-76002438D02*
X107547619Y-75954819D01*
X107547619Y-75954819D02*
X107642857Y-75954819D01*
X107642857Y-75954819D02*
X107785714Y-76002438D01*
X107785714Y-76002438D02*
X107833333Y-76050057D01*
X108738095Y-75954819D02*
X108261905Y-75954819D01*
X108261905Y-75954819D02*
X108214286Y-76431009D01*
X108214286Y-76431009D02*
X108261905Y-76383390D01*
X108261905Y-76383390D02*
X108357143Y-76335771D01*
X108357143Y-76335771D02*
X108595238Y-76335771D01*
X108595238Y-76335771D02*
X108690476Y-76383390D01*
X108690476Y-76383390D02*
X108738095Y-76431009D01*
X108738095Y-76431009D02*
X108785714Y-76526247D01*
X108785714Y-76526247D02*
X108785714Y-76764342D01*
X108785714Y-76764342D02*
X108738095Y-76859580D01*
X108738095Y-76859580D02*
X108690476Y-76907200D01*
X108690476Y-76907200D02*
X108595238Y-76954819D01*
X108595238Y-76954819D02*
X108357143Y-76954819D01*
X108357143Y-76954819D02*
X108261905Y-76907200D01*
X108261905Y-76907200D02*
X108214286Y-76859580D01*
D12*
%TO.C,R20*%
X100262742Y-78477500D02*
X100737258Y-78477500D01*
X100262742Y-79522500D02*
X100737258Y-79522500D01*
%TO.C,R19*%
X101022500Y-83012742D02*
X101022500Y-83487258D01*
X99977500Y-83012742D02*
X99977500Y-83487258D01*
%TO.C,D4*%
X120015000Y-67015000D02*
X120015000Y-69300000D01*
X121485000Y-67015000D02*
X120015000Y-67015000D01*
X121485000Y-69300000D02*
X121485000Y-67015000D01*
%TO.C,R17*%
X101477500Y-53737258D02*
X101477500Y-53262742D01*
X102522500Y-53737258D02*
X102522500Y-53262742D01*
D11*
%TO.C,U1*%
X114175000Y-45675000D02*
X118325000Y-45675000D01*
X114175000Y-50825000D02*
X118325000Y-50825000D01*
D12*
X113750000Y-45750000D02*
X113510000Y-45420000D01*
X113990000Y-45420000D01*
X113750000Y-45750000D01*
G36*
X113750000Y-45750000D02*
G01*
X113510000Y-45420000D01*
X113990000Y-45420000D01*
X113750000Y-45750000D01*
G37*
%TO.C,R8*%
X122727500Y-68737258D02*
X122727500Y-68262742D01*
X123772500Y-68737258D02*
X123772500Y-68262742D01*
%TO.C,L1*%
X107490000Y-41490000D02*
X107490000Y-46010000D01*
X107490000Y-41490000D02*
X107640000Y-41490000D01*
X107490000Y-46010000D02*
X107640000Y-46010000D01*
X112010000Y-41490000D02*
X111860000Y-41490000D01*
X112010000Y-41490000D02*
X112010000Y-46010000D01*
X112010000Y-46010000D02*
X111860000Y-46010000D01*
%TO.C,D6*%
X120015000Y-85015000D02*
X120015000Y-87300000D01*
X121485000Y-85015000D02*
X120015000Y-85015000D01*
X121485000Y-87300000D02*
X121485000Y-85015000D01*
%TO.C,D5*%
X125600000Y-76990000D02*
X125600000Y-82500000D01*
X128900000Y-76990000D02*
X125600000Y-76990000D01*
X128900000Y-76990000D02*
X128900000Y-82500000D01*
%TO.C,U3*%
X119400000Y-74765000D02*
X119400000Y-77000000D01*
X119400000Y-79000000D02*
X119400000Y-81235000D01*
X119400000Y-81235000D02*
X124600000Y-81235000D01*
X124600000Y-74765000D02*
X119400000Y-74765000D01*
X124600000Y-81235000D02*
X124600000Y-74765000D01*
X119400000Y-77000000D02*
G75*
G02*
X119400000Y-79000000I0J-1000000D01*
G01*
%TO.C,R9*%
X117477500Y-68262742D02*
X117477500Y-68737258D01*
X118522500Y-68262742D02*
X118522500Y-68737258D01*
%TO.C,F3*%
X126340000Y-73397936D02*
X126340000Y-74602064D01*
X128160000Y-73397936D02*
X128160000Y-74602064D01*
%TO.C,J1*%
X130044000Y-49700000D02*
X139965000Y-49700000D01*
X130044000Y-80300000D02*
X130044000Y-49700000D01*
X130044000Y-80300000D02*
X139965000Y-80300000D01*
X133004000Y-80300000D02*
X133004000Y-49700000D01*
X134030000Y-51230000D02*
X134066000Y-51265000D01*
X134030000Y-56310000D02*
X134066000Y-56345000D01*
X134030000Y-61390000D02*
X134066000Y-61425000D01*
X134030000Y-66470000D02*
X134066000Y-66505000D01*
X134030000Y-71550000D02*
X134066000Y-71585000D01*
X134236000Y-51025000D02*
X134282000Y-51072000D01*
X134236000Y-56105000D02*
X134282000Y-56152000D01*
X134236000Y-61185000D02*
X134282000Y-61232000D01*
X134236000Y-66265000D02*
X134282000Y-66312000D01*
X134236000Y-71345000D02*
X134282000Y-71392000D01*
X136328000Y-53527000D02*
X136374000Y-53574000D01*
X136328000Y-58607000D02*
X136374000Y-58654000D01*
X136328000Y-63687000D02*
X136374000Y-63734000D01*
X136328000Y-68767000D02*
X136374000Y-68814000D01*
X136328000Y-73847000D02*
X136374000Y-73894000D01*
X136544000Y-53334000D02*
X136579000Y-53369000D01*
X136544000Y-58414000D02*
X136579000Y-58449000D01*
X136544000Y-63494000D02*
X136579000Y-63529000D01*
X136544000Y-68574000D02*
X136579000Y-68609000D01*
X136544000Y-73654000D02*
X136579000Y-73689000D01*
X137905000Y-80300000D02*
X137905000Y-49700000D01*
X139405000Y-80300000D02*
X139405000Y-49700000D01*
X139465000Y-80540000D02*
X140205000Y-80540000D01*
X139965000Y-80300000D02*
X139965000Y-49700000D01*
X140205000Y-80540000D02*
X140205000Y-80040000D01*
X133769573Y-78383042D02*
G75*
G02*
X133770000Y-77016000I1535420J683041D01*
G01*
X134621958Y-76164573D02*
G75*
G02*
X135989000Y-76165000I683042J-1535427D01*
G01*
X135988042Y-79235427D02*
G75*
G02*
X134621000Y-79235000I-683041J1535420D01*
G01*
X136839756Y-77016682D02*
G75*
G02*
X136985000Y-77700000I-1534756J-683318D01*
G01*
X136985253Y-77671195D02*
G75*
G02*
X136840000Y-78384000I-1680254J-28806D01*
G01*
X136985000Y-52300000D02*
G75*
G02*
X133625000Y-52300000I-1680000J0D01*
G01*
X133625000Y-52300000D02*
G75*
G02*
X136985000Y-52300000I1680000J0D01*
G01*
X136985000Y-57380000D02*
G75*
G02*
X133625000Y-57380000I-1680000J0D01*
G01*
X133625000Y-57380000D02*
G75*
G02*
X136985000Y-57380000I1680000J0D01*
G01*
X136985000Y-62460000D02*
G75*
G02*
X133625000Y-62460000I-1680000J0D01*
G01*
X133625000Y-62460000D02*
G75*
G02*
X136985000Y-62460000I1680000J0D01*
G01*
X136985000Y-67540000D02*
G75*
G02*
X133625000Y-67540000I-1680000J0D01*
G01*
X133625000Y-67540000D02*
G75*
G02*
X136985000Y-67540000I1680000J0D01*
G01*
X136985000Y-72620000D02*
G75*
G02*
X133625000Y-72620000I-1680000J0D01*
G01*
X133625000Y-72620000D02*
G75*
G02*
X136985000Y-72620000I1680000J0D01*
G01*
%TO.C,R6*%
X117487258Y-59477500D02*
X117012742Y-59477500D01*
X117487258Y-60522500D02*
X117012742Y-60522500D01*
%TO.C,R10*%
X117477500Y-82737258D02*
X117477500Y-82262742D01*
X118522500Y-82737258D02*
X118522500Y-82262742D01*
%TO.C,U4*%
X90130000Y-56880000D02*
X97750000Y-56880000D01*
X90130000Y-73120000D02*
X90130000Y-56880000D01*
X97750000Y-73120000D02*
X90130000Y-73120000D01*
X113750000Y-56880000D02*
X114370000Y-56880000D01*
X114370000Y-56880000D02*
X114370000Y-59000000D01*
X114370000Y-71000000D02*
X114370000Y-73120000D01*
X114370000Y-73120000D02*
X113750000Y-73120000D01*
X97750000Y-73550000D02*
X97414000Y-73790000D01*
X97414000Y-73310000D01*
X97750000Y-73550000D01*
G36*
X97750000Y-73550000D02*
G01*
X97414000Y-73790000D01*
X97414000Y-73310000D01*
X97750000Y-73550000D01*
G37*
%TO.C,C1*%
X112740000Y-43390580D02*
X112740000Y-43109420D01*
X113760000Y-43390580D02*
X113760000Y-43109420D01*
%TO.C,R7*%
X117487258Y-56227500D02*
X117012742Y-56227500D01*
X117487258Y-57272500D02*
X117012742Y-57272500D01*
%TO.C,D2*%
X121760000Y-41600000D02*
X116250000Y-41600000D01*
X121760000Y-44900000D02*
X116250000Y-44900000D01*
X121760000Y-44900000D02*
X121760000Y-41600000D01*
%TO.C,F1*%
X129352064Y-41840000D02*
X128147936Y-41840000D01*
X129352064Y-43660000D02*
X128147936Y-43660000D01*
%TO.C,R1*%
X104762742Y-48477500D02*
X105237258Y-48477500D01*
X104762742Y-49522500D02*
X105237258Y-49522500D01*
%TO.C,R14*%
X117477500Y-86262742D02*
X117477500Y-86737258D01*
X118522500Y-86262742D02*
X118522500Y-86737258D01*
%TO.C,R16*%
X111762742Y-81977500D02*
X112237258Y-81977500D01*
X111762742Y-83022500D02*
X112237258Y-83022500D01*
%TO.C,U2*%
X119400000Y-56765000D02*
X119400000Y-59000000D01*
X119400000Y-61000000D02*
X119400000Y-63235000D01*
X119400000Y-63235000D02*
X124600000Y-63235000D01*
X124600000Y-56765000D02*
X119400000Y-56765000D01*
X124600000Y-63235000D02*
X124600000Y-56765000D01*
X119400000Y-59000000D02*
G75*
G02*
X119400000Y-61000000I0J-1000000D01*
G01*
%TO.C,R15*%
X111762742Y-79977500D02*
X112237258Y-79977500D01*
X111762742Y-81022500D02*
X112237258Y-81022500D01*
%TO.C,R3*%
X105477500Y-53737258D02*
X105477500Y-53262742D01*
X106522500Y-53737258D02*
X106522500Y-53262742D01*
%TO.C,R5*%
X117477500Y-64737258D02*
X117477500Y-64262742D01*
X118522500Y-64737258D02*
X118522500Y-64262742D01*
%TO.C,Q2*%
X125690000Y-86500000D02*
X125690000Y-85850000D01*
X125690000Y-86500000D02*
X125690000Y-87150000D01*
X128810000Y-86500000D02*
X128810000Y-85850000D01*
X128810000Y-86500000D02*
X128810000Y-87150000D01*
X125740000Y-87662500D02*
X125410000Y-87902500D01*
X125410000Y-87422500D01*
X125740000Y-87662500D01*
G36*
X125740000Y-87662500D02*
G01*
X125410000Y-87902500D01*
X125410000Y-87422500D01*
X125740000Y-87662500D01*
G37*
%TO.C,R2*%
X107477500Y-53737258D02*
X107477500Y-53262742D01*
X108522500Y-53737258D02*
X108522500Y-53262742D01*
%TO.C,SW1*%
X100250000Y-46000000D02*
X100250000Y-44000000D01*
X101250000Y-42700000D02*
X101700000Y-42250000D01*
X101250000Y-47300000D02*
X101700000Y-47750000D01*
X104300000Y-42250000D02*
X101700000Y-42250000D01*
X104300000Y-47750000D02*
X101700000Y-47750000D01*
X104750000Y-42700000D02*
X104300000Y-42250000D01*
X104750000Y-47300000D02*
X104300000Y-47750000D01*
X105750000Y-46000000D02*
X105750000Y-44000000D01*
%TO.C,J2*%
X98550000Y-88830000D02*
X98550000Y-87500000D01*
X99880000Y-88830000D02*
X98550000Y-88830000D01*
X101150000Y-86170000D02*
X116450000Y-86170000D01*
X101150000Y-88830000D02*
X101150000Y-86170000D01*
X101150000Y-88830000D02*
X116450000Y-88830000D01*
X116450000Y-88830000D02*
X116450000Y-86170000D01*
%TO.C,C3*%
X120740000Y-48109420D02*
X120740000Y-48390580D01*
X121760000Y-48109420D02*
X121760000Y-48390580D01*
%TO.C,C4*%
X112359420Y-51990000D02*
X112640580Y-51990000D01*
X112359420Y-53010000D02*
X112640580Y-53010000D01*
%TO.C,R13*%
X122727500Y-86737258D02*
X122727500Y-86262742D01*
X123772500Y-86737258D02*
X123772500Y-86262742D01*
%TO.C,D3*%
X125600000Y-58990000D02*
X125600000Y-64500000D01*
X128900000Y-58990000D02*
X125600000Y-58990000D01*
X128900000Y-58990000D02*
X128900000Y-64500000D01*
%TO.C,Q1*%
X125690000Y-68500000D02*
X125690000Y-67850000D01*
X125690000Y-68500000D02*
X125690000Y-69150000D01*
X128810000Y-68500000D02*
X128810000Y-67850000D01*
X128810000Y-68500000D02*
X128810000Y-69150000D01*
X125740000Y-69662500D02*
X125410000Y-69902500D01*
X125410000Y-69422500D01*
X125740000Y-69662500D01*
G36*
X125740000Y-69662500D02*
G01*
X125410000Y-69902500D01*
X125410000Y-69422500D01*
X125740000Y-69662500D01*
G37*
%TO.C,D1*%
X125600000Y-44740000D02*
X125600000Y-50250000D01*
X128900000Y-44740000D02*
X125600000Y-44740000D01*
X128900000Y-44740000D02*
X128900000Y-50250000D01*
%TO.C,C6*%
X111859420Y-77990000D02*
X112140580Y-77990000D01*
X111859420Y-79010000D02*
X112140580Y-79010000D01*
%TO.C,C2*%
X122840000Y-47538748D02*
X122840000Y-48961252D01*
X124660000Y-47538748D02*
X124660000Y-48961252D01*
%TO.C,R12*%
X117487258Y-77477500D02*
X117012742Y-77477500D01*
X117487258Y-78522500D02*
X117012742Y-78522500D01*
%TO.C,F2*%
X126340000Y-55397936D02*
X126340000Y-56602064D01*
X128160000Y-55397936D02*
X128160000Y-56602064D01*
%TO.C,R18*%
X112737258Y-53977500D02*
X112262742Y-53977500D01*
X112737258Y-55022500D02*
X112262742Y-55022500D01*
%TO.C,R11*%
X117487258Y-74227500D02*
X117012742Y-74227500D01*
X117487258Y-75272500D02*
X117012742Y-75272500D01*
%TO.C,R4*%
X103477500Y-53262742D02*
X103477500Y-53737258D01*
X104522500Y-53262742D02*
X104522500Y-53737258D01*
%TO.C,C5*%
X111859420Y-75990000D02*
X112140580Y-75990000D01*
X111859420Y-77010000D02*
X112140580Y-77010000D01*
%TD*%
%LPC*%
D13*
%TO.C,R20*%
X99675000Y-79000000D03*
X101325000Y-79000000D03*
%TD*%
D14*
%TO.C,R19*%
X100500000Y-82425000D03*
X100500000Y-84075000D03*
%TD*%
D15*
%TO.C,D4*%
X120750000Y-67712500D03*
X120750000Y-69287500D03*
%TD*%
D16*
%TO.C,R17*%
X102000000Y-54325000D03*
X102000000Y-52675000D03*
%TD*%
D17*
%TO.C,H3*%
X135000000Y-45000000D03*
%TD*%
%TO.C,H4*%
X135000000Y-85000000D03*
%TD*%
D18*
%TO.C,U1*%
X113550000Y-46345000D03*
X113550000Y-47615000D03*
X113550000Y-48885000D03*
X113550000Y-50155000D03*
X118950000Y-50155000D03*
X118950000Y-48885000D03*
X118950000Y-47615000D03*
X118950000Y-46345000D03*
D19*
X116250000Y-48250000D03*
%TD*%
D16*
%TO.C,R8*%
X123250000Y-69325000D03*
X123250000Y-67675000D03*
%TD*%
D20*
%TO.C,H1*%
X95000000Y-45000000D03*
%TD*%
D21*
%TO.C,L1*%
X109750000Y-42250000D03*
X109750000Y-45250000D03*
%TD*%
D15*
%TO.C,D6*%
X120750000Y-85712500D03*
X120750000Y-87287500D03*
%TD*%
D22*
%TO.C,D5*%
X127250000Y-78500000D03*
X127250000Y-82500000D03*
%TD*%
D23*
%TO.C,U3*%
X120730000Y-82765000D03*
X123270000Y-82765000D03*
X123270000Y-73235000D03*
X120730000Y-73235000D03*
%TD*%
D20*
%TO.C,H2*%
X95000000Y-85000000D03*
%TD*%
D14*
%TO.C,R9*%
X118000000Y-67675000D03*
X118000000Y-69325000D03*
%TD*%
D24*
%TO.C,F3*%
X127250000Y-72600000D03*
X127250000Y-75400000D03*
%TD*%
D25*
%TO.C,J1*%
X135305000Y-77700000D03*
D26*
X135305000Y-72620000D03*
X135305000Y-67540000D03*
X135305000Y-62460000D03*
X135305000Y-57380000D03*
X135305000Y-52300000D03*
%TD*%
D27*
%TO.C,R6*%
X118075000Y-60000000D03*
X116425000Y-60000000D03*
%TD*%
D16*
%TO.C,R10*%
X118000000Y-83325000D03*
X118000000Y-81675000D03*
%TD*%
D28*
%TO.C,U4*%
X98750000Y-72600000D03*
X100750000Y-72600000D03*
X102750000Y-72600000D03*
X104750000Y-72600000D03*
X106750000Y-72600000D03*
X108750000Y-72600000D03*
X110750000Y-72600000D03*
X112750000Y-72600000D03*
D29*
X114250000Y-70000000D03*
X114250000Y-68000000D03*
X114250000Y-66000000D03*
X114250000Y-64000000D03*
X114250000Y-62000000D03*
X114250000Y-60000000D03*
D28*
X112750000Y-57400000D03*
X110750000Y-57400000D03*
X108750000Y-57400000D03*
X106750000Y-57400000D03*
X104750000Y-57400000D03*
X102750000Y-57400000D03*
X100750000Y-57400000D03*
X98750000Y-57400000D03*
%TD*%
D30*
%TO.C,C1*%
X113250000Y-44025000D03*
X113250000Y-42475000D03*
%TD*%
D27*
%TO.C,R7*%
X118075000Y-56750000D03*
X116425000Y-56750000D03*
%TD*%
D31*
%TO.C,D2*%
X120250000Y-43250000D03*
X116250000Y-43250000D03*
%TD*%
D32*
%TO.C,F1*%
X130150000Y-42750000D03*
X127350000Y-42750000D03*
%TD*%
D13*
%TO.C,R1*%
X104175000Y-49000000D03*
X105825000Y-49000000D03*
%TD*%
D14*
%TO.C,R14*%
X118000000Y-85675000D03*
X118000000Y-87325000D03*
%TD*%
D13*
%TO.C,R16*%
X111175000Y-82500000D03*
X112825000Y-82500000D03*
%TD*%
D23*
%TO.C,U2*%
X120730000Y-64765000D03*
X123270000Y-64765000D03*
X123270000Y-55235000D03*
X120730000Y-55235000D03*
%TD*%
D13*
%TO.C,R15*%
X111175000Y-80500000D03*
X112825000Y-80500000D03*
%TD*%
D16*
%TO.C,R3*%
X106000000Y-54325000D03*
X106000000Y-52675000D03*
%TD*%
%TO.C,R5*%
X118000000Y-65325000D03*
X118000000Y-63675000D03*
%TD*%
D33*
%TO.C,Q2*%
X126300000Y-87437500D03*
X128200000Y-87437500D03*
X127250000Y-85562500D03*
%TD*%
D16*
%TO.C,R2*%
X108000000Y-54325000D03*
X108000000Y-52675000D03*
%TD*%
D34*
%TO.C,SW1*%
X106000000Y-46875000D03*
X100000000Y-46875000D03*
X106000000Y-43125000D03*
X100000000Y-43125000D03*
%TD*%
D35*
%TO.C,J2*%
X99880000Y-87500000D03*
D36*
X102420000Y-87500000D03*
X104960000Y-87500000D03*
X107500000Y-87500000D03*
X110040000Y-87500000D03*
X112580000Y-87500000D03*
X115120000Y-87500000D03*
%TD*%
D37*
%TO.C,C3*%
X121250000Y-47475000D03*
X121250000Y-49025000D03*
%TD*%
D38*
%TO.C,C4*%
X111725000Y-52500000D03*
X113275000Y-52500000D03*
%TD*%
D16*
%TO.C,R13*%
X123250000Y-87325000D03*
X123250000Y-85675000D03*
%TD*%
D22*
%TO.C,D3*%
X127250000Y-60500000D03*
X127250000Y-64500000D03*
%TD*%
D33*
%TO.C,Q1*%
X126300000Y-69437500D03*
X128200000Y-69437500D03*
X127250000Y-67562500D03*
%TD*%
D22*
%TO.C,D1*%
X127250000Y-46250000D03*
X127250000Y-50250000D03*
%TD*%
D38*
%TO.C,C6*%
X111225000Y-78500000D03*
X112775000Y-78500000D03*
%TD*%
D39*
%TO.C,C2*%
X123750000Y-46775000D03*
X123750000Y-49725000D03*
%TD*%
D27*
%TO.C,R12*%
X118075000Y-78000000D03*
X116425000Y-78000000D03*
%TD*%
D24*
%TO.C,F2*%
X127250000Y-54600000D03*
X127250000Y-57400000D03*
%TD*%
D27*
%TO.C,R18*%
X113325000Y-54500000D03*
X111675000Y-54500000D03*
%TD*%
%TO.C,R11*%
X118075000Y-74750000D03*
X116425000Y-74750000D03*
%TD*%
D14*
%TO.C,R4*%
X104000000Y-52675000D03*
X104000000Y-54325000D03*
%TD*%
D38*
%TO.C,C5*%
X111225000Y-76500000D03*
X112775000Y-76500000D03*
%TD*%
%LPD*%
M02*
