%TF.GenerationSoftware,KiCad,Pcbnew,8.0.4*%
%TF.CreationDate,2024-07-28T20:40:06+02:00*%
%TF.ProjectId,DCWiFiSwitch,44435769-4669-4537-9769-7463682e6b69,rev?*%
%TF.SameCoordinates,Original*%
%TF.FileFunction,Copper,L1,Top*%
%TF.FilePolarity,Positive*%
%FSLAX46Y46*%
G04 Gerber Fmt 4.6, Leading zero omitted, Abs format (unit mm)*
G04 Created by KiCad (PCBNEW 8.0.4) date 2024-07-28 20:40:06*
%MOMM*%
%LPD*%
G01*
G04 APERTURE LIST*
G04 Aperture macros list*
%AMRoundRect*
0 Rectangle with rounded corners*
0 $1 Rounding radius*
0 $2 $3 $4 $5 $6 $7 $8 $9 X,Y pos of 4 corners*
0 Add a 4 corners polygon primitive as box body*
4,1,4,$2,$3,$4,$5,$6,$7,$8,$9,$2,$3,0*
0 Add four circle primitives for the rounded corners*
1,1,$1+$1,$2,$3*
1,1,$1+$1,$4,$5*
1,1,$1+$1,$6,$7*
1,1,$1+$1,$8,$9*
0 Add four rect primitives between the rounded corners*
20,1,$1+$1,$2,$3,$4,$5,0*
20,1,$1+$1,$4,$5,$6,$7,0*
20,1,$1+$1,$6,$7,$8,$9,0*
20,1,$1+$1,$8,$9,$2,$3,0*%
G04 Aperture macros list end*
%TA.AperFunction,SMDPad,CuDef*%
%ADD10RoundRect,0.200000X-0.200000X-0.275000X0.200000X-0.275000X0.200000X0.275000X-0.200000X0.275000X0*%
%TD*%
%TA.AperFunction,SMDPad,CuDef*%
%ADD11RoundRect,0.200000X-0.275000X0.200000X-0.275000X-0.200000X0.275000X-0.200000X0.275000X0.200000X0*%
%TD*%
%TA.AperFunction,SMDPad,CuDef*%
%ADD12RoundRect,0.218750X-0.256250X0.218750X-0.256250X-0.218750X0.256250X-0.218750X0.256250X0.218750X0*%
%TD*%
%TA.AperFunction,SMDPad,CuDef*%
%ADD13RoundRect,0.200000X0.275000X-0.200000X0.275000X0.200000X-0.275000X0.200000X-0.275000X-0.200000X0*%
%TD*%
%TA.AperFunction,ComponentPad*%
%ADD14C,5.700000*%
%TD*%
%TA.AperFunction,SMDPad,CuDef*%
%ADD15R,1.550000X0.600000*%
%TD*%
%TA.AperFunction,ComponentPad*%
%ADD16C,0.600000*%
%TD*%
%TA.AperFunction,SMDPad,CuDef*%
%ADD17R,2.600000X3.100000*%
%TD*%
%TA.AperFunction,SMDPad,CuDef*%
%ADD18R,2.950000X4.500000*%
%TD*%
%TA.AperFunction,SMDPad,CuDef*%
%ADD19R,3.700000X1.100000*%
%TD*%
%TA.AperFunction,SMDPad,CuDef*%
%ADD20RoundRect,0.250000X-0.650000X1.000000X-0.650000X-1.000000X0.650000X-1.000000X0.650000X1.000000X0*%
%TD*%
%TA.AperFunction,SMDPad,CuDef*%
%ADD21R,1.780000X2.000000*%
%TD*%
%TA.AperFunction,SMDPad,CuDef*%
%ADD22RoundRect,0.250000X-0.625000X0.375000X-0.625000X-0.375000X0.625000X-0.375000X0.625000X0.375000X0*%
%TD*%
%TA.AperFunction,ComponentPad*%
%ADD23R,2.600000X2.600000*%
%TD*%
%TA.AperFunction,ComponentPad*%
%ADD24C,2.600000*%
%TD*%
%TA.AperFunction,SMDPad,CuDef*%
%ADD25RoundRect,0.200000X0.200000X0.275000X-0.200000X0.275000X-0.200000X-0.275000X0.200000X-0.275000X0*%
%TD*%
%TA.AperFunction,SMDPad,CuDef*%
%ADD26R,1.000000X2.500000*%
%TD*%
%TA.AperFunction,SMDPad,CuDef*%
%ADD27R,1.800000X1.000000*%
%TD*%
%TA.AperFunction,SMDPad,CuDef*%
%ADD28RoundRect,0.225000X0.250000X-0.225000X0.250000X0.225000X-0.250000X0.225000X-0.250000X-0.225000X0*%
%TD*%
%TA.AperFunction,SMDPad,CuDef*%
%ADD29RoundRect,0.250000X1.000000X0.650000X-1.000000X0.650000X-1.000000X-0.650000X1.000000X-0.650000X0*%
%TD*%
%TA.AperFunction,SMDPad,CuDef*%
%ADD30RoundRect,0.250000X0.375000X0.625000X-0.375000X0.625000X-0.375000X-0.625000X0.375000X-0.625000X0*%
%TD*%
%TA.AperFunction,SMDPad,CuDef*%
%ADD31RoundRect,0.150000X0.150000X-0.587500X0.150000X0.587500X-0.150000X0.587500X-0.150000X-0.587500X0*%
%TD*%
%TA.AperFunction,SMDPad,CuDef*%
%ADD32R,1.000000X0.750000*%
%TD*%
%TA.AperFunction,ComponentPad*%
%ADD33R,1.700000X1.700000*%
%TD*%
%TA.AperFunction,ComponentPad*%
%ADD34O,1.700000X1.700000*%
%TD*%
%TA.AperFunction,SMDPad,CuDef*%
%ADD35RoundRect,0.225000X-0.250000X0.225000X-0.250000X-0.225000X0.250000X-0.225000X0.250000X0.225000X0*%
%TD*%
%TA.AperFunction,SMDPad,CuDef*%
%ADD36RoundRect,0.225000X-0.225000X-0.250000X0.225000X-0.250000X0.225000X0.250000X-0.225000X0.250000X0*%
%TD*%
%TA.AperFunction,SMDPad,CuDef*%
%ADD37RoundRect,0.250000X-0.650000X0.325000X-0.650000X-0.325000X0.650000X-0.325000X0.650000X0.325000X0*%
%TD*%
%TA.AperFunction,ViaPad*%
%ADD38C,0.800000*%
%TD*%
%TA.AperFunction,Conductor*%
%ADD39C,0.600000*%
%TD*%
%TA.AperFunction,Conductor*%
%ADD40C,1.000000*%
%TD*%
%TA.AperFunction,Conductor*%
%ADD41C,0.800000*%
%TD*%
%TA.AperFunction,Conductor*%
%ADD42C,1.200000*%
%TD*%
G04 APERTURE END LIST*
D10*
%TO.P,R20,1*%
%TO.N,GND*%
X99675000Y-79000000D03*
%TO.P,R20,2*%
%TO.N,Net-(U4-ADC)*%
X101325000Y-79000000D03*
%TD*%
D11*
%TO.P,R19,1*%
%TO.N,Net-(U4-ADC)*%
X100500000Y-82425000D03*
%TO.P,R19,2*%
%TO.N,ADC*%
X100500000Y-84075000D03*
%TD*%
D12*
%TO.P,D4,1,K*%
%TO.N,GND*%
X120750000Y-67712500D03*
%TO.P,D4,2,A*%
%TO.N,Net-(D4-A)*%
X120750000Y-69287500D03*
%TD*%
D13*
%TO.P,R17,1*%
%TO.N,BOOT*%
X102000000Y-54325000D03*
%TO.P,R17,2*%
%TO.N,+3V3*%
X102000000Y-52675000D03*
%TD*%
D14*
%TO.P,H3,1,1*%
%TO.N,GND*%
X135000000Y-45000000D03*
%TD*%
%TO.P,H4,1,1*%
%TO.N,GND*%
X135000000Y-85000000D03*
%TD*%
D15*
%TO.P,U1,1,BOOT*%
%TO.N,Net-(U1-BOOT)*%
X113550000Y-46345000D03*
%TO.P,U1,2,NC*%
%TO.N,unconnected-(U1-NC-Pad2)*%
X113550000Y-47615000D03*
%TO.P,U1,3,NC*%
%TO.N,unconnected-(U1-NC-Pad3)*%
X113550000Y-48885000D03*
%TO.P,U1,4,VSENSE*%
%TO.N,Net-(U1-VSENSE)*%
X113550000Y-50155000D03*
%TO.P,U1,5,EN*%
%TO.N,unconnected-(U1-EN-Pad5)*%
X118950000Y-50155000D03*
%TO.P,U1,6,GND*%
%TO.N,GND*%
X118950000Y-48885000D03*
%TO.P,U1,7,VIN*%
%TO.N,Net-(D1-K)*%
X118950000Y-47615000D03*
%TO.P,U1,8,PH*%
%TO.N,Net-(D2-K)*%
X118950000Y-46345000D03*
D16*
%TO.P,U1,9,GNDPAD*%
%TO.N,GND*%
X115650000Y-46450000D03*
X115650000Y-47650000D03*
X115650000Y-48950000D03*
X115650000Y-50050000D03*
D17*
X116250000Y-48250000D03*
D18*
X116250000Y-48250000D03*
D16*
X116850000Y-46450000D03*
X116850000Y-47650000D03*
X116850000Y-48950000D03*
X116850000Y-50050000D03*
%TD*%
D13*
%TO.P,R8,1*%
%TO.N,Net-(Q1-G)*%
X123250000Y-69325000D03*
%TO.P,R8,2*%
%TO.N,Net-(D4-A)*%
X123250000Y-67675000D03*
%TD*%
D19*
%TO.P,L1,1,1*%
%TO.N,Net-(D2-K)*%
X109750000Y-42250000D03*
%TO.P,L1,2,2*%
%TO.N,Net-(C4-Pad1)*%
X109750000Y-45250000D03*
%TD*%
D12*
%TO.P,D6,1,K*%
%TO.N,GND*%
X120750000Y-85712500D03*
%TO.P,D6,2,A*%
%TO.N,Net-(D6-A)*%
X120750000Y-87287500D03*
%TD*%
D20*
%TO.P,D5,1,K*%
%TO.N,OUT2_P*%
X127250000Y-78500000D03*
%TO.P,D5,2,A*%
%TO.N,OUT2_N*%
X127250000Y-82500000D03*
%TD*%
D21*
%TO.P,U3,1*%
%TO.N,Net-(R10-Pad1)*%
X120730000Y-82765000D03*
%TO.P,U3,2*%
%TO.N,GND*%
X123270000Y-82765000D03*
%TO.P,U3,3*%
%TO.N,Net-(R11-Pad1)*%
X123270000Y-73235000D03*
%TO.P,U3,4*%
%TO.N,OUT2_P*%
X120730000Y-73235000D03*
%TD*%
D11*
%TO.P,R9,1*%
%TO.N,GND*%
X118000000Y-67675000D03*
%TO.P,R9,2*%
%TO.N,Net-(D4-A)*%
X118000000Y-69325000D03*
%TD*%
D22*
%TO.P,F3,1*%
%TO.N,PWR_INPUT*%
X127250000Y-72600000D03*
%TO.P,F3,2*%
%TO.N,OUT2_P*%
X127250000Y-75400000D03*
%TD*%
D23*
%TO.P,J1,1,Pin_1*%
%TO.N,OUT2_N*%
X135305000Y-77700000D03*
D24*
%TO.P,J1,2,Pin_2*%
%TO.N,OUT2_P*%
X135305000Y-72620000D03*
%TO.P,J1,3,Pin_3*%
%TO.N,OUT1_N*%
X135305000Y-67540000D03*
%TO.P,J1,4,Pin_4*%
%TO.N,OUT1_P*%
X135305000Y-62460000D03*
%TO.P,J1,5,Pin_5*%
%TO.N,GND*%
X135305000Y-57380000D03*
%TO.P,J1,6,Pin_6*%
%TO.N,PWR_INPUT*%
X135305000Y-52300000D03*
%TD*%
D25*
%TO.P,R6,1*%
%TO.N,Net-(R6-Pad1)*%
X118075000Y-60000000D03*
%TO.P,R6,2*%
%TO.N,Net-(Q1-G)*%
X116425000Y-60000000D03*
%TD*%
D13*
%TO.P,R10,1*%
%TO.N,Net-(R10-Pad1)*%
X118000000Y-83325000D03*
%TO.P,R10,2*%
%TO.N,CTRL2*%
X118000000Y-81675000D03*
%TD*%
D26*
%TO.P,U4,1,~{RST}*%
%TO.N,NRST*%
X98750000Y-72600000D03*
%TO.P,U4,2,ADC*%
%TO.N,Net-(U4-ADC)*%
X100750000Y-72600000D03*
%TO.P,U4,3,EN*%
%TO.N,Net-(U4-EN)*%
X102750000Y-72600000D03*
%TO.P,U4,4,GPIO16*%
%TO.N,unconnected-(U4-GPIO16-Pad4)*%
X104750000Y-72600000D03*
%TO.P,U4,5,GPIO14*%
%TO.N,CTRL2*%
X106750000Y-72600000D03*
%TO.P,U4,6,GPIO12*%
%TO.N,CTRL1*%
X108750000Y-72600000D03*
%TO.P,U4,7,GPIO13*%
%TO.N,unconnected-(U4-GPIO13-Pad7)*%
X110750000Y-72600000D03*
%TO.P,U4,8,VCC*%
%TO.N,+3V3*%
X112750000Y-72600000D03*
D27*
%TO.P,U4,9,CS0*%
%TO.N,unconnected-(U4-CS0-Pad9)*%
X114250000Y-70000000D03*
%TO.P,U4,10,MISO*%
%TO.N,unconnected-(U4-MISO-Pad10)*%
X114250000Y-68000000D03*
%TO.P,U4,11,GPIO9*%
%TO.N,unconnected-(U4-GPIO9-Pad11)*%
X114250000Y-66000000D03*
%TO.P,U4,12,GPIO10*%
%TO.N,unconnected-(U4-GPIO10-Pad12)*%
X114250000Y-64000000D03*
%TO.P,U4,13,MOSI*%
%TO.N,unconnected-(U4-MOSI-Pad13)*%
X114250000Y-62000000D03*
%TO.P,U4,14,SCLK*%
%TO.N,unconnected-(U4-SCLK-Pad14)*%
X114250000Y-60000000D03*
D26*
%TO.P,U4,15,GND*%
%TO.N,GND*%
X112750000Y-57400000D03*
%TO.P,U4,16,GPIO15*%
%TO.N,Net-(U4-GPIO15)*%
X110750000Y-57400000D03*
%TO.P,U4,17,GPIO2*%
%TO.N,unconnected-(U4-GPIO2-Pad17)*%
X108750000Y-57400000D03*
%TO.P,U4,18,GPIO0*%
%TO.N,BOOT*%
X106750000Y-57400000D03*
%TO.P,U4,19,GPIO4*%
%TO.N,unconnected-(U4-GPIO4-Pad19)*%
X104750000Y-57400000D03*
%TO.P,U4,20,GPIO5*%
%TO.N,unconnected-(U4-GPIO5-Pad20)*%
X102750000Y-57400000D03*
%TO.P,U4,21,GPIO3/RXD*%
%TO.N,RXD*%
X100750000Y-57400000D03*
%TO.P,U4,22,GPIO1/TXD*%
%TO.N,TXD*%
X98750000Y-57400000D03*
%TD*%
D28*
%TO.P,C1,1*%
%TO.N,Net-(U1-BOOT)*%
X113250000Y-44025000D03*
%TO.P,C1,2*%
%TO.N,Net-(D2-K)*%
X113250000Y-42475000D03*
%TD*%
D25*
%TO.P,R7,1*%
%TO.N,Net-(R6-Pad1)*%
X118075000Y-56750000D03*
%TO.P,R7,2*%
%TO.N,Net-(Q1-G)*%
X116425000Y-56750000D03*
%TD*%
D29*
%TO.P,D2,1,K*%
%TO.N,Net-(D2-K)*%
X120250000Y-43250000D03*
%TO.P,D2,2,A*%
%TO.N,GND*%
X116250000Y-43250000D03*
%TD*%
D30*
%TO.P,F1,1*%
%TO.N,PWR_INPUT*%
X130150000Y-42750000D03*
%TO.P,F1,2*%
%TO.N,Net-(D1-K)*%
X127350000Y-42750000D03*
%TD*%
D10*
%TO.P,R1,1*%
%TO.N,+3V3*%
X104175000Y-49000000D03*
%TO.P,R1,2*%
%TO.N,Net-(C4-Pad1)*%
X105825000Y-49000000D03*
%TD*%
D11*
%TO.P,R14,1*%
%TO.N,GND*%
X118000000Y-85675000D03*
%TO.P,R14,2*%
%TO.N,Net-(D6-A)*%
X118000000Y-87325000D03*
%TD*%
D10*
%TO.P,R16,1*%
%TO.N,NRST*%
X111175000Y-82500000D03*
%TO.P,R16,2*%
%TO.N,+3V3*%
X112825000Y-82500000D03*
%TD*%
D21*
%TO.P,U2,1*%
%TO.N,Net-(R5-Pad1)*%
X120730000Y-64765000D03*
%TO.P,U2,2*%
%TO.N,GND*%
X123270000Y-64765000D03*
%TO.P,U2,3*%
%TO.N,Net-(R6-Pad1)*%
X123270000Y-55235000D03*
%TO.P,U2,4*%
%TO.N,OUT1_P*%
X120730000Y-55235000D03*
%TD*%
D10*
%TO.P,R15,1*%
%TO.N,Net-(U4-EN)*%
X111175000Y-80500000D03*
%TO.P,R15,2*%
%TO.N,+3V3*%
X112825000Y-80500000D03*
%TD*%
D13*
%TO.P,R3,1*%
%TO.N,Net-(R3-Pad1)*%
X106000000Y-54325000D03*
%TO.P,R3,2*%
%TO.N,Net-(U1-VSENSE)*%
X106000000Y-52675000D03*
%TD*%
%TO.P,R5,1*%
%TO.N,Net-(R5-Pad1)*%
X118000000Y-65325000D03*
%TO.P,R5,2*%
%TO.N,CTRL1*%
X118000000Y-63675000D03*
%TD*%
D31*
%TO.P,Q2,1,G*%
%TO.N,Net-(Q2-G)*%
X126300000Y-87437500D03*
%TO.P,Q2,2,S*%
%TO.N,GND*%
X128200000Y-87437500D03*
%TO.P,Q2,3,D*%
%TO.N,OUT2_N*%
X127250000Y-85562500D03*
%TD*%
D13*
%TO.P,R2,1*%
%TO.N,Net-(U1-VSENSE)*%
X108000000Y-54325000D03*
%TO.P,R2,2*%
%TO.N,Net-(C4-Pad1)*%
X108000000Y-52675000D03*
%TD*%
D32*
%TO.P,SW1,1,1*%
%TO.N,BOOT*%
X106000000Y-46875000D03*
X100000000Y-46875000D03*
%TO.P,SW1,2,2*%
%TO.N,GND*%
X106000000Y-43125000D03*
X100000000Y-43125000D03*
%TD*%
D33*
%TO.P,J2,1,Pin_1*%
%TO.N,ADC*%
X99880000Y-87500000D03*
D34*
%TO.P,J2,2,Pin_2*%
%TO.N,TXD*%
X102420000Y-87500000D03*
%TO.P,J2,3,Pin_3*%
%TO.N,RXD*%
X104960000Y-87500000D03*
%TO.P,J2,4,Pin_4*%
%TO.N,BOOT*%
X107500000Y-87500000D03*
%TO.P,J2,5,Pin_5*%
%TO.N,NRST*%
X110040000Y-87500000D03*
%TO.P,J2,6,Pin_6*%
%TO.N,GND*%
X112580000Y-87500000D03*
%TO.P,J2,7,Pin_7*%
%TO.N,+3V3*%
X115120000Y-87500000D03*
%TD*%
D35*
%TO.P,C3,1*%
%TO.N,Net-(D1-K)*%
X121250000Y-47475000D03*
%TO.P,C3,2*%
%TO.N,GND*%
X121250000Y-49025000D03*
%TD*%
D36*
%TO.P,C4,1*%
%TO.N,Net-(C4-Pad1)*%
X111725000Y-52500000D03*
%TO.P,C4,2*%
%TO.N,GND*%
X113275000Y-52500000D03*
%TD*%
D13*
%TO.P,R13,1*%
%TO.N,Net-(Q2-G)*%
X123250000Y-87325000D03*
%TO.P,R13,2*%
%TO.N,Net-(D6-A)*%
X123250000Y-85675000D03*
%TD*%
D20*
%TO.P,D3,1,K*%
%TO.N,OUT1_P*%
X127250000Y-60500000D03*
%TO.P,D3,2,A*%
%TO.N,OUT1_N*%
X127250000Y-64500000D03*
%TD*%
D31*
%TO.P,Q1,1,G*%
%TO.N,Net-(Q1-G)*%
X126300000Y-69437500D03*
%TO.P,Q1,2,S*%
%TO.N,GND*%
X128200000Y-69437500D03*
%TO.P,Q1,3,D*%
%TO.N,OUT1_N*%
X127250000Y-67562500D03*
%TD*%
D20*
%TO.P,D1,1,K*%
%TO.N,Net-(D1-K)*%
X127250000Y-46250000D03*
%TO.P,D1,2,A*%
%TO.N,GND*%
X127250000Y-50250000D03*
%TD*%
D36*
%TO.P,C6,1*%
%TO.N,GND*%
X111225000Y-78500000D03*
%TO.P,C6,2*%
%TO.N,+3V3*%
X112775000Y-78500000D03*
%TD*%
D37*
%TO.P,C2,1*%
%TO.N,Net-(D1-K)*%
X123750000Y-46775000D03*
%TO.P,C2,2*%
%TO.N,GND*%
X123750000Y-49725000D03*
%TD*%
D25*
%TO.P,R12,1*%
%TO.N,Net-(R11-Pad1)*%
X118075000Y-78000000D03*
%TO.P,R12,2*%
%TO.N,Net-(Q2-G)*%
X116425000Y-78000000D03*
%TD*%
D22*
%TO.P,F2,1*%
%TO.N,PWR_INPUT*%
X127250000Y-54600000D03*
%TO.P,F2,2*%
%TO.N,OUT1_P*%
X127250000Y-57400000D03*
%TD*%
D25*
%TO.P,R18,1*%
%TO.N,GND*%
X113325000Y-54500000D03*
%TO.P,R18,2*%
%TO.N,Net-(U4-GPIO15)*%
X111675000Y-54500000D03*
%TD*%
%TO.P,R11,1*%
%TO.N,Net-(R11-Pad1)*%
X118075000Y-74750000D03*
%TO.P,R11,2*%
%TO.N,Net-(Q2-G)*%
X116425000Y-74750000D03*
%TD*%
D11*
%TO.P,R4,1*%
%TO.N,GND*%
X104000000Y-52675000D03*
%TO.P,R4,2*%
%TO.N,Net-(R3-Pad1)*%
X104000000Y-54325000D03*
%TD*%
D36*
%TO.P,C5,1*%
%TO.N,GND*%
X111225000Y-76500000D03*
%TO.P,C5,2*%
%TO.N,+3V3*%
X112775000Y-76500000D03*
%TD*%
D38*
%TO.N,GND*%
X98500000Y-76500000D03*
X131500000Y-62500000D03*
X138000000Y-81500000D03*
X131500000Y-76500000D03*
X98750000Y-54000000D03*
X130000000Y-88500000D03*
X115500000Y-54500000D03*
X120500000Y-78000000D03*
X98750000Y-85000000D03*
X109000000Y-60750000D03*
X110000000Y-75000000D03*
X105500000Y-41500000D03*
X138000000Y-49000000D03*
X131500000Y-66500000D03*
X109000000Y-69250000D03*
X124000000Y-44500000D03*
X123500000Y-80000000D03*
X99000000Y-62500000D03*
X99000000Y-69250000D03*
X130500000Y-68500000D03*
X133000000Y-55500000D03*
X113750000Y-85000000D03*
X116500000Y-53000000D03*
X109000000Y-67500000D03*
X131500000Y-77500000D03*
X131500000Y-67500000D03*
X120500000Y-60000000D03*
X124500000Y-89000000D03*
X109500000Y-78500000D03*
X104750000Y-50500000D03*
X99000000Y-67500000D03*
X99000000Y-65000000D03*
X125500000Y-56000000D03*
X108000000Y-47500000D03*
X109000000Y-62500000D03*
X123500000Y-59000000D03*
X132000000Y-88500000D03*
X125500000Y-74000000D03*
X123500000Y-62000000D03*
X125500000Y-71000000D03*
X132500000Y-54000000D03*
X131500000Y-55500000D03*
X124000000Y-42000000D03*
X109500000Y-76500000D03*
X100500000Y-41500000D03*
X130500000Y-84500000D03*
X125500000Y-53000000D03*
X131500000Y-61500000D03*
X123500000Y-77000000D03*
%TO.N,+3V3*%
X102000000Y-50000000D03*
X114500000Y-77000000D03*
X114500000Y-75000000D03*
X102000000Y-48500000D03*
%TO.N,TXD*%
X102000000Y-61750000D03*
X102000000Y-81500000D03*
%TO.N,BOOT*%
X105000000Y-61750000D03*
X105000000Y-81500000D03*
%TO.N,RXD*%
X103500000Y-81500000D03*
X103500000Y-61750000D03*
%TO.N,NRST*%
X99750000Y-75250000D03*
X108500000Y-84000000D03*
%TO.N,Net-(U1-VSENSE)*%
X106500000Y-50500000D03*
X111500000Y-50500000D03*
%TO.N,CTRL1*%
X109500000Y-80000000D03*
X118000000Y-62000000D03*
%TO.N,CTRL2*%
X118000000Y-80000000D03*
X107750000Y-80500000D03*
%TD*%
D39*
%TO.N,Net-(U4-ADC)*%
X101325000Y-75075000D02*
X100750000Y-74500000D01*
X101325000Y-79000000D02*
X101325000Y-75075000D01*
X100750000Y-74500000D02*
X100750000Y-72600000D01*
X101325000Y-79475000D02*
X101325000Y-79000000D01*
X100500000Y-80300000D02*
X101325000Y-79475000D01*
X100500000Y-82425000D02*
X100500000Y-80300000D01*
%TO.N,ADC*%
X100500000Y-86880000D02*
X99880000Y-87500000D01*
X100500000Y-84075000D02*
X100500000Y-86880000D01*
D40*
%TO.N,Net-(U1-BOOT)*%
X113250000Y-46045000D02*
X113550000Y-46345000D01*
X113250000Y-44025000D02*
X113250000Y-46045000D01*
%TO.N,Net-(D2-K)*%
X119533274Y-43250000D02*
X117733274Y-41450000D01*
X117733274Y-41450000D02*
X113250000Y-41450000D01*
X120250000Y-43250000D02*
X119533274Y-43250000D01*
X113250000Y-41450000D02*
X110550000Y-41450000D01*
X118950000Y-44550000D02*
X120250000Y-43250000D01*
X113250000Y-42475000D02*
X113250000Y-41450000D01*
X118950000Y-46345000D02*
X118950000Y-44550000D01*
X110550000Y-41450000D02*
X109750000Y-42250000D01*
D39*
%TO.N,GND*%
X123270000Y-83192500D02*
X120750000Y-85712500D01*
X111225000Y-78500000D02*
X109500000Y-78500000D01*
D40*
X116250000Y-48250000D02*
X116250000Y-52750000D01*
D39*
X123270000Y-82765000D02*
X123270000Y-83192500D01*
X111225000Y-78500000D02*
X111225000Y-76500000D01*
X111225000Y-76500000D02*
X109500000Y-76500000D01*
X112750000Y-57400000D02*
X112750000Y-55075000D01*
X120750000Y-85712500D02*
X118037500Y-85712500D01*
X120750000Y-67712500D02*
X123270000Y-65192500D01*
D40*
X116250000Y-43250000D02*
X116250000Y-48250000D01*
D39*
X118037500Y-85712500D02*
X118000000Y-85675000D01*
X120750000Y-67712500D02*
X118037500Y-67712500D01*
X112750000Y-55075000D02*
X113325000Y-54500000D01*
X116885000Y-48885000D02*
X116250000Y-48250000D01*
D40*
X116250000Y-52750000D02*
X116500000Y-53000000D01*
D39*
X118037500Y-67712500D02*
X118000000Y-67675000D01*
X118950000Y-48885000D02*
X116885000Y-48885000D01*
X123270000Y-65192500D02*
X123270000Y-64765000D01*
D40*
%TO.N,+3V3*%
X104175000Y-49000000D02*
X102500000Y-49000000D01*
X103000000Y-49000000D02*
X102000000Y-50000000D01*
D39*
X112825000Y-80500000D02*
X112825000Y-82500000D01*
X113500000Y-78500000D02*
X112775000Y-78500000D01*
X102000000Y-50175000D02*
X102000000Y-50175000D01*
X112775000Y-76500000D02*
X112775000Y-78500000D01*
D40*
X102500000Y-49000000D02*
X102000000Y-48500000D01*
D39*
X114500000Y-77000000D02*
X114500000Y-77500000D01*
D40*
X114500000Y-78250000D02*
X114500000Y-75000000D01*
D39*
X114500000Y-75500000D02*
X114500000Y-75000000D01*
X112775000Y-76500000D02*
X113500000Y-76500000D01*
X102000000Y-50175000D02*
X102000000Y-52675000D01*
D40*
X104175000Y-49000000D02*
X103000000Y-49000000D01*
D39*
X112775000Y-80450000D02*
X112825000Y-80500000D01*
D40*
X115300000Y-79050000D02*
X114500000Y-78250000D01*
X115120000Y-87500000D02*
X115300000Y-87320000D01*
D39*
X112775000Y-78500000D02*
X112775000Y-80450000D01*
X102000000Y-50000000D02*
X102000000Y-50175000D01*
X112750000Y-76475000D02*
X112775000Y-76500000D01*
X113500000Y-76500000D02*
X114500000Y-75500000D01*
X114500000Y-77500000D02*
X113500000Y-78500000D01*
D40*
X115300000Y-87320000D02*
X115300000Y-79050000D01*
D39*
X112750000Y-72600000D02*
X112750000Y-76475000D01*
%TO.N,Net-(D4-A)*%
X118037500Y-69287500D02*
X118000000Y-69325000D01*
X120750000Y-69287500D02*
X118037500Y-69287500D01*
X120955370Y-69287500D02*
X120750000Y-69287500D01*
X123250000Y-67675000D02*
X122567870Y-67675000D01*
X122567870Y-67675000D02*
X120955370Y-69287500D01*
D41*
%TO.N,Net-(D1-K)*%
X121080000Y-47645000D02*
X118950000Y-47645000D01*
X121250000Y-47475000D02*
X121080000Y-47645000D01*
X123750000Y-46775000D02*
X126725000Y-46775000D01*
D40*
X127350000Y-42750000D02*
X127350000Y-46150000D01*
D41*
X126725000Y-46775000D02*
X127250000Y-46250000D01*
X121250000Y-47250000D02*
X121750000Y-46750000D01*
X121250000Y-47475000D02*
X121250000Y-47250000D01*
X121775000Y-46775000D02*
X123750000Y-46775000D01*
D40*
X127350000Y-46150000D02*
X127250000Y-46250000D01*
D41*
X121750000Y-46750000D02*
X121775000Y-46775000D01*
D39*
%TO.N,TXD*%
X98750000Y-57400000D02*
X98750000Y-59000000D01*
X101500000Y-60500000D02*
X102000000Y-61000000D01*
X102000000Y-81500000D02*
X102000000Y-87080000D01*
X102000000Y-87080000D02*
X102420000Y-87500000D01*
X101499999Y-60500001D02*
X101500000Y-60500000D01*
X100250001Y-60500001D02*
X101499999Y-60500001D01*
X98750000Y-59000000D02*
X100250001Y-60500001D01*
X102000000Y-61000000D02*
X102000000Y-61750000D01*
%TO.N,BOOT*%
X106750000Y-58500000D02*
X105000000Y-60250000D01*
X106750000Y-57400000D02*
X106750000Y-58500000D01*
X103125000Y-55450000D02*
X105950000Y-55450000D01*
X106750000Y-56250000D02*
X106750000Y-57400000D01*
X107500000Y-87500000D02*
X105000000Y-85000000D01*
X100000000Y-46875000D02*
X106000000Y-46875000D01*
X105000000Y-85000000D02*
X105000000Y-81500000D01*
X102000000Y-54325000D02*
X103125000Y-55450000D01*
X100000000Y-52800000D02*
X100000000Y-46875000D01*
X101525000Y-54325000D02*
X100000000Y-52800000D01*
X105950000Y-55450000D02*
X106750000Y-56250000D01*
X102000000Y-54325000D02*
X101525000Y-54325000D01*
X105000000Y-61750000D02*
X105000000Y-60250000D01*
%TO.N,RXD*%
X100750000Y-58750000D02*
X100750000Y-57400000D01*
X102750000Y-59500000D02*
X101500000Y-59500000D01*
X104960000Y-87500000D02*
X103500000Y-86040000D01*
X103500000Y-86040000D02*
X103500000Y-81500000D01*
X103500000Y-61750000D02*
X103500000Y-60250000D01*
X103500000Y-60250000D02*
X102750000Y-59500000D01*
X101500000Y-59500000D02*
X100750000Y-58750000D01*
%TO.N,NRST*%
X110040000Y-87500000D02*
X110040000Y-85960000D01*
X110040000Y-85960000D02*
X111175000Y-84825000D01*
X98750000Y-72600000D02*
X98750000Y-74250000D01*
X98750000Y-74250000D02*
X99750000Y-75250000D01*
X110040000Y-85540000D02*
X110040000Y-85960000D01*
X108500000Y-84000000D02*
X110040000Y-85540000D01*
X111175000Y-84825000D02*
X111175000Y-82500000D01*
%TO.N,Net-(Q1-G)*%
X116425000Y-69503334D02*
X116425000Y-60000000D01*
X122150000Y-70425000D02*
X117346666Y-70425000D01*
X123250000Y-69325000D02*
X122150000Y-70425000D01*
X117346666Y-70425000D02*
X116425000Y-69503334D01*
X126187500Y-69325000D02*
X126300000Y-69437500D01*
X123250000Y-69325000D02*
X126187500Y-69325000D01*
X116425000Y-56750000D02*
X116425000Y-60000000D01*
%TO.N,Net-(Q2-G)*%
X126187500Y-87325000D02*
X126300000Y-87437500D01*
X117225000Y-88425000D02*
X122150000Y-88425000D01*
X116670000Y-78245000D02*
X116670000Y-87870000D01*
X123250000Y-87325000D02*
X122150000Y-88425000D01*
X116425000Y-74750000D02*
X116425000Y-78000000D01*
X123250000Y-87325000D02*
X126187500Y-87325000D01*
X116425000Y-78000000D02*
X116670000Y-78245000D01*
X116670000Y-87870000D02*
X117225000Y-88425000D01*
%TO.N,Net-(D6-A)*%
X122567870Y-85675000D02*
X120955370Y-87287500D01*
X123250000Y-85675000D02*
X122567870Y-85675000D01*
X118037500Y-87287500D02*
X118000000Y-87325000D01*
X120955370Y-87287500D02*
X120750000Y-87287500D01*
X120750000Y-87287500D02*
X118037500Y-87287500D01*
%TO.N,Net-(U1-VSENSE)*%
X107753334Y-54325000D02*
X108000000Y-54325000D01*
X113550000Y-50155000D02*
X111845000Y-50155000D01*
X106103334Y-52675000D02*
X107753334Y-54325000D01*
X106000000Y-51000000D02*
X106500000Y-50500000D01*
X111845000Y-50155000D02*
X111500000Y-50500000D01*
X106000000Y-52675000D02*
X106000000Y-51000000D01*
X106000000Y-52675000D02*
X106103334Y-52675000D01*
%TO.N,Net-(R3-Pad1)*%
X106000000Y-54325000D02*
X104000000Y-54325000D01*
%TO.N,Net-(R6-Pad1)*%
X122320000Y-53535000D02*
X119140000Y-53535000D01*
X119140000Y-53535000D02*
X118075000Y-54600000D01*
X123270000Y-55235000D02*
X123270000Y-54485000D01*
X118075000Y-56750000D02*
X118075000Y-60000000D01*
X123270000Y-54485000D02*
X122320000Y-53535000D01*
X118075000Y-54600000D02*
X118075000Y-56750000D01*
%TO.N,Net-(R5-Pad1)*%
X118000000Y-65325000D02*
X120170000Y-65325000D01*
X120170000Y-65325000D02*
X120730000Y-64765000D01*
%TO.N,CTRL1*%
X109000000Y-80000000D02*
X109500000Y-80000000D01*
X108400000Y-72950000D02*
X108400000Y-79400000D01*
X108750000Y-72600000D02*
X108400000Y-72950000D01*
X108400000Y-79400000D02*
X109000000Y-80000000D01*
X118000000Y-62000000D02*
X118000000Y-63675000D01*
%TO.N,Net-(R10-Pad1)*%
X120170000Y-83325000D02*
X120730000Y-82765000D01*
X118000000Y-83325000D02*
X120170000Y-83325000D01*
%TO.N,CTRL2*%
X106750000Y-72600000D02*
X106750000Y-79500000D01*
X118000000Y-81675000D02*
X118000000Y-80000000D01*
X106750000Y-79500000D02*
X107750000Y-80500000D01*
%TO.N,Net-(R11-Pad1)*%
X122320000Y-71535000D02*
X123270000Y-72485000D01*
X118075000Y-74750000D02*
X118075000Y-72600000D01*
X118075000Y-72600000D02*
X119140000Y-71535000D01*
X118075000Y-74750000D02*
X118075000Y-78000000D01*
X119140000Y-71535000D02*
X122320000Y-71535000D01*
X123270000Y-72485000D02*
X123270000Y-73235000D01*
%TO.N,Net-(U4-EN)*%
X102750000Y-72600000D02*
X102750000Y-77305635D01*
X107119365Y-81675000D02*
X109500000Y-81675000D01*
X111175000Y-80500000D02*
X110000000Y-81675000D01*
X109500000Y-81675000D02*
X109675000Y-81675000D01*
X102750000Y-77305635D02*
X107119365Y-81675000D01*
X109500000Y-81675000D02*
X110000000Y-81675000D01*
%TO.N,Net-(U4-GPIO15)*%
X110750000Y-55425000D02*
X110750000Y-57400000D01*
X111675000Y-54500000D02*
X110750000Y-55425000D01*
D41*
%TO.N,Net-(C4-Pad1)*%
X110500000Y-53000000D02*
X111000000Y-52500000D01*
X109000000Y-53000000D02*
X110500000Y-53000000D01*
X108675000Y-52675000D02*
X109000000Y-53000000D01*
X108000000Y-50175000D02*
X106825000Y-49000000D01*
X108000000Y-50175000D02*
X108000000Y-52675000D01*
X109750000Y-51250000D02*
X109750000Y-45250000D01*
X111725000Y-52500000D02*
X111000000Y-52500000D01*
X111000000Y-52500000D02*
X109750000Y-51250000D01*
X106825000Y-49000000D02*
X105825000Y-49000000D01*
X108000000Y-52675000D02*
X108675000Y-52675000D01*
D42*
%TO.N,PWR_INPUT*%
X130150000Y-42750000D02*
X130150000Y-47145000D01*
X130150000Y-47145000D02*
X135305000Y-52300000D01*
X132000000Y-70000000D02*
X129400000Y-72600000D01*
X135305000Y-52300000D02*
X131700000Y-52300000D01*
X138250000Y-68500000D02*
X136750000Y-70000000D01*
X129400000Y-54600000D02*
X127250000Y-54600000D01*
X129400000Y-72600000D02*
X127250000Y-72600000D01*
X136750000Y-70000000D02*
X132000000Y-70000000D01*
X131700000Y-52300000D02*
X129400000Y-54600000D01*
X135305000Y-52300000D02*
X138250000Y-55245000D01*
X138250000Y-55245000D02*
X138250000Y-68500000D01*
%TO.N,OUT1_N*%
X132250000Y-64500000D02*
X127250000Y-64500000D01*
D40*
X127250000Y-67562500D02*
X127250000Y-64500000D01*
D42*
X133750000Y-66000000D02*
X132250000Y-64500000D01*
X133765000Y-66000000D02*
X133750000Y-66000000D01*
X135305000Y-67540000D02*
X133765000Y-66000000D01*
%TO.N,OUT1_P*%
X127350000Y-57500000D02*
X127250000Y-57400000D01*
X130345000Y-57500000D02*
X127350000Y-57500000D01*
X135305000Y-62460000D02*
X130345000Y-57500000D01*
D40*
X127075000Y-57225000D02*
X127250000Y-57400000D01*
D39*
X121295000Y-57400000D02*
X127250000Y-57400000D01*
X120730000Y-56835000D02*
X121295000Y-57400000D01*
D42*
X127250000Y-60500000D02*
X127250000Y-57400000D01*
D39*
X120730000Y-55235000D02*
X120730000Y-56835000D01*
D42*
%TO.N,OUT2_N*%
X134550000Y-77700000D02*
X129750000Y-82500000D01*
X135305000Y-77700000D02*
X134550000Y-77700000D01*
X129750000Y-82500000D02*
X127250000Y-82500000D01*
D40*
X127250000Y-85562500D02*
X127250000Y-82500000D01*
D42*
%TO.N,OUT2_P*%
X135305000Y-72620000D02*
X132880000Y-72620000D01*
D39*
X120730000Y-73235000D02*
X120730000Y-74835000D01*
D42*
X132880000Y-72620000D02*
X130100000Y-75400000D01*
X127250000Y-78500000D02*
X127250000Y-75400000D01*
D39*
X120730000Y-74835000D02*
X121295000Y-75400000D01*
D42*
X130100000Y-75400000D02*
X127250000Y-75400000D01*
D39*
X121295000Y-75400000D02*
X127250000Y-75400000D01*
D40*
X127075000Y-75225000D02*
X127250000Y-75400000D01*
%TD*%
%TA.AperFunction,Conductor*%
%TO.N,GND*%
G36*
X139446945Y-68886926D02*
G01*
X139490397Y-68941641D01*
X139499500Y-68988275D01*
X139499500Y-84997293D01*
X139499382Y-85002702D01*
X139482614Y-85386750D01*
X139481671Y-85397526D01*
X139431849Y-85775957D01*
X139429971Y-85786610D01*
X139347354Y-86159272D01*
X139344554Y-86169721D01*
X139229775Y-86533755D01*
X139226075Y-86543921D01*
X139080002Y-86896572D01*
X139075430Y-86906376D01*
X138899183Y-87244942D01*
X138893775Y-87254310D01*
X138688681Y-87576244D01*
X138682476Y-87585105D01*
X138450110Y-87887930D01*
X138443156Y-87896217D01*
X138185284Y-88177635D01*
X138177635Y-88185284D01*
X137896217Y-88443156D01*
X137887930Y-88450110D01*
X137585105Y-88682476D01*
X137576244Y-88688681D01*
X137254310Y-88893775D01*
X137244942Y-88899183D01*
X136906376Y-89075430D01*
X136896572Y-89080002D01*
X136543921Y-89226075D01*
X136533755Y-89229775D01*
X136169721Y-89344554D01*
X136159272Y-89347354D01*
X135786610Y-89429971D01*
X135775957Y-89431849D01*
X135397526Y-89481671D01*
X135386750Y-89482614D01*
X135002703Y-89499382D01*
X134997294Y-89499500D01*
X98124000Y-89499500D01*
X98056961Y-89479815D01*
X98011206Y-89427011D01*
X98000000Y-89375500D01*
X98000000Y-79331582D01*
X98775001Y-79331582D01*
X98781408Y-79402102D01*
X98781409Y-79402107D01*
X98831981Y-79564396D01*
X98919927Y-79709877D01*
X99040122Y-79830072D01*
X99185604Y-79918019D01*
X99185603Y-79918019D01*
X99347894Y-79968590D01*
X99347893Y-79968590D01*
X99418408Y-79974998D01*
X99418426Y-79974999D01*
X99424999Y-79974998D01*
X99425000Y-79974998D01*
X99425000Y-79250000D01*
X98775001Y-79250000D01*
X98775001Y-79331582D01*
X98000000Y-79331582D01*
X98000000Y-78668427D01*
X98775000Y-78668427D01*
X98775000Y-78750000D01*
X99425000Y-78750000D01*
X99425000Y-78025000D01*
X99424999Y-78024999D01*
X99418436Y-78025000D01*
X99418417Y-78025001D01*
X99347897Y-78031408D01*
X99347892Y-78031409D01*
X99185603Y-78081981D01*
X99040122Y-78169927D01*
X98919927Y-78290122D01*
X98831980Y-78435604D01*
X98781409Y-78597893D01*
X98775000Y-78668427D01*
X98000000Y-78668427D01*
X98000000Y-74931440D01*
X98019685Y-74864401D01*
X98072489Y-74818646D01*
X98141647Y-74808702D01*
X98205203Y-74837727D01*
X98211681Y-74843759D01*
X98871262Y-75503340D01*
X98901512Y-75552703D01*
X98922818Y-75618277D01*
X98922821Y-75618284D01*
X99017467Y-75782216D01*
X99031023Y-75797271D01*
X99144129Y-75922888D01*
X99297265Y-76034148D01*
X99297270Y-76034151D01*
X99470192Y-76111142D01*
X99470197Y-76111144D01*
X99655354Y-76150500D01*
X99655355Y-76150500D01*
X99844644Y-76150500D01*
X99844646Y-76150500D01*
X100029803Y-76111144D01*
X100202730Y-76034151D01*
X100327616Y-75943416D01*
X100393421Y-75919937D01*
X100461475Y-75935762D01*
X100510170Y-75985868D01*
X100524500Y-76043735D01*
X100524500Y-78085188D01*
X100504815Y-78152227D01*
X100452011Y-78197982D01*
X100382853Y-78207926D01*
X100319297Y-78178901D01*
X100312819Y-78172869D01*
X100309877Y-78169927D01*
X100164395Y-78081980D01*
X100164396Y-78081980D01*
X100002105Y-78031409D01*
X100002106Y-78031409D01*
X99931572Y-78025000D01*
X99925000Y-78025000D01*
X99925000Y-79691559D01*
X99905315Y-79758598D01*
X99888681Y-79779240D01*
X99878213Y-79789707D01*
X99878210Y-79789711D01*
X99790609Y-79920814D01*
X99790602Y-79920827D01*
X99730264Y-80066498D01*
X99730261Y-80066510D01*
X99699500Y-80221153D01*
X99699500Y-81708768D01*
X99679815Y-81775807D01*
X99673115Y-81785235D01*
X99669533Y-81789807D01*
X99581522Y-81935393D01*
X99530913Y-82097807D01*
X99524500Y-82168386D01*
X99524500Y-82681613D01*
X99530913Y-82752192D01*
X99530913Y-82752194D01*
X99530914Y-82752196D01*
X99555661Y-82831613D01*
X99581522Y-82914606D01*
X99669530Y-83060188D01*
X99771661Y-83162319D01*
X99805146Y-83223642D01*
X99800162Y-83293334D01*
X99771661Y-83337681D01*
X99669531Y-83439810D01*
X99669530Y-83439811D01*
X99581522Y-83585393D01*
X99530913Y-83747807D01*
X99525782Y-83804275D01*
X99524500Y-83818384D01*
X99524500Y-84331616D01*
X99526423Y-84352778D01*
X99530913Y-84402192D01*
X99530913Y-84402194D01*
X99530914Y-84402196D01*
X99581522Y-84564606D01*
X99669528Y-84710185D01*
X99669531Y-84710188D01*
X99673112Y-84714759D01*
X99698960Y-84779672D01*
X99699500Y-84791231D01*
X99699500Y-86025500D01*
X99679815Y-86092539D01*
X99627011Y-86138294D01*
X99575500Y-86149500D01*
X98982129Y-86149500D01*
X98982123Y-86149501D01*
X98922516Y-86155908D01*
X98787671Y-86206202D01*
X98787664Y-86206206D01*
X98672455Y-86292452D01*
X98672452Y-86292455D01*
X98586206Y-86407664D01*
X98586202Y-86407671D01*
X98535908Y-86542517D01*
X98529501Y-86602116D01*
X98529500Y-86602135D01*
X98529500Y-88397870D01*
X98529501Y-88397876D01*
X98535908Y-88457483D01*
X98586202Y-88592328D01*
X98586206Y-88592335D01*
X98672452Y-88707544D01*
X98672455Y-88707547D01*
X98787664Y-88793793D01*
X98787671Y-88793797D01*
X98922517Y-88844091D01*
X98922516Y-88844091D01*
X98929444Y-88844835D01*
X98982127Y-88850500D01*
X100777872Y-88850499D01*
X100837483Y-88844091D01*
X100972331Y-88793796D01*
X101087546Y-88707546D01*
X101173796Y-88592331D01*
X101222810Y-88460916D01*
X101264681Y-88404984D01*
X101330145Y-88380566D01*
X101398418Y-88395417D01*
X101426673Y-88416569D01*
X101548599Y-88538495D01*
X101645384Y-88606265D01*
X101742165Y-88674032D01*
X101742167Y-88674033D01*
X101742170Y-88674035D01*
X101956337Y-88773903D01*
X102184592Y-88835063D01*
X102361034Y-88850500D01*
X102419999Y-88855659D01*
X102420000Y-88855659D01*
X102420001Y-88855659D01*
X102478966Y-88850500D01*
X102655408Y-88835063D01*
X102883663Y-88773903D01*
X103097830Y-88674035D01*
X103291401Y-88538495D01*
X103458495Y-88371401D01*
X103588425Y-88185842D01*
X103643002Y-88142217D01*
X103712500Y-88135023D01*
X103774855Y-88166546D01*
X103791575Y-88185842D01*
X103921281Y-88371082D01*
X103921505Y-88371401D01*
X104088599Y-88538495D01*
X104185384Y-88606265D01*
X104282165Y-88674032D01*
X104282167Y-88674033D01*
X104282170Y-88674035D01*
X104496337Y-88773903D01*
X104724592Y-88835063D01*
X104901034Y-88850500D01*
X104959999Y-88855659D01*
X104960000Y-88855659D01*
X104960001Y-88855659D01*
X105018966Y-88850500D01*
X105195408Y-88835063D01*
X105423663Y-88773903D01*
X105637830Y-88674035D01*
X105831401Y-88538495D01*
X105998495Y-88371401D01*
X106128425Y-88185842D01*
X106183002Y-88142217D01*
X106252500Y-88135023D01*
X106314855Y-88166546D01*
X106331575Y-88185842D01*
X106461281Y-88371082D01*
X106461505Y-88371401D01*
X106628599Y-88538495D01*
X106725384Y-88606265D01*
X106822165Y-88674032D01*
X106822167Y-88674033D01*
X106822170Y-88674035D01*
X107036337Y-88773903D01*
X107264592Y-88835063D01*
X107441034Y-88850500D01*
X107499999Y-88855659D01*
X107500000Y-88855659D01*
X107500001Y-88855659D01*
X107558966Y-88850500D01*
X107735408Y-88835063D01*
X107963663Y-88773903D01*
X108177830Y-88674035D01*
X108371401Y-88538495D01*
X108538495Y-88371401D01*
X108668425Y-88185842D01*
X108723002Y-88142217D01*
X108792500Y-88135023D01*
X108854855Y-88166546D01*
X108871575Y-88185842D01*
X109001281Y-88371082D01*
X109001505Y-88371401D01*
X109168599Y-88538495D01*
X109265384Y-88606265D01*
X109362165Y-88674032D01*
X109362167Y-88674033D01*
X109362170Y-88674035D01*
X109576337Y-88773903D01*
X109804592Y-88835063D01*
X109981034Y-88850500D01*
X110039999Y-88855659D01*
X110040000Y-88855659D01*
X110040001Y-88855659D01*
X110098966Y-88850500D01*
X110275408Y-88835063D01*
X110503663Y-88773903D01*
X110717830Y-88674035D01*
X110911401Y-88538495D01*
X111078495Y-88371401D01*
X111208730Y-88185405D01*
X111263307Y-88141781D01*
X111332805Y-88134587D01*
X111395160Y-88166110D01*
X111411879Y-88185405D01*
X111541890Y-88371078D01*
X111708917Y-88538105D01*
X111902421Y-88673600D01*
X112116507Y-88773429D01*
X112116516Y-88773433D01*
X112330000Y-88830634D01*
X112330000Y-87933012D01*
X112387007Y-87965925D01*
X112514174Y-88000000D01*
X112645826Y-88000000D01*
X112772993Y-87965925D01*
X112830000Y-87933012D01*
X112830000Y-88830633D01*
X113043483Y-88773433D01*
X113043492Y-88773429D01*
X113257578Y-88673600D01*
X113451082Y-88538105D01*
X113618105Y-88371082D01*
X113748119Y-88185405D01*
X113802696Y-88141781D01*
X113872195Y-88134588D01*
X113934549Y-88166110D01*
X113951269Y-88185405D01*
X114081505Y-88371401D01*
X114248599Y-88538495D01*
X114345384Y-88606265D01*
X114442165Y-88674032D01*
X114442167Y-88674033D01*
X114442170Y-88674035D01*
X114656337Y-88773903D01*
X114884592Y-88835063D01*
X115061034Y-88850500D01*
X115119999Y-88855659D01*
X115120000Y-88855659D01*
X115120001Y-88855659D01*
X115178966Y-88850500D01*
X115355408Y-88835063D01*
X115583663Y-88773903D01*
X115797830Y-88674035D01*
X115991401Y-88538495D01*
X116011227Y-88518668D01*
X116072547Y-88485183D01*
X116142239Y-88490166D01*
X116186589Y-88518668D01*
X116714707Y-89046786D01*
X116714711Y-89046789D01*
X116845814Y-89134390D01*
X116845818Y-89134392D01*
X116845821Y-89134394D01*
X116991503Y-89194738D01*
X117146153Y-89225499D01*
X117146157Y-89225500D01*
X117146158Y-89225500D01*
X122228844Y-89225500D01*
X122228845Y-89225499D01*
X122383497Y-89194737D01*
X122529179Y-89134394D01*
X122660289Y-89046789D01*
X123445259Y-88261819D01*
X123506582Y-88228334D01*
X123532940Y-88225500D01*
X123581613Y-88225500D01*
X123581616Y-88225500D01*
X123652196Y-88219086D01*
X123814606Y-88168478D01*
X123838422Y-88154080D01*
X123856119Y-88143383D01*
X123920268Y-88125500D01*
X125408699Y-88125500D01*
X125475738Y-88145185D01*
X125521493Y-88197989D01*
X125527775Y-88214905D01*
X125548253Y-88285393D01*
X125548255Y-88285396D01*
X125631917Y-88426862D01*
X125631923Y-88426870D01*
X125748129Y-88543076D01*
X125748133Y-88543079D01*
X125748135Y-88543081D01*
X125889602Y-88626744D01*
X125931224Y-88638836D01*
X126047426Y-88672597D01*
X126047429Y-88672597D01*
X126047431Y-88672598D01*
X126084306Y-88675500D01*
X126084314Y-88675500D01*
X126515686Y-88675500D01*
X126515694Y-88675500D01*
X126552569Y-88672598D01*
X126552571Y-88672597D01*
X126552573Y-88672597D01*
X126594191Y-88660505D01*
X126710398Y-88626744D01*
X126851865Y-88543081D01*
X126968081Y-88426865D01*
X127051744Y-88285398D01*
X127093469Y-88141781D01*
X127097597Y-88127573D01*
X127097598Y-88127567D01*
X127100499Y-88090701D01*
X127100500Y-88090694D01*
X127100500Y-88090649D01*
X127400000Y-88090649D01*
X127402899Y-88127489D01*
X127402900Y-88127495D01*
X127448716Y-88285193D01*
X127448717Y-88285196D01*
X127532314Y-88426552D01*
X127532321Y-88426561D01*
X127648438Y-88542678D01*
X127648447Y-88542685D01*
X127789801Y-88626281D01*
X127947514Y-88672100D01*
X127947511Y-88672100D01*
X127949998Y-88672295D01*
X127950000Y-88672295D01*
X128450000Y-88672295D01*
X128450001Y-88672295D01*
X128452486Y-88672100D01*
X128610198Y-88626281D01*
X128751552Y-88542685D01*
X128751561Y-88542678D01*
X128867678Y-88426561D01*
X128867685Y-88426552D01*
X128951282Y-88285196D01*
X128951283Y-88285193D01*
X128997099Y-88127495D01*
X128997100Y-88127489D01*
X128999999Y-88090649D01*
X129000000Y-88090634D01*
X129000000Y-87687500D01*
X128450000Y-87687500D01*
X128450000Y-88672295D01*
X127950000Y-88672295D01*
X127950000Y-87687500D01*
X127400000Y-87687500D01*
X127400000Y-88090649D01*
X127100500Y-88090649D01*
X127100500Y-86924500D01*
X127120185Y-86857461D01*
X127172989Y-86811706D01*
X127224500Y-86800500D01*
X127276000Y-86800500D01*
X127343039Y-86820185D01*
X127388794Y-86872989D01*
X127400000Y-86924500D01*
X127400000Y-87187500D01*
X127950000Y-87187500D01*
X128450000Y-87187500D01*
X129000000Y-87187500D01*
X129000000Y-86784365D01*
X128999999Y-86784350D01*
X128997100Y-86747510D01*
X128997099Y-86747504D01*
X128951283Y-86589806D01*
X128951282Y-86589803D01*
X128867685Y-86448447D01*
X128867678Y-86448438D01*
X128751561Y-86332321D01*
X128751552Y-86332314D01*
X128610196Y-86248717D01*
X128610193Y-86248716D01*
X128452494Y-86202900D01*
X128452497Y-86202900D01*
X128450000Y-86202703D01*
X128450000Y-87187500D01*
X127950000Y-87187500D01*
X127950000Y-86531814D01*
X127967267Y-86468694D01*
X128001744Y-86410398D01*
X128040819Y-86275901D01*
X128047597Y-86252573D01*
X128047598Y-86252567D01*
X128047937Y-86248256D01*
X128050500Y-86215694D01*
X128050500Y-86202934D01*
X128070185Y-86135895D01*
X128071398Y-86134043D01*
X128099130Y-86092539D01*
X128136632Y-86036414D01*
X128212051Y-85854335D01*
X128224632Y-85791082D01*
X128250500Y-85661043D01*
X128250500Y-84999997D01*
X131645080Y-84999997D01*
X131645080Y-85000002D01*
X131664746Y-85362728D01*
X131723517Y-85721214D01*
X131723519Y-85721222D01*
X131820695Y-86071220D01*
X131820697Y-86071227D01*
X131955152Y-86408684D01*
X131955161Y-86408702D01*
X132125316Y-86729647D01*
X132125318Y-86729651D01*
X132329170Y-87030309D01*
X132329177Y-87030319D01*
X132460969Y-87185475D01*
X132460970Y-87185475D01*
X133705748Y-85940698D01*
X133779588Y-86042330D01*
X133957670Y-86220412D01*
X134059300Y-86294251D01*
X132811888Y-87541662D01*
X132811888Y-87541664D01*
X132828070Y-87556992D01*
X132828071Y-87556993D01*
X133117266Y-87776832D01*
X133117282Y-87776843D01*
X133428522Y-87964109D01*
X133428535Y-87964116D01*
X133758205Y-88116639D01*
X133758210Y-88116640D01*
X134102461Y-88232632D01*
X134457235Y-88310724D01*
X134818366Y-88349999D01*
X134818374Y-88350000D01*
X135181626Y-88350000D01*
X135181633Y-88349999D01*
X135542764Y-88310724D01*
X135897538Y-88232632D01*
X136241789Y-88116640D01*
X136241794Y-88116639D01*
X136571464Y-87964116D01*
X136571477Y-87964109D01*
X136882717Y-87776843D01*
X136882733Y-87776832D01*
X137171929Y-87556992D01*
X137188110Y-87541664D01*
X137188110Y-87541663D01*
X135940698Y-86294251D01*
X136042330Y-86220412D01*
X136220412Y-86042330D01*
X136294251Y-85940698D01*
X137539028Y-87185475D01*
X137539029Y-87185475D01*
X137670827Y-87030311D01*
X137670838Y-87030297D01*
X137874681Y-86729651D01*
X137874683Y-86729647D01*
X138044838Y-86408702D01*
X138044847Y-86408684D01*
X138179302Y-86071227D01*
X138179304Y-86071220D01*
X138276480Y-85721222D01*
X138276482Y-85721214D01*
X138335253Y-85362728D01*
X138354920Y-85000002D01*
X138354920Y-84999997D01*
X138335253Y-84637271D01*
X138276482Y-84278785D01*
X138276480Y-84278777D01*
X138179304Y-83928779D01*
X138179302Y-83928772D01*
X138044847Y-83591315D01*
X138044838Y-83591297D01*
X137874683Y-83270352D01*
X137874681Y-83270348D01*
X137670829Y-82969690D01*
X137670822Y-82969680D01*
X137539029Y-82814523D01*
X137539028Y-82814523D01*
X136294251Y-84059300D01*
X136220412Y-83957670D01*
X136042330Y-83779588D01*
X135940698Y-83705748D01*
X137188110Y-82458336D01*
X137188110Y-82458334D01*
X137171929Y-82443007D01*
X137171928Y-82443006D01*
X136882733Y-82223167D01*
X136882717Y-82223156D01*
X136571477Y-82035890D01*
X136571464Y-82035883D01*
X136241794Y-81883360D01*
X136241789Y-81883359D01*
X135897538Y-81767367D01*
X135542764Y-81689275D01*
X135181633Y-81650000D01*
X134818366Y-81650000D01*
X134457235Y-81689275D01*
X134102461Y-81767367D01*
X133758210Y-81883359D01*
X133758205Y-81883360D01*
X133428535Y-82035883D01*
X133428522Y-82035890D01*
X133117282Y-82223156D01*
X133117266Y-82223167D01*
X132828075Y-82443002D01*
X132811888Y-82458335D01*
X132811887Y-82458335D01*
X134059301Y-83705748D01*
X133957670Y-83779588D01*
X133779588Y-83957670D01*
X133705748Y-84059300D01*
X132460970Y-82814522D01*
X132460969Y-82814523D01*
X132329177Y-82969680D01*
X132329170Y-82969690D01*
X132125318Y-83270348D01*
X132125316Y-83270352D01*
X131955161Y-83591297D01*
X131955152Y-83591315D01*
X131820697Y-83928772D01*
X131820695Y-83928779D01*
X131723519Y-84278777D01*
X131723517Y-84278785D01*
X131664746Y-84637271D01*
X131645080Y-84999997D01*
X128250500Y-84999997D01*
X128250500Y-84234797D01*
X128270185Y-84167758D01*
X128309403Y-84129258D01*
X128368656Y-84092712D01*
X128492712Y-83968656D01*
X128584814Y-83819334D01*
X128629164Y-83685494D01*
X128668936Y-83628051D01*
X128733451Y-83601228D01*
X128746869Y-83600500D01*
X129836610Y-83600500D01*
X129836611Y-83600500D01*
X130007701Y-83573402D01*
X130172445Y-83519873D01*
X130326788Y-83441232D01*
X130466928Y-83339414D01*
X134269523Y-79536817D01*
X134330846Y-79503333D01*
X134357204Y-79500499D01*
X136652871Y-79500499D01*
X136652872Y-79500499D01*
X136712483Y-79494091D01*
X136847331Y-79443796D01*
X136962546Y-79357546D01*
X137048796Y-79242331D01*
X137099091Y-79107483D01*
X137105500Y-79047873D01*
X137105499Y-76352128D01*
X137099091Y-76292517D01*
X137083233Y-76250000D01*
X137048797Y-76157671D01*
X137048793Y-76157664D01*
X136962547Y-76042455D01*
X136962544Y-76042452D01*
X136847335Y-75956206D01*
X136847328Y-75956202D01*
X136712482Y-75905908D01*
X136712483Y-75905908D01*
X136652883Y-75899501D01*
X136652881Y-75899500D01*
X136652873Y-75899500D01*
X136652864Y-75899500D01*
X133957129Y-75899500D01*
X133957123Y-75899501D01*
X133897516Y-75905908D01*
X133762671Y-75956202D01*
X133762664Y-75956206D01*
X133647455Y-76042452D01*
X133647452Y-76042455D01*
X133561206Y-76157664D01*
X133561202Y-76157671D01*
X133510908Y-76292517D01*
X133507465Y-76324549D01*
X133504501Y-76352123D01*
X133504500Y-76352135D01*
X133504500Y-77137795D01*
X133484815Y-77204834D01*
X133468181Y-77225476D01*
X129330477Y-81363181D01*
X129269154Y-81396666D01*
X129242796Y-81399500D01*
X128746870Y-81399500D01*
X128679831Y-81379815D01*
X128634076Y-81327011D01*
X128629164Y-81314505D01*
X128614881Y-81271403D01*
X128584814Y-81180666D01*
X128492712Y-81031344D01*
X128368656Y-80907288D01*
X128275888Y-80850069D01*
X128219336Y-80815187D01*
X128219331Y-80815185D01*
X128217862Y-80814698D01*
X128052797Y-80760001D01*
X128052795Y-80760000D01*
X127950010Y-80749500D01*
X126549998Y-80749500D01*
X126549981Y-80749501D01*
X126447203Y-80760000D01*
X126447200Y-80760001D01*
X126280668Y-80815185D01*
X126280663Y-80815187D01*
X126131342Y-80907289D01*
X126007289Y-81031342D01*
X125915187Y-81180663D01*
X125915185Y-81180668D01*
X125913619Y-81185394D01*
X125860001Y-81347203D01*
X125860001Y-81347204D01*
X125860000Y-81347204D01*
X125849500Y-81449983D01*
X125849500Y-83550001D01*
X125849501Y-83550018D01*
X125860000Y-83652796D01*
X125860001Y-83652799D01*
X125891483Y-83747804D01*
X125915186Y-83819334D01*
X126007288Y-83968656D01*
X126131344Y-84092712D01*
X126190596Y-84129258D01*
X126237321Y-84181204D01*
X126249500Y-84234797D01*
X126249500Y-85661041D01*
X126249500Y-85661043D01*
X126249499Y-85661043D01*
X126287947Y-85854329D01*
X126287950Y-85854339D01*
X126359902Y-86028048D01*
X126367371Y-86097517D01*
X126336095Y-86159996D01*
X126276006Y-86195648D01*
X126245341Y-86199500D01*
X126084298Y-86199500D01*
X126047432Y-86202401D01*
X126047426Y-86202402D01*
X125889606Y-86248254D01*
X125889603Y-86248255D01*
X125748137Y-86331917D01*
X125748129Y-86331923D01*
X125631923Y-86448129D01*
X125631914Y-86448140D01*
X125622759Y-86463622D01*
X125571689Y-86511305D01*
X125516028Y-86524500D01*
X124165520Y-86524500D01*
X124098481Y-86504815D01*
X124052726Y-86452011D01*
X124042782Y-86382853D01*
X124071807Y-86319297D01*
X124077839Y-86312819D01*
X124080468Y-86310189D01*
X124080469Y-86310188D01*
X124080472Y-86310185D01*
X124168478Y-86164606D01*
X124219086Y-86002196D01*
X124225500Y-85931616D01*
X124225500Y-85418384D01*
X124219086Y-85347804D01*
X124168478Y-85185394D01*
X124080472Y-85039815D01*
X124080470Y-85039813D01*
X124080469Y-85039811D01*
X123960188Y-84919530D01*
X123936589Y-84905264D01*
X123814606Y-84831522D01*
X123652196Y-84780914D01*
X123652194Y-84780913D01*
X123652192Y-84780913D01*
X123602778Y-84776423D01*
X123581616Y-84774500D01*
X122918384Y-84774500D01*
X122899145Y-84776248D01*
X122847807Y-84780913D01*
X122685391Y-84831523D01*
X122643881Y-84856617D01*
X122579732Y-84874500D01*
X122489024Y-84874500D01*
X122334378Y-84905261D01*
X122334368Y-84905264D01*
X122302468Y-84918478D01*
X122188693Y-84965604D01*
X122188685Y-84965609D01*
X122077636Y-85039811D01*
X122077630Y-85039815D01*
X122057581Y-85053211D01*
X122057580Y-85053212D01*
X122057576Y-85053214D01*
X121869149Y-85241641D01*
X121807826Y-85275126D01*
X121738134Y-85270142D01*
X121682201Y-85228270D01*
X121663761Y-85192961D01*
X121662092Y-85187926D01*
X121662091Y-85187922D01*
X121573885Y-85044919D01*
X121455080Y-84926114D01*
X121312077Y-84837908D01*
X121312072Y-84837906D01*
X121152583Y-84785057D01*
X121054150Y-84775000D01*
X121000000Y-84775000D01*
X121000000Y-85838500D01*
X120980315Y-85905539D01*
X120927511Y-85951294D01*
X120876000Y-85962500D01*
X119775001Y-85962500D01*
X119775001Y-85979152D01*
X119785056Y-86077583D01*
X119837906Y-86237072D01*
X119837911Y-86237083D01*
X119875426Y-86297903D01*
X119893867Y-86365295D01*
X119872945Y-86431959D01*
X119819303Y-86476728D01*
X119769888Y-86487000D01*
X118942856Y-86487000D01*
X118875817Y-86467315D01*
X118830062Y-86414511D01*
X118820118Y-86345353D01*
X118836739Y-86298850D01*
X118918019Y-86164396D01*
X118968590Y-86002106D01*
X118975000Y-85931572D01*
X118975000Y-85925000D01*
X117874000Y-85925000D01*
X117806961Y-85905315D01*
X117761206Y-85852511D01*
X117750000Y-85801000D01*
X117750000Y-85445849D01*
X119775000Y-85445849D01*
X119775000Y-85462500D01*
X120500000Y-85462500D01*
X120500000Y-84775000D01*
X120499999Y-84774999D01*
X120445864Y-84775000D01*
X120445847Y-84775001D01*
X120347415Y-84785057D01*
X120187927Y-84837906D01*
X120187922Y-84837908D01*
X120044919Y-84926114D01*
X119926114Y-85044919D01*
X119837908Y-85187922D01*
X119837906Y-85187927D01*
X119785057Y-85347416D01*
X119775000Y-85445849D01*
X117750000Y-85445849D01*
X117750000Y-85425000D01*
X118250000Y-85425000D01*
X118974999Y-85425000D01*
X118974999Y-85418417D01*
X118968591Y-85347897D01*
X118968590Y-85347892D01*
X118918018Y-85185603D01*
X118830072Y-85040122D01*
X118709877Y-84919927D01*
X118564395Y-84831980D01*
X118564396Y-84831980D01*
X118402105Y-84781409D01*
X118402106Y-84781409D01*
X118331572Y-84775000D01*
X118250000Y-84775000D01*
X118250000Y-85425000D01*
X117750000Y-85425000D01*
X117750000Y-84775000D01*
X117749999Y-84774999D01*
X117668417Y-84775000D01*
X117668415Y-84775001D01*
X117605719Y-84780697D01*
X117537174Y-84767159D01*
X117486829Y-84718711D01*
X117470500Y-84657206D01*
X117470500Y-84343296D01*
X117490185Y-84276257D01*
X117542989Y-84230502D01*
X117605720Y-84219805D01*
X117668384Y-84225500D01*
X117668388Y-84225500D01*
X118331613Y-84225500D01*
X118331616Y-84225500D01*
X118402196Y-84219086D01*
X118564606Y-84168478D01*
X118594787Y-84150233D01*
X118606119Y-84143383D01*
X118670268Y-84125500D01*
X119445128Y-84125500D01*
X119512167Y-84145185D01*
X119519438Y-84150232D01*
X119597669Y-84208796D01*
X119597670Y-84208796D01*
X119597671Y-84208797D01*
X119732517Y-84259091D01*
X119732516Y-84259091D01*
X119739444Y-84259835D01*
X119792127Y-84265500D01*
X121667872Y-84265499D01*
X121727483Y-84259091D01*
X121862331Y-84208796D01*
X121926105Y-84161054D01*
X121991568Y-84136637D01*
X122059842Y-84151488D01*
X122074726Y-84161054D01*
X122137907Y-84208350D01*
X122137913Y-84208354D01*
X122272620Y-84258596D01*
X122272627Y-84258598D01*
X122332155Y-84264999D01*
X122332172Y-84265000D01*
X123020000Y-84265000D01*
X123520000Y-84265000D01*
X124207828Y-84265000D01*
X124207844Y-84264999D01*
X124267372Y-84258598D01*
X124267379Y-84258596D01*
X124402086Y-84208354D01*
X124402093Y-84208350D01*
X124517187Y-84122190D01*
X124517190Y-84122187D01*
X124603350Y-84007093D01*
X124603354Y-84007086D01*
X124653596Y-83872379D01*
X124653598Y-83872372D01*
X124659999Y-83812844D01*
X124660000Y-83812827D01*
X124660000Y-83015000D01*
X123520000Y-83015000D01*
X123520000Y-84265000D01*
X123020000Y-84265000D01*
X123020000Y-82515000D01*
X123520000Y-82515000D01*
X124660000Y-82515000D01*
X124660000Y-81717172D01*
X124659999Y-81717155D01*
X124653598Y-81657627D01*
X124653596Y-81657620D01*
X124603354Y-81522913D01*
X124603350Y-81522906D01*
X124517190Y-81407812D01*
X124517187Y-81407809D01*
X124402093Y-81321649D01*
X124402086Y-81321645D01*
X124267379Y-81271403D01*
X124267372Y-81271401D01*
X124207844Y-81265000D01*
X123520000Y-81265000D01*
X123520000Y-82515000D01*
X123020000Y-82515000D01*
X123020000Y-81265000D01*
X122332155Y-81265000D01*
X122272627Y-81271401D01*
X122272620Y-81271403D01*
X122137913Y-81321645D01*
X122137907Y-81321649D01*
X122074726Y-81368946D01*
X122009262Y-81393363D01*
X121940989Y-81378511D01*
X121926106Y-81368946D01*
X121862331Y-81321204D01*
X121862328Y-81321202D01*
X121727482Y-81270908D01*
X121727483Y-81270908D01*
X121667883Y-81264501D01*
X121667881Y-81264500D01*
X121667873Y-81264500D01*
X121667864Y-81264500D01*
X119792129Y-81264500D01*
X119792123Y-81264501D01*
X119732516Y-81270908D01*
X119597671Y-81321202D01*
X119597664Y-81321206D01*
X119482455Y-81407452D01*
X119482452Y-81407455D01*
X119396206Y-81522664D01*
X119396202Y-81522671D01*
X119345908Y-81657517D01*
X119339501Y-81717116D01*
X119339500Y-81717135D01*
X119339500Y-82400500D01*
X119319815Y-82467539D01*
X119267011Y-82513294D01*
X119215500Y-82524500D01*
X118915520Y-82524500D01*
X118848481Y-82504815D01*
X118802726Y-82452011D01*
X118792782Y-82382853D01*
X118821807Y-82319297D01*
X118827839Y-82312819D01*
X118830468Y-82310189D01*
X118830469Y-82310188D01*
X118830472Y-82310185D01*
X118918478Y-82164606D01*
X118969086Y-82002196D01*
X118975500Y-81931616D01*
X118975500Y-81418384D01*
X118969086Y-81347804D01*
X118918478Y-81185394D01*
X118830472Y-81039815D01*
X118830469Y-81039812D01*
X118830466Y-81039807D01*
X118826885Y-81035235D01*
X118801039Y-80970322D01*
X118800500Y-80958768D01*
X118800500Y-80447718D01*
X118817112Y-80385720D01*
X118827179Y-80368284D01*
X118885674Y-80188256D01*
X118905460Y-80000000D01*
X118885674Y-79811744D01*
X118827179Y-79631716D01*
X118732533Y-79467784D01*
X118605871Y-79327112D01*
X118605870Y-79327111D01*
X118452735Y-79215852D01*
X118452732Y-79215850D01*
X118452730Y-79215849D01*
X118410600Y-79197091D01*
X118406395Y-79195219D01*
X118353159Y-79149967D01*
X118332839Y-79083118D01*
X118351885Y-79015894D01*
X118404252Y-78969640D01*
X118419922Y-78963562D01*
X118564606Y-78918478D01*
X118710185Y-78830472D01*
X118830472Y-78710185D01*
X118918478Y-78564606D01*
X118969086Y-78402196D01*
X118975500Y-78331616D01*
X118975500Y-77668384D01*
X118969086Y-77597804D01*
X118918478Y-77435394D01*
X118893734Y-77394462D01*
X118893383Y-77393881D01*
X118875500Y-77329732D01*
X118875500Y-75420267D01*
X118893384Y-75356116D01*
X118918475Y-75314611D01*
X118918475Y-75314610D01*
X118918478Y-75314606D01*
X118969086Y-75152196D01*
X118975500Y-75081616D01*
X118975500Y-74418384D01*
X118969086Y-74347804D01*
X118918478Y-74185394D01*
X118899001Y-74153175D01*
X118893383Y-74143881D01*
X118875500Y-74079732D01*
X118875500Y-72982939D01*
X118895185Y-72915900D01*
X118911815Y-72895262D01*
X119127820Y-72679257D01*
X119189142Y-72645773D01*
X119258834Y-72650757D01*
X119314767Y-72692629D01*
X119339184Y-72758093D01*
X119339500Y-72766939D01*
X119339500Y-74282870D01*
X119339501Y-74282871D01*
X119345908Y-74342483D01*
X119396202Y-74477328D01*
X119396206Y-74477335D01*
X119482452Y-74592544D01*
X119482455Y-74592547D01*
X119597664Y-74678793D01*
X119597671Y-74678797D01*
X119642618Y-74695561D01*
X119732517Y-74729091D01*
X119792127Y-74735500D01*
X119805496Y-74735499D01*
X119872533Y-74755180D01*
X119918291Y-74807981D01*
X119929500Y-74859499D01*
X119929500Y-74913846D01*
X119960261Y-75068489D01*
X119960264Y-75068501D01*
X120020602Y-75214172D01*
X120020609Y-75214185D01*
X120108210Y-75345288D01*
X120108213Y-75345292D01*
X120784707Y-76021786D01*
X120784711Y-76021789D01*
X120915814Y-76109390D01*
X120915818Y-76109392D01*
X120915821Y-76109394D01*
X121061503Y-76169738D01*
X121216153Y-76200499D01*
X121216157Y-76200500D01*
X121216158Y-76200500D01*
X125938132Y-76200500D01*
X126005171Y-76220185D01*
X126026346Y-76239383D01*
X126027181Y-76238549D01*
X126113181Y-76324549D01*
X126146666Y-76385872D01*
X126149500Y-76412230D01*
X126149500Y-76837769D01*
X126129815Y-76904808D01*
X126113182Y-76925450D01*
X126007287Y-77031345D01*
X125915187Y-77180663D01*
X125915185Y-77180668D01*
X125900337Y-77225476D01*
X125860001Y-77347203D01*
X125860001Y-77347204D01*
X125860000Y-77347204D01*
X125849500Y-77449983D01*
X125849500Y-79550001D01*
X125849501Y-79550018D01*
X125860000Y-79652796D01*
X125860001Y-79652799D01*
X125905370Y-79789711D01*
X125915186Y-79819334D01*
X126007288Y-79968656D01*
X126131344Y-80092712D01*
X126280666Y-80184814D01*
X126447203Y-80239999D01*
X126549991Y-80250500D01*
X127950008Y-80250499D01*
X128052797Y-80239999D01*
X128219334Y-80184814D01*
X128368656Y-80092712D01*
X128492712Y-79968656D01*
X128584814Y-79819334D01*
X128639999Y-79652797D01*
X128650500Y-79550009D01*
X128650499Y-77449992D01*
X128649007Y-77435391D01*
X128639999Y-77347203D01*
X128639998Y-77347200D01*
X128631837Y-77322572D01*
X128584814Y-77180666D01*
X128492712Y-77031344D01*
X128386818Y-76925450D01*
X128353334Y-76864127D01*
X128350500Y-76837769D01*
X128350500Y-76624500D01*
X128370185Y-76557461D01*
X128422989Y-76511706D01*
X128474500Y-76500500D01*
X130186610Y-76500500D01*
X130186611Y-76500500D01*
X130357701Y-76473402D01*
X130522445Y-76419873D01*
X130676788Y-76341232D01*
X130816928Y-76239414D01*
X133299523Y-73756819D01*
X133360846Y-73723334D01*
X133387204Y-73720500D01*
X133819978Y-73720500D01*
X133887017Y-73740185D01*
X133916925Y-73767187D01*
X133981442Y-73848089D01*
X134088339Y-73947274D01*
X134179259Y-74031635D01*
X134402226Y-74183651D01*
X134645359Y-74300738D01*
X134903228Y-74380280D01*
X134903229Y-74380280D01*
X134903232Y-74380281D01*
X135170063Y-74420499D01*
X135170068Y-74420499D01*
X135170071Y-74420500D01*
X135170072Y-74420500D01*
X135439928Y-74420500D01*
X135439929Y-74420500D01*
X135453968Y-74418384D01*
X135706767Y-74380281D01*
X135706768Y-74380280D01*
X135706772Y-74380280D01*
X135964641Y-74300738D01*
X136158161Y-74207544D01*
X136207767Y-74183655D01*
X136207767Y-74183654D01*
X136207775Y-74183651D01*
X136430741Y-74031635D01*
X136628561Y-73848085D01*
X136796815Y-73637102D01*
X136931743Y-73403398D01*
X137030334Y-73152195D01*
X137090383Y-72889103D01*
X137100201Y-72758093D01*
X137110549Y-72620004D01*
X137110549Y-72619995D01*
X137090383Y-72350898D01*
X137053004Y-72187129D01*
X137030334Y-72087805D01*
X136931743Y-71836602D01*
X136796815Y-71602898D01*
X136628561Y-71391915D01*
X136628560Y-71391914D01*
X136628557Y-71391910D01*
X136546096Y-71315399D01*
X136510341Y-71255371D01*
X136512716Y-71185542D01*
X136552466Y-71128081D01*
X136616972Y-71101233D01*
X136630437Y-71100500D01*
X136836610Y-71100500D01*
X136836611Y-71100500D01*
X137007701Y-71073402D01*
X137172445Y-71019873D01*
X137326788Y-70941232D01*
X137466928Y-70839414D01*
X139089414Y-69216928D01*
X139191232Y-69076788D01*
X139265015Y-68931979D01*
X139312989Y-68881184D01*
X139380810Y-68864389D01*
X139446945Y-68886926D01*
G37*
%TD.AperFunction*%
%TA.AperFunction,Conductor*%
G36*
X114027706Y-79197327D02*
G01*
X114050224Y-79215144D01*
X114263181Y-79428101D01*
X114296666Y-79489424D01*
X114299500Y-79515782D01*
X114299500Y-86361313D01*
X114279815Y-86428352D01*
X114252074Y-86457219D01*
X114252749Y-86458023D01*
X114248595Y-86461508D01*
X114081508Y-86628594D01*
X113951269Y-86814595D01*
X113896692Y-86858219D01*
X113827193Y-86865412D01*
X113764839Y-86833890D01*
X113748119Y-86814594D01*
X113618113Y-86628926D01*
X113618108Y-86628920D01*
X113451082Y-86461894D01*
X113257578Y-86326399D01*
X113043492Y-86226570D01*
X113043486Y-86226567D01*
X112830000Y-86169364D01*
X112830000Y-87066988D01*
X112772993Y-87034075D01*
X112645826Y-87000000D01*
X112514174Y-87000000D01*
X112387007Y-87034075D01*
X112330000Y-87066988D01*
X112330000Y-86169364D01*
X112329999Y-86169364D01*
X112116513Y-86226567D01*
X112116507Y-86226570D01*
X111902422Y-86326399D01*
X111902420Y-86326400D01*
X111708926Y-86461886D01*
X111708920Y-86461891D01*
X111541891Y-86628920D01*
X111541890Y-86628922D01*
X111411880Y-86814595D01*
X111357303Y-86858219D01*
X111287804Y-86865412D01*
X111225450Y-86833890D01*
X111208730Y-86814594D01*
X111078494Y-86628597D01*
X110911404Y-86461508D01*
X110911402Y-86461506D01*
X110911401Y-86461505D01*
X110893374Y-86448882D01*
X110849751Y-86394306D01*
X110840500Y-86347309D01*
X110840500Y-86342940D01*
X110860185Y-86275901D01*
X110876819Y-86255259D01*
X111796785Y-85335293D01*
X111796788Y-85335290D01*
X111803288Y-85325561D01*
X111816023Y-85306504D01*
X111816023Y-85306503D01*
X111884394Y-85204179D01*
X111944737Y-85058497D01*
X111945435Y-85054985D01*
X111945789Y-85053212D01*
X111963214Y-84965609D01*
X111975500Y-84903843D01*
X111975500Y-84746158D01*
X111975500Y-83415520D01*
X111995185Y-83348481D01*
X112047989Y-83302726D01*
X112117147Y-83292782D01*
X112180703Y-83321807D01*
X112187181Y-83327839D01*
X112189811Y-83330469D01*
X112189813Y-83330470D01*
X112189815Y-83330472D01*
X112335394Y-83418478D01*
X112497804Y-83469086D01*
X112568384Y-83475500D01*
X112568387Y-83475500D01*
X113081613Y-83475500D01*
X113081616Y-83475500D01*
X113152196Y-83469086D01*
X113314606Y-83418478D01*
X113460185Y-83330472D01*
X113580472Y-83210185D01*
X113668478Y-83064606D01*
X113719086Y-82902196D01*
X113725500Y-82831616D01*
X113725500Y-82168384D01*
X113719086Y-82097804D01*
X113668478Y-81935394D01*
X113650000Y-81904827D01*
X113643383Y-81893881D01*
X113625500Y-81829732D01*
X113625500Y-81170267D01*
X113643384Y-81106116D01*
X113668475Y-81064611D01*
X113668475Y-81064610D01*
X113668478Y-81064606D01*
X113719086Y-80902196D01*
X113725500Y-80831616D01*
X113725500Y-80168384D01*
X113719086Y-80097804D01*
X113668478Y-79935394D01*
X113593382Y-79811171D01*
X113575500Y-79747023D01*
X113575500Y-79402928D01*
X113595185Y-79335889D01*
X113647989Y-79290134D01*
X113675300Y-79281313D01*
X113733497Y-79269737D01*
X113879179Y-79209394D01*
X113893648Y-79199725D01*
X113960325Y-79178845D01*
X114027706Y-79197327D01*
G37*
%TD.AperFunction*%
%TA.AperFunction,Conductor*%
G36*
X111837680Y-74136485D02*
G01*
X111849265Y-74149855D01*
X111892451Y-74207544D01*
X111899808Y-74213051D01*
X111941681Y-74268983D01*
X111949500Y-74312320D01*
X111949500Y-75484098D01*
X111929815Y-75551137D01*
X111877011Y-75596892D01*
X111807853Y-75606836D01*
X111765108Y-75591342D01*
X111765032Y-75591507D01*
X111763183Y-75590645D01*
X111760405Y-75589638D01*
X111758488Y-75588455D01*
X111758481Y-75588452D01*
X111597606Y-75535144D01*
X111498322Y-75525000D01*
X111475000Y-75525000D01*
X111475000Y-78626000D01*
X111455315Y-78693039D01*
X111402511Y-78738794D01*
X111351000Y-78750000D01*
X110275001Y-78750000D01*
X110275001Y-78798322D01*
X110285144Y-78897607D01*
X110338452Y-79058481D01*
X110338457Y-79058492D01*
X110427424Y-79202728D01*
X110427427Y-79202732D01*
X110547267Y-79322572D01*
X110547271Y-79322575D01*
X110654827Y-79388917D01*
X110701552Y-79440865D01*
X110712773Y-79509827D01*
X110684930Y-79573909D01*
X110653881Y-79600571D01*
X110539814Y-79669528D01*
X110531677Y-79677665D01*
X110470353Y-79711147D01*
X110400661Y-79706160D01*
X110344729Y-79664287D01*
X110330719Y-79637260D01*
X110329825Y-79637659D01*
X110327180Y-79631720D01*
X110327179Y-79631716D01*
X110232533Y-79467784D01*
X110105871Y-79327112D01*
X110105870Y-79327111D01*
X109952734Y-79215851D01*
X109952729Y-79215848D01*
X109779807Y-79138857D01*
X109779802Y-79138855D01*
X109624709Y-79105890D01*
X109594646Y-79099500D01*
X109405354Y-79099500D01*
X109350280Y-79111206D01*
X109280613Y-79105890D01*
X109224880Y-79063753D01*
X109200775Y-78998173D01*
X109200500Y-78989916D01*
X109200500Y-78201677D01*
X110275000Y-78201677D01*
X110275000Y-78250000D01*
X110975000Y-78250000D01*
X110975000Y-76750000D01*
X110275001Y-76750000D01*
X110275001Y-76798322D01*
X110285144Y-76897607D01*
X110338452Y-77058481D01*
X110338457Y-77058492D01*
X110427424Y-77202728D01*
X110427427Y-77202732D01*
X110547267Y-77322572D01*
X110547271Y-77322575D01*
X110663816Y-77394462D01*
X110710541Y-77446410D01*
X110721762Y-77515373D01*
X110693919Y-77579455D01*
X110663816Y-77605538D01*
X110547271Y-77677424D01*
X110547267Y-77677427D01*
X110427427Y-77797267D01*
X110427424Y-77797271D01*
X110338457Y-77941507D01*
X110338452Y-77941518D01*
X110285144Y-78102393D01*
X110275000Y-78201677D01*
X109200500Y-78201677D01*
X109200500Y-76201677D01*
X110275000Y-76201677D01*
X110275000Y-76250000D01*
X110975000Y-76250000D01*
X110975000Y-75524999D01*
X110951693Y-75525000D01*
X110951674Y-75525001D01*
X110852392Y-75535144D01*
X110691518Y-75588452D01*
X110691507Y-75588457D01*
X110547271Y-75677424D01*
X110547267Y-75677427D01*
X110427427Y-75797267D01*
X110427424Y-75797271D01*
X110338457Y-75941507D01*
X110338452Y-75941518D01*
X110285144Y-76102393D01*
X110275000Y-76201677D01*
X109200500Y-76201677D01*
X109200500Y-74472351D01*
X109220185Y-74405312D01*
X109272989Y-74359557D01*
X109311247Y-74349061D01*
X109357483Y-74344091D01*
X109492331Y-74293796D01*
X109607546Y-74207546D01*
X109650734Y-74149854D01*
X109706667Y-74107984D01*
X109776359Y-74103000D01*
X109837682Y-74136485D01*
X109849263Y-74149850D01*
X109892454Y-74207546D01*
X109915102Y-74224500D01*
X110007664Y-74293793D01*
X110007671Y-74293797D01*
X110142517Y-74344091D01*
X110142516Y-74344091D01*
X110149444Y-74344835D01*
X110202127Y-74350500D01*
X111297872Y-74350499D01*
X111357483Y-74344091D01*
X111492331Y-74293796D01*
X111607546Y-74207546D01*
X111650733Y-74149854D01*
X111706665Y-74107984D01*
X111776357Y-74103000D01*
X111837680Y-74136485D01*
G37*
%TD.AperFunction*%
%TA.AperFunction,Conductor*%
G36*
X131809835Y-65620185D02*
G01*
X131830477Y-65636819D01*
X133033072Y-66839414D01*
X133065656Y-66863088D01*
X133080029Y-66873530D01*
X133094825Y-66886167D01*
X133476601Y-67267943D01*
X133510086Y-67329266D01*
X133512573Y-67364890D01*
X133499451Y-67539995D01*
X133499451Y-67540004D01*
X133519616Y-67809101D01*
X133579664Y-68072188D01*
X133579666Y-68072195D01*
X133678256Y-68323396D01*
X133678258Y-68323400D01*
X133683409Y-68332321D01*
X133813185Y-68557102D01*
X133895251Y-68660009D01*
X133925697Y-68698187D01*
X133952106Y-68762874D01*
X133939349Y-68831569D01*
X133891479Y-68882463D01*
X133828750Y-68899500D01*
X132086610Y-68899500D01*
X131913389Y-68899500D01*
X131827844Y-68913049D01*
X131742298Y-68926598D01*
X131577549Y-68980128D01*
X131423211Y-69058768D01*
X131343256Y-69116859D01*
X131283072Y-69160586D01*
X131283070Y-69160588D01*
X131283069Y-69160588D01*
X128980477Y-71463181D01*
X128919154Y-71496666D01*
X128892796Y-71499500D01*
X128091562Y-71499500D01*
X128052559Y-71493206D01*
X128027799Y-71485001D01*
X128027795Y-71485000D01*
X127925010Y-71474500D01*
X126574998Y-71474500D01*
X126574981Y-71474501D01*
X126472203Y-71485000D01*
X126472200Y-71485001D01*
X126305668Y-71540185D01*
X126305663Y-71540187D01*
X126156342Y-71632289D01*
X126032289Y-71756342D01*
X125940187Y-71905663D01*
X125940186Y-71905666D01*
X125885001Y-72072203D01*
X125885001Y-72072204D01*
X125885000Y-72072204D01*
X125874500Y-72174983D01*
X125874500Y-73025001D01*
X125874501Y-73025019D01*
X125885000Y-73127796D01*
X125885001Y-73127799D01*
X125940185Y-73294331D01*
X125940186Y-73294334D01*
X126032288Y-73443656D01*
X126156344Y-73567712D01*
X126305666Y-73659814D01*
X126472203Y-73714999D01*
X126574991Y-73725500D01*
X127925008Y-73725499D01*
X128027797Y-73714999D01*
X128052558Y-73706793D01*
X128091562Y-73700500D01*
X129486610Y-73700500D01*
X129486611Y-73700500D01*
X129657701Y-73673402D01*
X129822445Y-73619873D01*
X129976788Y-73541232D01*
X130116928Y-73439414D01*
X132419523Y-71136819D01*
X132480846Y-71103334D01*
X132507204Y-71100500D01*
X133979563Y-71100500D01*
X134046602Y-71120185D01*
X134092357Y-71172989D01*
X134102301Y-71242147D01*
X134073276Y-71305703D01*
X134063904Y-71315399D01*
X133981442Y-71391910D01*
X133916925Y-71472813D01*
X133859736Y-71512953D01*
X133819978Y-71519500D01*
X132793389Y-71519500D01*
X132753728Y-71525781D01*
X132622302Y-71546597D01*
X132457552Y-71600128D01*
X132303211Y-71678768D01*
X132217683Y-71740909D01*
X132217682Y-71740910D01*
X132163071Y-71780586D01*
X129680477Y-74263181D01*
X129619154Y-74296666D01*
X129592796Y-74299500D01*
X128091562Y-74299500D01*
X128052559Y-74293206D01*
X128027799Y-74285001D01*
X128027795Y-74285000D01*
X127925016Y-74274500D01*
X127925009Y-74274500D01*
X127419387Y-74274500D01*
X127371937Y-74265062D01*
X127366836Y-74262949D01*
X127366828Y-74262946D01*
X127173543Y-74224500D01*
X127173540Y-74224500D01*
X126976460Y-74224500D01*
X126976457Y-74224500D01*
X126783168Y-74262947D01*
X126783164Y-74262948D01*
X126778055Y-74265065D01*
X126730612Y-74274500D01*
X126574999Y-74274500D01*
X126574980Y-74274501D01*
X126472203Y-74285000D01*
X126472200Y-74285001D01*
X126305668Y-74340185D01*
X126305663Y-74340187D01*
X126156342Y-74432289D01*
X126027181Y-74561451D01*
X126025294Y-74559564D01*
X125978375Y-74592788D01*
X125938132Y-74599500D01*
X124736823Y-74599500D01*
X124669784Y-74579815D01*
X124624029Y-74527011D01*
X124614085Y-74457853D01*
X124620641Y-74432167D01*
X124654091Y-74342483D01*
X124660500Y-74282873D01*
X124660499Y-72187128D01*
X124654091Y-72127517D01*
X124639990Y-72089711D01*
X124603797Y-71992671D01*
X124603793Y-71992664D01*
X124517547Y-71877455D01*
X124517544Y-71877452D01*
X124402335Y-71791206D01*
X124402328Y-71791202D01*
X124267482Y-71740908D01*
X124267483Y-71740908D01*
X124207883Y-71734501D01*
X124207881Y-71734500D01*
X124207873Y-71734500D01*
X124207865Y-71734500D01*
X123702940Y-71734500D01*
X123635901Y-71714815D01*
X123615259Y-71698181D01*
X122899759Y-70982680D01*
X122866274Y-70921357D01*
X122871258Y-70851665D01*
X122899759Y-70807318D01*
X123159195Y-70547883D01*
X123445259Y-70261819D01*
X123506582Y-70228334D01*
X123532940Y-70225500D01*
X123581613Y-70225500D01*
X123581616Y-70225500D01*
X123652196Y-70219086D01*
X123814606Y-70168478D01*
X123838422Y-70154080D01*
X123856119Y-70143383D01*
X123920268Y-70125500D01*
X125408699Y-70125500D01*
X125475738Y-70145185D01*
X125521493Y-70197989D01*
X125527775Y-70214905D01*
X125548253Y-70285393D01*
X125548255Y-70285396D01*
X125631917Y-70426862D01*
X125631923Y-70426870D01*
X125748129Y-70543076D01*
X125748133Y-70543079D01*
X125748135Y-70543081D01*
X125889602Y-70626744D01*
X125931224Y-70638836D01*
X126047426Y-70672597D01*
X126047429Y-70672597D01*
X126047431Y-70672598D01*
X126084306Y-70675500D01*
X126084314Y-70675500D01*
X126515686Y-70675500D01*
X126515694Y-70675500D01*
X126552569Y-70672598D01*
X126552571Y-70672597D01*
X126552573Y-70672597D01*
X126594191Y-70660505D01*
X126710398Y-70626744D01*
X126851865Y-70543081D01*
X126968081Y-70426865D01*
X127051744Y-70285398D01*
X127097598Y-70127569D01*
X127100500Y-70090694D01*
X127100500Y-70090649D01*
X127400000Y-70090649D01*
X127402899Y-70127489D01*
X127402900Y-70127495D01*
X127448716Y-70285193D01*
X127448717Y-70285196D01*
X127532314Y-70426552D01*
X127532321Y-70426561D01*
X127648438Y-70542678D01*
X127648447Y-70542685D01*
X127789801Y-70626281D01*
X127947514Y-70672100D01*
X127947511Y-70672100D01*
X127949998Y-70672295D01*
X127950000Y-70672295D01*
X128450000Y-70672295D01*
X128450001Y-70672295D01*
X128452486Y-70672100D01*
X128610198Y-70626281D01*
X128751552Y-70542685D01*
X128751561Y-70542678D01*
X128867678Y-70426561D01*
X128867685Y-70426552D01*
X128951282Y-70285196D01*
X128951283Y-70285193D01*
X128997099Y-70127495D01*
X128997100Y-70127489D01*
X128999999Y-70090649D01*
X129000000Y-70090634D01*
X129000000Y-69687500D01*
X128450000Y-69687500D01*
X128450000Y-70672295D01*
X127950000Y-70672295D01*
X127950000Y-69687500D01*
X127400000Y-69687500D01*
X127400000Y-70090649D01*
X127100500Y-70090649D01*
X127100500Y-68924500D01*
X127120185Y-68857461D01*
X127172989Y-68811706D01*
X127224500Y-68800500D01*
X127276000Y-68800500D01*
X127343039Y-68820185D01*
X127388794Y-68872989D01*
X127400000Y-68924500D01*
X127400000Y-69187500D01*
X127950000Y-69187500D01*
X128450000Y-69187500D01*
X129000000Y-69187500D01*
X129000000Y-68784365D01*
X128999999Y-68784350D01*
X128997100Y-68747510D01*
X128997099Y-68747504D01*
X128951283Y-68589806D01*
X128951282Y-68589803D01*
X128867685Y-68448447D01*
X128867678Y-68448438D01*
X128751561Y-68332321D01*
X128751552Y-68332314D01*
X128610196Y-68248717D01*
X128610193Y-68248716D01*
X128452494Y-68202900D01*
X128452497Y-68202900D01*
X128450000Y-68202703D01*
X128450000Y-69187500D01*
X127950000Y-69187500D01*
X127950000Y-68531814D01*
X127967267Y-68468694D01*
X128001744Y-68410398D01*
X128047598Y-68252569D01*
X128050500Y-68215694D01*
X128050500Y-68202934D01*
X128070185Y-68135895D01*
X128071398Y-68134043D01*
X128095804Y-68097517D01*
X128136632Y-68036414D01*
X128212051Y-67854335D01*
X128250500Y-67661041D01*
X128250500Y-66234797D01*
X128270185Y-66167758D01*
X128309403Y-66129258D01*
X128368656Y-66092712D01*
X128492712Y-65968656D01*
X128584814Y-65819334D01*
X128629164Y-65685494D01*
X128668936Y-65628051D01*
X128733451Y-65601228D01*
X128746869Y-65600500D01*
X131742796Y-65600500D01*
X131809835Y-65620185D01*
G37*
%TD.AperFunction*%
%TA.AperFunction,Conductor*%
G36*
X135002702Y-40500617D02*
G01*
X135386771Y-40517386D01*
X135397506Y-40518326D01*
X135775971Y-40568152D01*
X135786597Y-40570025D01*
X136159284Y-40652648D01*
X136169710Y-40655442D01*
X136533765Y-40770227D01*
X136543911Y-40773920D01*
X136896578Y-40920000D01*
X136906369Y-40924566D01*
X137244942Y-41100816D01*
X137254309Y-41106223D01*
X137410784Y-41205909D01*
X137576244Y-41311318D01*
X137585105Y-41317523D01*
X137887930Y-41549889D01*
X137896217Y-41556843D01*
X138177635Y-41814715D01*
X138185284Y-41822364D01*
X138443156Y-42103782D01*
X138450110Y-42112069D01*
X138682476Y-42414894D01*
X138688681Y-42423755D01*
X138893775Y-42745689D01*
X138899183Y-42755057D01*
X139075430Y-43093623D01*
X139080002Y-43103427D01*
X139226075Y-43456078D01*
X139229775Y-43466244D01*
X139344554Y-43830278D01*
X139347354Y-43840727D01*
X139429971Y-44213389D01*
X139431849Y-44224042D01*
X139481671Y-44602473D01*
X139482614Y-44613249D01*
X139499382Y-44997297D01*
X139499500Y-45002706D01*
X139499500Y-54756725D01*
X139479815Y-54823764D01*
X139427011Y-54869519D01*
X139357853Y-54879463D01*
X139294297Y-54850438D01*
X139265015Y-54813020D01*
X139191231Y-54668211D01*
X139191025Y-54667927D01*
X139089414Y-54528072D01*
X138966928Y-54405586D01*
X137133398Y-52572056D01*
X137099913Y-52510733D01*
X137097426Y-52475108D01*
X137110549Y-52300003D01*
X137110549Y-52299995D01*
X137093744Y-52075747D01*
X137090383Y-52030897D01*
X137030334Y-51767805D01*
X136931743Y-51516602D01*
X136796815Y-51282898D01*
X136628561Y-51071915D01*
X136628560Y-51071914D01*
X136628557Y-51071910D01*
X136430741Y-50888365D01*
X136401288Y-50868284D01*
X136207775Y-50736349D01*
X136207771Y-50736347D01*
X136207768Y-50736345D01*
X136207767Y-50736344D01*
X135964643Y-50619263D01*
X135964645Y-50619263D01*
X135706773Y-50539720D01*
X135706767Y-50539718D01*
X135439936Y-50499500D01*
X135439929Y-50499500D01*
X135170071Y-50499500D01*
X135170063Y-50499500D01*
X135137047Y-50504477D01*
X135067822Y-50495004D01*
X135030885Y-50469543D01*
X131286819Y-46725477D01*
X131253334Y-46664154D01*
X131250500Y-46637796D01*
X131250500Y-44999997D01*
X131645080Y-44999997D01*
X131645080Y-45000002D01*
X131664746Y-45362728D01*
X131723517Y-45721214D01*
X131723519Y-45721222D01*
X131820695Y-46071220D01*
X131820697Y-46071227D01*
X131955152Y-46408684D01*
X131955161Y-46408702D01*
X132125316Y-46729647D01*
X132125318Y-46729651D01*
X132329170Y-47030309D01*
X132329177Y-47030319D01*
X132460969Y-47185475D01*
X132460970Y-47185475D01*
X133705748Y-45940698D01*
X133779588Y-46042330D01*
X133957670Y-46220412D01*
X134059300Y-46294251D01*
X132811888Y-47541662D01*
X132811888Y-47541664D01*
X132828070Y-47556992D01*
X132828071Y-47556993D01*
X133117266Y-47776832D01*
X133117282Y-47776843D01*
X133428522Y-47964109D01*
X133428535Y-47964116D01*
X133758205Y-48116639D01*
X133758210Y-48116640D01*
X134102461Y-48232632D01*
X134457235Y-48310724D01*
X134818366Y-48349999D01*
X134818374Y-48350000D01*
X135181626Y-48350000D01*
X135181633Y-48349999D01*
X135542764Y-48310724D01*
X135897538Y-48232632D01*
X136241789Y-48116640D01*
X136241794Y-48116639D01*
X136571464Y-47964116D01*
X136571477Y-47964109D01*
X136882717Y-47776843D01*
X136882733Y-47776832D01*
X137171929Y-47556992D01*
X137188110Y-47541664D01*
X137188110Y-47541663D01*
X135940698Y-46294251D01*
X136042330Y-46220412D01*
X136220412Y-46042330D01*
X136294251Y-45940698D01*
X137539028Y-47185475D01*
X137539029Y-47185475D01*
X137670827Y-47030311D01*
X137670838Y-47030297D01*
X137874681Y-46729651D01*
X137874683Y-46729647D01*
X138044838Y-46408702D01*
X138044847Y-46408684D01*
X138179302Y-46071227D01*
X138179304Y-46071220D01*
X138276480Y-45721222D01*
X138276482Y-45721214D01*
X138335253Y-45362728D01*
X138354920Y-45000002D01*
X138354920Y-44999997D01*
X138335253Y-44637271D01*
X138276482Y-44278785D01*
X138276480Y-44278777D01*
X138179304Y-43928779D01*
X138179302Y-43928772D01*
X138044847Y-43591315D01*
X138044838Y-43591297D01*
X137874683Y-43270352D01*
X137874681Y-43270348D01*
X137670829Y-42969690D01*
X137670822Y-42969680D01*
X137539029Y-42814523D01*
X137539028Y-42814523D01*
X136294251Y-44059300D01*
X136220412Y-43957670D01*
X136042330Y-43779588D01*
X135940698Y-43705748D01*
X137188110Y-42458336D01*
X137188110Y-42458334D01*
X137171929Y-42443007D01*
X137171928Y-42443006D01*
X136882733Y-42223167D01*
X136882717Y-42223156D01*
X136571477Y-42035890D01*
X136571464Y-42035883D01*
X136241794Y-41883360D01*
X136241789Y-41883359D01*
X135897538Y-41767367D01*
X135542764Y-41689275D01*
X135181633Y-41650000D01*
X134818366Y-41650000D01*
X134457235Y-41689275D01*
X134102461Y-41767367D01*
X133758210Y-41883359D01*
X133758205Y-41883360D01*
X133428535Y-42035883D01*
X133428522Y-42035890D01*
X133117282Y-42223156D01*
X133117266Y-42223167D01*
X132828075Y-42443002D01*
X132811888Y-42458335D01*
X132811887Y-42458335D01*
X134059301Y-43705748D01*
X133957670Y-43779588D01*
X133779588Y-43957670D01*
X133705748Y-44059300D01*
X132460970Y-42814522D01*
X132460969Y-42814523D01*
X132329177Y-42969680D01*
X132329170Y-42969690D01*
X132125318Y-43270348D01*
X132125316Y-43270352D01*
X131955161Y-43591297D01*
X131955152Y-43591315D01*
X131820697Y-43928772D01*
X131820695Y-43928779D01*
X131723519Y-44278777D01*
X131723517Y-44278785D01*
X131664746Y-44637271D01*
X131645080Y-44999997D01*
X131250500Y-44999997D01*
X131250500Y-43591561D01*
X131256794Y-43552557D01*
X131258356Y-43547844D01*
X131264999Y-43527797D01*
X131275500Y-43425009D01*
X131275499Y-42074992D01*
X131264999Y-41972203D01*
X131209814Y-41805666D01*
X131117712Y-41656344D01*
X130993656Y-41532288D01*
X130872671Y-41457664D01*
X130844336Y-41440187D01*
X130844331Y-41440185D01*
X130842862Y-41439698D01*
X130677797Y-41385001D01*
X130677795Y-41385000D01*
X130575010Y-41374500D01*
X129724998Y-41374500D01*
X129724980Y-41374501D01*
X129622203Y-41385000D01*
X129622200Y-41385001D01*
X129455668Y-41440185D01*
X129455663Y-41440187D01*
X129306342Y-41532289D01*
X129182289Y-41656342D01*
X129090187Y-41805663D01*
X129090185Y-41805668D01*
X129087187Y-41814715D01*
X129035001Y-41972203D01*
X129035001Y-41972204D01*
X129035000Y-41972204D01*
X129024500Y-42074983D01*
X129024500Y-43425001D01*
X129024501Y-43425018D01*
X129035000Y-43527796D01*
X129043206Y-43552557D01*
X129049500Y-43591561D01*
X129049500Y-47058389D01*
X129049500Y-47231611D01*
X129076598Y-47402701D01*
X129121750Y-47541664D01*
X129130128Y-47567447D01*
X129150558Y-47607544D01*
X129208768Y-47721788D01*
X129310586Y-47861928D01*
X129310588Y-47861930D01*
X132436477Y-50987819D01*
X132469962Y-51049142D01*
X132464978Y-51118834D01*
X132423106Y-51174767D01*
X132357642Y-51199184D01*
X132348796Y-51199500D01*
X131786611Y-51199500D01*
X131613389Y-51199500D01*
X131527844Y-51213049D01*
X131442298Y-51226598D01*
X131277549Y-51280128D01*
X131123211Y-51358768D01*
X131065773Y-51400500D01*
X130983072Y-51460586D01*
X130983070Y-51460588D01*
X130983069Y-51460588D01*
X128980477Y-53463181D01*
X128919154Y-53496666D01*
X128892796Y-53499500D01*
X128091562Y-53499500D01*
X128052559Y-53493206D01*
X128027799Y-53485001D01*
X128027795Y-53485000D01*
X127925010Y-53474500D01*
X126574998Y-53474500D01*
X126574981Y-53474501D01*
X126472203Y-53485000D01*
X126472200Y-53485001D01*
X126305668Y-53540185D01*
X126305663Y-53540187D01*
X126156342Y-53632289D01*
X126032289Y-53756342D01*
X125940187Y-53905663D01*
X125940185Y-53905668D01*
X125930335Y-53935394D01*
X125885001Y-54072203D01*
X125885001Y-54072204D01*
X125885000Y-54072204D01*
X125874500Y-54174983D01*
X125874500Y-55025001D01*
X125874501Y-55025019D01*
X125885000Y-55127796D01*
X125885001Y-55127799D01*
X125940185Y-55294331D01*
X125940186Y-55294334D01*
X126032288Y-55443656D01*
X126156344Y-55567712D01*
X126305666Y-55659814D01*
X126472203Y-55714999D01*
X126574991Y-55725500D01*
X127925008Y-55725499D01*
X128027797Y-55714999D01*
X128052558Y-55706793D01*
X128091562Y-55700500D01*
X129486610Y-55700500D01*
X129486611Y-55700500D01*
X129657701Y-55673402D01*
X129822445Y-55619873D01*
X129976788Y-55541232D01*
X130116928Y-55439414D01*
X132119523Y-53436819D01*
X132180846Y-53403334D01*
X132207204Y-53400500D01*
X133819978Y-53400500D01*
X133887017Y-53420185D01*
X133916925Y-53447187D01*
X133981442Y-53528089D01*
X134155743Y-53689815D01*
X134179259Y-53711635D01*
X134402226Y-53863651D01*
X134645359Y-53980738D01*
X134903228Y-54060280D01*
X134903229Y-54060280D01*
X134903232Y-54060281D01*
X135170063Y-54100499D01*
X135170068Y-54100499D01*
X135170071Y-54100500D01*
X135170072Y-54100500D01*
X135439923Y-54100500D01*
X135439929Y-54100500D01*
X135472952Y-54095522D01*
X135542176Y-54104995D01*
X135579114Y-54130456D01*
X137113181Y-55664523D01*
X137146666Y-55725846D01*
X137149500Y-55752204D01*
X137149500Y-56511993D01*
X137129815Y-56579032D01*
X137077011Y-56624787D01*
X137007853Y-56634731D01*
X136944297Y-56605706D01*
X136918113Y-56573993D01*
X136796397Y-56363177D01*
X136742704Y-56295847D01*
X135906041Y-57132510D01*
X135881022Y-57072110D01*
X135809888Y-56965649D01*
X135719351Y-56875112D01*
X135612890Y-56803978D01*
X135552488Y-56778958D01*
X136390150Y-55941296D01*
X136207517Y-55816779D01*
X136207516Y-55816778D01*
X135964460Y-55699730D01*
X135964462Y-55699730D01*
X135706662Y-55620209D01*
X135706656Y-55620207D01*
X135439898Y-55580000D01*
X135170101Y-55580000D01*
X134903343Y-55620207D01*
X134903337Y-55620209D01*
X134645538Y-55699730D01*
X134402485Y-55816778D01*
X134402476Y-55816783D01*
X134219848Y-55941296D01*
X135057511Y-56778958D01*
X134997110Y-56803978D01*
X134890649Y-56875112D01*
X134800112Y-56965649D01*
X134728978Y-57072110D01*
X134703958Y-57132511D01*
X133867295Y-56295848D01*
X133813600Y-56363180D01*
X133678709Y-56596818D01*
X133580148Y-56847947D01*
X133580142Y-56847966D01*
X133520113Y-57110971D01*
X133520113Y-57110973D01*
X133499953Y-57379995D01*
X133499953Y-57380004D01*
X133520113Y-57649026D01*
X133520113Y-57649028D01*
X133580142Y-57912033D01*
X133580148Y-57912052D01*
X133678709Y-58163181D01*
X133678708Y-58163181D01*
X133813602Y-58396822D01*
X133867294Y-58464151D01*
X134703957Y-57627487D01*
X134728978Y-57687890D01*
X134800112Y-57794351D01*
X134890649Y-57884888D01*
X134997110Y-57956022D01*
X135057510Y-57981041D01*
X134219848Y-58818702D01*
X134402483Y-58943220D01*
X134402485Y-58943221D01*
X134645539Y-59060269D01*
X134645537Y-59060269D01*
X134903337Y-59139790D01*
X134903343Y-59139792D01*
X135170101Y-59179999D01*
X135170110Y-59180000D01*
X135439890Y-59180000D01*
X135439898Y-59179999D01*
X135706656Y-59139792D01*
X135706662Y-59139790D01*
X135964461Y-59060269D01*
X136207521Y-58943218D01*
X136390150Y-58818702D01*
X135552488Y-57981041D01*
X135612890Y-57956022D01*
X135719351Y-57884888D01*
X135809888Y-57794351D01*
X135881022Y-57687890D01*
X135906041Y-57627488D01*
X136742703Y-58464151D01*
X136742704Y-58464150D01*
X136796393Y-58396828D01*
X136796400Y-58396817D01*
X136918113Y-58186006D01*
X136968680Y-58137790D01*
X137037287Y-58124567D01*
X137102152Y-58150535D01*
X137142680Y-58207450D01*
X137149500Y-58248006D01*
X137149500Y-61590993D01*
X137129815Y-61658032D01*
X137077011Y-61703787D01*
X137007853Y-61713731D01*
X136944297Y-61684706D01*
X136918113Y-61652993D01*
X136858650Y-61550001D01*
X136796815Y-61442898D01*
X136628561Y-61231915D01*
X136628560Y-61231914D01*
X136628557Y-61231910D01*
X136430741Y-61048365D01*
X136383115Y-61015894D01*
X136207775Y-60896349D01*
X136207771Y-60896347D01*
X136207768Y-60896345D01*
X136207767Y-60896344D01*
X135964643Y-60779263D01*
X135964645Y-60779263D01*
X135706773Y-60699720D01*
X135706767Y-60699718D01*
X135439936Y-60659500D01*
X135439929Y-60659500D01*
X135170071Y-60659500D01*
X135170063Y-60659500D01*
X135137047Y-60664477D01*
X135067822Y-60655004D01*
X135030885Y-60629543D01*
X131061930Y-56660588D01*
X131061928Y-56660586D01*
X130921788Y-56558768D01*
X130767445Y-56480127D01*
X130602701Y-56426598D01*
X130602699Y-56426597D01*
X130602698Y-56426597D01*
X130471271Y-56405781D01*
X130431611Y-56399500D01*
X130431610Y-56399500D01*
X128325664Y-56399500D01*
X128260568Y-56381039D01*
X128194340Y-56340189D01*
X128194335Y-56340187D01*
X128194334Y-56340186D01*
X128027797Y-56285001D01*
X128027795Y-56285000D01*
X127925016Y-56274500D01*
X127925009Y-56274500D01*
X127419387Y-56274500D01*
X127371937Y-56265062D01*
X127366836Y-56262949D01*
X127366828Y-56262946D01*
X127173543Y-56224500D01*
X127173540Y-56224500D01*
X126976460Y-56224500D01*
X126976457Y-56224500D01*
X126783168Y-56262947D01*
X126783164Y-56262948D01*
X126778055Y-56265065D01*
X126730612Y-56274500D01*
X126574999Y-56274500D01*
X126574980Y-56274501D01*
X126472203Y-56285000D01*
X126472200Y-56285001D01*
X126305668Y-56340185D01*
X126305663Y-56340187D01*
X126156342Y-56432289D01*
X126027181Y-56561451D01*
X126025294Y-56559564D01*
X125978375Y-56592788D01*
X125938132Y-56599500D01*
X124736823Y-56599500D01*
X124669784Y-56579815D01*
X124624029Y-56527011D01*
X124614085Y-56457853D01*
X124620641Y-56432167D01*
X124622718Y-56426598D01*
X124654091Y-56342483D01*
X124660500Y-56282873D01*
X124660499Y-54187128D01*
X124654091Y-54127517D01*
X124644014Y-54100500D01*
X124603797Y-53992671D01*
X124603793Y-53992664D01*
X124517547Y-53877455D01*
X124517544Y-53877452D01*
X124402335Y-53791206D01*
X124402328Y-53791202D01*
X124267482Y-53740908D01*
X124267483Y-53740908D01*
X124207883Y-53734501D01*
X124207881Y-53734500D01*
X124207873Y-53734500D01*
X124207865Y-53734500D01*
X123702940Y-53734500D01*
X123635901Y-53714815D01*
X123615259Y-53698181D01*
X122830292Y-52913213D01*
X122830288Y-52913210D01*
X122699185Y-52825609D01*
X122699172Y-52825602D01*
X122553501Y-52765264D01*
X122553489Y-52765261D01*
X122398845Y-52734500D01*
X122398842Y-52734500D01*
X119218842Y-52734500D01*
X119061157Y-52734500D01*
X119061154Y-52734500D01*
X118906509Y-52765261D01*
X118906497Y-52765264D01*
X118863832Y-52782936D01*
X118863833Y-52782937D01*
X118760823Y-52825604D01*
X118760815Y-52825609D01*
X118632563Y-52911304D01*
X118632564Y-52911305D01*
X118629710Y-52913212D01*
X118629703Y-52913217D01*
X117828107Y-53714815D01*
X117564711Y-53978211D01*
X117508960Y-54033962D01*
X117453209Y-54089712D01*
X117365609Y-54220814D01*
X117365602Y-54220827D01*
X117305264Y-54366498D01*
X117305261Y-54366510D01*
X117274500Y-54521153D01*
X117274500Y-55834480D01*
X117254815Y-55901519D01*
X117202011Y-55947274D01*
X117132853Y-55957218D01*
X117069297Y-55928193D01*
X117062819Y-55922161D01*
X117060188Y-55919530D01*
X117040971Y-55907913D01*
X116914606Y-55831522D01*
X116752196Y-55780914D01*
X116752194Y-55780913D01*
X116752192Y-55780913D01*
X116702778Y-55776423D01*
X116681616Y-55774500D01*
X116168384Y-55774500D01*
X116149145Y-55776248D01*
X116097807Y-55780913D01*
X115935393Y-55831522D01*
X115789811Y-55919530D01*
X115669530Y-56039811D01*
X115581522Y-56185393D01*
X115530913Y-56347807D01*
X115524500Y-56418386D01*
X115524500Y-57081613D01*
X115530913Y-57152192D01*
X115530913Y-57152194D01*
X115530914Y-57152196D01*
X115581522Y-57314606D01*
X115581523Y-57314607D01*
X115581524Y-57314611D01*
X115606616Y-57356116D01*
X115624500Y-57420267D01*
X115624500Y-58982283D01*
X115604815Y-59049322D01*
X115552011Y-59095077D01*
X115482853Y-59105021D01*
X115426189Y-59081550D01*
X115392331Y-59056204D01*
X115392328Y-59056202D01*
X115257482Y-59005908D01*
X115257483Y-59005908D01*
X115197883Y-58999501D01*
X115197881Y-58999500D01*
X115197873Y-58999500D01*
X115197865Y-58999500D01*
X113831884Y-58999500D01*
X113764845Y-58979815D01*
X113719090Y-58927011D01*
X113709146Y-58857853D01*
X113715703Y-58832166D01*
X113743595Y-58757383D01*
X113743598Y-58757372D01*
X113749999Y-58697844D01*
X113750000Y-58697827D01*
X113750000Y-57650000D01*
X113000000Y-57650000D01*
X113000000Y-59091102D01*
X112980315Y-59158141D01*
X112975267Y-59165413D01*
X112906203Y-59257669D01*
X112906202Y-59257671D01*
X112855908Y-59392517D01*
X112849501Y-59452116D01*
X112849500Y-59452135D01*
X112849500Y-60547870D01*
X112849501Y-60547876D01*
X112855908Y-60607483D01*
X112906202Y-60742328D01*
X112906206Y-60742335D01*
X112992452Y-60857544D01*
X112992453Y-60857544D01*
X112992454Y-60857546D01*
X113021615Y-60879376D01*
X113050145Y-60900734D01*
X113092015Y-60956668D01*
X113096999Y-61026360D01*
X113063513Y-61087683D01*
X113050145Y-61099266D01*
X112992452Y-61142455D01*
X112906206Y-61257664D01*
X112906202Y-61257671D01*
X112855908Y-61392517D01*
X112849501Y-61452116D01*
X112849500Y-61452135D01*
X112849500Y-62547870D01*
X112849501Y-62547876D01*
X112855908Y-62607483D01*
X112906202Y-62742328D01*
X112906206Y-62742335D01*
X112992452Y-62857544D01*
X112992453Y-62857544D01*
X112992454Y-62857546D01*
X113021615Y-62879376D01*
X113050145Y-62900734D01*
X113092015Y-62956668D01*
X113096999Y-63026360D01*
X113063513Y-63087683D01*
X113050145Y-63099266D01*
X112992452Y-63142455D01*
X112906206Y-63257664D01*
X112906202Y-63257671D01*
X112855908Y-63392517D01*
X112849501Y-63452116D01*
X112849500Y-63452135D01*
X112849500Y-64547870D01*
X112849501Y-64547876D01*
X112855908Y-64607483D01*
X112906202Y-64742328D01*
X112906206Y-64742335D01*
X112992452Y-64857544D01*
X112992453Y-64857544D01*
X112992454Y-64857546D01*
X113021615Y-64879376D01*
X113050145Y-64900734D01*
X113092015Y-64956668D01*
X113096999Y-65026360D01*
X113063513Y-65087683D01*
X113050145Y-65099266D01*
X112992452Y-65142455D01*
X112906206Y-65257664D01*
X112906202Y-65257671D01*
X112855908Y-65392517D01*
X112849501Y-65452116D01*
X112849500Y-65452135D01*
X112849500Y-66547870D01*
X112849501Y-66547876D01*
X112855908Y-66607483D01*
X112906202Y-66742328D01*
X112906206Y-66742335D01*
X112992452Y-66857544D01*
X112992453Y-66857544D01*
X112992454Y-66857546D01*
X113013806Y-66873530D01*
X113050145Y-66900734D01*
X113092015Y-66956668D01*
X113096999Y-67026360D01*
X113063513Y-67087683D01*
X113050145Y-67099266D01*
X112992452Y-67142455D01*
X112906206Y-67257664D01*
X112906202Y-67257671D01*
X112855908Y-67392517D01*
X112849501Y-67452116D01*
X112849500Y-67452135D01*
X112849500Y-68547870D01*
X112849501Y-68547876D01*
X112855908Y-68607483D01*
X112906202Y-68742328D01*
X112906206Y-68742335D01*
X112992452Y-68857544D01*
X112992453Y-68857544D01*
X112992454Y-68857546D01*
X113013083Y-68872989D01*
X113050145Y-68900734D01*
X113092015Y-68956668D01*
X113096999Y-69026360D01*
X113063513Y-69087683D01*
X113050145Y-69099266D01*
X112992452Y-69142455D01*
X112906206Y-69257664D01*
X112906202Y-69257671D01*
X112855908Y-69392517D01*
X112849501Y-69452116D01*
X112849500Y-69452135D01*
X112849501Y-70547861D01*
X112849501Y-70547876D01*
X112855908Y-70607483D01*
X112883764Y-70682167D01*
X112888748Y-70751859D01*
X112855263Y-70813182D01*
X112793939Y-70846666D01*
X112767582Y-70849500D01*
X112202129Y-70849500D01*
X112202123Y-70849501D01*
X112142516Y-70855908D01*
X112007671Y-70906202D01*
X112007664Y-70906206D01*
X111892455Y-70992452D01*
X111849266Y-71050145D01*
X111793332Y-71092015D01*
X111723640Y-71096999D01*
X111662317Y-71063513D01*
X111650734Y-71050145D01*
X111613568Y-71000499D01*
X111607546Y-70992454D01*
X111607544Y-70992453D01*
X111607544Y-70992452D01*
X111492335Y-70906206D01*
X111492328Y-70906202D01*
X111357482Y-70855908D01*
X111357483Y-70855908D01*
X111297883Y-70849501D01*
X111297881Y-70849500D01*
X111297873Y-70849500D01*
X111297864Y-70849500D01*
X110202129Y-70849500D01*
X110202123Y-70849501D01*
X110142516Y-70855908D01*
X110007671Y-70906202D01*
X110007664Y-70906206D01*
X109892455Y-70992452D01*
X109849266Y-71050145D01*
X109793332Y-71092015D01*
X109723640Y-71096999D01*
X109662317Y-71063513D01*
X109650734Y-71050145D01*
X109613568Y-71000499D01*
X109607546Y-70992454D01*
X109607544Y-70992453D01*
X109607544Y-70992452D01*
X109492335Y-70906206D01*
X109492328Y-70906202D01*
X109357482Y-70855908D01*
X109357483Y-70855908D01*
X109297883Y-70849501D01*
X109297881Y-70849500D01*
X109297873Y-70849500D01*
X109297864Y-70849500D01*
X108202129Y-70849500D01*
X108202123Y-70849501D01*
X108142516Y-70855908D01*
X108007671Y-70906202D01*
X108007664Y-70906206D01*
X107892455Y-70992452D01*
X107849266Y-71050145D01*
X107793332Y-71092015D01*
X107723640Y-71096999D01*
X107662317Y-71063513D01*
X107650734Y-71050145D01*
X107613568Y-71000499D01*
X107607546Y-70992454D01*
X107607544Y-70992453D01*
X107607544Y-70992452D01*
X107492335Y-70906206D01*
X107492328Y-70906202D01*
X107357482Y-70855908D01*
X107357483Y-70855908D01*
X107297883Y-70849501D01*
X107297881Y-70849500D01*
X107297873Y-70849500D01*
X107297864Y-70849500D01*
X106202129Y-70849500D01*
X106202123Y-70849501D01*
X106142516Y-70855908D01*
X106007671Y-70906202D01*
X106007664Y-70906206D01*
X105892455Y-70992452D01*
X105849266Y-71050145D01*
X105793332Y-71092015D01*
X105723640Y-71096999D01*
X105662317Y-71063513D01*
X105650734Y-71050145D01*
X105613568Y-71000499D01*
X105607546Y-70992454D01*
X105607544Y-70992453D01*
X105607544Y-70992452D01*
X105492335Y-70906206D01*
X105492328Y-70906202D01*
X105357482Y-70855908D01*
X105357483Y-70855908D01*
X105297883Y-70849501D01*
X105297881Y-70849500D01*
X105297873Y-70849500D01*
X105297864Y-70849500D01*
X104202129Y-70849500D01*
X104202123Y-70849501D01*
X104142516Y-70855908D01*
X104007671Y-70906202D01*
X104007664Y-70906206D01*
X103892455Y-70992452D01*
X103849266Y-71050145D01*
X103793332Y-71092015D01*
X103723640Y-71096999D01*
X103662317Y-71063513D01*
X103650734Y-71050145D01*
X103613568Y-71000499D01*
X103607546Y-70992454D01*
X103607544Y-70992453D01*
X103607544Y-70992452D01*
X103492335Y-70906206D01*
X103492328Y-70906202D01*
X103357482Y-70855908D01*
X103357483Y-70855908D01*
X103297883Y-70849501D01*
X103297881Y-70849500D01*
X103297873Y-70849500D01*
X103297864Y-70849500D01*
X102202129Y-70849500D01*
X102202123Y-70849501D01*
X102142516Y-70855908D01*
X102007671Y-70906202D01*
X102007664Y-70906206D01*
X101892455Y-70992452D01*
X101849266Y-71050145D01*
X101793332Y-71092015D01*
X101723640Y-71096999D01*
X101662317Y-71063513D01*
X101650734Y-71050145D01*
X101613568Y-71000499D01*
X101607546Y-70992454D01*
X101607544Y-70992453D01*
X101607544Y-70992452D01*
X101492335Y-70906206D01*
X101492328Y-70906202D01*
X101357482Y-70855908D01*
X101357483Y-70855908D01*
X101297883Y-70849501D01*
X101297881Y-70849500D01*
X101297873Y-70849500D01*
X101297864Y-70849500D01*
X100202129Y-70849500D01*
X100202123Y-70849501D01*
X100142516Y-70855908D01*
X100007671Y-70906202D01*
X100007664Y-70906206D01*
X99892455Y-70992452D01*
X99849266Y-71050145D01*
X99793332Y-71092015D01*
X99723640Y-71096999D01*
X99662317Y-71063513D01*
X99650734Y-71050145D01*
X99613568Y-71000499D01*
X99607546Y-70992454D01*
X99607544Y-70992453D01*
X99607544Y-70992452D01*
X99492335Y-70906206D01*
X99492328Y-70906202D01*
X99357482Y-70855908D01*
X99357483Y-70855908D01*
X99297883Y-70849501D01*
X99297881Y-70849500D01*
X99297873Y-70849500D01*
X99297864Y-70849500D01*
X98202129Y-70849500D01*
X98202120Y-70849501D01*
X98137252Y-70856474D01*
X98068493Y-70844067D01*
X98017357Y-70796455D01*
X98000000Y-70733184D01*
X98000000Y-59681441D01*
X98019685Y-59614402D01*
X98072489Y-59568647D01*
X98141647Y-59558703D01*
X98205203Y-59587728D01*
X98211681Y-59593760D01*
X99739708Y-61121787D01*
X99739712Y-61121790D01*
X99870815Y-61209391D01*
X99870819Y-61209393D01*
X99870822Y-61209395D01*
X100016504Y-61269739D01*
X100171154Y-61300500D01*
X100171158Y-61300501D01*
X100171159Y-61300501D01*
X100328844Y-61300501D01*
X101028538Y-61300501D01*
X101095577Y-61320186D01*
X101141332Y-61372990D01*
X101151276Y-61442148D01*
X101146469Y-61462819D01*
X101118137Y-61550016D01*
X101114326Y-61561744D01*
X101094540Y-61750000D01*
X101114326Y-61938256D01*
X101114327Y-61938259D01*
X101172818Y-62118277D01*
X101172821Y-62118284D01*
X101267467Y-62282216D01*
X101360660Y-62385717D01*
X101394129Y-62422888D01*
X101547265Y-62534148D01*
X101547270Y-62534151D01*
X101720192Y-62611142D01*
X101720197Y-62611144D01*
X101905354Y-62650500D01*
X101905355Y-62650500D01*
X102094644Y-62650500D01*
X102094646Y-62650500D01*
X102279803Y-62611144D01*
X102452730Y-62534151D01*
X102605871Y-62422888D01*
X102657851Y-62365158D01*
X102717336Y-62328510D01*
X102787193Y-62329840D01*
X102842148Y-62365158D01*
X102860660Y-62385717D01*
X102894129Y-62422888D01*
X103047265Y-62534148D01*
X103047270Y-62534151D01*
X103220192Y-62611142D01*
X103220197Y-62611144D01*
X103405354Y-62650500D01*
X103405355Y-62650500D01*
X103594644Y-62650500D01*
X103594646Y-62650500D01*
X103779803Y-62611144D01*
X103952730Y-62534151D01*
X104105871Y-62422888D01*
X104157851Y-62365158D01*
X104217336Y-62328510D01*
X104287193Y-62329840D01*
X104342148Y-62365158D01*
X104360660Y-62385717D01*
X104394129Y-62422888D01*
X104547265Y-62534148D01*
X104547270Y-62534151D01*
X104720192Y-62611142D01*
X104720197Y-62611144D01*
X104905354Y-62650500D01*
X104905355Y-62650500D01*
X105094644Y-62650500D01*
X105094646Y-62650500D01*
X105279803Y-62611144D01*
X105452730Y-62534151D01*
X105605871Y-62422888D01*
X105732533Y-62282216D01*
X105827179Y-62118284D01*
X105885674Y-61938256D01*
X105905460Y-61750000D01*
X105885674Y-61561744D01*
X105827179Y-61381716D01*
X105827178Y-61381715D01*
X105827178Y-61381713D01*
X105817112Y-61364277D01*
X105800500Y-61302279D01*
X105800500Y-60632939D01*
X105820185Y-60565900D01*
X105836814Y-60545263D01*
X107195259Y-59186817D01*
X107256582Y-59153333D01*
X107282940Y-59150499D01*
X107297871Y-59150499D01*
X107297872Y-59150499D01*
X107357483Y-59144091D01*
X107492331Y-59093796D01*
X107607546Y-59007546D01*
X107650734Y-58949854D01*
X107706667Y-58907984D01*
X107776359Y-58903000D01*
X107837682Y-58936485D01*
X107849263Y-58949850D01*
X107892454Y-59007546D01*
X107938643Y-59042123D01*
X108007664Y-59093793D01*
X108007671Y-59093797D01*
X108142517Y-59144091D01*
X108142516Y-59144091D01*
X108149444Y-59144835D01*
X108202127Y-59150500D01*
X109297872Y-59150499D01*
X109357483Y-59144091D01*
X109492331Y-59093796D01*
X109607546Y-59007546D01*
X109650734Y-58949854D01*
X109706667Y-58907984D01*
X109776359Y-58903000D01*
X109837682Y-58936485D01*
X109849263Y-58949850D01*
X109892454Y-59007546D01*
X109938643Y-59042123D01*
X110007664Y-59093793D01*
X110007671Y-59093797D01*
X110142517Y-59144091D01*
X110142516Y-59144091D01*
X110149444Y-59144835D01*
X110202127Y-59150500D01*
X111297872Y-59150499D01*
X111357483Y-59144091D01*
X111492331Y-59093796D01*
X111607546Y-59007546D01*
X111651046Y-58949436D01*
X111706979Y-58907567D01*
X111776671Y-58902583D01*
X111837994Y-58936068D01*
X111849578Y-58949438D01*
X111892809Y-59007187D01*
X111892812Y-59007190D01*
X112007906Y-59093350D01*
X112007913Y-59093354D01*
X112142620Y-59143596D01*
X112142627Y-59143598D01*
X112202155Y-59149999D01*
X112202172Y-59150000D01*
X112500000Y-59150000D01*
X112500000Y-55650000D01*
X112226431Y-55650000D01*
X112159392Y-55630315D01*
X112113637Y-55577511D01*
X112103693Y-55508353D01*
X112132718Y-55444797D01*
X112162281Y-55419883D01*
X112164604Y-55418478D01*
X112164606Y-55418478D01*
X112310185Y-55330472D01*
X112412673Y-55227983D01*
X112473994Y-55194499D01*
X112543685Y-55199483D01*
X112588034Y-55227984D01*
X112690122Y-55330072D01*
X112835604Y-55418019D01*
X112835603Y-55418019D01*
X112941976Y-55451166D01*
X113000124Y-55489903D01*
X113028098Y-55553928D01*
X113017016Y-55622914D01*
X113000000Y-55646996D01*
X113000000Y-57150000D01*
X113750000Y-57150000D01*
X113750000Y-56102172D01*
X113749999Y-56102155D01*
X113743598Y-56042627D01*
X113743596Y-56042620D01*
X113693354Y-55907913D01*
X113693350Y-55907906D01*
X113607190Y-55792812D01*
X113607187Y-55792809D01*
X113484989Y-55701331D01*
X113486174Y-55699747D01*
X113444853Y-55658426D01*
X113430001Y-55590153D01*
X113454418Y-55524689D01*
X113510351Y-55482817D01*
X113553685Y-55474999D01*
X113581581Y-55474999D01*
X113652102Y-55468591D01*
X113652107Y-55468590D01*
X113814396Y-55418018D01*
X113959877Y-55330072D01*
X114080072Y-55209877D01*
X114168019Y-55064395D01*
X114218590Y-54902106D01*
X114225000Y-54831572D01*
X114225000Y-54750000D01*
X113199000Y-54750000D01*
X113131961Y-54730315D01*
X113086206Y-54677511D01*
X113075000Y-54626000D01*
X113075000Y-53524999D01*
X113061325Y-53511326D01*
X113041486Y-53474999D01*
X113525000Y-53474999D01*
X113538681Y-53488680D01*
X113572166Y-53550003D01*
X113575000Y-53576361D01*
X113575000Y-54250000D01*
X114224999Y-54250000D01*
X114224999Y-54168417D01*
X114218591Y-54097897D01*
X114218590Y-54097892D01*
X114168018Y-53935603D01*
X114080072Y-53790122D01*
X113959877Y-53669927D01*
X113845639Y-53600868D01*
X113798452Y-53549340D01*
X113786613Y-53480481D01*
X113813882Y-53416152D01*
X113844692Y-53389212D01*
X113952733Y-53322571D01*
X114072572Y-53202732D01*
X114072575Y-53202728D01*
X114161542Y-53058492D01*
X114161547Y-53058481D01*
X114214855Y-52897606D01*
X114224999Y-52798322D01*
X114225000Y-52798309D01*
X114225000Y-52750000D01*
X113525000Y-52750000D01*
X113525000Y-53474999D01*
X113041486Y-53474999D01*
X113027836Y-53450006D01*
X113025000Y-53423639D01*
X113025000Y-52250000D01*
X113525000Y-52250000D01*
X114224999Y-52250000D01*
X114224999Y-52201692D01*
X114224998Y-52201677D01*
X114214855Y-52102392D01*
X114161547Y-51941518D01*
X114161542Y-51941507D01*
X114072575Y-51797271D01*
X114072572Y-51797267D01*
X113952732Y-51677427D01*
X113952728Y-51677424D01*
X113808492Y-51588457D01*
X113808481Y-51588452D01*
X113647606Y-51535144D01*
X113548322Y-51525000D01*
X113525000Y-51525000D01*
X113525000Y-52250000D01*
X113025000Y-52250000D01*
X113025000Y-51524999D01*
X113001693Y-51525000D01*
X113001674Y-51525001D01*
X112902392Y-51535144D01*
X112741518Y-51588452D01*
X112741507Y-51588457D01*
X112597271Y-51677424D01*
X112597265Y-51677428D01*
X112588031Y-51686663D01*
X112526707Y-51720146D01*
X112457015Y-51715159D01*
X112412672Y-51686660D01*
X112403044Y-51677032D01*
X112403040Y-51677029D01*
X112258705Y-51588001D01*
X112258699Y-51587998D01*
X112258697Y-51587997D01*
X112201742Y-51569124D01*
X112097709Y-51534651D01*
X111998352Y-51524500D01*
X111996270Y-51524500D01*
X111995835Y-51524372D01*
X111995197Y-51524340D01*
X111995204Y-51524187D01*
X111929231Y-51504815D01*
X111883476Y-51452011D01*
X111873532Y-51382853D01*
X111902557Y-51319297D01*
X111928611Y-51299986D01*
X125850001Y-51299986D01*
X125860494Y-51402697D01*
X125915641Y-51569119D01*
X125915643Y-51569124D01*
X126007684Y-51718345D01*
X126131654Y-51842315D01*
X126280875Y-51934356D01*
X126280880Y-51934358D01*
X126447302Y-51989505D01*
X126447309Y-51989506D01*
X126550019Y-51999999D01*
X126999999Y-51999999D01*
X127500000Y-51999999D01*
X127949972Y-51999999D01*
X127949986Y-51999998D01*
X128052697Y-51989505D01*
X128219119Y-51934358D01*
X128219124Y-51934356D01*
X128368345Y-51842315D01*
X128492315Y-51718345D01*
X128584356Y-51569124D01*
X128584358Y-51569119D01*
X128639505Y-51402697D01*
X128639506Y-51402690D01*
X128649999Y-51299986D01*
X128650000Y-51299973D01*
X128650000Y-50500000D01*
X127500000Y-50500000D01*
X127500000Y-51999999D01*
X126999999Y-51999999D01*
X127000000Y-51999998D01*
X127000000Y-50500000D01*
X125850001Y-50500000D01*
X125850001Y-51299986D01*
X111928611Y-51299986D01*
X111945834Y-51287221D01*
X111952730Y-51284151D01*
X112105871Y-51172888D01*
X112232533Y-51032216D01*
X112238257Y-51022300D01*
X112241031Y-51017498D01*
X112291598Y-50969284D01*
X112348417Y-50955500D01*
X113643276Y-50955500D01*
X113643284Y-50955499D01*
X114372871Y-50955499D01*
X114372872Y-50955499D01*
X114432483Y-50949091D01*
X114447052Y-50943656D01*
X114516742Y-50938670D01*
X114533723Y-50943655D01*
X114667623Y-50993597D01*
X114667627Y-50993598D01*
X114727155Y-50999999D01*
X114727172Y-51000000D01*
X116000000Y-51000000D01*
X116000000Y-50053553D01*
X115999999Y-50053552D01*
X115737680Y-50315871D01*
X115676357Y-50349356D01*
X115606665Y-50344372D01*
X115562318Y-50315871D01*
X115266610Y-50020163D01*
X115500000Y-50020163D01*
X115500000Y-50079837D01*
X115522836Y-50134968D01*
X115565032Y-50177164D01*
X115620163Y-50200000D01*
X115679837Y-50200000D01*
X115734968Y-50177164D01*
X115777164Y-50134968D01*
X115800000Y-50079837D01*
X115800000Y-50020163D01*
X116700000Y-50020163D01*
X116700000Y-50079837D01*
X116722836Y-50134968D01*
X116765032Y-50177164D01*
X116820163Y-50200000D01*
X116879837Y-50200000D01*
X116934968Y-50177164D01*
X116977164Y-50134968D01*
X117000000Y-50079837D01*
X117000000Y-50020163D01*
X116977164Y-49965032D01*
X116934968Y-49922836D01*
X116879837Y-49900000D01*
X116820163Y-49900000D01*
X116765032Y-49922836D01*
X116722836Y-49965032D01*
X116700000Y-50020163D01*
X115800000Y-50020163D01*
X115777164Y-49965032D01*
X115734968Y-49922836D01*
X115679837Y-49900000D01*
X115620163Y-49900000D01*
X115565032Y-49922836D01*
X115522836Y-49965032D01*
X115500000Y-50020163D01*
X115266610Y-50020163D01*
X114964813Y-49718366D01*
X114931328Y-49657043D01*
X114936312Y-49587351D01*
X114964813Y-49543003D01*
X115007817Y-49499999D01*
X115453553Y-49499999D01*
X115650000Y-49696446D01*
X115846446Y-49500001D01*
X115846446Y-49500000D01*
X115846445Y-49499999D01*
X116653553Y-49499999D01*
X116850000Y-49696446D01*
X117046446Y-49500001D01*
X117046446Y-49500000D01*
X116850000Y-49303553D01*
X116653553Y-49499999D01*
X115846445Y-49499999D01*
X115650000Y-49303553D01*
X115453553Y-49499999D01*
X115007817Y-49499999D01*
X114964813Y-49456995D01*
X114931328Y-49395672D01*
X114936312Y-49325980D01*
X114964813Y-49281633D01*
X115326283Y-48920163D01*
X115500000Y-48920163D01*
X115500000Y-48979837D01*
X115522836Y-49034968D01*
X115565032Y-49077164D01*
X115620163Y-49100000D01*
X115679837Y-49100000D01*
X115734968Y-49077164D01*
X115777164Y-49034968D01*
X115800000Y-48979837D01*
X115800000Y-48920163D01*
X115777164Y-48865032D01*
X115734968Y-48822836D01*
X115679837Y-48800000D01*
X115620163Y-48800000D01*
X115565032Y-48822836D01*
X115522836Y-48865032D01*
X115500000Y-48920163D01*
X115326283Y-48920163D01*
X115562319Y-48684127D01*
X115623642Y-48650642D01*
X115693334Y-48655626D01*
X115737681Y-48684127D01*
X116000000Y-48946446D01*
X116000000Y-45500000D01*
X114727155Y-45500000D01*
X114667627Y-45506401D01*
X114667619Y-45506403D01*
X114533721Y-45556344D01*
X114464029Y-45561328D01*
X114447058Y-45556345D01*
X114438375Y-45553106D01*
X114432481Y-45550908D01*
X114372883Y-45544501D01*
X114372881Y-45544500D01*
X114372873Y-45544500D01*
X114372864Y-45544500D01*
X114369548Y-45544322D01*
X114369615Y-45543065D01*
X114307461Y-45524815D01*
X114261706Y-45472011D01*
X114250500Y-45420500D01*
X114250500Y-43949986D01*
X114500001Y-43949986D01*
X114510494Y-44052697D01*
X114565641Y-44219119D01*
X114565643Y-44219124D01*
X114657684Y-44368345D01*
X114781654Y-44492315D01*
X114930875Y-44584356D01*
X114930880Y-44584358D01*
X115097302Y-44639505D01*
X115097309Y-44639506D01*
X115200019Y-44649999D01*
X115999999Y-44649999D01*
X116000000Y-44649998D01*
X116000000Y-43500000D01*
X114500001Y-43500000D01*
X114500001Y-43949986D01*
X114250500Y-43949986D01*
X114250500Y-43926456D01*
X114227882Y-43812752D01*
X114225499Y-43788560D01*
X114225499Y-43751662D01*
X114225498Y-43751644D01*
X114215349Y-43652292D01*
X114215348Y-43652289D01*
X114192058Y-43582005D01*
X114162003Y-43491303D01*
X114161999Y-43491297D01*
X114161998Y-43491294D01*
X114072970Y-43346959D01*
X114072967Y-43346955D01*
X114063693Y-43337681D01*
X114030208Y-43276358D01*
X114035192Y-43206666D01*
X114063693Y-43162319D01*
X114072968Y-43153044D01*
X114162003Y-43008697D01*
X114215349Y-42847708D01*
X114225500Y-42748345D01*
X114225499Y-42711434D01*
X114227882Y-42687241D01*
X114236759Y-42642620D01*
X114250500Y-42573541D01*
X114250500Y-42573540D01*
X114251097Y-42567481D01*
X114252519Y-42567621D01*
X114270185Y-42507461D01*
X114322989Y-42461706D01*
X114374500Y-42450500D01*
X114376000Y-42450500D01*
X114443039Y-42470185D01*
X114488794Y-42522989D01*
X114500000Y-42574500D01*
X114500000Y-43000000D01*
X116376000Y-43000000D01*
X116443039Y-43019685D01*
X116488794Y-43072489D01*
X116500000Y-43124000D01*
X116500000Y-44649999D01*
X117299972Y-44649999D01*
X117299986Y-44649998D01*
X117402697Y-44639505D01*
X117569119Y-44584358D01*
X117569124Y-44584356D01*
X117718345Y-44492315D01*
X117737819Y-44472842D01*
X117799142Y-44439357D01*
X117868834Y-44444341D01*
X117924767Y-44486213D01*
X117949184Y-44551677D01*
X117949500Y-44560523D01*
X117949500Y-45380948D01*
X117929815Y-45447987D01*
X117877011Y-45493742D01*
X117812244Y-45504237D01*
X117772844Y-45500000D01*
X116500000Y-45500000D01*
X116500000Y-48946445D01*
X116526282Y-48920163D01*
X116700000Y-48920163D01*
X116700000Y-48979837D01*
X116722836Y-49034968D01*
X116765032Y-49077164D01*
X116820163Y-49100000D01*
X116879837Y-49100000D01*
X116934968Y-49077164D01*
X116977164Y-49034968D01*
X117000000Y-48979837D01*
X117000000Y-48920163D01*
X116977164Y-48865032D01*
X116934968Y-48822836D01*
X116879837Y-48800000D01*
X116820163Y-48800000D01*
X116765032Y-48822836D01*
X116722836Y-48865032D01*
X116700000Y-48920163D01*
X116526282Y-48920163D01*
X116762318Y-48684127D01*
X116823641Y-48650642D01*
X116893332Y-48655626D01*
X116937680Y-48684127D01*
X117535186Y-49281633D01*
X117568671Y-49342956D01*
X117563687Y-49412648D01*
X117535187Y-49456995D01*
X117492182Y-49500000D01*
X117535186Y-49543004D01*
X117568671Y-49604327D01*
X117563687Y-49674019D01*
X117535186Y-49718366D01*
X116937681Y-50315871D01*
X116876358Y-50349356D01*
X116806666Y-50344372D01*
X116762319Y-50315871D01*
X116500000Y-50053552D01*
X116500000Y-51000000D01*
X117772828Y-51000000D01*
X117772844Y-50999999D01*
X117832372Y-50993598D01*
X117832376Y-50993597D01*
X117966277Y-50943655D01*
X118035969Y-50938671D01*
X118052932Y-50943651D01*
X118067517Y-50949091D01*
X118127127Y-50955500D01*
X119772872Y-50955499D01*
X119832483Y-50949091D01*
X119967331Y-50898796D01*
X120082546Y-50812546D01*
X120168796Y-50697331D01*
X120219091Y-50562483D01*
X120225500Y-50502873D01*
X120225499Y-50099986D01*
X122350001Y-50099986D01*
X122360494Y-50202697D01*
X122415641Y-50369119D01*
X122415643Y-50369124D01*
X122507684Y-50518345D01*
X122631654Y-50642315D01*
X122780875Y-50734356D01*
X122780880Y-50734358D01*
X122947302Y-50789505D01*
X122947309Y-50789506D01*
X123050019Y-50799999D01*
X123499999Y-50799999D01*
X124000000Y-50799999D01*
X124449972Y-50799999D01*
X124449986Y-50799998D01*
X124552697Y-50789505D01*
X124719119Y-50734358D01*
X124719124Y-50734356D01*
X124868345Y-50642315D01*
X124992315Y-50518345D01*
X125084356Y-50369124D01*
X125084358Y-50369119D01*
X125139505Y-50202697D01*
X125139506Y-50202690D01*
X125149999Y-50099986D01*
X125150000Y-50099973D01*
X125150000Y-49975000D01*
X124000000Y-49975000D01*
X124000000Y-50799999D01*
X123499999Y-50799999D01*
X123500000Y-50799998D01*
X123500000Y-49975000D01*
X122350001Y-49975000D01*
X122350001Y-50099986D01*
X120225499Y-50099986D01*
X120225499Y-49807128D01*
X120225498Y-49807125D01*
X120225470Y-49806590D01*
X120225499Y-49806467D01*
X120225499Y-49803807D01*
X120226128Y-49803807D01*
X120241542Y-49738594D01*
X120291824Y-49690081D01*
X120360352Y-49676454D01*
X120425369Y-49702039D01*
X120436974Y-49712279D01*
X120547267Y-49822572D01*
X120547271Y-49822575D01*
X120691507Y-49911542D01*
X120691518Y-49911547D01*
X120852393Y-49964855D01*
X120951683Y-49974999D01*
X120999999Y-49974998D01*
X121000000Y-49974998D01*
X121000000Y-49275000D01*
X121500000Y-49275000D01*
X121500000Y-49974999D01*
X121548308Y-49974999D01*
X121548322Y-49974998D01*
X121647607Y-49964855D01*
X121808481Y-49911547D01*
X121808492Y-49911542D01*
X121952728Y-49822575D01*
X121952732Y-49822572D01*
X122072572Y-49702732D01*
X122072575Y-49702728D01*
X122161542Y-49558492D01*
X122161548Y-49558479D01*
X122165995Y-49545060D01*
X122205767Y-49487615D01*
X122270283Y-49460791D01*
X122339059Y-49473106D01*
X122341689Y-49475000D01*
X123500000Y-49475000D01*
X124000000Y-49475000D01*
X125149999Y-49475000D01*
X125149999Y-49350028D01*
X125149998Y-49350013D01*
X125139505Y-49247302D01*
X125123835Y-49200013D01*
X125850000Y-49200013D01*
X125850000Y-50000000D01*
X127000000Y-50000000D01*
X127500000Y-50000000D01*
X128649999Y-50000000D01*
X128649999Y-49200028D01*
X128649998Y-49200013D01*
X128639505Y-49097302D01*
X128584358Y-48930880D01*
X128584356Y-48930875D01*
X128492315Y-48781654D01*
X128368345Y-48657684D01*
X128219124Y-48565643D01*
X128219119Y-48565641D01*
X128052697Y-48510494D01*
X128052690Y-48510493D01*
X127949986Y-48500000D01*
X127500000Y-48500000D01*
X127500000Y-50000000D01*
X127000000Y-50000000D01*
X127000000Y-48500000D01*
X126550028Y-48500000D01*
X126550012Y-48500001D01*
X126447302Y-48510494D01*
X126280880Y-48565641D01*
X126280875Y-48565643D01*
X126131654Y-48657684D01*
X126007684Y-48781654D01*
X125915643Y-48930875D01*
X125915641Y-48930880D01*
X125860494Y-49097302D01*
X125860493Y-49097309D01*
X125850000Y-49200013D01*
X125123835Y-49200013D01*
X125084358Y-49080880D01*
X125084356Y-49080875D01*
X124992315Y-48931654D01*
X124868345Y-48807684D01*
X124719124Y-48715643D01*
X124719119Y-48715641D01*
X124552697Y-48660494D01*
X124552690Y-48660493D01*
X124449986Y-48650000D01*
X124000000Y-48650000D01*
X124000000Y-49475000D01*
X123500000Y-49475000D01*
X123500000Y-48650000D01*
X123050028Y-48650000D01*
X123050012Y-48650001D01*
X122947302Y-48660494D01*
X122780880Y-48715641D01*
X122780875Y-48715643D01*
X122631654Y-48807684D01*
X122507684Y-48931654D01*
X122415643Y-49080875D01*
X122415641Y-49080880D01*
X122379482Y-49190004D01*
X122339710Y-49247449D01*
X122275194Y-49274272D01*
X122261776Y-49275000D01*
X121500000Y-49275000D01*
X121000000Y-49275000D01*
X120349000Y-49275000D01*
X120281961Y-49255315D01*
X120236206Y-49202511D01*
X120225000Y-49151000D01*
X120225000Y-49135000D01*
X118824000Y-49135000D01*
X118756961Y-49115315D01*
X118711206Y-49062511D01*
X118700000Y-49011000D01*
X118700000Y-48759000D01*
X118719685Y-48691961D01*
X118772489Y-48646206D01*
X118824000Y-48635000D01*
X120151000Y-48635000D01*
X120218039Y-48654685D01*
X120263794Y-48707489D01*
X120275000Y-48759000D01*
X120275000Y-48775000D01*
X122224999Y-48775000D01*
X122224999Y-48751692D01*
X122224998Y-48751677D01*
X122214855Y-48652392D01*
X122161547Y-48491518D01*
X122161542Y-48491507D01*
X122072575Y-48347271D01*
X122072572Y-48347267D01*
X122063339Y-48338034D01*
X122029854Y-48276711D01*
X122034838Y-48207019D01*
X122063343Y-48162668D01*
X122072968Y-48153044D01*
X122162003Y-48008697D01*
X122215349Y-47847708D01*
X122220274Y-47799500D01*
X122221562Y-47786897D01*
X122247959Y-47722205D01*
X122305140Y-47682054D01*
X122344920Y-47675500D01*
X122568273Y-47675500D01*
X122633368Y-47693960D01*
X122780666Y-47784814D01*
X122947203Y-47839999D01*
X123049991Y-47850500D01*
X124450008Y-47850499D01*
X124552797Y-47839999D01*
X124719334Y-47784814D01*
X124866631Y-47693960D01*
X124931727Y-47675500D01*
X125913132Y-47675500D01*
X125980171Y-47695185D01*
X126001346Y-47714383D01*
X126002181Y-47713549D01*
X126007288Y-47718656D01*
X126131344Y-47842712D01*
X126280666Y-47934814D01*
X126447203Y-47989999D01*
X126549991Y-48000500D01*
X127950008Y-48000499D01*
X127959798Y-47999499D01*
X127967895Y-47998671D01*
X128052797Y-47989999D01*
X128219334Y-47934814D01*
X128368656Y-47842712D01*
X128492712Y-47718656D01*
X128584814Y-47569334D01*
X128639999Y-47402797D01*
X128650500Y-47300009D01*
X128650499Y-45199992D01*
X128639999Y-45097203D01*
X128584814Y-44930666D01*
X128492712Y-44781344D01*
X128386818Y-44675450D01*
X128353334Y-44614127D01*
X128350500Y-44587769D01*
X128350500Y-43825663D01*
X128368962Y-43760566D01*
X128409809Y-43694342D01*
X128409808Y-43694342D01*
X128409814Y-43694334D01*
X128464999Y-43527797D01*
X128475500Y-43425009D01*
X128475499Y-42074992D01*
X128464999Y-41972203D01*
X128409814Y-41805666D01*
X128317712Y-41656344D01*
X128193656Y-41532288D01*
X128072671Y-41457664D01*
X128044336Y-41440187D01*
X128044331Y-41440185D01*
X128042862Y-41439698D01*
X127877797Y-41385001D01*
X127877795Y-41385000D01*
X127775010Y-41374500D01*
X126924998Y-41374500D01*
X126924980Y-41374501D01*
X126822203Y-41385000D01*
X126822200Y-41385001D01*
X126655668Y-41440185D01*
X126655663Y-41440187D01*
X126506342Y-41532289D01*
X126382289Y-41656342D01*
X126290187Y-41805663D01*
X126290185Y-41805668D01*
X126287187Y-41814715D01*
X126235001Y-41972203D01*
X126235001Y-41972204D01*
X126235000Y-41972204D01*
X126224500Y-42074983D01*
X126224500Y-43425001D01*
X126224501Y-43425018D01*
X126235000Y-43527796D01*
X126235001Y-43527799D01*
X126290185Y-43694331D01*
X126290190Y-43694342D01*
X126331038Y-43760566D01*
X126349500Y-43825663D01*
X126349500Y-44454091D01*
X126329815Y-44521130D01*
X126285731Y-44559641D01*
X126286813Y-44561395D01*
X126280667Y-44565185D01*
X126280666Y-44565186D01*
X126220214Y-44602473D01*
X126131342Y-44657289D01*
X126007289Y-44781342D01*
X125915187Y-44930663D01*
X125915186Y-44930666D01*
X125860001Y-45097203D01*
X125860001Y-45097204D01*
X125860000Y-45097204D01*
X125849500Y-45199983D01*
X125849500Y-45750500D01*
X125829815Y-45817539D01*
X125777011Y-45863294D01*
X125725500Y-45874500D01*
X124931727Y-45874500D01*
X124866631Y-45856039D01*
X124719334Y-45765186D01*
X124552797Y-45710001D01*
X124552795Y-45710000D01*
X124450010Y-45699500D01*
X123049998Y-45699500D01*
X123049981Y-45699501D01*
X122947203Y-45710000D01*
X122947200Y-45710001D01*
X122780668Y-45765185D01*
X122780663Y-45765187D01*
X122696584Y-45817047D01*
X122633368Y-45856039D01*
X122568273Y-45874500D01*
X121976589Y-45874500D01*
X121952398Y-45872117D01*
X121838695Y-45849500D01*
X121838692Y-45849500D01*
X121661308Y-45849500D01*
X121661303Y-45849500D01*
X121487341Y-45884103D01*
X121487333Y-45884105D01*
X121323457Y-45951985D01*
X121286039Y-45976987D01*
X121175963Y-46050536D01*
X121113250Y-46113250D01*
X121050536Y-46175964D01*
X121050534Y-46175966D01*
X120563756Y-46662742D01*
X120552138Y-46671942D01*
X120552621Y-46672552D01*
X120546956Y-46677031D01*
X120515807Y-46708181D01*
X120454484Y-46741666D01*
X120428126Y-46744500D01*
X120349500Y-46744500D01*
X120282461Y-46724815D01*
X120236706Y-46672011D01*
X120225500Y-46620500D01*
X120225499Y-45997129D01*
X120225498Y-45997123D01*
X120219091Y-45937516D01*
X120168797Y-45802671D01*
X120168793Y-45802664D01*
X120082547Y-45687455D01*
X120000188Y-45625800D01*
X119958318Y-45569866D01*
X119950500Y-45526534D01*
X119950500Y-45015781D01*
X119970185Y-44948742D01*
X119986815Y-44928104D01*
X120228101Y-44686817D01*
X120289424Y-44653333D01*
X120315782Y-44650499D01*
X121300002Y-44650499D01*
X121300008Y-44650499D01*
X121402797Y-44639999D01*
X121569334Y-44584814D01*
X121718656Y-44492712D01*
X121842712Y-44368656D01*
X121934814Y-44219334D01*
X121989999Y-44052797D01*
X122000500Y-43950009D01*
X122000499Y-42549992D01*
X121991480Y-42461706D01*
X121989999Y-42447203D01*
X121989998Y-42447200D01*
X121979293Y-42414894D01*
X121934814Y-42280666D01*
X121842712Y-42131344D01*
X121718656Y-42007288D01*
X121569334Y-41915186D01*
X121402797Y-41860001D01*
X121402795Y-41860000D01*
X121300016Y-41849500D01*
X121300009Y-41849500D01*
X119599057Y-41849500D01*
X119532018Y-41829815D01*
X119511376Y-41813181D01*
X118517483Y-40819289D01*
X118517480Y-40819285D01*
X118517480Y-40819286D01*
X118510413Y-40812219D01*
X118510413Y-40812218D01*
X118410376Y-40712181D01*
X118376892Y-40650858D01*
X118381876Y-40581166D01*
X118423748Y-40525233D01*
X118489213Y-40500816D01*
X118498058Y-40500500D01*
X134934108Y-40500500D01*
X134997294Y-40500500D01*
X135002702Y-40500617D01*
G37*
%TD.AperFunction*%
%TA.AperFunction,Conductor*%
G36*
X119258834Y-54650757D02*
G01*
X119314767Y-54692629D01*
X119339184Y-54758093D01*
X119339500Y-54766939D01*
X119339500Y-56282870D01*
X119339501Y-56282871D01*
X119345908Y-56342483D01*
X119396202Y-56477328D01*
X119396206Y-56477335D01*
X119482452Y-56592544D01*
X119482455Y-56592547D01*
X119597664Y-56678793D01*
X119597671Y-56678797D01*
X119642618Y-56695561D01*
X119732517Y-56729091D01*
X119792127Y-56735500D01*
X119805496Y-56735499D01*
X119872533Y-56755180D01*
X119918291Y-56807981D01*
X119929500Y-56859499D01*
X119929500Y-56913846D01*
X119960261Y-57068489D01*
X119960264Y-57068501D01*
X120020602Y-57214172D01*
X120020609Y-57214185D01*
X120108210Y-57345288D01*
X120108213Y-57345292D01*
X120784707Y-58021786D01*
X120784711Y-58021789D01*
X120915814Y-58109390D01*
X120915818Y-58109392D01*
X120915821Y-58109394D01*
X121061503Y-58169738D01*
X121216153Y-58200499D01*
X121216157Y-58200500D01*
X121216158Y-58200500D01*
X121373843Y-58200500D01*
X125938132Y-58200500D01*
X126005171Y-58220185D01*
X126026346Y-58239383D01*
X126027181Y-58238549D01*
X126113181Y-58324549D01*
X126146666Y-58385872D01*
X126149500Y-58412230D01*
X126149500Y-58837769D01*
X126129815Y-58904808D01*
X126113182Y-58925450D01*
X126007287Y-59031345D01*
X125915187Y-59180663D01*
X125915185Y-59180668D01*
X125889670Y-59257669D01*
X125860001Y-59347203D01*
X125860001Y-59347204D01*
X125860000Y-59347204D01*
X125849500Y-59449983D01*
X125849500Y-61550001D01*
X125849501Y-61550018D01*
X125860000Y-61652796D01*
X125860001Y-61652799D01*
X125892211Y-61750000D01*
X125915186Y-61819334D01*
X126007288Y-61968656D01*
X126131344Y-62092712D01*
X126280666Y-62184814D01*
X126447203Y-62239999D01*
X126549991Y-62250500D01*
X127950008Y-62250499D01*
X128052797Y-62239999D01*
X128219334Y-62184814D01*
X128368656Y-62092712D01*
X128492712Y-61968656D01*
X128584814Y-61819334D01*
X128639999Y-61652797D01*
X128650500Y-61550009D01*
X128650499Y-59449992D01*
X128649007Y-59435391D01*
X128639999Y-59347203D01*
X128639998Y-59347200D01*
X128602320Y-59233497D01*
X128584814Y-59180666D01*
X128492712Y-59031344D01*
X128386818Y-58925450D01*
X128353334Y-58864127D01*
X128350500Y-58837769D01*
X128350500Y-58724500D01*
X128370185Y-58657461D01*
X128422989Y-58611706D01*
X128474500Y-58600500D01*
X129837796Y-58600500D01*
X129904835Y-58620185D01*
X129925477Y-58636819D01*
X133476601Y-62187943D01*
X133510086Y-62249266D01*
X133512573Y-62284890D01*
X133499451Y-62459995D01*
X133499451Y-62460004D01*
X133519616Y-62729101D01*
X133579664Y-62992188D01*
X133579666Y-62992195D01*
X133678256Y-63243396D01*
X133678258Y-63243400D01*
X133704267Y-63288449D01*
X133813185Y-63477102D01*
X133878312Y-63558768D01*
X133981442Y-63688089D01*
X134168183Y-63861358D01*
X134179259Y-63871635D01*
X134402226Y-64023651D01*
X134645359Y-64140738D01*
X134903228Y-64220280D01*
X134903229Y-64220280D01*
X134903232Y-64220281D01*
X135170063Y-64260499D01*
X135170068Y-64260499D01*
X135170071Y-64260500D01*
X135170072Y-64260500D01*
X135439928Y-64260500D01*
X135439929Y-64260500D01*
X135439936Y-64260499D01*
X135706767Y-64220281D01*
X135706768Y-64220280D01*
X135706772Y-64220280D01*
X135964641Y-64140738D01*
X136207775Y-64023651D01*
X136430741Y-63871635D01*
X136628561Y-63688085D01*
X136796815Y-63477102D01*
X136918113Y-63267005D01*
X136968680Y-63218791D01*
X137037287Y-63205567D01*
X137102151Y-63231535D01*
X137142680Y-63288449D01*
X137149500Y-63329006D01*
X137149500Y-66670993D01*
X137129815Y-66738032D01*
X137077011Y-66783787D01*
X137007853Y-66793731D01*
X136944297Y-66764706D01*
X136918113Y-66732993D01*
X136874835Y-66658034D01*
X136796815Y-66522898D01*
X136628561Y-66311915D01*
X136628560Y-66311914D01*
X136628557Y-66311910D01*
X136430741Y-66128365D01*
X136266162Y-66016157D01*
X136207775Y-65976349D01*
X136207771Y-65976347D01*
X136207768Y-65976345D01*
X136207767Y-65976344D01*
X135964643Y-65859263D01*
X135964645Y-65859263D01*
X135706773Y-65779720D01*
X135706767Y-65779718D01*
X135439936Y-65739500D01*
X135439929Y-65739500D01*
X135170071Y-65739500D01*
X135170063Y-65739500D01*
X135137047Y-65744477D01*
X135067822Y-65735004D01*
X135030885Y-65709543D01*
X134481927Y-65160585D01*
X134434964Y-65126464D01*
X134420170Y-65113828D01*
X132966930Y-63660588D01*
X132966928Y-63660586D01*
X132826788Y-63558768D01*
X132672445Y-63480127D01*
X132507701Y-63426598D01*
X132507699Y-63426597D01*
X132507698Y-63426597D01*
X132376271Y-63405781D01*
X132336611Y-63399500D01*
X132336610Y-63399500D01*
X128746870Y-63399500D01*
X128679831Y-63379815D01*
X128634076Y-63327011D01*
X128629164Y-63314505D01*
X128614881Y-63271403D01*
X128584814Y-63180666D01*
X128492712Y-63031344D01*
X128368656Y-62907288D01*
X128219334Y-62815186D01*
X128052797Y-62760001D01*
X128052795Y-62760000D01*
X127950010Y-62749500D01*
X126549998Y-62749500D01*
X126549981Y-62749501D01*
X126447203Y-62760000D01*
X126447200Y-62760001D01*
X126280668Y-62815185D01*
X126280663Y-62815187D01*
X126131342Y-62907289D01*
X126007289Y-63031342D01*
X125915187Y-63180663D01*
X125915185Y-63180668D01*
X125898330Y-63231535D01*
X125860001Y-63347203D01*
X125860001Y-63347204D01*
X125860000Y-63347204D01*
X125849500Y-63449983D01*
X125849500Y-65550001D01*
X125849501Y-65550018D01*
X125860000Y-65652796D01*
X125860001Y-65652799D01*
X125902059Y-65779720D01*
X125915186Y-65819334D01*
X126007288Y-65968656D01*
X126131344Y-66092712D01*
X126190596Y-66129258D01*
X126237321Y-66181204D01*
X126249500Y-66234797D01*
X126249500Y-67661041D01*
X126249500Y-67661043D01*
X126249499Y-67661043D01*
X126287947Y-67854329D01*
X126287950Y-67854339D01*
X126359902Y-68028048D01*
X126367371Y-68097517D01*
X126336095Y-68159996D01*
X126276006Y-68195648D01*
X126245341Y-68199500D01*
X126084298Y-68199500D01*
X126047432Y-68202401D01*
X126047426Y-68202402D01*
X125889606Y-68248254D01*
X125889603Y-68248255D01*
X125748137Y-68331917D01*
X125748129Y-68331923D01*
X125631923Y-68448129D01*
X125631914Y-68448140D01*
X125622759Y-68463622D01*
X125571689Y-68511305D01*
X125516028Y-68524500D01*
X124165520Y-68524500D01*
X124098481Y-68504815D01*
X124052726Y-68452011D01*
X124042782Y-68382853D01*
X124071807Y-68319297D01*
X124077839Y-68312819D01*
X124080468Y-68310189D01*
X124080469Y-68310188D01*
X124080472Y-68310185D01*
X124168478Y-68164606D01*
X124219086Y-68002196D01*
X124225500Y-67931616D01*
X124225500Y-67418384D01*
X124219086Y-67347804D01*
X124168478Y-67185394D01*
X124080472Y-67039815D01*
X124080470Y-67039813D01*
X124080469Y-67039811D01*
X123960188Y-66919530D01*
X123936589Y-66905264D01*
X123814606Y-66831522D01*
X123652196Y-66780914D01*
X123652194Y-66780913D01*
X123652192Y-66780913D01*
X123602778Y-66776423D01*
X123581616Y-66774500D01*
X122918384Y-66774500D01*
X122899145Y-66776248D01*
X122847807Y-66780913D01*
X122685391Y-66831523D01*
X122643881Y-66856617D01*
X122579732Y-66874500D01*
X122489024Y-66874500D01*
X122334379Y-66905261D01*
X122334367Y-66905264D01*
X122299932Y-66919527D01*
X122299933Y-66919528D01*
X122188693Y-66965604D01*
X122188685Y-66965609D01*
X122077630Y-67039815D01*
X122077629Y-67039816D01*
X122057577Y-67053213D01*
X121869149Y-67241641D01*
X121807826Y-67275126D01*
X121738134Y-67270142D01*
X121682201Y-67228270D01*
X121663761Y-67192961D01*
X121662092Y-67187926D01*
X121662091Y-67187922D01*
X121573885Y-67044919D01*
X121455080Y-66926114D01*
X121312077Y-66837908D01*
X121312072Y-66837906D01*
X121152583Y-66785057D01*
X121054150Y-66775000D01*
X121000000Y-66775000D01*
X121000000Y-67838500D01*
X120980315Y-67905539D01*
X120927511Y-67951294D01*
X120876000Y-67962500D01*
X119775001Y-67962500D01*
X119775001Y-67979152D01*
X119785056Y-68077583D01*
X119837906Y-68237072D01*
X119837911Y-68237083D01*
X119875426Y-68297903D01*
X119893867Y-68365295D01*
X119872945Y-68431959D01*
X119819303Y-68476728D01*
X119769888Y-68487000D01*
X118942856Y-68487000D01*
X118875817Y-68467315D01*
X118830062Y-68414511D01*
X118820118Y-68345353D01*
X118836739Y-68298850D01*
X118918019Y-68164396D01*
X118968590Y-68002106D01*
X118975000Y-67931572D01*
X118975000Y-67925000D01*
X117874000Y-67925000D01*
X117806961Y-67905315D01*
X117761206Y-67852511D01*
X117750000Y-67801000D01*
X117750000Y-67445849D01*
X119775000Y-67445849D01*
X119775000Y-67462500D01*
X120500000Y-67462500D01*
X120500000Y-66775000D01*
X120499999Y-66774999D01*
X120445864Y-66775000D01*
X120445847Y-66775001D01*
X120347415Y-66785057D01*
X120187927Y-66837906D01*
X120187922Y-66837908D01*
X120044919Y-66926114D01*
X119926114Y-67044919D01*
X119837908Y-67187922D01*
X119837906Y-67187927D01*
X119785057Y-67347416D01*
X119775000Y-67445849D01*
X117750000Y-67445849D01*
X117750000Y-67425000D01*
X118250000Y-67425000D01*
X118974999Y-67425000D01*
X118974999Y-67418417D01*
X118968591Y-67347897D01*
X118968590Y-67347892D01*
X118918018Y-67185603D01*
X118830072Y-67040122D01*
X118709877Y-66919927D01*
X118564395Y-66831980D01*
X118564396Y-66831980D01*
X118402105Y-66781409D01*
X118402106Y-66781409D01*
X118331572Y-66775000D01*
X118250000Y-66775000D01*
X118250000Y-67425000D01*
X117750000Y-67425000D01*
X117750000Y-66775000D01*
X117749999Y-66774999D01*
X117668417Y-66775000D01*
X117597897Y-66781408D01*
X117597892Y-66781409D01*
X117435601Y-66831981D01*
X117435599Y-66831982D01*
X117413649Y-66845252D01*
X117346094Y-66863088D01*
X117279621Y-66841570D01*
X117235333Y-66787529D01*
X117225500Y-66739135D01*
X117225500Y-66261449D01*
X117245185Y-66194410D01*
X117297989Y-66148655D01*
X117367147Y-66138711D01*
X117413650Y-66155333D01*
X117435394Y-66168478D01*
X117597804Y-66219086D01*
X117668384Y-66225500D01*
X117668387Y-66225500D01*
X118331613Y-66225500D01*
X118331616Y-66225500D01*
X118402196Y-66219086D01*
X118564606Y-66168478D01*
X118594787Y-66150233D01*
X118606119Y-66143383D01*
X118670268Y-66125500D01*
X119445128Y-66125500D01*
X119512167Y-66145185D01*
X119519438Y-66150232D01*
X119597669Y-66208796D01*
X119597670Y-66208796D01*
X119597671Y-66208797D01*
X119732517Y-66259091D01*
X119732516Y-66259091D01*
X119739444Y-66259835D01*
X119792127Y-66265500D01*
X121667872Y-66265499D01*
X121727483Y-66259091D01*
X121862331Y-66208796D01*
X121926105Y-66161054D01*
X121991568Y-66136637D01*
X122059842Y-66151488D01*
X122074726Y-66161054D01*
X122137907Y-66208350D01*
X122137913Y-66208354D01*
X122272620Y-66258596D01*
X122272627Y-66258598D01*
X122332155Y-66264999D01*
X122332172Y-66265000D01*
X123020000Y-66265000D01*
X123520000Y-66265000D01*
X124207828Y-66265000D01*
X124207844Y-66264999D01*
X124267372Y-66258598D01*
X124267379Y-66258596D01*
X124402086Y-66208354D01*
X124402093Y-66208350D01*
X124517187Y-66122190D01*
X124517190Y-66122187D01*
X124603350Y-66007093D01*
X124603354Y-66007086D01*
X124653596Y-65872379D01*
X124653598Y-65872372D01*
X124659999Y-65812844D01*
X124660000Y-65812827D01*
X124660000Y-65015000D01*
X123520000Y-65015000D01*
X123520000Y-66265000D01*
X123020000Y-66265000D01*
X123020000Y-64515000D01*
X123520000Y-64515000D01*
X124660000Y-64515000D01*
X124660000Y-63717172D01*
X124659999Y-63717155D01*
X124653598Y-63657627D01*
X124653596Y-63657620D01*
X124603354Y-63522913D01*
X124603350Y-63522906D01*
X124517190Y-63407812D01*
X124517187Y-63407809D01*
X124402093Y-63321649D01*
X124402086Y-63321645D01*
X124267379Y-63271403D01*
X124267372Y-63271401D01*
X124207844Y-63265000D01*
X123520000Y-63265000D01*
X123520000Y-64515000D01*
X123020000Y-64515000D01*
X123020000Y-63265000D01*
X122332155Y-63265000D01*
X122272627Y-63271401D01*
X122272620Y-63271403D01*
X122137913Y-63321645D01*
X122137907Y-63321649D01*
X122074726Y-63368946D01*
X122009262Y-63393363D01*
X121940989Y-63378511D01*
X121926106Y-63368946D01*
X121862331Y-63321204D01*
X121862328Y-63321202D01*
X121727482Y-63270908D01*
X121727483Y-63270908D01*
X121667883Y-63264501D01*
X121667881Y-63264500D01*
X121667873Y-63264500D01*
X121667864Y-63264500D01*
X119792129Y-63264500D01*
X119792123Y-63264501D01*
X119732516Y-63270908D01*
X119597671Y-63321202D01*
X119597664Y-63321206D01*
X119482455Y-63407452D01*
X119482452Y-63407455D01*
X119396206Y-63522664D01*
X119396202Y-63522671D01*
X119345908Y-63657517D01*
X119339501Y-63717116D01*
X119339500Y-63717135D01*
X119339500Y-64400500D01*
X119319815Y-64467539D01*
X119267011Y-64513294D01*
X119215500Y-64524500D01*
X118915520Y-64524500D01*
X118848481Y-64504815D01*
X118802726Y-64452011D01*
X118792782Y-64382853D01*
X118821807Y-64319297D01*
X118827839Y-64312819D01*
X118830468Y-64310189D01*
X118830469Y-64310188D01*
X118830472Y-64310185D01*
X118918478Y-64164606D01*
X118969086Y-64002196D01*
X118975500Y-63931616D01*
X118975500Y-63418384D01*
X118969086Y-63347804D01*
X118918478Y-63185394D01*
X118830472Y-63039815D01*
X118830469Y-63039812D01*
X118830466Y-63039807D01*
X118826885Y-63035235D01*
X118801039Y-62970322D01*
X118800500Y-62958768D01*
X118800500Y-62447718D01*
X118817112Y-62385720D01*
X118827179Y-62368284D01*
X118885674Y-62188256D01*
X118905460Y-62000000D01*
X118885674Y-61811744D01*
X118827179Y-61631716D01*
X118732533Y-61467784D01*
X118605871Y-61327112D01*
X118605870Y-61327111D01*
X118452735Y-61215852D01*
X118452732Y-61215850D01*
X118452730Y-61215849D01*
X118406395Y-61195219D01*
X118353159Y-61149967D01*
X118332839Y-61083118D01*
X118351885Y-61015894D01*
X118404252Y-60969640D01*
X118419922Y-60963562D01*
X118564606Y-60918478D01*
X118710185Y-60830472D01*
X118830472Y-60710185D01*
X118918478Y-60564606D01*
X118969086Y-60402196D01*
X118975500Y-60331616D01*
X118975500Y-59668384D01*
X118969086Y-59597804D01*
X118918478Y-59435394D01*
X118900000Y-59404827D01*
X118893383Y-59393881D01*
X118875500Y-59329732D01*
X118875500Y-57420267D01*
X118893384Y-57356116D01*
X118918475Y-57314611D01*
X118918475Y-57314610D01*
X118918478Y-57314606D01*
X118969086Y-57152196D01*
X118975500Y-57081616D01*
X118975500Y-56418384D01*
X118969086Y-56347804D01*
X118918478Y-56185394D01*
X118900000Y-56154827D01*
X118893383Y-56143881D01*
X118875500Y-56079732D01*
X118875500Y-54982939D01*
X118895185Y-54915900D01*
X118911815Y-54895262D01*
X119127820Y-54679257D01*
X119189142Y-54645773D01*
X119258834Y-54650757D01*
G37*
%TD.AperFunction*%
%TA.AperFunction,Conductor*%
G36*
X109852255Y-40520185D02*
G01*
X109898010Y-40572989D01*
X109907954Y-40642147D01*
X109878929Y-40705703D01*
X109872898Y-40712181D01*
X109772861Y-40812218D01*
X109772858Y-40812221D01*
X109421897Y-41163181D01*
X109360574Y-41196666D01*
X109334216Y-41199500D01*
X107852129Y-41199500D01*
X107852123Y-41199501D01*
X107792516Y-41205908D01*
X107657671Y-41256202D01*
X107657664Y-41256206D01*
X107542455Y-41342452D01*
X107542452Y-41342455D01*
X107456206Y-41457664D01*
X107456202Y-41457671D01*
X107405908Y-41592517D01*
X107399501Y-41652116D01*
X107399500Y-41652135D01*
X107399500Y-42847870D01*
X107399501Y-42847876D01*
X107405908Y-42907483D01*
X107456202Y-43042328D01*
X107456206Y-43042335D01*
X107542452Y-43157544D01*
X107542455Y-43157547D01*
X107657664Y-43243793D01*
X107657671Y-43243797D01*
X107792517Y-43294091D01*
X107792516Y-43294091D01*
X107799444Y-43294835D01*
X107852127Y-43300500D01*
X111647872Y-43300499D01*
X111707483Y-43294091D01*
X111842331Y-43243796D01*
X111957546Y-43157546D01*
X112043796Y-43042331D01*
X112082395Y-42938840D01*
X112124265Y-42882907D01*
X112189729Y-42858489D01*
X112258002Y-42873340D01*
X112307408Y-42922745D01*
X112316283Y-42943168D01*
X112334722Y-42998815D01*
X112337997Y-43008696D01*
X112338001Y-43008705D01*
X112427029Y-43153040D01*
X112427032Y-43153044D01*
X112436307Y-43162319D01*
X112469792Y-43223642D01*
X112464808Y-43293334D01*
X112436307Y-43337681D01*
X112427032Y-43346955D01*
X112427029Y-43346959D01*
X112338001Y-43491294D01*
X112337996Y-43491305D01*
X112284651Y-43652290D01*
X112274500Y-43751647D01*
X112274500Y-43788564D01*
X112272117Y-43812756D01*
X112249500Y-43926456D01*
X112249500Y-44359897D01*
X112229815Y-44426936D01*
X112177011Y-44472691D01*
X112107853Y-44482635D01*
X112044297Y-44453610D01*
X112026234Y-44434208D01*
X111957547Y-44342455D01*
X111957544Y-44342452D01*
X111842335Y-44256206D01*
X111842328Y-44256202D01*
X111707482Y-44205908D01*
X111707483Y-44205908D01*
X111647883Y-44199501D01*
X111647881Y-44199500D01*
X111647873Y-44199500D01*
X111647864Y-44199500D01*
X107852129Y-44199500D01*
X107852123Y-44199501D01*
X107792516Y-44205908D01*
X107657671Y-44256202D01*
X107657664Y-44256206D01*
X107542455Y-44342452D01*
X107542452Y-44342455D01*
X107456206Y-44457664D01*
X107456202Y-44457671D01*
X107405908Y-44592517D01*
X107399501Y-44652116D01*
X107399500Y-44652135D01*
X107399500Y-45847870D01*
X107399501Y-45847876D01*
X107405908Y-45907483D01*
X107456202Y-46042328D01*
X107456206Y-46042335D01*
X107542452Y-46157544D01*
X107542455Y-46157547D01*
X107657664Y-46243793D01*
X107657671Y-46243797D01*
X107792517Y-46294091D01*
X107792516Y-46294091D01*
X107799444Y-46294835D01*
X107852127Y-46300500D01*
X108725500Y-46300499D01*
X108792539Y-46320183D01*
X108838294Y-46372987D01*
X108849500Y-46424499D01*
X108849500Y-49451637D01*
X108829815Y-49518676D01*
X108777011Y-49564431D01*
X108707853Y-49574375D01*
X108644297Y-49545350D01*
X108637819Y-49539318D01*
X107399038Y-48300537D01*
X107316667Y-48245499D01*
X107251544Y-48201985D01*
X107251542Y-48201984D01*
X107143738Y-48157331D01*
X107087666Y-48134105D01*
X107087658Y-48134103D01*
X106913696Y-48099500D01*
X106913692Y-48099500D01*
X106913691Y-48099500D01*
X106378913Y-48099500D01*
X106321892Y-48083605D01*
X106321445Y-48084600D01*
X106314910Y-48081659D01*
X106314767Y-48081619D01*
X106314609Y-48081523D01*
X106314606Y-48081522D01*
X106152196Y-48030914D01*
X106152194Y-48030913D01*
X106152192Y-48030913D01*
X106098991Y-48026079D01*
X106081616Y-48024500D01*
X105568384Y-48024500D01*
X105551009Y-48026079D01*
X105497807Y-48030913D01*
X105335393Y-48081522D01*
X105189811Y-48169530D01*
X105189810Y-48169531D01*
X105087681Y-48271661D01*
X105026358Y-48305146D01*
X104956666Y-48300162D01*
X104912319Y-48271661D01*
X104810188Y-48169530D01*
X104790013Y-48157334D01*
X104664606Y-48081522D01*
X104502196Y-48030914D01*
X104502194Y-48030913D01*
X104502192Y-48030913D01*
X104448991Y-48026079D01*
X104431616Y-48024500D01*
X104431613Y-48024500D01*
X104411434Y-48024500D01*
X104387243Y-48022117D01*
X104349551Y-48014619D01*
X104273543Y-47999500D01*
X104273541Y-47999500D01*
X103104675Y-47999500D01*
X103104655Y-47999499D01*
X103098541Y-47999499D01*
X102965781Y-47999499D01*
X102898742Y-47979814D01*
X102878100Y-47963180D01*
X102802101Y-47887181D01*
X102768616Y-47825858D01*
X102773600Y-47756166D01*
X102815472Y-47700233D01*
X102880936Y-47675816D01*
X102889782Y-47675500D01*
X105192513Y-47675500D01*
X105251942Y-47690669D01*
X105257669Y-47693796D01*
X105392517Y-47744091D01*
X105392516Y-47744091D01*
X105399444Y-47744835D01*
X105452127Y-47750500D01*
X106547872Y-47750499D01*
X106607483Y-47744091D01*
X106742331Y-47693796D01*
X106857546Y-47607546D01*
X106943796Y-47492331D01*
X106994091Y-47357483D01*
X107000500Y-47297873D01*
X107000499Y-46452128D01*
X106994091Y-46392517D01*
X106959584Y-46300000D01*
X106943797Y-46257671D01*
X106943793Y-46257664D01*
X106857547Y-46142455D01*
X106857544Y-46142452D01*
X106742335Y-46056206D01*
X106742328Y-46056202D01*
X106607482Y-46005908D01*
X106607483Y-46005908D01*
X106547883Y-45999501D01*
X106547881Y-45999500D01*
X106547873Y-45999500D01*
X106547864Y-45999500D01*
X105452129Y-45999500D01*
X105452123Y-45999501D01*
X105392516Y-46005908D01*
X105257669Y-46056203D01*
X105251942Y-46059331D01*
X105192513Y-46074500D01*
X100807487Y-46074500D01*
X100748058Y-46059331D01*
X100742330Y-46056203D01*
X100607482Y-46005908D01*
X100607483Y-46005908D01*
X100547883Y-45999501D01*
X100547881Y-45999500D01*
X100547873Y-45999500D01*
X100547864Y-45999500D01*
X99452129Y-45999500D01*
X99452123Y-45999501D01*
X99392516Y-46005908D01*
X99257671Y-46056202D01*
X99257664Y-46056206D01*
X99142455Y-46142452D01*
X99142452Y-46142455D01*
X99056206Y-46257664D01*
X99056202Y-46257671D01*
X99005908Y-46392517D01*
X99002470Y-46424499D01*
X98999501Y-46452123D01*
X98999500Y-46452135D01*
X98999500Y-47297870D01*
X98999501Y-47297876D01*
X99005908Y-47357483D01*
X99056202Y-47492328D01*
X99056203Y-47492329D01*
X99056204Y-47492331D01*
X99113850Y-47569336D01*
X99142454Y-47607546D01*
X99149808Y-47613051D01*
X99191681Y-47668983D01*
X99199500Y-47712320D01*
X99199500Y-52878846D01*
X99230261Y-53033489D01*
X99230264Y-53033501D01*
X99290602Y-53179172D01*
X99290609Y-53179185D01*
X99378210Y-53310288D01*
X99378213Y-53310292D01*
X101014707Y-54946786D01*
X101014711Y-54946789D01*
X101145814Y-55034390D01*
X101145818Y-55034392D01*
X101145821Y-55034394D01*
X101291503Y-55094738D01*
X101296630Y-55095757D01*
X101302818Y-55096989D01*
X101342777Y-55112489D01*
X101368098Y-55127796D01*
X101435394Y-55168478D01*
X101597804Y-55219086D01*
X101668384Y-55225500D01*
X101717060Y-55225500D01*
X101784099Y-55245185D01*
X101804741Y-55261819D01*
X102047097Y-55504175D01*
X102080582Y-55565498D01*
X102075598Y-55635190D01*
X102033726Y-55691123D01*
X102015096Y-55701297D01*
X102015454Y-55701953D01*
X102007664Y-55706206D01*
X101892455Y-55792452D01*
X101849266Y-55850145D01*
X101793332Y-55892015D01*
X101723640Y-55896999D01*
X101662317Y-55863513D01*
X101650734Y-55850145D01*
X101607814Y-55792812D01*
X101607546Y-55792454D01*
X101607544Y-55792453D01*
X101607544Y-55792452D01*
X101492335Y-55706206D01*
X101492328Y-55706202D01*
X101357482Y-55655908D01*
X101357483Y-55655908D01*
X101297883Y-55649501D01*
X101297881Y-55649500D01*
X101297873Y-55649500D01*
X101297864Y-55649500D01*
X100202129Y-55649500D01*
X100202123Y-55649501D01*
X100142516Y-55655908D01*
X100007671Y-55706202D01*
X100007664Y-55706206D01*
X99892455Y-55792452D01*
X99849266Y-55850145D01*
X99793332Y-55892015D01*
X99723640Y-55896999D01*
X99662317Y-55863513D01*
X99650734Y-55850145D01*
X99607814Y-55792812D01*
X99607546Y-55792454D01*
X99607544Y-55792453D01*
X99607544Y-55792452D01*
X99492335Y-55706206D01*
X99492328Y-55706202D01*
X99357482Y-55655908D01*
X99357483Y-55655908D01*
X99297883Y-55649501D01*
X99297881Y-55649500D01*
X99297873Y-55649500D01*
X99297864Y-55649500D01*
X98202129Y-55649500D01*
X98202120Y-55649501D01*
X98137252Y-55656474D01*
X98068493Y-55644067D01*
X98017357Y-55596455D01*
X98000000Y-55533184D01*
X98000000Y-43547844D01*
X99000000Y-43547844D01*
X99006401Y-43607372D01*
X99006403Y-43607379D01*
X99056645Y-43742086D01*
X99056649Y-43742093D01*
X99142809Y-43857187D01*
X99142812Y-43857190D01*
X99257906Y-43943350D01*
X99257913Y-43943354D01*
X99392620Y-43993596D01*
X99392627Y-43993598D01*
X99452155Y-43999999D01*
X99452172Y-44000000D01*
X99750000Y-44000000D01*
X100250000Y-44000000D01*
X100547828Y-44000000D01*
X100547844Y-43999999D01*
X100607372Y-43993598D01*
X100607379Y-43993596D01*
X100742086Y-43943354D01*
X100742093Y-43943350D01*
X100857187Y-43857190D01*
X100857190Y-43857187D01*
X100943350Y-43742093D01*
X100943354Y-43742086D01*
X100993596Y-43607379D01*
X100993598Y-43607372D01*
X100999999Y-43547844D01*
X105000000Y-43547844D01*
X105006401Y-43607372D01*
X105006403Y-43607379D01*
X105056645Y-43742086D01*
X105056649Y-43742093D01*
X105142809Y-43857187D01*
X105142812Y-43857190D01*
X105257906Y-43943350D01*
X105257913Y-43943354D01*
X105392620Y-43993596D01*
X105392627Y-43993598D01*
X105452155Y-43999999D01*
X105452172Y-44000000D01*
X105750000Y-44000000D01*
X106250000Y-44000000D01*
X106547828Y-44000000D01*
X106547844Y-43999999D01*
X106607372Y-43993598D01*
X106607379Y-43993596D01*
X106742086Y-43943354D01*
X106742093Y-43943350D01*
X106857187Y-43857190D01*
X106857190Y-43857187D01*
X106943350Y-43742093D01*
X106943354Y-43742086D01*
X106993596Y-43607379D01*
X106993598Y-43607372D01*
X106999999Y-43547844D01*
X107000000Y-43547827D01*
X107000000Y-43375000D01*
X106250000Y-43375000D01*
X106250000Y-44000000D01*
X105750000Y-44000000D01*
X105750000Y-43375000D01*
X105000000Y-43375000D01*
X105000000Y-43547844D01*
X100999999Y-43547844D01*
X101000000Y-43547827D01*
X101000000Y-43375000D01*
X100250000Y-43375000D01*
X100250000Y-44000000D01*
X99750000Y-44000000D01*
X99750000Y-43375000D01*
X99000000Y-43375000D01*
X99000000Y-43547844D01*
X98000000Y-43547844D01*
X98000000Y-42702155D01*
X99000000Y-42702155D01*
X99000000Y-42875000D01*
X99750000Y-42875000D01*
X100250000Y-42875000D01*
X101000000Y-42875000D01*
X101000000Y-42702172D01*
X100999999Y-42702155D01*
X105000000Y-42702155D01*
X105000000Y-42875000D01*
X105750000Y-42875000D01*
X106250000Y-42875000D01*
X107000000Y-42875000D01*
X107000000Y-42702172D01*
X106999999Y-42702155D01*
X106993598Y-42642627D01*
X106993596Y-42642620D01*
X106943354Y-42507913D01*
X106943350Y-42507906D01*
X106857190Y-42392812D01*
X106857187Y-42392809D01*
X106742093Y-42306649D01*
X106742086Y-42306645D01*
X106607379Y-42256403D01*
X106607372Y-42256401D01*
X106547844Y-42250000D01*
X106250000Y-42250000D01*
X106250000Y-42875000D01*
X105750000Y-42875000D01*
X105750000Y-42250000D01*
X105452155Y-42250000D01*
X105392627Y-42256401D01*
X105392620Y-42256403D01*
X105257913Y-42306645D01*
X105257906Y-42306649D01*
X105142812Y-42392809D01*
X105142809Y-42392812D01*
X105056649Y-42507906D01*
X105056645Y-42507913D01*
X105006403Y-42642620D01*
X105006401Y-42642627D01*
X105000000Y-42702155D01*
X100999999Y-42702155D01*
X100993598Y-42642627D01*
X100993596Y-42642620D01*
X100943354Y-42507913D01*
X100943350Y-42507906D01*
X100857190Y-42392812D01*
X100857187Y-42392809D01*
X100742093Y-42306649D01*
X100742086Y-42306645D01*
X100607379Y-42256403D01*
X100607372Y-42256401D01*
X100547844Y-42250000D01*
X100250000Y-42250000D01*
X100250000Y-42875000D01*
X99750000Y-42875000D01*
X99750000Y-42250000D01*
X99452155Y-42250000D01*
X99392627Y-42256401D01*
X99392620Y-42256403D01*
X99257913Y-42306645D01*
X99257906Y-42306649D01*
X99142812Y-42392809D01*
X99142809Y-42392812D01*
X99056649Y-42507906D01*
X99056645Y-42507913D01*
X99006403Y-42642620D01*
X99006401Y-42642627D01*
X99000000Y-42702155D01*
X98000000Y-42702155D01*
X98000000Y-40624500D01*
X98019685Y-40557461D01*
X98072489Y-40511706D01*
X98124000Y-40500500D01*
X109785216Y-40500500D01*
X109852255Y-40520185D01*
G37*
%TD.AperFunction*%
%TA.AperFunction,Conductor*%
G36*
X105043334Y-49699838D02*
G01*
X105087681Y-49728339D01*
X105189811Y-49830469D01*
X105189813Y-49830470D01*
X105189815Y-49830472D01*
X105335394Y-49918478D01*
X105497804Y-49969086D01*
X105564412Y-49975139D01*
X105629393Y-50000808D01*
X105670182Y-50057536D01*
X105673826Y-50127311D01*
X105671120Y-50136947D01*
X105651512Y-50197294D01*
X105621263Y-50246657D01*
X105489711Y-50378211D01*
X105489710Y-50378211D01*
X105378213Y-50489707D01*
X105378210Y-50489711D01*
X105290609Y-50620814D01*
X105290602Y-50620827D01*
X105230264Y-50766498D01*
X105230261Y-50766510D01*
X105199500Y-50921153D01*
X105199500Y-51958768D01*
X105179815Y-52025807D01*
X105173115Y-52035235D01*
X105169531Y-52039810D01*
X105105823Y-52145194D01*
X105054295Y-52192381D01*
X104985436Y-52204219D01*
X104921107Y-52176950D01*
X104893590Y-52145193D01*
X104830072Y-52040122D01*
X104709877Y-51919927D01*
X104564395Y-51831980D01*
X104564396Y-51831980D01*
X104402105Y-51781409D01*
X104402106Y-51781409D01*
X104331572Y-51775000D01*
X104250000Y-51775000D01*
X104250000Y-52801000D01*
X104230315Y-52868039D01*
X104177511Y-52913794D01*
X104126000Y-52925000D01*
X103874000Y-52925000D01*
X103806961Y-52905315D01*
X103761206Y-52852511D01*
X103750000Y-52801000D01*
X103750000Y-51775000D01*
X103749999Y-51774999D01*
X103668417Y-51775000D01*
X103597897Y-51781408D01*
X103597892Y-51781409D01*
X103435603Y-51831981D01*
X103290122Y-51919927D01*
X103169928Y-52040121D01*
X103169925Y-52040125D01*
X103106408Y-52145194D01*
X103054880Y-52192381D01*
X102986021Y-52204219D01*
X102921692Y-52176950D01*
X102894176Y-52145194D01*
X102830472Y-52039815D01*
X102830469Y-52039812D01*
X102830466Y-52039807D01*
X102826885Y-52035235D01*
X102801039Y-51970322D01*
X102800500Y-51958768D01*
X102800500Y-50665782D01*
X102820185Y-50598743D01*
X102836819Y-50578101D01*
X103378102Y-50036819D01*
X103439425Y-50003334D01*
X103465783Y-50000500D01*
X104273543Y-50000500D01*
X104349551Y-49985380D01*
X104387243Y-49977882D01*
X104411434Y-49975500D01*
X104431613Y-49975500D01*
X104431616Y-49975500D01*
X104502196Y-49969086D01*
X104664606Y-49918478D01*
X104810185Y-49830472D01*
X104858710Y-49781947D01*
X104912319Y-49728339D01*
X104973642Y-49694854D01*
X105043334Y-49699838D01*
G37*
%TD.AperFunction*%
%TD*%
M02*
