%TF.GenerationSoftware,KiCad,Pcbnew,8.0.4*%
%TF.CreationDate,2024-07-28T20:40:06+02:00*%
%TF.ProjectId,DCWiFiSwitch,44435769-4669-4537-9769-7463682e6b69,rev?*%
%TF.SameCoordinates,Original*%
%TF.FileFunction,Other,Comment*%
%FSLAX46Y46*%
G04 Gerber Fmt 4.6, Leading zero omitted, Abs format (unit mm)*
G04 Created by KiCad (PCBNEW 8.0.4) date 2024-07-28 20:40:06*
%MOMM*%
%LPD*%
G01*
G04 APERTURE LIST*
%ADD10C,0.150000*%
G04 APERTURE END LIST*
D10*
X95419104Y-67821904D02*
X95419104Y-67345714D01*
X95704819Y-67917142D02*
X94704819Y-67583809D01*
X94704819Y-67583809D02*
X95704819Y-67250476D01*
X95038152Y-66917142D02*
X95704819Y-66917142D01*
X95133390Y-66917142D02*
X95085771Y-66869523D01*
X95085771Y-66869523D02*
X95038152Y-66774285D01*
X95038152Y-66774285D02*
X95038152Y-66631428D01*
X95038152Y-66631428D02*
X95085771Y-66536190D01*
X95085771Y-66536190D02*
X95181009Y-66488571D01*
X95181009Y-66488571D02*
X95704819Y-66488571D01*
X95038152Y-66155237D02*
X95038152Y-65774285D01*
X94704819Y-66012380D02*
X95561961Y-66012380D01*
X95561961Y-66012380D02*
X95657200Y-65964761D01*
X95657200Y-65964761D02*
X95704819Y-65869523D01*
X95704819Y-65869523D02*
X95704819Y-65774285D01*
X95657200Y-65059999D02*
X95704819Y-65155237D01*
X95704819Y-65155237D02*
X95704819Y-65345713D01*
X95704819Y-65345713D02*
X95657200Y-65440951D01*
X95657200Y-65440951D02*
X95561961Y-65488570D01*
X95561961Y-65488570D02*
X95181009Y-65488570D01*
X95181009Y-65488570D02*
X95085771Y-65440951D01*
X95085771Y-65440951D02*
X95038152Y-65345713D01*
X95038152Y-65345713D02*
X95038152Y-65155237D01*
X95038152Y-65155237D02*
X95085771Y-65059999D01*
X95085771Y-65059999D02*
X95181009Y-65012380D01*
X95181009Y-65012380D02*
X95276247Y-65012380D01*
X95276247Y-65012380D02*
X95371485Y-65488570D01*
X95038152Y-64583808D02*
X95704819Y-64583808D01*
X95133390Y-64583808D02*
X95085771Y-64536189D01*
X95085771Y-64536189D02*
X95038152Y-64440951D01*
X95038152Y-64440951D02*
X95038152Y-64298094D01*
X95038152Y-64298094D02*
X95085771Y-64202856D01*
X95085771Y-64202856D02*
X95181009Y-64155237D01*
X95181009Y-64155237D02*
X95704819Y-64155237D01*
X95038152Y-63679046D02*
X95704819Y-63679046D01*
X95133390Y-63679046D02*
X95085771Y-63631427D01*
X95085771Y-63631427D02*
X95038152Y-63536189D01*
X95038152Y-63536189D02*
X95038152Y-63393332D01*
X95038152Y-63393332D02*
X95085771Y-63298094D01*
X95085771Y-63298094D02*
X95181009Y-63250475D01*
X95181009Y-63250475D02*
X95704819Y-63250475D01*
X95704819Y-62345713D02*
X95181009Y-62345713D01*
X95181009Y-62345713D02*
X95085771Y-62393332D01*
X95085771Y-62393332D02*
X95038152Y-62488570D01*
X95038152Y-62488570D02*
X95038152Y-62679046D01*
X95038152Y-62679046D02*
X95085771Y-62774284D01*
X95657200Y-62345713D02*
X95704819Y-62440951D01*
X95704819Y-62440951D02*
X95704819Y-62679046D01*
X95704819Y-62679046D02*
X95657200Y-62774284D01*
X95657200Y-62774284D02*
X95561961Y-62821903D01*
X95561961Y-62821903D02*
X95466723Y-62821903D01*
X95466723Y-62821903D02*
X95371485Y-62774284D01*
X95371485Y-62774284D02*
X95323866Y-62679046D01*
X95323866Y-62679046D02*
X95323866Y-62440951D01*
X95323866Y-62440951D02*
X95276247Y-62345713D01*
X93154819Y-71041428D02*
X92154819Y-71041428D01*
X93154819Y-70470000D02*
X92583390Y-70898571D01*
X92154819Y-70470000D02*
X92726247Y-71041428D01*
X92631009Y-70041428D02*
X92631009Y-69708095D01*
X93154819Y-69565238D02*
X93154819Y-70041428D01*
X93154819Y-70041428D02*
X92154819Y-70041428D01*
X92154819Y-70041428D02*
X92154819Y-69565238D01*
X92631009Y-69136666D02*
X92631009Y-68803333D01*
X93154819Y-68660476D02*
X93154819Y-69136666D01*
X93154819Y-69136666D02*
X92154819Y-69136666D01*
X92154819Y-69136666D02*
X92154819Y-68660476D01*
X93154819Y-68231904D02*
X92154819Y-68231904D01*
X92154819Y-68231904D02*
X92154819Y-67850952D01*
X92154819Y-67850952D02*
X92202438Y-67755714D01*
X92202438Y-67755714D02*
X92250057Y-67708095D01*
X92250057Y-67708095D02*
X92345295Y-67660476D01*
X92345295Y-67660476D02*
X92488152Y-67660476D01*
X92488152Y-67660476D02*
X92583390Y-67708095D01*
X92583390Y-67708095D02*
X92631009Y-67755714D01*
X92631009Y-67755714D02*
X92678628Y-67850952D01*
X92678628Y-67850952D02*
X92678628Y-68231904D01*
X92773866Y-67231904D02*
X92773866Y-66470000D01*
X92154819Y-65803333D02*
X92154819Y-65612857D01*
X92154819Y-65612857D02*
X92202438Y-65517619D01*
X92202438Y-65517619D02*
X92297676Y-65422381D01*
X92297676Y-65422381D02*
X92488152Y-65374762D01*
X92488152Y-65374762D02*
X92821485Y-65374762D01*
X92821485Y-65374762D02*
X93011961Y-65422381D01*
X93011961Y-65422381D02*
X93107200Y-65517619D01*
X93107200Y-65517619D02*
X93154819Y-65612857D01*
X93154819Y-65612857D02*
X93154819Y-65803333D01*
X93154819Y-65803333D02*
X93107200Y-65898571D01*
X93107200Y-65898571D02*
X93011961Y-65993809D01*
X93011961Y-65993809D02*
X92821485Y-66041428D01*
X92821485Y-66041428D02*
X92488152Y-66041428D01*
X92488152Y-66041428D02*
X92297676Y-65993809D01*
X92297676Y-65993809D02*
X92202438Y-65898571D01*
X92202438Y-65898571D02*
X92154819Y-65803333D01*
X92154819Y-64946190D02*
X92964342Y-64946190D01*
X92964342Y-64946190D02*
X93059580Y-64898571D01*
X93059580Y-64898571D02*
X93107200Y-64850952D01*
X93107200Y-64850952D02*
X93154819Y-64755714D01*
X93154819Y-64755714D02*
X93154819Y-64565238D01*
X93154819Y-64565238D02*
X93107200Y-64470000D01*
X93107200Y-64470000D02*
X93059580Y-64422381D01*
X93059580Y-64422381D02*
X92964342Y-64374762D01*
X92964342Y-64374762D02*
X92154819Y-64374762D01*
X92154819Y-64041428D02*
X92154819Y-63470000D01*
X93154819Y-63755714D02*
X92154819Y-63755714D01*
X92154819Y-62469999D02*
X92154819Y-61803333D01*
X92154819Y-61803333D02*
X93154819Y-62469999D01*
X93154819Y-62469999D02*
X93154819Y-61803333D01*
X92154819Y-61231904D02*
X92154819Y-61041428D01*
X92154819Y-61041428D02*
X92202438Y-60946190D01*
X92202438Y-60946190D02*
X92297676Y-60850952D01*
X92297676Y-60850952D02*
X92488152Y-60803333D01*
X92488152Y-60803333D02*
X92821485Y-60803333D01*
X92821485Y-60803333D02*
X93011961Y-60850952D01*
X93011961Y-60850952D02*
X93107200Y-60946190D01*
X93107200Y-60946190D02*
X93154819Y-61041428D01*
X93154819Y-61041428D02*
X93154819Y-61231904D01*
X93154819Y-61231904D02*
X93107200Y-61327142D01*
X93107200Y-61327142D02*
X93011961Y-61422380D01*
X93011961Y-61422380D02*
X92821485Y-61469999D01*
X92821485Y-61469999D02*
X92488152Y-61469999D01*
X92488152Y-61469999D02*
X92297676Y-61422380D01*
X92297676Y-61422380D02*
X92202438Y-61327142D01*
X92202438Y-61327142D02*
X92154819Y-61231904D01*
X93154819Y-60374761D02*
X92154819Y-60374761D01*
X92154819Y-60374761D02*
X93154819Y-59803333D01*
X93154819Y-59803333D02*
X92154819Y-59803333D01*
X92631009Y-59327142D02*
X92631009Y-58993809D01*
X93154819Y-58850952D02*
X93154819Y-59327142D01*
X93154819Y-59327142D02*
X92154819Y-59327142D01*
X92154819Y-59327142D02*
X92154819Y-58850952D01*
%TO.C,H3*%
X137850000Y-45000000D02*
G75*
G02*
X132150000Y-45000000I-2850000J0D01*
G01*
X132150000Y-45000000D02*
G75*
G02*
X137850000Y-45000000I2850000J0D01*
G01*
%TO.C,H4*%
X137850000Y-85000000D02*
G75*
G02*
X132150000Y-85000000I-2850000J0D01*
G01*
X132150000Y-85000000D02*
G75*
G02*
X137850000Y-85000000I2850000J0D01*
G01*
%TO.C,H1*%
X97850000Y-45000000D02*
G75*
G02*
X92150000Y-45000000I-2850000J0D01*
G01*
X92150000Y-45000000D02*
G75*
G02*
X97850000Y-45000000I2850000J0D01*
G01*
%TO.C,H2*%
X97850000Y-85000000D02*
G75*
G02*
X92150000Y-85000000I-2850000J0D01*
G01*
X92150000Y-85000000D02*
G75*
G02*
X97850000Y-85000000I2850000J0D01*
G01*
%TD*%
M02*
