%TF.GenerationSoftware,KiCad,Pcbnew,8.0.4*%
%TF.CreationDate,2024-07-28T20:40:06+02:00*%
%TF.ProjectId,DCWiFiSwitch,44435769-4669-4537-9769-7463682e6b69,rev?*%
%TF.SameCoordinates,Original*%
%TF.FileFunction,Legend,Bot*%
%TF.FilePolarity,Positive*%
%FSLAX46Y46*%
G04 Gerber Fmt 4.6, Leading zero omitted, Abs format (unit mm)*
G04 Created by KiCad (PCBNEW 8.0.4) date 2024-07-28 20:40:06*
%MOMM*%
%LPD*%
G01*
G04 APERTURE LIST*
%ADD10C,0.200000*%
%ADD11C,5.700000*%
%ADD12C,3.200000*%
%ADD13R,2.600000X2.600000*%
%ADD14C,2.600000*%
%ADD15R,1.700000X1.700000*%
%ADD16O,1.700000X1.700000*%
G04 APERTURE END LIST*
D10*
X101867219Y-83476816D02*
X101867219Y-84048244D01*
X102867219Y-83762530D02*
X101867219Y-83762530D01*
X101867219Y-84286340D02*
X102867219Y-84953006D01*
X101867219Y-84953006D02*
X102867219Y-84286340D01*
X102867219Y-85333959D02*
X101867219Y-85333959D01*
X101867219Y-85333959D02*
X101867219Y-85572054D01*
X101867219Y-85572054D02*
X101914838Y-85714911D01*
X101914838Y-85714911D02*
X102010076Y-85810149D01*
X102010076Y-85810149D02*
X102105314Y-85857768D01*
X102105314Y-85857768D02*
X102295790Y-85905387D01*
X102295790Y-85905387D02*
X102438647Y-85905387D01*
X102438647Y-85905387D02*
X102629123Y-85857768D01*
X102629123Y-85857768D02*
X102724361Y-85810149D01*
X102724361Y-85810149D02*
X102819600Y-85714911D01*
X102819600Y-85714911D02*
X102867219Y-85572054D01*
X102867219Y-85572054D02*
X102867219Y-85333959D01*
X105856517Y-43054894D02*
X105951755Y-43007275D01*
X105951755Y-43007275D02*
X106094612Y-43007275D01*
X106094612Y-43007275D02*
X106237469Y-43054894D01*
X106237469Y-43054894D02*
X106332707Y-43150132D01*
X106332707Y-43150132D02*
X106380326Y-43245370D01*
X106380326Y-43245370D02*
X106427945Y-43435846D01*
X106427945Y-43435846D02*
X106427945Y-43578703D01*
X106427945Y-43578703D02*
X106380326Y-43769179D01*
X106380326Y-43769179D02*
X106332707Y-43864417D01*
X106332707Y-43864417D02*
X106237469Y-43959656D01*
X106237469Y-43959656D02*
X106094612Y-44007275D01*
X106094612Y-44007275D02*
X105999374Y-44007275D01*
X105999374Y-44007275D02*
X105856517Y-43959656D01*
X105856517Y-43959656D02*
X105808898Y-43912036D01*
X105808898Y-43912036D02*
X105808898Y-43578703D01*
X105808898Y-43578703D02*
X105999374Y-43578703D01*
X105380326Y-44007275D02*
X105380326Y-43007275D01*
X105380326Y-43007275D02*
X104999374Y-43007275D01*
X104999374Y-43007275D02*
X104904136Y-43054894D01*
X104904136Y-43054894D02*
X104856517Y-43102513D01*
X104856517Y-43102513D02*
X104808898Y-43197751D01*
X104808898Y-43197751D02*
X104808898Y-43340608D01*
X104808898Y-43340608D02*
X104856517Y-43435846D01*
X104856517Y-43435846D02*
X104904136Y-43483465D01*
X104904136Y-43483465D02*
X104999374Y-43531084D01*
X104999374Y-43531084D02*
X105380326Y-43531084D01*
X104380326Y-44007275D02*
X104380326Y-43007275D01*
X103713660Y-43007275D02*
X103523184Y-43007275D01*
X103523184Y-43007275D02*
X103427946Y-43054894D01*
X103427946Y-43054894D02*
X103332708Y-43150132D01*
X103332708Y-43150132D02*
X103285089Y-43340608D01*
X103285089Y-43340608D02*
X103285089Y-43673941D01*
X103285089Y-43673941D02*
X103332708Y-43864417D01*
X103332708Y-43864417D02*
X103427946Y-43959656D01*
X103427946Y-43959656D02*
X103523184Y-44007275D01*
X103523184Y-44007275D02*
X103713660Y-44007275D01*
X103713660Y-44007275D02*
X103808898Y-43959656D01*
X103808898Y-43959656D02*
X103904136Y-43864417D01*
X103904136Y-43864417D02*
X103951755Y-43673941D01*
X103951755Y-43673941D02*
X103951755Y-43340608D01*
X103951755Y-43340608D02*
X103904136Y-43150132D01*
X103904136Y-43150132D02*
X103808898Y-43054894D01*
X103808898Y-43054894D02*
X103713660Y-43007275D01*
X102666041Y-43007275D02*
X102570803Y-43007275D01*
X102570803Y-43007275D02*
X102475565Y-43054894D01*
X102475565Y-43054894D02*
X102427946Y-43102513D01*
X102427946Y-43102513D02*
X102380327Y-43197751D01*
X102380327Y-43197751D02*
X102332708Y-43388227D01*
X102332708Y-43388227D02*
X102332708Y-43626322D01*
X102332708Y-43626322D02*
X102380327Y-43816798D01*
X102380327Y-43816798D02*
X102427946Y-43912036D01*
X102427946Y-43912036D02*
X102475565Y-43959656D01*
X102475565Y-43959656D02*
X102570803Y-44007275D01*
X102570803Y-44007275D02*
X102666041Y-44007275D01*
X102666041Y-44007275D02*
X102761279Y-43959656D01*
X102761279Y-43959656D02*
X102808898Y-43912036D01*
X102808898Y-43912036D02*
X102856517Y-43816798D01*
X102856517Y-43816798D02*
X102904136Y-43626322D01*
X102904136Y-43626322D02*
X102904136Y-43388227D01*
X102904136Y-43388227D02*
X102856517Y-43197751D01*
X102856517Y-43197751D02*
X102808898Y-43102513D01*
X102808898Y-43102513D02*
X102761279Y-43054894D01*
X102761279Y-43054894D02*
X102666041Y-43007275D01*
X106046993Y-45093409D02*
X105904136Y-45141028D01*
X105904136Y-45141028D02*
X105856517Y-45188647D01*
X105856517Y-45188647D02*
X105808898Y-45283885D01*
X105808898Y-45283885D02*
X105808898Y-45426742D01*
X105808898Y-45426742D02*
X105856517Y-45521980D01*
X105856517Y-45521980D02*
X105904136Y-45569600D01*
X105904136Y-45569600D02*
X105999374Y-45617219D01*
X105999374Y-45617219D02*
X106380326Y-45617219D01*
X106380326Y-45617219D02*
X106380326Y-44617219D01*
X106380326Y-44617219D02*
X106046993Y-44617219D01*
X106046993Y-44617219D02*
X105951755Y-44664838D01*
X105951755Y-44664838D02*
X105904136Y-44712457D01*
X105904136Y-44712457D02*
X105856517Y-44807695D01*
X105856517Y-44807695D02*
X105856517Y-44902933D01*
X105856517Y-44902933D02*
X105904136Y-44998171D01*
X105904136Y-44998171D02*
X105951755Y-45045790D01*
X105951755Y-45045790D02*
X106046993Y-45093409D01*
X106046993Y-45093409D02*
X106380326Y-45093409D01*
X105237469Y-45617219D02*
X105332707Y-45569600D01*
X105332707Y-45569600D02*
X105380326Y-45521980D01*
X105380326Y-45521980D02*
X105427945Y-45426742D01*
X105427945Y-45426742D02*
X105427945Y-45141028D01*
X105427945Y-45141028D02*
X105380326Y-45045790D01*
X105380326Y-45045790D02*
X105332707Y-44998171D01*
X105332707Y-44998171D02*
X105237469Y-44950552D01*
X105237469Y-44950552D02*
X105094612Y-44950552D01*
X105094612Y-44950552D02*
X104999374Y-44998171D01*
X104999374Y-44998171D02*
X104951755Y-45045790D01*
X104951755Y-45045790D02*
X104904136Y-45141028D01*
X104904136Y-45141028D02*
X104904136Y-45426742D01*
X104904136Y-45426742D02*
X104951755Y-45521980D01*
X104951755Y-45521980D02*
X104999374Y-45569600D01*
X104999374Y-45569600D02*
X105094612Y-45617219D01*
X105094612Y-45617219D02*
X105237469Y-45617219D01*
X104332707Y-45617219D02*
X104427945Y-45569600D01*
X104427945Y-45569600D02*
X104475564Y-45521980D01*
X104475564Y-45521980D02*
X104523183Y-45426742D01*
X104523183Y-45426742D02*
X104523183Y-45141028D01*
X104523183Y-45141028D02*
X104475564Y-45045790D01*
X104475564Y-45045790D02*
X104427945Y-44998171D01*
X104427945Y-44998171D02*
X104332707Y-44950552D01*
X104332707Y-44950552D02*
X104189850Y-44950552D01*
X104189850Y-44950552D02*
X104094612Y-44998171D01*
X104094612Y-44998171D02*
X104046993Y-45045790D01*
X104046993Y-45045790D02*
X103999374Y-45141028D01*
X103999374Y-45141028D02*
X103999374Y-45426742D01*
X103999374Y-45426742D02*
X104046993Y-45521980D01*
X104046993Y-45521980D02*
X104094612Y-45569600D01*
X104094612Y-45569600D02*
X104189850Y-45617219D01*
X104189850Y-45617219D02*
X104332707Y-45617219D01*
X103713659Y-44950552D02*
X103332707Y-44950552D01*
X103570802Y-44617219D02*
X103570802Y-45474361D01*
X103570802Y-45474361D02*
X103523183Y-45569600D01*
X103523183Y-45569600D02*
X103427945Y-45617219D01*
X103427945Y-45617219D02*
X103332707Y-45617219D01*
X102237468Y-44617219D02*
X102237468Y-45426742D01*
X102237468Y-45426742D02*
X102189849Y-45521980D01*
X102189849Y-45521980D02*
X102142230Y-45569600D01*
X102142230Y-45569600D02*
X102046992Y-45617219D01*
X102046992Y-45617219D02*
X101856516Y-45617219D01*
X101856516Y-45617219D02*
X101761278Y-45569600D01*
X101761278Y-45569600D02*
X101713659Y-45521980D01*
X101713659Y-45521980D02*
X101666040Y-45426742D01*
X101666040Y-45426742D02*
X101666040Y-44617219D01*
X101237468Y-45331504D02*
X100761278Y-45331504D01*
X101332706Y-45617219D02*
X100999373Y-44617219D01*
X100999373Y-44617219D02*
X100666040Y-45617219D01*
X99761278Y-45617219D02*
X100094611Y-45141028D01*
X100332706Y-45617219D02*
X100332706Y-44617219D01*
X100332706Y-44617219D02*
X99951754Y-44617219D01*
X99951754Y-44617219D02*
X99856516Y-44664838D01*
X99856516Y-44664838D02*
X99808897Y-44712457D01*
X99808897Y-44712457D02*
X99761278Y-44807695D01*
X99761278Y-44807695D02*
X99761278Y-44950552D01*
X99761278Y-44950552D02*
X99808897Y-45045790D01*
X99808897Y-45045790D02*
X99856516Y-45093409D01*
X99856516Y-45093409D02*
X99951754Y-45141028D01*
X99951754Y-45141028D02*
X100332706Y-45141028D01*
X99475563Y-44617219D02*
X98904135Y-44617219D01*
X99189849Y-45617219D02*
X99189849Y-44617219D01*
X106507275Y-59595238D02*
X105507275Y-59595238D01*
X105507275Y-59595238D02*
X105507275Y-59833333D01*
X105507275Y-59833333D02*
X105554894Y-59976190D01*
X105554894Y-59976190D02*
X105650132Y-60071428D01*
X105650132Y-60071428D02*
X105745370Y-60119047D01*
X105745370Y-60119047D02*
X105935846Y-60166666D01*
X105935846Y-60166666D02*
X106078703Y-60166666D01*
X106078703Y-60166666D02*
X106269179Y-60119047D01*
X106269179Y-60119047D02*
X106364417Y-60071428D01*
X106364417Y-60071428D02*
X106459656Y-59976190D01*
X106459656Y-59976190D02*
X106507275Y-59833333D01*
X106507275Y-59833333D02*
X106507275Y-59595238D01*
X106412036Y-61166666D02*
X106459656Y-61119047D01*
X106459656Y-61119047D02*
X106507275Y-60976190D01*
X106507275Y-60976190D02*
X106507275Y-60880952D01*
X106507275Y-60880952D02*
X106459656Y-60738095D01*
X106459656Y-60738095D02*
X106364417Y-60642857D01*
X106364417Y-60642857D02*
X106269179Y-60595238D01*
X106269179Y-60595238D02*
X106078703Y-60547619D01*
X106078703Y-60547619D02*
X105935846Y-60547619D01*
X105935846Y-60547619D02*
X105745370Y-60595238D01*
X105745370Y-60595238D02*
X105650132Y-60642857D01*
X105650132Y-60642857D02*
X105554894Y-60738095D01*
X105554894Y-60738095D02*
X105507275Y-60880952D01*
X105507275Y-60880952D02*
X105507275Y-60976190D01*
X105507275Y-60976190D02*
X105554894Y-61119047D01*
X105554894Y-61119047D02*
X105602513Y-61166666D01*
X105507275Y-62261905D02*
X106507275Y-62500000D01*
X106507275Y-62500000D02*
X105792989Y-62690476D01*
X105792989Y-62690476D02*
X106507275Y-62880952D01*
X106507275Y-62880952D02*
X105507275Y-63119048D01*
X106507275Y-63500000D02*
X105840608Y-63500000D01*
X105507275Y-63500000D02*
X105554894Y-63452381D01*
X105554894Y-63452381D02*
X105602513Y-63500000D01*
X105602513Y-63500000D02*
X105554894Y-63547619D01*
X105554894Y-63547619D02*
X105507275Y-63500000D01*
X105507275Y-63500000D02*
X105602513Y-63500000D01*
X105983465Y-64309523D02*
X105983465Y-63976190D01*
X106507275Y-63976190D02*
X105507275Y-63976190D01*
X105507275Y-63976190D02*
X105507275Y-64452380D01*
X106507275Y-64833333D02*
X105840608Y-64833333D01*
X105507275Y-64833333D02*
X105554894Y-64785714D01*
X105554894Y-64785714D02*
X105602513Y-64833333D01*
X105602513Y-64833333D02*
X105554894Y-64880952D01*
X105554894Y-64880952D02*
X105507275Y-64833333D01*
X105507275Y-64833333D02*
X105602513Y-64833333D01*
X106459656Y-66023809D02*
X106507275Y-66166666D01*
X106507275Y-66166666D02*
X106507275Y-66404761D01*
X106507275Y-66404761D02*
X106459656Y-66499999D01*
X106459656Y-66499999D02*
X106412036Y-66547618D01*
X106412036Y-66547618D02*
X106316798Y-66595237D01*
X106316798Y-66595237D02*
X106221560Y-66595237D01*
X106221560Y-66595237D02*
X106126322Y-66547618D01*
X106126322Y-66547618D02*
X106078703Y-66499999D01*
X106078703Y-66499999D02*
X106031084Y-66404761D01*
X106031084Y-66404761D02*
X105983465Y-66214285D01*
X105983465Y-66214285D02*
X105935846Y-66119047D01*
X105935846Y-66119047D02*
X105888227Y-66071428D01*
X105888227Y-66071428D02*
X105792989Y-66023809D01*
X105792989Y-66023809D02*
X105697751Y-66023809D01*
X105697751Y-66023809D02*
X105602513Y-66071428D01*
X105602513Y-66071428D02*
X105554894Y-66119047D01*
X105554894Y-66119047D02*
X105507275Y-66214285D01*
X105507275Y-66214285D02*
X105507275Y-66452380D01*
X105507275Y-66452380D02*
X105554894Y-66595237D01*
X105840608Y-66928571D02*
X106507275Y-67119047D01*
X106507275Y-67119047D02*
X106031084Y-67309523D01*
X106031084Y-67309523D02*
X106507275Y-67499999D01*
X106507275Y-67499999D02*
X105840608Y-67690475D01*
X106507275Y-68071428D02*
X105840608Y-68071428D01*
X105507275Y-68071428D02*
X105554894Y-68023809D01*
X105554894Y-68023809D02*
X105602513Y-68071428D01*
X105602513Y-68071428D02*
X105554894Y-68119047D01*
X105554894Y-68119047D02*
X105507275Y-68071428D01*
X105507275Y-68071428D02*
X105602513Y-68071428D01*
X105840608Y-68404761D02*
X105840608Y-68785713D01*
X105507275Y-68547618D02*
X106364417Y-68547618D01*
X106364417Y-68547618D02*
X106459656Y-68595237D01*
X106459656Y-68595237D02*
X106507275Y-68690475D01*
X106507275Y-68690475D02*
X106507275Y-68785713D01*
X106459656Y-69547618D02*
X106507275Y-69452380D01*
X106507275Y-69452380D02*
X106507275Y-69261904D01*
X106507275Y-69261904D02*
X106459656Y-69166666D01*
X106459656Y-69166666D02*
X106412036Y-69119047D01*
X106412036Y-69119047D02*
X106316798Y-69071428D01*
X106316798Y-69071428D02*
X106031084Y-69071428D01*
X106031084Y-69071428D02*
X105935846Y-69119047D01*
X105935846Y-69119047D02*
X105888227Y-69166666D01*
X105888227Y-69166666D02*
X105840608Y-69261904D01*
X105840608Y-69261904D02*
X105840608Y-69452380D01*
X105840608Y-69452380D02*
X105888227Y-69547618D01*
X106507275Y-69976190D02*
X105507275Y-69976190D01*
X106507275Y-70404761D02*
X105983465Y-70404761D01*
X105983465Y-70404761D02*
X105888227Y-70357142D01*
X105888227Y-70357142D02*
X105840608Y-70261904D01*
X105840608Y-70261904D02*
X105840608Y-70119047D01*
X105840608Y-70119047D02*
X105888227Y-70023809D01*
X105888227Y-70023809D02*
X105935846Y-69976190D01*
X107117219Y-57952380D02*
X107117219Y-58523808D01*
X108117219Y-58238094D02*
X107117219Y-58238094D01*
X108117219Y-58999999D02*
X108069600Y-58904761D01*
X108069600Y-58904761D02*
X108021980Y-58857142D01*
X108021980Y-58857142D02*
X107926742Y-58809523D01*
X107926742Y-58809523D02*
X107641028Y-58809523D01*
X107641028Y-58809523D02*
X107545790Y-58857142D01*
X107545790Y-58857142D02*
X107498171Y-58904761D01*
X107498171Y-58904761D02*
X107450552Y-58999999D01*
X107450552Y-58999999D02*
X107450552Y-59142856D01*
X107450552Y-59142856D02*
X107498171Y-59238094D01*
X107498171Y-59238094D02*
X107545790Y-59285713D01*
X107545790Y-59285713D02*
X107641028Y-59333332D01*
X107641028Y-59333332D02*
X107926742Y-59333332D01*
X107926742Y-59333332D02*
X108021980Y-59285713D01*
X108021980Y-59285713D02*
X108069600Y-59238094D01*
X108069600Y-59238094D02*
X108117219Y-59142856D01*
X108117219Y-59142856D02*
X108117219Y-58999999D01*
X108117219Y-59761904D02*
X107450552Y-59761904D01*
X107545790Y-59761904D02*
X107498171Y-59809523D01*
X107498171Y-59809523D02*
X107450552Y-59904761D01*
X107450552Y-59904761D02*
X107450552Y-60047618D01*
X107450552Y-60047618D02*
X107498171Y-60142856D01*
X107498171Y-60142856D02*
X107593409Y-60190475D01*
X107593409Y-60190475D02*
X108117219Y-60190475D01*
X107593409Y-60190475D02*
X107498171Y-60238094D01*
X107498171Y-60238094D02*
X107450552Y-60333332D01*
X107450552Y-60333332D02*
X107450552Y-60476189D01*
X107450552Y-60476189D02*
X107498171Y-60571428D01*
X107498171Y-60571428D02*
X107593409Y-60619047D01*
X107593409Y-60619047D02*
X108117219Y-60619047D01*
X108117219Y-61523808D02*
X107593409Y-61523808D01*
X107593409Y-61523808D02*
X107498171Y-61476189D01*
X107498171Y-61476189D02*
X107450552Y-61380951D01*
X107450552Y-61380951D02*
X107450552Y-61190475D01*
X107450552Y-61190475D02*
X107498171Y-61095237D01*
X108069600Y-61523808D02*
X108117219Y-61428570D01*
X108117219Y-61428570D02*
X108117219Y-61190475D01*
X108117219Y-61190475D02*
X108069600Y-61095237D01*
X108069600Y-61095237D02*
X107974361Y-61047618D01*
X107974361Y-61047618D02*
X107879123Y-61047618D01*
X107879123Y-61047618D02*
X107783885Y-61095237D01*
X107783885Y-61095237D02*
X107736266Y-61190475D01*
X107736266Y-61190475D02*
X107736266Y-61428570D01*
X107736266Y-61428570D02*
X107688647Y-61523808D01*
X108069600Y-61952380D02*
X108117219Y-62047618D01*
X108117219Y-62047618D02*
X108117219Y-62238094D01*
X108117219Y-62238094D02*
X108069600Y-62333332D01*
X108069600Y-62333332D02*
X107974361Y-62380951D01*
X107974361Y-62380951D02*
X107926742Y-62380951D01*
X107926742Y-62380951D02*
X107831504Y-62333332D01*
X107831504Y-62333332D02*
X107783885Y-62238094D01*
X107783885Y-62238094D02*
X107783885Y-62095237D01*
X107783885Y-62095237D02*
X107736266Y-61999999D01*
X107736266Y-61999999D02*
X107641028Y-61952380D01*
X107641028Y-61952380D02*
X107593409Y-61952380D01*
X107593409Y-61952380D02*
X107498171Y-61999999D01*
X107498171Y-61999999D02*
X107450552Y-62095237D01*
X107450552Y-62095237D02*
X107450552Y-62238094D01*
X107450552Y-62238094D02*
X107498171Y-62333332D01*
X107593409Y-63904761D02*
X107641028Y-64047618D01*
X107641028Y-64047618D02*
X107688647Y-64095237D01*
X107688647Y-64095237D02*
X107783885Y-64142856D01*
X107783885Y-64142856D02*
X107926742Y-64142856D01*
X107926742Y-64142856D02*
X108021980Y-64095237D01*
X108021980Y-64095237D02*
X108069600Y-64047618D01*
X108069600Y-64047618D02*
X108117219Y-63952380D01*
X108117219Y-63952380D02*
X108117219Y-63571428D01*
X108117219Y-63571428D02*
X107117219Y-63571428D01*
X107117219Y-63571428D02*
X107117219Y-63904761D01*
X107117219Y-63904761D02*
X107164838Y-63999999D01*
X107164838Y-63999999D02*
X107212457Y-64047618D01*
X107212457Y-64047618D02*
X107307695Y-64095237D01*
X107307695Y-64095237D02*
X107402933Y-64095237D01*
X107402933Y-64095237D02*
X107498171Y-64047618D01*
X107498171Y-64047618D02*
X107545790Y-63999999D01*
X107545790Y-63999999D02*
X107593409Y-63904761D01*
X107593409Y-63904761D02*
X107593409Y-63571428D01*
X108117219Y-64999999D02*
X107593409Y-64999999D01*
X107593409Y-64999999D02*
X107498171Y-64952380D01*
X107498171Y-64952380D02*
X107450552Y-64857142D01*
X107450552Y-64857142D02*
X107450552Y-64666666D01*
X107450552Y-64666666D02*
X107498171Y-64571428D01*
X108069600Y-64999999D02*
X108117219Y-64904761D01*
X108117219Y-64904761D02*
X108117219Y-64666666D01*
X108117219Y-64666666D02*
X108069600Y-64571428D01*
X108069600Y-64571428D02*
X107974361Y-64523809D01*
X107974361Y-64523809D02*
X107879123Y-64523809D01*
X107879123Y-64523809D02*
X107783885Y-64571428D01*
X107783885Y-64571428D02*
X107736266Y-64666666D01*
X107736266Y-64666666D02*
X107736266Y-64904761D01*
X107736266Y-64904761D02*
X107688647Y-64999999D01*
X108117219Y-65476190D02*
X107450552Y-65476190D01*
X107641028Y-65476190D02*
X107545790Y-65523809D01*
X107545790Y-65523809D02*
X107498171Y-65571428D01*
X107498171Y-65571428D02*
X107450552Y-65666666D01*
X107450552Y-65666666D02*
X107450552Y-65761904D01*
X108117219Y-66523809D02*
X107593409Y-66523809D01*
X107593409Y-66523809D02*
X107498171Y-66476190D01*
X107498171Y-66476190D02*
X107450552Y-66380952D01*
X107450552Y-66380952D02*
X107450552Y-66190476D01*
X107450552Y-66190476D02*
X107498171Y-66095238D01*
X108069600Y-66523809D02*
X108117219Y-66428571D01*
X108117219Y-66428571D02*
X108117219Y-66190476D01*
X108117219Y-66190476D02*
X108069600Y-66095238D01*
X108069600Y-66095238D02*
X107974361Y-66047619D01*
X107974361Y-66047619D02*
X107879123Y-66047619D01*
X107879123Y-66047619D02*
X107783885Y-66095238D01*
X107783885Y-66095238D02*
X107736266Y-66190476D01*
X107736266Y-66190476D02*
X107736266Y-66428571D01*
X107736266Y-66428571D02*
X107688647Y-66523809D01*
X108117219Y-67000000D02*
X107117219Y-67000000D01*
X107736266Y-67095238D02*
X108117219Y-67380952D01*
X107450552Y-67380952D02*
X107831504Y-67000000D01*
X107212457Y-68523810D02*
X107164838Y-68571429D01*
X107164838Y-68571429D02*
X107117219Y-68666667D01*
X107117219Y-68666667D02*
X107117219Y-68904762D01*
X107117219Y-68904762D02*
X107164838Y-69000000D01*
X107164838Y-69000000D02*
X107212457Y-69047619D01*
X107212457Y-69047619D02*
X107307695Y-69095238D01*
X107307695Y-69095238D02*
X107402933Y-69095238D01*
X107402933Y-69095238D02*
X107545790Y-69047619D01*
X107545790Y-69047619D02*
X108117219Y-68476191D01*
X108117219Y-68476191D02*
X108117219Y-69095238D01*
X107117219Y-69714286D02*
X107117219Y-69809524D01*
X107117219Y-69809524D02*
X107164838Y-69904762D01*
X107164838Y-69904762D02*
X107212457Y-69952381D01*
X107212457Y-69952381D02*
X107307695Y-70000000D01*
X107307695Y-70000000D02*
X107498171Y-70047619D01*
X107498171Y-70047619D02*
X107736266Y-70047619D01*
X107736266Y-70047619D02*
X107926742Y-70000000D01*
X107926742Y-70000000D02*
X108021980Y-69952381D01*
X108021980Y-69952381D02*
X108069600Y-69904762D01*
X108069600Y-69904762D02*
X108117219Y-69809524D01*
X108117219Y-69809524D02*
X108117219Y-69714286D01*
X108117219Y-69714286D02*
X108069600Y-69619048D01*
X108069600Y-69619048D02*
X108021980Y-69571429D01*
X108021980Y-69571429D02*
X107926742Y-69523810D01*
X107926742Y-69523810D02*
X107736266Y-69476191D01*
X107736266Y-69476191D02*
X107498171Y-69476191D01*
X107498171Y-69476191D02*
X107307695Y-69523810D01*
X107307695Y-69523810D02*
X107212457Y-69571429D01*
X107212457Y-69571429D02*
X107164838Y-69619048D01*
X107164838Y-69619048D02*
X107117219Y-69714286D01*
X107212457Y-70428572D02*
X107164838Y-70476191D01*
X107164838Y-70476191D02*
X107117219Y-70571429D01*
X107117219Y-70571429D02*
X107117219Y-70809524D01*
X107117219Y-70809524D02*
X107164838Y-70904762D01*
X107164838Y-70904762D02*
X107212457Y-70952381D01*
X107212457Y-70952381D02*
X107307695Y-71000000D01*
X107307695Y-71000000D02*
X107402933Y-71000000D01*
X107402933Y-71000000D02*
X107545790Y-70952381D01*
X107545790Y-70952381D02*
X108117219Y-70380953D01*
X108117219Y-70380953D02*
X108117219Y-71000000D01*
X107450552Y-71857143D02*
X108117219Y-71857143D01*
X107069600Y-71619048D02*
X107783885Y-71380953D01*
X107783885Y-71380953D02*
X107783885Y-72000000D01*
X131939850Y-72367219D02*
X131749374Y-72367219D01*
X131749374Y-72367219D02*
X131654136Y-72414838D01*
X131654136Y-72414838D02*
X131558898Y-72510076D01*
X131558898Y-72510076D02*
X131511279Y-72700552D01*
X131511279Y-72700552D02*
X131511279Y-73033885D01*
X131511279Y-73033885D02*
X131558898Y-73224361D01*
X131558898Y-73224361D02*
X131654136Y-73319600D01*
X131654136Y-73319600D02*
X131749374Y-73367219D01*
X131749374Y-73367219D02*
X131939850Y-73367219D01*
X131939850Y-73367219D02*
X132035088Y-73319600D01*
X132035088Y-73319600D02*
X132130326Y-73224361D01*
X132130326Y-73224361D02*
X132177945Y-73033885D01*
X132177945Y-73033885D02*
X132177945Y-72700552D01*
X132177945Y-72700552D02*
X132130326Y-72510076D01*
X132130326Y-72510076D02*
X132035088Y-72414838D01*
X132035088Y-72414838D02*
X131939850Y-72367219D01*
X131082707Y-72367219D02*
X131082707Y-73176742D01*
X131082707Y-73176742D02*
X131035088Y-73271980D01*
X131035088Y-73271980D02*
X130987469Y-73319600D01*
X130987469Y-73319600D02*
X130892231Y-73367219D01*
X130892231Y-73367219D02*
X130701755Y-73367219D01*
X130701755Y-73367219D02*
X130606517Y-73319600D01*
X130606517Y-73319600D02*
X130558898Y-73271980D01*
X130558898Y-73271980D02*
X130511279Y-73176742D01*
X130511279Y-73176742D02*
X130511279Y-72367219D01*
X130177945Y-72367219D02*
X129606517Y-72367219D01*
X129892231Y-73367219D02*
X129892231Y-72367219D01*
X129320802Y-72462457D02*
X129273183Y-72414838D01*
X129273183Y-72414838D02*
X129177945Y-72367219D01*
X129177945Y-72367219D02*
X128939850Y-72367219D01*
X128939850Y-72367219D02*
X128844612Y-72414838D01*
X128844612Y-72414838D02*
X128796993Y-72462457D01*
X128796993Y-72462457D02*
X128749374Y-72557695D01*
X128749374Y-72557695D02*
X128749374Y-72652933D01*
X128749374Y-72652933D02*
X128796993Y-72795790D01*
X128796993Y-72795790D02*
X129368421Y-73367219D01*
X129368421Y-73367219D02*
X128749374Y-73367219D01*
X128320802Y-72986266D02*
X127558898Y-72986266D01*
X127939850Y-73367219D02*
X127939850Y-72605314D01*
X105367219Y-84191101D02*
X104891028Y-83857768D01*
X105367219Y-83619673D02*
X104367219Y-83619673D01*
X104367219Y-83619673D02*
X104367219Y-84000625D01*
X104367219Y-84000625D02*
X104414838Y-84095863D01*
X104414838Y-84095863D02*
X104462457Y-84143482D01*
X104462457Y-84143482D02*
X104557695Y-84191101D01*
X104557695Y-84191101D02*
X104700552Y-84191101D01*
X104700552Y-84191101D02*
X104795790Y-84143482D01*
X104795790Y-84143482D02*
X104843409Y-84095863D01*
X104843409Y-84095863D02*
X104891028Y-84000625D01*
X104891028Y-84000625D02*
X104891028Y-83619673D01*
X104367219Y-84524435D02*
X105367219Y-85191101D01*
X104367219Y-85191101D02*
X105367219Y-84524435D01*
X105367219Y-85572054D02*
X104367219Y-85572054D01*
X104367219Y-85572054D02*
X104367219Y-85810149D01*
X104367219Y-85810149D02*
X104414838Y-85953006D01*
X104414838Y-85953006D02*
X104510076Y-86048244D01*
X104510076Y-86048244D02*
X104605314Y-86095863D01*
X104605314Y-86095863D02*
X104795790Y-86143482D01*
X104795790Y-86143482D02*
X104938647Y-86143482D01*
X104938647Y-86143482D02*
X105129123Y-86095863D01*
X105129123Y-86095863D02*
X105224361Y-86048244D01*
X105224361Y-86048244D02*
X105319600Y-85953006D01*
X105319600Y-85953006D02*
X105367219Y-85810149D01*
X105367219Y-85810149D02*
X105367219Y-85572054D01*
X130439850Y-61867219D02*
X130249374Y-61867219D01*
X130249374Y-61867219D02*
X130154136Y-61914838D01*
X130154136Y-61914838D02*
X130058898Y-62010076D01*
X130058898Y-62010076D02*
X130011279Y-62200552D01*
X130011279Y-62200552D02*
X130011279Y-62533885D01*
X130011279Y-62533885D02*
X130058898Y-62724361D01*
X130058898Y-62724361D02*
X130154136Y-62819600D01*
X130154136Y-62819600D02*
X130249374Y-62867219D01*
X130249374Y-62867219D02*
X130439850Y-62867219D01*
X130439850Y-62867219D02*
X130535088Y-62819600D01*
X130535088Y-62819600D02*
X130630326Y-62724361D01*
X130630326Y-62724361D02*
X130677945Y-62533885D01*
X130677945Y-62533885D02*
X130677945Y-62200552D01*
X130677945Y-62200552D02*
X130630326Y-62010076D01*
X130630326Y-62010076D02*
X130535088Y-61914838D01*
X130535088Y-61914838D02*
X130439850Y-61867219D01*
X129582707Y-61867219D02*
X129582707Y-62676742D01*
X129582707Y-62676742D02*
X129535088Y-62771980D01*
X129535088Y-62771980D02*
X129487469Y-62819600D01*
X129487469Y-62819600D02*
X129392231Y-62867219D01*
X129392231Y-62867219D02*
X129201755Y-62867219D01*
X129201755Y-62867219D02*
X129106517Y-62819600D01*
X129106517Y-62819600D02*
X129058898Y-62771980D01*
X129058898Y-62771980D02*
X129011279Y-62676742D01*
X129011279Y-62676742D02*
X129011279Y-61867219D01*
X128677945Y-61867219D02*
X128106517Y-61867219D01*
X128392231Y-62867219D02*
X128392231Y-61867219D01*
X127249374Y-62867219D02*
X127820802Y-62867219D01*
X127535088Y-62867219D02*
X127535088Y-61867219D01*
X127535088Y-61867219D02*
X127630326Y-62010076D01*
X127630326Y-62010076D02*
X127725564Y-62105314D01*
X127725564Y-62105314D02*
X127820802Y-62152933D01*
X126820802Y-62486266D02*
X126058898Y-62486266D01*
X126439850Y-62867219D02*
X126439850Y-62105314D01*
X100081504Y-83572054D02*
X100081504Y-84048244D01*
X100367219Y-83476816D02*
X99367219Y-83810149D01*
X99367219Y-83810149D02*
X100367219Y-84143482D01*
X100367219Y-84476816D02*
X99367219Y-84476816D01*
X99367219Y-84476816D02*
X99367219Y-84714911D01*
X99367219Y-84714911D02*
X99414838Y-84857768D01*
X99414838Y-84857768D02*
X99510076Y-84953006D01*
X99510076Y-84953006D02*
X99605314Y-85000625D01*
X99605314Y-85000625D02*
X99795790Y-85048244D01*
X99795790Y-85048244D02*
X99938647Y-85048244D01*
X99938647Y-85048244D02*
X100129123Y-85000625D01*
X100129123Y-85000625D02*
X100224361Y-84953006D01*
X100224361Y-84953006D02*
X100319600Y-84857768D01*
X100319600Y-84857768D02*
X100367219Y-84714911D01*
X100367219Y-84714911D02*
X100367219Y-84476816D01*
X100271980Y-86048244D02*
X100319600Y-86000625D01*
X100319600Y-86000625D02*
X100367219Y-85857768D01*
X100367219Y-85857768D02*
X100367219Y-85762530D01*
X100367219Y-85762530D02*
X100319600Y-85619673D01*
X100319600Y-85619673D02*
X100224361Y-85524435D01*
X100224361Y-85524435D02*
X100129123Y-85476816D01*
X100129123Y-85476816D02*
X99938647Y-85429197D01*
X99938647Y-85429197D02*
X99795790Y-85429197D01*
X99795790Y-85429197D02*
X99605314Y-85476816D01*
X99605314Y-85476816D02*
X99510076Y-85524435D01*
X99510076Y-85524435D02*
X99414838Y-85619673D01*
X99414838Y-85619673D02*
X99367219Y-85762530D01*
X99367219Y-85762530D02*
X99367219Y-85857768D01*
X99367219Y-85857768D02*
X99414838Y-86000625D01*
X99414838Y-86000625D02*
X99462457Y-86048244D01*
X131606517Y-56914838D02*
X131701755Y-56867219D01*
X131701755Y-56867219D02*
X131844612Y-56867219D01*
X131844612Y-56867219D02*
X131987469Y-56914838D01*
X131987469Y-56914838D02*
X132082707Y-57010076D01*
X132082707Y-57010076D02*
X132130326Y-57105314D01*
X132130326Y-57105314D02*
X132177945Y-57295790D01*
X132177945Y-57295790D02*
X132177945Y-57438647D01*
X132177945Y-57438647D02*
X132130326Y-57629123D01*
X132130326Y-57629123D02*
X132082707Y-57724361D01*
X132082707Y-57724361D02*
X131987469Y-57819600D01*
X131987469Y-57819600D02*
X131844612Y-57867219D01*
X131844612Y-57867219D02*
X131749374Y-57867219D01*
X131749374Y-57867219D02*
X131606517Y-57819600D01*
X131606517Y-57819600D02*
X131558898Y-57771980D01*
X131558898Y-57771980D02*
X131558898Y-57438647D01*
X131558898Y-57438647D02*
X131749374Y-57438647D01*
X131130326Y-57867219D02*
X131130326Y-56867219D01*
X131130326Y-56867219D02*
X130558898Y-57867219D01*
X130558898Y-57867219D02*
X130558898Y-56867219D01*
X130082707Y-57867219D02*
X130082707Y-56867219D01*
X130082707Y-56867219D02*
X129844612Y-56867219D01*
X129844612Y-56867219D02*
X129701755Y-56914838D01*
X129701755Y-56914838D02*
X129606517Y-57010076D01*
X129606517Y-57010076D02*
X129558898Y-57105314D01*
X129558898Y-57105314D02*
X129511279Y-57295790D01*
X129511279Y-57295790D02*
X129511279Y-57438647D01*
X129511279Y-57438647D02*
X129558898Y-57629123D01*
X129558898Y-57629123D02*
X129606517Y-57724361D01*
X129606517Y-57724361D02*
X129701755Y-57819600D01*
X129701755Y-57819600D02*
X129844612Y-57867219D01*
X129844612Y-57867219D02*
X130082707Y-57867219D01*
X112164838Y-83893482D02*
X112117219Y-83798244D01*
X112117219Y-83798244D02*
X112117219Y-83655387D01*
X112117219Y-83655387D02*
X112164838Y-83512530D01*
X112164838Y-83512530D02*
X112260076Y-83417292D01*
X112260076Y-83417292D02*
X112355314Y-83369673D01*
X112355314Y-83369673D02*
X112545790Y-83322054D01*
X112545790Y-83322054D02*
X112688647Y-83322054D01*
X112688647Y-83322054D02*
X112879123Y-83369673D01*
X112879123Y-83369673D02*
X112974361Y-83417292D01*
X112974361Y-83417292D02*
X113069600Y-83512530D01*
X113069600Y-83512530D02*
X113117219Y-83655387D01*
X113117219Y-83655387D02*
X113117219Y-83750625D01*
X113117219Y-83750625D02*
X113069600Y-83893482D01*
X113069600Y-83893482D02*
X113021980Y-83941101D01*
X113021980Y-83941101D02*
X112688647Y-83941101D01*
X112688647Y-83941101D02*
X112688647Y-83750625D01*
X113117219Y-84369673D02*
X112117219Y-84369673D01*
X112117219Y-84369673D02*
X113117219Y-84941101D01*
X113117219Y-84941101D02*
X112117219Y-84941101D01*
X113117219Y-85417292D02*
X112117219Y-85417292D01*
X112117219Y-85417292D02*
X112117219Y-85655387D01*
X112117219Y-85655387D02*
X112164838Y-85798244D01*
X112164838Y-85798244D02*
X112260076Y-85893482D01*
X112260076Y-85893482D02*
X112355314Y-85941101D01*
X112355314Y-85941101D02*
X112545790Y-85988720D01*
X112545790Y-85988720D02*
X112688647Y-85988720D01*
X112688647Y-85988720D02*
X112879123Y-85941101D01*
X112879123Y-85941101D02*
X112974361Y-85893482D01*
X112974361Y-85893482D02*
X113069600Y-85798244D01*
X113069600Y-85798244D02*
X113117219Y-85655387D01*
X113117219Y-85655387D02*
X113117219Y-85417292D01*
X130439850Y-66867219D02*
X130249374Y-66867219D01*
X130249374Y-66867219D02*
X130154136Y-66914838D01*
X130154136Y-66914838D02*
X130058898Y-67010076D01*
X130058898Y-67010076D02*
X130011279Y-67200552D01*
X130011279Y-67200552D02*
X130011279Y-67533885D01*
X130011279Y-67533885D02*
X130058898Y-67724361D01*
X130058898Y-67724361D02*
X130154136Y-67819600D01*
X130154136Y-67819600D02*
X130249374Y-67867219D01*
X130249374Y-67867219D02*
X130439850Y-67867219D01*
X130439850Y-67867219D02*
X130535088Y-67819600D01*
X130535088Y-67819600D02*
X130630326Y-67724361D01*
X130630326Y-67724361D02*
X130677945Y-67533885D01*
X130677945Y-67533885D02*
X130677945Y-67200552D01*
X130677945Y-67200552D02*
X130630326Y-67010076D01*
X130630326Y-67010076D02*
X130535088Y-66914838D01*
X130535088Y-66914838D02*
X130439850Y-66867219D01*
X129582707Y-66867219D02*
X129582707Y-67676742D01*
X129582707Y-67676742D02*
X129535088Y-67771980D01*
X129535088Y-67771980D02*
X129487469Y-67819600D01*
X129487469Y-67819600D02*
X129392231Y-67867219D01*
X129392231Y-67867219D02*
X129201755Y-67867219D01*
X129201755Y-67867219D02*
X129106517Y-67819600D01*
X129106517Y-67819600D02*
X129058898Y-67771980D01*
X129058898Y-67771980D02*
X129011279Y-67676742D01*
X129011279Y-67676742D02*
X129011279Y-66867219D01*
X128677945Y-66867219D02*
X128106517Y-66867219D01*
X128392231Y-67867219D02*
X128392231Y-66867219D01*
X127249374Y-67867219D02*
X127820802Y-67867219D01*
X127535088Y-67867219D02*
X127535088Y-66867219D01*
X127535088Y-66867219D02*
X127630326Y-67010076D01*
X127630326Y-67010076D02*
X127725564Y-67105314D01*
X127725564Y-67105314D02*
X127820802Y-67152933D01*
X126820802Y-67486266D02*
X126058898Y-67486266D01*
X121352513Y-63572054D02*
X121304894Y-63619673D01*
X121304894Y-63619673D02*
X121257275Y-63714911D01*
X121257275Y-63714911D02*
X121257275Y-63953006D01*
X121257275Y-63953006D02*
X121304894Y-64048244D01*
X121304894Y-64048244D02*
X121352513Y-64095863D01*
X121352513Y-64095863D02*
X121447751Y-64143482D01*
X121447751Y-64143482D02*
X121542989Y-64143482D01*
X121542989Y-64143482D02*
X121685846Y-64095863D01*
X121685846Y-64095863D02*
X122257275Y-63524435D01*
X122257275Y-63524435D02*
X122257275Y-64143482D01*
X122257275Y-64476816D02*
X121590608Y-65000625D01*
X121590608Y-64476816D02*
X122257275Y-65000625D01*
X121257275Y-65286340D02*
X121257275Y-65905387D01*
X121257275Y-65905387D02*
X121638227Y-65572054D01*
X121638227Y-65572054D02*
X121638227Y-65714911D01*
X121638227Y-65714911D02*
X121685846Y-65810149D01*
X121685846Y-65810149D02*
X121733465Y-65857768D01*
X121733465Y-65857768D02*
X121828703Y-65905387D01*
X121828703Y-65905387D02*
X122066798Y-65905387D01*
X122066798Y-65905387D02*
X122162036Y-65857768D01*
X122162036Y-65857768D02*
X122209656Y-65810149D01*
X122209656Y-65810149D02*
X122257275Y-65714911D01*
X122257275Y-65714911D02*
X122257275Y-65429197D01*
X122257275Y-65429197D02*
X122209656Y-65333959D01*
X122209656Y-65333959D02*
X122162036Y-65286340D01*
X121971560Y-66286340D02*
X121971560Y-66762530D01*
X122257275Y-66191102D02*
X121257275Y-66524435D01*
X121257275Y-66524435D02*
X122257275Y-66857768D01*
X122257275Y-67953007D02*
X121590608Y-67953007D01*
X121257275Y-67953007D02*
X121304894Y-67905388D01*
X121304894Y-67905388D02*
X121352513Y-67953007D01*
X121352513Y-67953007D02*
X121304894Y-68000626D01*
X121304894Y-68000626D02*
X121257275Y-67953007D01*
X121257275Y-67953007D02*
X121352513Y-67953007D01*
X121590608Y-68429197D02*
X122257275Y-68429197D01*
X121685846Y-68429197D02*
X121638227Y-68476816D01*
X121638227Y-68476816D02*
X121590608Y-68572054D01*
X121590608Y-68572054D02*
X121590608Y-68714911D01*
X121590608Y-68714911D02*
X121638227Y-68810149D01*
X121638227Y-68810149D02*
X121733465Y-68857768D01*
X121733465Y-68857768D02*
X122257275Y-68857768D01*
X122257275Y-69762530D02*
X121257275Y-69762530D01*
X122209656Y-69762530D02*
X122257275Y-69667292D01*
X122257275Y-69667292D02*
X122257275Y-69476816D01*
X122257275Y-69476816D02*
X122209656Y-69381578D01*
X122209656Y-69381578D02*
X122162036Y-69333959D01*
X122162036Y-69333959D02*
X122066798Y-69286340D01*
X122066798Y-69286340D02*
X121781084Y-69286340D01*
X121781084Y-69286340D02*
X121685846Y-69333959D01*
X121685846Y-69333959D02*
X121638227Y-69381578D01*
X121638227Y-69381578D02*
X121590608Y-69476816D01*
X121590608Y-69476816D02*
X121590608Y-69667292D01*
X121590608Y-69667292D02*
X121638227Y-69762530D01*
X121590608Y-70667292D02*
X122257275Y-70667292D01*
X121590608Y-70238721D02*
X122114417Y-70238721D01*
X122114417Y-70238721D02*
X122209656Y-70286340D01*
X122209656Y-70286340D02*
X122257275Y-70381578D01*
X122257275Y-70381578D02*
X122257275Y-70524435D01*
X122257275Y-70524435D02*
X122209656Y-70619673D01*
X122209656Y-70619673D02*
X122162036Y-70667292D01*
X122209656Y-71572054D02*
X122257275Y-71476816D01*
X122257275Y-71476816D02*
X122257275Y-71286340D01*
X122257275Y-71286340D02*
X122209656Y-71191102D01*
X122209656Y-71191102D02*
X122162036Y-71143483D01*
X122162036Y-71143483D02*
X122066798Y-71095864D01*
X122066798Y-71095864D02*
X121781084Y-71095864D01*
X121781084Y-71095864D02*
X121685846Y-71143483D01*
X121685846Y-71143483D02*
X121638227Y-71191102D01*
X121638227Y-71191102D02*
X121590608Y-71286340D01*
X121590608Y-71286340D02*
X121590608Y-71476816D01*
X121590608Y-71476816D02*
X121638227Y-71572054D01*
X121590608Y-71857769D02*
X121590608Y-72238721D01*
X121257275Y-72000626D02*
X122114417Y-72000626D01*
X122114417Y-72000626D02*
X122209656Y-72048245D01*
X122209656Y-72048245D02*
X122257275Y-72143483D01*
X122257275Y-72143483D02*
X122257275Y-72238721D01*
X122257275Y-72572055D02*
X121590608Y-72572055D01*
X121257275Y-72572055D02*
X121304894Y-72524436D01*
X121304894Y-72524436D02*
X121352513Y-72572055D01*
X121352513Y-72572055D02*
X121304894Y-72619674D01*
X121304894Y-72619674D02*
X121257275Y-72572055D01*
X121257275Y-72572055D02*
X121352513Y-72572055D01*
X121590608Y-72953007D02*
X122257275Y-73191102D01*
X122257275Y-73191102D02*
X121590608Y-73429197D01*
X122209656Y-74191102D02*
X122257275Y-74095864D01*
X122257275Y-74095864D02*
X122257275Y-73905388D01*
X122257275Y-73905388D02*
X122209656Y-73810150D01*
X122209656Y-73810150D02*
X122114417Y-73762531D01*
X122114417Y-73762531D02*
X121733465Y-73762531D01*
X121733465Y-73762531D02*
X121638227Y-73810150D01*
X121638227Y-73810150D02*
X121590608Y-73905388D01*
X121590608Y-73905388D02*
X121590608Y-74095864D01*
X121590608Y-74095864D02*
X121638227Y-74191102D01*
X121638227Y-74191102D02*
X121733465Y-74238721D01*
X121733465Y-74238721D02*
X121828703Y-74238721D01*
X121828703Y-74238721D02*
X121923941Y-73762531D01*
X122914838Y-64143482D02*
X122867219Y-64048244D01*
X122867219Y-64048244D02*
X122867219Y-63905387D01*
X122867219Y-63905387D02*
X122914838Y-63762530D01*
X122914838Y-63762530D02*
X123010076Y-63667292D01*
X123010076Y-63667292D02*
X123105314Y-63619673D01*
X123105314Y-63619673D02*
X123295790Y-63572054D01*
X123295790Y-63572054D02*
X123438647Y-63572054D01*
X123438647Y-63572054D02*
X123629123Y-63619673D01*
X123629123Y-63619673D02*
X123724361Y-63667292D01*
X123724361Y-63667292D02*
X123819600Y-63762530D01*
X123819600Y-63762530D02*
X123867219Y-63905387D01*
X123867219Y-63905387D02*
X123867219Y-64000625D01*
X123867219Y-64000625D02*
X123819600Y-64143482D01*
X123819600Y-64143482D02*
X123771980Y-64191101D01*
X123771980Y-64191101D02*
X123438647Y-64191101D01*
X123438647Y-64191101D02*
X123438647Y-64000625D01*
X123867219Y-64619673D02*
X122867219Y-64619673D01*
X122867219Y-64619673D02*
X122867219Y-65000625D01*
X122867219Y-65000625D02*
X122914838Y-65095863D01*
X122914838Y-65095863D02*
X122962457Y-65143482D01*
X122962457Y-65143482D02*
X123057695Y-65191101D01*
X123057695Y-65191101D02*
X123200552Y-65191101D01*
X123200552Y-65191101D02*
X123295790Y-65143482D01*
X123295790Y-65143482D02*
X123343409Y-65095863D01*
X123343409Y-65095863D02*
X123391028Y-65000625D01*
X123391028Y-65000625D02*
X123391028Y-64619673D01*
X123867219Y-65619673D02*
X122867219Y-65619673D01*
X122867219Y-66286339D02*
X122867219Y-66476815D01*
X122867219Y-66476815D02*
X122914838Y-66572053D01*
X122914838Y-66572053D02*
X123010076Y-66667291D01*
X123010076Y-66667291D02*
X123200552Y-66714910D01*
X123200552Y-66714910D02*
X123533885Y-66714910D01*
X123533885Y-66714910D02*
X123724361Y-66667291D01*
X123724361Y-66667291D02*
X123819600Y-66572053D01*
X123819600Y-66572053D02*
X123867219Y-66476815D01*
X123867219Y-66476815D02*
X123867219Y-66286339D01*
X123867219Y-66286339D02*
X123819600Y-66191101D01*
X123819600Y-66191101D02*
X123724361Y-66095863D01*
X123724361Y-66095863D02*
X123533885Y-66048244D01*
X123533885Y-66048244D02*
X123200552Y-66048244D01*
X123200552Y-66048244D02*
X123010076Y-66095863D01*
X123010076Y-66095863D02*
X122914838Y-66191101D01*
X122914838Y-66191101D02*
X122867219Y-66286339D01*
X123867219Y-67667291D02*
X123867219Y-67095863D01*
X123867219Y-67381577D02*
X122867219Y-67381577D01*
X122867219Y-67381577D02*
X123010076Y-67286339D01*
X123010076Y-67286339D02*
X123105314Y-67191101D01*
X123105314Y-67191101D02*
X123152933Y-67095863D01*
X122962457Y-68048244D02*
X122914838Y-68095863D01*
X122914838Y-68095863D02*
X122867219Y-68191101D01*
X122867219Y-68191101D02*
X122867219Y-68429196D01*
X122867219Y-68429196D02*
X122914838Y-68524434D01*
X122914838Y-68524434D02*
X122962457Y-68572053D01*
X122962457Y-68572053D02*
X123057695Y-68619672D01*
X123057695Y-68619672D02*
X123152933Y-68619672D01*
X123152933Y-68619672D02*
X123295790Y-68572053D01*
X123295790Y-68572053D02*
X123867219Y-68000625D01*
X123867219Y-68000625D02*
X123867219Y-68619672D01*
X123819600Y-69095863D02*
X123867219Y-69095863D01*
X123867219Y-69095863D02*
X123962457Y-69048244D01*
X123962457Y-69048244D02*
X124010076Y-69000625D01*
X122914838Y-70810148D02*
X122867219Y-70714910D01*
X122867219Y-70714910D02*
X122867219Y-70572053D01*
X122867219Y-70572053D02*
X122914838Y-70429196D01*
X122914838Y-70429196D02*
X123010076Y-70333958D01*
X123010076Y-70333958D02*
X123105314Y-70286339D01*
X123105314Y-70286339D02*
X123295790Y-70238720D01*
X123295790Y-70238720D02*
X123438647Y-70238720D01*
X123438647Y-70238720D02*
X123629123Y-70286339D01*
X123629123Y-70286339D02*
X123724361Y-70333958D01*
X123724361Y-70333958D02*
X123819600Y-70429196D01*
X123819600Y-70429196D02*
X123867219Y-70572053D01*
X123867219Y-70572053D02*
X123867219Y-70667291D01*
X123867219Y-70667291D02*
X123819600Y-70810148D01*
X123819600Y-70810148D02*
X123771980Y-70857767D01*
X123771980Y-70857767D02*
X123438647Y-70857767D01*
X123438647Y-70857767D02*
X123438647Y-70667291D01*
X123867219Y-71286339D02*
X122867219Y-71286339D01*
X122867219Y-71286339D02*
X122867219Y-71667291D01*
X122867219Y-71667291D02*
X122914838Y-71762529D01*
X122914838Y-71762529D02*
X122962457Y-71810148D01*
X122962457Y-71810148D02*
X123057695Y-71857767D01*
X123057695Y-71857767D02*
X123200552Y-71857767D01*
X123200552Y-71857767D02*
X123295790Y-71810148D01*
X123295790Y-71810148D02*
X123343409Y-71762529D01*
X123343409Y-71762529D02*
X123391028Y-71667291D01*
X123391028Y-71667291D02*
X123391028Y-71286339D01*
X123867219Y-72286339D02*
X122867219Y-72286339D01*
X122867219Y-72953005D02*
X122867219Y-73143481D01*
X122867219Y-73143481D02*
X122914838Y-73238719D01*
X122914838Y-73238719D02*
X123010076Y-73333957D01*
X123010076Y-73333957D02*
X123200552Y-73381576D01*
X123200552Y-73381576D02*
X123533885Y-73381576D01*
X123533885Y-73381576D02*
X123724361Y-73333957D01*
X123724361Y-73333957D02*
X123819600Y-73238719D01*
X123819600Y-73238719D02*
X123867219Y-73143481D01*
X123867219Y-73143481D02*
X123867219Y-72953005D01*
X123867219Y-72953005D02*
X123819600Y-72857767D01*
X123819600Y-72857767D02*
X123724361Y-72762529D01*
X123724361Y-72762529D02*
X123533885Y-72714910D01*
X123533885Y-72714910D02*
X123200552Y-72714910D01*
X123200552Y-72714910D02*
X123010076Y-72762529D01*
X123010076Y-72762529D02*
X122914838Y-72857767D01*
X122914838Y-72857767D02*
X122867219Y-72953005D01*
X123867219Y-74333957D02*
X123867219Y-73762529D01*
X123867219Y-74048243D02*
X122867219Y-74048243D01*
X122867219Y-74048243D02*
X123010076Y-73953005D01*
X123010076Y-73953005D02*
X123105314Y-73857767D01*
X123105314Y-73857767D02*
X123152933Y-73762529D01*
X123200552Y-75191100D02*
X123867219Y-75191100D01*
X122819600Y-74953005D02*
X123533885Y-74714910D01*
X123533885Y-74714910D02*
X123533885Y-75333957D01*
X111480664Y-53190476D02*
X112290188Y-53190476D01*
X112290188Y-53190476D02*
X112385426Y-53142857D01*
X112385426Y-53142857D02*
X112433045Y-53095238D01*
X112433045Y-53095238D02*
X112480664Y-53000000D01*
X112480664Y-53000000D02*
X112480664Y-52857143D01*
X112480664Y-52857143D02*
X112433045Y-52761905D01*
X112099712Y-53190476D02*
X112147331Y-53095238D01*
X112147331Y-53095238D02*
X112147331Y-52904762D01*
X112147331Y-52904762D02*
X112099712Y-52809524D01*
X112099712Y-52809524D02*
X112052092Y-52761905D01*
X112052092Y-52761905D02*
X111956854Y-52714286D01*
X111956854Y-52714286D02*
X111671140Y-52714286D01*
X111671140Y-52714286D02*
X111575902Y-52761905D01*
X111575902Y-52761905D02*
X111528283Y-52809524D01*
X111528283Y-52809524D02*
X111480664Y-52904762D01*
X111480664Y-52904762D02*
X111480664Y-53095238D01*
X111480664Y-53095238D02*
X111528283Y-53190476D01*
X112147331Y-53666667D02*
X111480664Y-53666667D01*
X111147331Y-53666667D02*
X111194950Y-53619048D01*
X111194950Y-53619048D02*
X111242569Y-53666667D01*
X111242569Y-53666667D02*
X111194950Y-53714286D01*
X111194950Y-53714286D02*
X111147331Y-53666667D01*
X111147331Y-53666667D02*
X111242569Y-53666667D01*
X111480664Y-54000000D02*
X111480664Y-54380952D01*
X111147331Y-54142857D02*
X112004473Y-54142857D01*
X112004473Y-54142857D02*
X112099712Y-54190476D01*
X112099712Y-54190476D02*
X112147331Y-54285714D01*
X112147331Y-54285714D02*
X112147331Y-54380952D01*
X112147331Y-54714286D02*
X111147331Y-54714286D01*
X112147331Y-55142857D02*
X111623521Y-55142857D01*
X111623521Y-55142857D02*
X111528283Y-55095238D01*
X111528283Y-55095238D02*
X111480664Y-55000000D01*
X111480664Y-55000000D02*
X111480664Y-54857143D01*
X111480664Y-54857143D02*
X111528283Y-54761905D01*
X111528283Y-54761905D02*
X111575902Y-54714286D01*
X111480664Y-56047619D02*
X112147331Y-56047619D01*
X111480664Y-55619048D02*
X112004473Y-55619048D01*
X112004473Y-55619048D02*
X112099712Y-55666667D01*
X112099712Y-55666667D02*
X112147331Y-55761905D01*
X112147331Y-55761905D02*
X112147331Y-55904762D01*
X112147331Y-55904762D02*
X112099712Y-56000000D01*
X112099712Y-56000000D02*
X112052092Y-56047619D01*
X112147331Y-56523810D02*
X111147331Y-56523810D01*
X111528283Y-56523810D02*
X111480664Y-56619048D01*
X111480664Y-56619048D02*
X111480664Y-56809524D01*
X111480664Y-56809524D02*
X111528283Y-56904762D01*
X111528283Y-56904762D02*
X111575902Y-56952381D01*
X111575902Y-56952381D02*
X111671140Y-57000000D01*
X111671140Y-57000000D02*
X111956854Y-57000000D01*
X111956854Y-57000000D02*
X112052092Y-56952381D01*
X112052092Y-56952381D02*
X112099712Y-56904762D01*
X112099712Y-56904762D02*
X112147331Y-56809524D01*
X112147331Y-56809524D02*
X112147331Y-56619048D01*
X112147331Y-56619048D02*
X112099712Y-56523810D01*
X112052092Y-57428572D02*
X112099712Y-57476191D01*
X112099712Y-57476191D02*
X112147331Y-57428572D01*
X112147331Y-57428572D02*
X112099712Y-57380953D01*
X112099712Y-57380953D02*
X112052092Y-57428572D01*
X112052092Y-57428572D02*
X112147331Y-57428572D01*
X112099712Y-58333333D02*
X112147331Y-58238095D01*
X112147331Y-58238095D02*
X112147331Y-58047619D01*
X112147331Y-58047619D02*
X112099712Y-57952381D01*
X112099712Y-57952381D02*
X112052092Y-57904762D01*
X112052092Y-57904762D02*
X111956854Y-57857143D01*
X111956854Y-57857143D02*
X111671140Y-57857143D01*
X111671140Y-57857143D02*
X111575902Y-57904762D01*
X111575902Y-57904762D02*
X111528283Y-57952381D01*
X111528283Y-57952381D02*
X111480664Y-58047619D01*
X111480664Y-58047619D02*
X111480664Y-58238095D01*
X111480664Y-58238095D02*
X111528283Y-58333333D01*
X112147331Y-58904762D02*
X112099712Y-58809524D01*
X112099712Y-58809524D02*
X112052092Y-58761905D01*
X112052092Y-58761905D02*
X111956854Y-58714286D01*
X111956854Y-58714286D02*
X111671140Y-58714286D01*
X111671140Y-58714286D02*
X111575902Y-58761905D01*
X111575902Y-58761905D02*
X111528283Y-58809524D01*
X111528283Y-58809524D02*
X111480664Y-58904762D01*
X111480664Y-58904762D02*
X111480664Y-59047619D01*
X111480664Y-59047619D02*
X111528283Y-59142857D01*
X111528283Y-59142857D02*
X111575902Y-59190476D01*
X111575902Y-59190476D02*
X111671140Y-59238095D01*
X111671140Y-59238095D02*
X111956854Y-59238095D01*
X111956854Y-59238095D02*
X112052092Y-59190476D01*
X112052092Y-59190476D02*
X112099712Y-59142857D01*
X112099712Y-59142857D02*
X112147331Y-59047619D01*
X112147331Y-59047619D02*
X112147331Y-58904762D01*
X112147331Y-59666667D02*
X111480664Y-59666667D01*
X111575902Y-59666667D02*
X111528283Y-59714286D01*
X111528283Y-59714286D02*
X111480664Y-59809524D01*
X111480664Y-59809524D02*
X111480664Y-59952381D01*
X111480664Y-59952381D02*
X111528283Y-60047619D01*
X111528283Y-60047619D02*
X111623521Y-60095238D01*
X111623521Y-60095238D02*
X112147331Y-60095238D01*
X111623521Y-60095238D02*
X111528283Y-60142857D01*
X111528283Y-60142857D02*
X111480664Y-60238095D01*
X111480664Y-60238095D02*
X111480664Y-60380952D01*
X111480664Y-60380952D02*
X111528283Y-60476191D01*
X111528283Y-60476191D02*
X111623521Y-60523810D01*
X111623521Y-60523810D02*
X112147331Y-60523810D01*
X111099712Y-61714285D02*
X112385426Y-60857143D01*
X112147331Y-62047619D02*
X111147331Y-62047619D01*
X111528283Y-62047619D02*
X111480664Y-62142857D01*
X111480664Y-62142857D02*
X111480664Y-62333333D01*
X111480664Y-62333333D02*
X111528283Y-62428571D01*
X111528283Y-62428571D02*
X111575902Y-62476190D01*
X111575902Y-62476190D02*
X111671140Y-62523809D01*
X111671140Y-62523809D02*
X111956854Y-62523809D01*
X111956854Y-62523809D02*
X112052092Y-62476190D01*
X112052092Y-62476190D02*
X112099712Y-62428571D01*
X112099712Y-62428571D02*
X112147331Y-62333333D01*
X112147331Y-62333333D02*
X112147331Y-62142857D01*
X112147331Y-62142857D02*
X112099712Y-62047619D01*
X112147331Y-63380952D02*
X111623521Y-63380952D01*
X111623521Y-63380952D02*
X111528283Y-63333333D01*
X111528283Y-63333333D02*
X111480664Y-63238095D01*
X111480664Y-63238095D02*
X111480664Y-63047619D01*
X111480664Y-63047619D02*
X111528283Y-62952381D01*
X112099712Y-63380952D02*
X112147331Y-63285714D01*
X112147331Y-63285714D02*
X112147331Y-63047619D01*
X112147331Y-63047619D02*
X112099712Y-62952381D01*
X112099712Y-62952381D02*
X112004473Y-62904762D01*
X112004473Y-62904762D02*
X111909235Y-62904762D01*
X111909235Y-62904762D02*
X111813997Y-62952381D01*
X111813997Y-62952381D02*
X111766378Y-63047619D01*
X111766378Y-63047619D02*
X111766378Y-63285714D01*
X111766378Y-63285714D02*
X111718759Y-63380952D01*
X112147331Y-63857143D02*
X111480664Y-63857143D01*
X111671140Y-63857143D02*
X111575902Y-63904762D01*
X111575902Y-63904762D02*
X111528283Y-63952381D01*
X111528283Y-63952381D02*
X111480664Y-64047619D01*
X111480664Y-64047619D02*
X111480664Y-64142857D01*
X111480664Y-64380953D02*
X112147331Y-64619048D01*
X111480664Y-64857143D02*
X112147331Y-64619048D01*
X112147331Y-64619048D02*
X112385426Y-64523810D01*
X112385426Y-64523810D02*
X112433045Y-64476191D01*
X112433045Y-64476191D02*
X112480664Y-64380953D01*
X112099712Y-65666667D02*
X112147331Y-65571429D01*
X112147331Y-65571429D02*
X112147331Y-65380953D01*
X112147331Y-65380953D02*
X112099712Y-65285715D01*
X112099712Y-65285715D02*
X112052092Y-65238096D01*
X112052092Y-65238096D02*
X111956854Y-65190477D01*
X111956854Y-65190477D02*
X111671140Y-65190477D01*
X111671140Y-65190477D02*
X111575902Y-65238096D01*
X111575902Y-65238096D02*
X111528283Y-65285715D01*
X111528283Y-65285715D02*
X111480664Y-65380953D01*
X111480664Y-65380953D02*
X111480664Y-65571429D01*
X111480664Y-65571429D02*
X111528283Y-65666667D01*
X111480664Y-66000001D02*
X111480664Y-66523810D01*
X111480664Y-66523810D02*
X112147331Y-66000001D01*
X112147331Y-66000001D02*
X112147331Y-66523810D01*
X111099712Y-67619048D02*
X112385426Y-66761906D01*
X112147331Y-67952382D02*
X111147331Y-67952382D01*
X111147331Y-67952382D02*
X111147331Y-68190477D01*
X111147331Y-68190477D02*
X111194950Y-68333334D01*
X111194950Y-68333334D02*
X111290188Y-68428572D01*
X111290188Y-68428572D02*
X111385426Y-68476191D01*
X111385426Y-68476191D02*
X111575902Y-68523810D01*
X111575902Y-68523810D02*
X111718759Y-68523810D01*
X111718759Y-68523810D02*
X111909235Y-68476191D01*
X111909235Y-68476191D02*
X112004473Y-68428572D01*
X112004473Y-68428572D02*
X112099712Y-68333334D01*
X112099712Y-68333334D02*
X112147331Y-68190477D01*
X112147331Y-68190477D02*
X112147331Y-67952382D01*
X112052092Y-69523810D02*
X112099712Y-69476191D01*
X112099712Y-69476191D02*
X112147331Y-69333334D01*
X112147331Y-69333334D02*
X112147331Y-69238096D01*
X112147331Y-69238096D02*
X112099712Y-69095239D01*
X112099712Y-69095239D02*
X112004473Y-69000001D01*
X112004473Y-69000001D02*
X111909235Y-68952382D01*
X111909235Y-68952382D02*
X111718759Y-68904763D01*
X111718759Y-68904763D02*
X111575902Y-68904763D01*
X111575902Y-68904763D02*
X111385426Y-68952382D01*
X111385426Y-68952382D02*
X111290188Y-69000001D01*
X111290188Y-69000001D02*
X111194950Y-69095239D01*
X111194950Y-69095239D02*
X111147331Y-69238096D01*
X111147331Y-69238096D02*
X111147331Y-69333334D01*
X111147331Y-69333334D02*
X111194950Y-69476191D01*
X111194950Y-69476191D02*
X111242569Y-69523810D01*
X111147331Y-69857144D02*
X112147331Y-70095239D01*
X112147331Y-70095239D02*
X111433045Y-70285715D01*
X111433045Y-70285715D02*
X112147331Y-70476191D01*
X112147331Y-70476191D02*
X111147331Y-70714287D01*
X112147331Y-71095239D02*
X111480664Y-71095239D01*
X111147331Y-71095239D02*
X111194950Y-71047620D01*
X111194950Y-71047620D02*
X111242569Y-71095239D01*
X111242569Y-71095239D02*
X111194950Y-71142858D01*
X111194950Y-71142858D02*
X111147331Y-71095239D01*
X111147331Y-71095239D02*
X111242569Y-71095239D01*
X111623521Y-71904762D02*
X111623521Y-71571429D01*
X112147331Y-71571429D02*
X111147331Y-71571429D01*
X111147331Y-71571429D02*
X111147331Y-72047619D01*
X112147331Y-72428572D02*
X111480664Y-72428572D01*
X111147331Y-72428572D02*
X111194950Y-72380953D01*
X111194950Y-72380953D02*
X111242569Y-72428572D01*
X111242569Y-72428572D02*
X111194950Y-72476191D01*
X111194950Y-72476191D02*
X111147331Y-72428572D01*
X111147331Y-72428572D02*
X111242569Y-72428572D01*
X112099712Y-72857143D02*
X112147331Y-73000000D01*
X112147331Y-73000000D02*
X112147331Y-73238095D01*
X112147331Y-73238095D02*
X112099712Y-73333333D01*
X112099712Y-73333333D02*
X112052092Y-73380952D01*
X112052092Y-73380952D02*
X111956854Y-73428571D01*
X111956854Y-73428571D02*
X111861616Y-73428571D01*
X111861616Y-73428571D02*
X111766378Y-73380952D01*
X111766378Y-73380952D02*
X111718759Y-73333333D01*
X111718759Y-73333333D02*
X111671140Y-73238095D01*
X111671140Y-73238095D02*
X111623521Y-73047619D01*
X111623521Y-73047619D02*
X111575902Y-72952381D01*
X111575902Y-72952381D02*
X111528283Y-72904762D01*
X111528283Y-72904762D02*
X111433045Y-72857143D01*
X111433045Y-72857143D02*
X111337807Y-72857143D01*
X111337807Y-72857143D02*
X111242569Y-72904762D01*
X111242569Y-72904762D02*
X111194950Y-72952381D01*
X111194950Y-72952381D02*
X111147331Y-73047619D01*
X111147331Y-73047619D02*
X111147331Y-73285714D01*
X111147331Y-73285714D02*
X111194950Y-73428571D01*
X111480664Y-73761905D02*
X112147331Y-73952381D01*
X112147331Y-73952381D02*
X111671140Y-74142857D01*
X111671140Y-74142857D02*
X112147331Y-74333333D01*
X112147331Y-74333333D02*
X111480664Y-74523809D01*
X112147331Y-74904762D02*
X111480664Y-74904762D01*
X111147331Y-74904762D02*
X111194950Y-74857143D01*
X111194950Y-74857143D02*
X111242569Y-74904762D01*
X111242569Y-74904762D02*
X111194950Y-74952381D01*
X111194950Y-74952381D02*
X111147331Y-74904762D01*
X111147331Y-74904762D02*
X111242569Y-74904762D01*
X111480664Y-75238095D02*
X111480664Y-75619047D01*
X111147331Y-75380952D02*
X112004473Y-75380952D01*
X112004473Y-75380952D02*
X112099712Y-75428571D01*
X112099712Y-75428571D02*
X112147331Y-75523809D01*
X112147331Y-75523809D02*
X112147331Y-75619047D01*
X112099712Y-76380952D02*
X112147331Y-76285714D01*
X112147331Y-76285714D02*
X112147331Y-76095238D01*
X112147331Y-76095238D02*
X112099712Y-76000000D01*
X112099712Y-76000000D02*
X112052092Y-75952381D01*
X112052092Y-75952381D02*
X111956854Y-75904762D01*
X111956854Y-75904762D02*
X111671140Y-75904762D01*
X111671140Y-75904762D02*
X111575902Y-75952381D01*
X111575902Y-75952381D02*
X111528283Y-76000000D01*
X111528283Y-76000000D02*
X111480664Y-76095238D01*
X111480664Y-76095238D02*
X111480664Y-76285714D01*
X111480664Y-76285714D02*
X111528283Y-76380952D01*
X112147331Y-76809524D02*
X111147331Y-76809524D01*
X112147331Y-77238095D02*
X111623521Y-77238095D01*
X111623521Y-77238095D02*
X111528283Y-77190476D01*
X111528283Y-77190476D02*
X111480664Y-77095238D01*
X111480664Y-77095238D02*
X111480664Y-76952381D01*
X111480664Y-76952381D02*
X111528283Y-76857143D01*
X111528283Y-76857143D02*
X111575902Y-76809524D01*
X113757275Y-60047619D02*
X112757275Y-60047619D01*
X113709656Y-60047619D02*
X113757275Y-59952381D01*
X113757275Y-59952381D02*
X113757275Y-59761905D01*
X113757275Y-59761905D02*
X113709656Y-59666667D01*
X113709656Y-59666667D02*
X113662036Y-59619048D01*
X113662036Y-59619048D02*
X113566798Y-59571429D01*
X113566798Y-59571429D02*
X113281084Y-59571429D01*
X113281084Y-59571429D02*
X113185846Y-59619048D01*
X113185846Y-59619048D02*
X113138227Y-59666667D01*
X113138227Y-59666667D02*
X113090608Y-59761905D01*
X113090608Y-59761905D02*
X113090608Y-59952381D01*
X113090608Y-59952381D02*
X113138227Y-60047619D01*
X113757275Y-60523810D02*
X113090608Y-60523810D01*
X112757275Y-60523810D02*
X112804894Y-60476191D01*
X112804894Y-60476191D02*
X112852513Y-60523810D01*
X112852513Y-60523810D02*
X112804894Y-60571429D01*
X112804894Y-60571429D02*
X112757275Y-60523810D01*
X112757275Y-60523810D02*
X112852513Y-60523810D01*
X113757275Y-61000000D02*
X113090608Y-61000000D01*
X113185846Y-61000000D02*
X113138227Y-61047619D01*
X113138227Y-61047619D02*
X113090608Y-61142857D01*
X113090608Y-61142857D02*
X113090608Y-61285714D01*
X113090608Y-61285714D02*
X113138227Y-61380952D01*
X113138227Y-61380952D02*
X113233465Y-61428571D01*
X113233465Y-61428571D02*
X113757275Y-61428571D01*
X113233465Y-61428571D02*
X113138227Y-61476190D01*
X113138227Y-61476190D02*
X113090608Y-61571428D01*
X113090608Y-61571428D02*
X113090608Y-61714285D01*
X113090608Y-61714285D02*
X113138227Y-61809524D01*
X113138227Y-61809524D02*
X113233465Y-61857143D01*
X113233465Y-61857143D02*
X113757275Y-61857143D01*
X113662036Y-62333333D02*
X113709656Y-62380952D01*
X113709656Y-62380952D02*
X113757275Y-62333333D01*
X113757275Y-62333333D02*
X113709656Y-62285714D01*
X113709656Y-62285714D02*
X113662036Y-62333333D01*
X113662036Y-62333333D02*
X113757275Y-62333333D01*
X113138227Y-62333333D02*
X113185846Y-62380952D01*
X113185846Y-62380952D02*
X113233465Y-62333333D01*
X113233465Y-62333333D02*
X113185846Y-62285714D01*
X113185846Y-62285714D02*
X113138227Y-62333333D01*
X113138227Y-62333333D02*
X113233465Y-62333333D01*
X112757275Y-64047618D02*
X112757275Y-63571428D01*
X112757275Y-63571428D02*
X113233465Y-63523809D01*
X113233465Y-63523809D02*
X113185846Y-63571428D01*
X113185846Y-63571428D02*
X113138227Y-63666666D01*
X113138227Y-63666666D02*
X113138227Y-63904761D01*
X113138227Y-63904761D02*
X113185846Y-63999999D01*
X113185846Y-63999999D02*
X113233465Y-64047618D01*
X113233465Y-64047618D02*
X113328703Y-64095237D01*
X113328703Y-64095237D02*
X113566798Y-64095237D01*
X113566798Y-64095237D02*
X113662036Y-64047618D01*
X113662036Y-64047618D02*
X113709656Y-63999999D01*
X113709656Y-63999999D02*
X113757275Y-63904761D01*
X113757275Y-63904761D02*
X113757275Y-63666666D01*
X113757275Y-63666666D02*
X113709656Y-63571428D01*
X113709656Y-63571428D02*
X113662036Y-63523809D01*
X112757275Y-64714285D02*
X112757275Y-64809523D01*
X112757275Y-64809523D02*
X112804894Y-64904761D01*
X112804894Y-64904761D02*
X112852513Y-64952380D01*
X112852513Y-64952380D02*
X112947751Y-64999999D01*
X112947751Y-64999999D02*
X113138227Y-65047618D01*
X113138227Y-65047618D02*
X113376322Y-65047618D01*
X113376322Y-65047618D02*
X113566798Y-64999999D01*
X113566798Y-64999999D02*
X113662036Y-64952380D01*
X113662036Y-64952380D02*
X113709656Y-64904761D01*
X113709656Y-64904761D02*
X113757275Y-64809523D01*
X113757275Y-64809523D02*
X113757275Y-64714285D01*
X113757275Y-64714285D02*
X113709656Y-64619047D01*
X113709656Y-64619047D02*
X113662036Y-64571428D01*
X113662036Y-64571428D02*
X113566798Y-64523809D01*
X113566798Y-64523809D02*
X113376322Y-64476190D01*
X113376322Y-64476190D02*
X113138227Y-64476190D01*
X113138227Y-64476190D02*
X112947751Y-64523809D01*
X112947751Y-64523809D02*
X112852513Y-64571428D01*
X112852513Y-64571428D02*
X112804894Y-64619047D01*
X112804894Y-64619047D02*
X112757275Y-64714285D01*
X113757275Y-65380952D02*
X113090608Y-65904761D01*
X113090608Y-65380952D02*
X113757275Y-65904761D01*
X112757275Y-66761904D02*
X112757275Y-66285714D01*
X112757275Y-66285714D02*
X113233465Y-66238095D01*
X113233465Y-66238095D02*
X113185846Y-66285714D01*
X113185846Y-66285714D02*
X113138227Y-66380952D01*
X113138227Y-66380952D02*
X113138227Y-66619047D01*
X113138227Y-66619047D02*
X113185846Y-66714285D01*
X113185846Y-66714285D02*
X113233465Y-66761904D01*
X113233465Y-66761904D02*
X113328703Y-66809523D01*
X113328703Y-66809523D02*
X113566798Y-66809523D01*
X113566798Y-66809523D02*
X113662036Y-66761904D01*
X113662036Y-66761904D02*
X113709656Y-66714285D01*
X113709656Y-66714285D02*
X113757275Y-66619047D01*
X113757275Y-66619047D02*
X113757275Y-66380952D01*
X113757275Y-66380952D02*
X113709656Y-66285714D01*
X113709656Y-66285714D02*
X113662036Y-66238095D01*
X112757275Y-67428571D02*
X112757275Y-67523809D01*
X112757275Y-67523809D02*
X112804894Y-67619047D01*
X112804894Y-67619047D02*
X112852513Y-67666666D01*
X112852513Y-67666666D02*
X112947751Y-67714285D01*
X112947751Y-67714285D02*
X113138227Y-67761904D01*
X113138227Y-67761904D02*
X113376322Y-67761904D01*
X113376322Y-67761904D02*
X113566798Y-67714285D01*
X113566798Y-67714285D02*
X113662036Y-67666666D01*
X113662036Y-67666666D02*
X113709656Y-67619047D01*
X113709656Y-67619047D02*
X113757275Y-67523809D01*
X113757275Y-67523809D02*
X113757275Y-67428571D01*
X113757275Y-67428571D02*
X113709656Y-67333333D01*
X113709656Y-67333333D02*
X113662036Y-67285714D01*
X113662036Y-67285714D02*
X113566798Y-67238095D01*
X113566798Y-67238095D02*
X113376322Y-67190476D01*
X113376322Y-67190476D02*
X113138227Y-67190476D01*
X113138227Y-67190476D02*
X112947751Y-67238095D01*
X112947751Y-67238095D02*
X112852513Y-67285714D01*
X112852513Y-67285714D02*
X112804894Y-67333333D01*
X112804894Y-67333333D02*
X112757275Y-67428571D01*
X113757275Y-68190476D02*
X113090608Y-68190476D01*
X113185846Y-68190476D02*
X113138227Y-68238095D01*
X113138227Y-68238095D02*
X113090608Y-68333333D01*
X113090608Y-68333333D02*
X113090608Y-68476190D01*
X113090608Y-68476190D02*
X113138227Y-68571428D01*
X113138227Y-68571428D02*
X113233465Y-68619047D01*
X113233465Y-68619047D02*
X113757275Y-68619047D01*
X113233465Y-68619047D02*
X113138227Y-68666666D01*
X113138227Y-68666666D02*
X113090608Y-68761904D01*
X113090608Y-68761904D02*
X113090608Y-68904761D01*
X113090608Y-68904761D02*
X113138227Y-69000000D01*
X113138227Y-69000000D02*
X113233465Y-69047619D01*
X113233465Y-69047619D02*
X113757275Y-69047619D01*
X113757275Y-69523809D02*
X113090608Y-69523809D01*
X113185846Y-69523809D02*
X113138227Y-69571428D01*
X113138227Y-69571428D02*
X113090608Y-69666666D01*
X113090608Y-69666666D02*
X113090608Y-69809523D01*
X113090608Y-69809523D02*
X113138227Y-69904761D01*
X113138227Y-69904761D02*
X113233465Y-69952380D01*
X113233465Y-69952380D02*
X113757275Y-69952380D01*
X113233465Y-69952380D02*
X113138227Y-69999999D01*
X113138227Y-69999999D02*
X113090608Y-70095237D01*
X113090608Y-70095237D02*
X113090608Y-70238094D01*
X113090608Y-70238094D02*
X113138227Y-70333333D01*
X113138227Y-70333333D02*
X113233465Y-70380952D01*
X113233465Y-70380952D02*
X113757275Y-70380952D01*
X115367219Y-57309524D02*
X114367219Y-57309524D01*
X115367219Y-57738095D02*
X114843409Y-57738095D01*
X114843409Y-57738095D02*
X114748171Y-57690476D01*
X114748171Y-57690476D02*
X114700552Y-57595238D01*
X114700552Y-57595238D02*
X114700552Y-57452381D01*
X114700552Y-57452381D02*
X114748171Y-57357143D01*
X114748171Y-57357143D02*
X114795790Y-57309524D01*
X115367219Y-58357143D02*
X115319600Y-58261905D01*
X115319600Y-58261905D02*
X115271980Y-58214286D01*
X115271980Y-58214286D02*
X115176742Y-58166667D01*
X115176742Y-58166667D02*
X114891028Y-58166667D01*
X114891028Y-58166667D02*
X114795790Y-58214286D01*
X114795790Y-58214286D02*
X114748171Y-58261905D01*
X114748171Y-58261905D02*
X114700552Y-58357143D01*
X114700552Y-58357143D02*
X114700552Y-58500000D01*
X114700552Y-58500000D02*
X114748171Y-58595238D01*
X114748171Y-58595238D02*
X114795790Y-58642857D01*
X114795790Y-58642857D02*
X114891028Y-58690476D01*
X114891028Y-58690476D02*
X115176742Y-58690476D01*
X115176742Y-58690476D02*
X115271980Y-58642857D01*
X115271980Y-58642857D02*
X115319600Y-58595238D01*
X115319600Y-58595238D02*
X115367219Y-58500000D01*
X115367219Y-58500000D02*
X115367219Y-58357143D01*
X115367219Y-59261905D02*
X115319600Y-59166667D01*
X115319600Y-59166667D02*
X115224361Y-59119048D01*
X115224361Y-59119048D02*
X114367219Y-59119048D01*
X115319600Y-60023810D02*
X115367219Y-59928572D01*
X115367219Y-59928572D02*
X115367219Y-59738096D01*
X115367219Y-59738096D02*
X115319600Y-59642858D01*
X115319600Y-59642858D02*
X115224361Y-59595239D01*
X115224361Y-59595239D02*
X114843409Y-59595239D01*
X114843409Y-59595239D02*
X114748171Y-59642858D01*
X114748171Y-59642858D02*
X114700552Y-59738096D01*
X114700552Y-59738096D02*
X114700552Y-59928572D01*
X114700552Y-59928572D02*
X114748171Y-60023810D01*
X114748171Y-60023810D02*
X114843409Y-60071429D01*
X114843409Y-60071429D02*
X114938647Y-60071429D01*
X114938647Y-60071429D02*
X115033885Y-59595239D01*
X115319600Y-60452382D02*
X115367219Y-60547620D01*
X115367219Y-60547620D02*
X115367219Y-60738096D01*
X115367219Y-60738096D02*
X115319600Y-60833334D01*
X115319600Y-60833334D02*
X115224361Y-60880953D01*
X115224361Y-60880953D02*
X115176742Y-60880953D01*
X115176742Y-60880953D02*
X115081504Y-60833334D01*
X115081504Y-60833334D02*
X115033885Y-60738096D01*
X115033885Y-60738096D02*
X115033885Y-60595239D01*
X115033885Y-60595239D02*
X114986266Y-60500001D01*
X114986266Y-60500001D02*
X114891028Y-60452382D01*
X114891028Y-60452382D02*
X114843409Y-60452382D01*
X114843409Y-60452382D02*
X114748171Y-60500001D01*
X114748171Y-60500001D02*
X114700552Y-60595239D01*
X114700552Y-60595239D02*
X114700552Y-60738096D01*
X114700552Y-60738096D02*
X114748171Y-60833334D01*
X115271980Y-61309525D02*
X115319600Y-61357144D01*
X115319600Y-61357144D02*
X115367219Y-61309525D01*
X115367219Y-61309525D02*
X115319600Y-61261906D01*
X115319600Y-61261906D02*
X115271980Y-61309525D01*
X115271980Y-61309525D02*
X115367219Y-61309525D01*
X114748171Y-61309525D02*
X114795790Y-61357144D01*
X114795790Y-61357144D02*
X114843409Y-61309525D01*
X114843409Y-61309525D02*
X114795790Y-61261906D01*
X114795790Y-61261906D02*
X114748171Y-61309525D01*
X114748171Y-61309525D02*
X114843409Y-61309525D01*
X114700552Y-62976191D02*
X115367219Y-62976191D01*
X114319600Y-62738096D02*
X115033885Y-62500001D01*
X115033885Y-62500001D02*
X115033885Y-63119048D01*
X114367219Y-63690477D02*
X114367219Y-63785715D01*
X114367219Y-63785715D02*
X114414838Y-63880953D01*
X114414838Y-63880953D02*
X114462457Y-63928572D01*
X114462457Y-63928572D02*
X114557695Y-63976191D01*
X114557695Y-63976191D02*
X114748171Y-64023810D01*
X114748171Y-64023810D02*
X114986266Y-64023810D01*
X114986266Y-64023810D02*
X115176742Y-63976191D01*
X115176742Y-63976191D02*
X115271980Y-63928572D01*
X115271980Y-63928572D02*
X115319600Y-63880953D01*
X115319600Y-63880953D02*
X115367219Y-63785715D01*
X115367219Y-63785715D02*
X115367219Y-63690477D01*
X115367219Y-63690477D02*
X115319600Y-63595239D01*
X115319600Y-63595239D02*
X115271980Y-63547620D01*
X115271980Y-63547620D02*
X115176742Y-63500001D01*
X115176742Y-63500001D02*
X114986266Y-63452382D01*
X114986266Y-63452382D02*
X114748171Y-63452382D01*
X114748171Y-63452382D02*
X114557695Y-63500001D01*
X114557695Y-63500001D02*
X114462457Y-63547620D01*
X114462457Y-63547620D02*
X114414838Y-63595239D01*
X114414838Y-63595239D02*
X114367219Y-63690477D01*
X115367219Y-64357144D02*
X114700552Y-64880953D01*
X114700552Y-64357144D02*
X115367219Y-64880953D01*
X114700552Y-65690477D02*
X115367219Y-65690477D01*
X114319600Y-65452382D02*
X115033885Y-65214287D01*
X115033885Y-65214287D02*
X115033885Y-65833334D01*
X114367219Y-66404763D02*
X114367219Y-66500001D01*
X114367219Y-66500001D02*
X114414838Y-66595239D01*
X114414838Y-66595239D02*
X114462457Y-66642858D01*
X114462457Y-66642858D02*
X114557695Y-66690477D01*
X114557695Y-66690477D02*
X114748171Y-66738096D01*
X114748171Y-66738096D02*
X114986266Y-66738096D01*
X114986266Y-66738096D02*
X115176742Y-66690477D01*
X115176742Y-66690477D02*
X115271980Y-66642858D01*
X115271980Y-66642858D02*
X115319600Y-66595239D01*
X115319600Y-66595239D02*
X115367219Y-66500001D01*
X115367219Y-66500001D02*
X115367219Y-66404763D01*
X115367219Y-66404763D02*
X115319600Y-66309525D01*
X115319600Y-66309525D02*
X115271980Y-66261906D01*
X115271980Y-66261906D02*
X115176742Y-66214287D01*
X115176742Y-66214287D02*
X114986266Y-66166668D01*
X114986266Y-66166668D02*
X114748171Y-66166668D01*
X114748171Y-66166668D02*
X114557695Y-66214287D01*
X114557695Y-66214287D02*
X114462457Y-66261906D01*
X114462457Y-66261906D02*
X114414838Y-66309525D01*
X114414838Y-66309525D02*
X114367219Y-66404763D01*
X115367219Y-67166668D02*
X114700552Y-67166668D01*
X114795790Y-67166668D02*
X114748171Y-67214287D01*
X114748171Y-67214287D02*
X114700552Y-67309525D01*
X114700552Y-67309525D02*
X114700552Y-67452382D01*
X114700552Y-67452382D02*
X114748171Y-67547620D01*
X114748171Y-67547620D02*
X114843409Y-67595239D01*
X114843409Y-67595239D02*
X115367219Y-67595239D01*
X114843409Y-67595239D02*
X114748171Y-67642858D01*
X114748171Y-67642858D02*
X114700552Y-67738096D01*
X114700552Y-67738096D02*
X114700552Y-67880953D01*
X114700552Y-67880953D02*
X114748171Y-67976192D01*
X114748171Y-67976192D02*
X114843409Y-68023811D01*
X114843409Y-68023811D02*
X115367219Y-68023811D01*
X115367219Y-68500001D02*
X114700552Y-68500001D01*
X114795790Y-68500001D02*
X114748171Y-68547620D01*
X114748171Y-68547620D02*
X114700552Y-68642858D01*
X114700552Y-68642858D02*
X114700552Y-68785715D01*
X114700552Y-68785715D02*
X114748171Y-68880953D01*
X114748171Y-68880953D02*
X114843409Y-68928572D01*
X114843409Y-68928572D02*
X115367219Y-68928572D01*
X114843409Y-68928572D02*
X114748171Y-68976191D01*
X114748171Y-68976191D02*
X114700552Y-69071429D01*
X114700552Y-69071429D02*
X114700552Y-69214286D01*
X114700552Y-69214286D02*
X114748171Y-69309525D01*
X114748171Y-69309525D02*
X114843409Y-69357144D01*
X114843409Y-69357144D02*
X115367219Y-69357144D01*
X115319600Y-69880953D02*
X115367219Y-69880953D01*
X115367219Y-69880953D02*
X115462457Y-69833334D01*
X115462457Y-69833334D02*
X115510076Y-69785715D01*
X115367219Y-71071429D02*
X114367219Y-71071429D01*
X114367219Y-71071429D02*
X115081504Y-71404762D01*
X115081504Y-71404762D02*
X114367219Y-71738095D01*
X114367219Y-71738095D02*
X115367219Y-71738095D01*
X114367219Y-72119048D02*
X114367219Y-72738095D01*
X114367219Y-72738095D02*
X114748171Y-72404762D01*
X114748171Y-72404762D02*
X114748171Y-72547619D01*
X114748171Y-72547619D02*
X114795790Y-72642857D01*
X114795790Y-72642857D02*
X114843409Y-72690476D01*
X114843409Y-72690476D02*
X114938647Y-72738095D01*
X114938647Y-72738095D02*
X115176742Y-72738095D01*
X115176742Y-72738095D02*
X115271980Y-72690476D01*
X115271980Y-72690476D02*
X115319600Y-72642857D01*
X115319600Y-72642857D02*
X115367219Y-72547619D01*
X115367219Y-72547619D02*
X115367219Y-72261905D01*
X115367219Y-72261905D02*
X115319600Y-72166667D01*
X115319600Y-72166667D02*
X115271980Y-72119048D01*
X131939850Y-78367219D02*
X131749374Y-78367219D01*
X131749374Y-78367219D02*
X131654136Y-78414838D01*
X131654136Y-78414838D02*
X131558898Y-78510076D01*
X131558898Y-78510076D02*
X131511279Y-78700552D01*
X131511279Y-78700552D02*
X131511279Y-79033885D01*
X131511279Y-79033885D02*
X131558898Y-79224361D01*
X131558898Y-79224361D02*
X131654136Y-79319600D01*
X131654136Y-79319600D02*
X131749374Y-79367219D01*
X131749374Y-79367219D02*
X131939850Y-79367219D01*
X131939850Y-79367219D02*
X132035088Y-79319600D01*
X132035088Y-79319600D02*
X132130326Y-79224361D01*
X132130326Y-79224361D02*
X132177945Y-79033885D01*
X132177945Y-79033885D02*
X132177945Y-78700552D01*
X132177945Y-78700552D02*
X132130326Y-78510076D01*
X132130326Y-78510076D02*
X132035088Y-78414838D01*
X132035088Y-78414838D02*
X131939850Y-78367219D01*
X131082707Y-78367219D02*
X131082707Y-79176742D01*
X131082707Y-79176742D02*
X131035088Y-79271980D01*
X131035088Y-79271980D02*
X130987469Y-79319600D01*
X130987469Y-79319600D02*
X130892231Y-79367219D01*
X130892231Y-79367219D02*
X130701755Y-79367219D01*
X130701755Y-79367219D02*
X130606517Y-79319600D01*
X130606517Y-79319600D02*
X130558898Y-79271980D01*
X130558898Y-79271980D02*
X130511279Y-79176742D01*
X130511279Y-79176742D02*
X130511279Y-78367219D01*
X130177945Y-78367219D02*
X129606517Y-78367219D01*
X129892231Y-79367219D02*
X129892231Y-78367219D01*
X129320802Y-78462457D02*
X129273183Y-78414838D01*
X129273183Y-78414838D02*
X129177945Y-78367219D01*
X129177945Y-78367219D02*
X128939850Y-78367219D01*
X128939850Y-78367219D02*
X128844612Y-78414838D01*
X128844612Y-78414838D02*
X128796993Y-78462457D01*
X128796993Y-78462457D02*
X128749374Y-78557695D01*
X128749374Y-78557695D02*
X128749374Y-78652933D01*
X128749374Y-78652933D02*
X128796993Y-78795790D01*
X128796993Y-78795790D02*
X129368421Y-79367219D01*
X129368421Y-79367219D02*
X128749374Y-79367219D01*
X128320802Y-78986266D02*
X127558898Y-78986266D01*
X110367219Y-82619673D02*
X109367219Y-82619673D01*
X109367219Y-82619673D02*
X110367219Y-83191101D01*
X110367219Y-83191101D02*
X109367219Y-83191101D01*
X110367219Y-84238720D02*
X109891028Y-83905387D01*
X110367219Y-83667292D02*
X109367219Y-83667292D01*
X109367219Y-83667292D02*
X109367219Y-84048244D01*
X109367219Y-84048244D02*
X109414838Y-84143482D01*
X109414838Y-84143482D02*
X109462457Y-84191101D01*
X109462457Y-84191101D02*
X109557695Y-84238720D01*
X109557695Y-84238720D02*
X109700552Y-84238720D01*
X109700552Y-84238720D02*
X109795790Y-84191101D01*
X109795790Y-84191101D02*
X109843409Y-84143482D01*
X109843409Y-84143482D02*
X109891028Y-84048244D01*
X109891028Y-84048244D02*
X109891028Y-83667292D01*
X110319600Y-84619673D02*
X110367219Y-84762530D01*
X110367219Y-84762530D02*
X110367219Y-85000625D01*
X110367219Y-85000625D02*
X110319600Y-85095863D01*
X110319600Y-85095863D02*
X110271980Y-85143482D01*
X110271980Y-85143482D02*
X110176742Y-85191101D01*
X110176742Y-85191101D02*
X110081504Y-85191101D01*
X110081504Y-85191101D02*
X109986266Y-85143482D01*
X109986266Y-85143482D02*
X109938647Y-85095863D01*
X109938647Y-85095863D02*
X109891028Y-85000625D01*
X109891028Y-85000625D02*
X109843409Y-84810149D01*
X109843409Y-84810149D02*
X109795790Y-84714911D01*
X109795790Y-84714911D02*
X109748171Y-84667292D01*
X109748171Y-84667292D02*
X109652933Y-84619673D01*
X109652933Y-84619673D02*
X109557695Y-84619673D01*
X109557695Y-84619673D02*
X109462457Y-84667292D01*
X109462457Y-84667292D02*
X109414838Y-84714911D01*
X109414838Y-84714911D02*
X109367219Y-84810149D01*
X109367219Y-84810149D02*
X109367219Y-85048244D01*
X109367219Y-85048244D02*
X109414838Y-85191101D01*
X109367219Y-85476816D02*
X109367219Y-86048244D01*
X110367219Y-85762530D02*
X109367219Y-85762530D01*
X114617219Y-83524435D02*
X114617219Y-84143482D01*
X114617219Y-84143482D02*
X114998171Y-83810149D01*
X114998171Y-83810149D02*
X114998171Y-83953006D01*
X114998171Y-83953006D02*
X115045790Y-84048244D01*
X115045790Y-84048244D02*
X115093409Y-84095863D01*
X115093409Y-84095863D02*
X115188647Y-84143482D01*
X115188647Y-84143482D02*
X115426742Y-84143482D01*
X115426742Y-84143482D02*
X115521980Y-84095863D01*
X115521980Y-84095863D02*
X115569600Y-84048244D01*
X115569600Y-84048244D02*
X115617219Y-83953006D01*
X115617219Y-83953006D02*
X115617219Y-83667292D01*
X115617219Y-83667292D02*
X115569600Y-83572054D01*
X115569600Y-83572054D02*
X115521980Y-83524435D01*
X114617219Y-84429197D02*
X115617219Y-84762530D01*
X115617219Y-84762530D02*
X114617219Y-85095863D01*
X114617219Y-85333959D02*
X114617219Y-85953006D01*
X114617219Y-85953006D02*
X114998171Y-85619673D01*
X114998171Y-85619673D02*
X114998171Y-85762530D01*
X114998171Y-85762530D02*
X115045790Y-85857768D01*
X115045790Y-85857768D02*
X115093409Y-85905387D01*
X115093409Y-85905387D02*
X115188647Y-85953006D01*
X115188647Y-85953006D02*
X115426742Y-85953006D01*
X115426742Y-85953006D02*
X115521980Y-85905387D01*
X115521980Y-85905387D02*
X115569600Y-85857768D01*
X115569600Y-85857768D02*
X115617219Y-85762530D01*
X115617219Y-85762530D02*
X115617219Y-85476816D01*
X115617219Y-85476816D02*
X115569600Y-85381578D01*
X115569600Y-85381578D02*
X115521980Y-85333959D01*
X107343409Y-82953006D02*
X107391028Y-83095863D01*
X107391028Y-83095863D02*
X107438647Y-83143482D01*
X107438647Y-83143482D02*
X107533885Y-83191101D01*
X107533885Y-83191101D02*
X107676742Y-83191101D01*
X107676742Y-83191101D02*
X107771980Y-83143482D01*
X107771980Y-83143482D02*
X107819600Y-83095863D01*
X107819600Y-83095863D02*
X107867219Y-83000625D01*
X107867219Y-83000625D02*
X107867219Y-82619673D01*
X107867219Y-82619673D02*
X106867219Y-82619673D01*
X106867219Y-82619673D02*
X106867219Y-82953006D01*
X106867219Y-82953006D02*
X106914838Y-83048244D01*
X106914838Y-83048244D02*
X106962457Y-83095863D01*
X106962457Y-83095863D02*
X107057695Y-83143482D01*
X107057695Y-83143482D02*
X107152933Y-83143482D01*
X107152933Y-83143482D02*
X107248171Y-83095863D01*
X107248171Y-83095863D02*
X107295790Y-83048244D01*
X107295790Y-83048244D02*
X107343409Y-82953006D01*
X107343409Y-82953006D02*
X107343409Y-82619673D01*
X106867219Y-83810149D02*
X106867219Y-84000625D01*
X106867219Y-84000625D02*
X106914838Y-84095863D01*
X106914838Y-84095863D02*
X107010076Y-84191101D01*
X107010076Y-84191101D02*
X107200552Y-84238720D01*
X107200552Y-84238720D02*
X107533885Y-84238720D01*
X107533885Y-84238720D02*
X107724361Y-84191101D01*
X107724361Y-84191101D02*
X107819600Y-84095863D01*
X107819600Y-84095863D02*
X107867219Y-84000625D01*
X107867219Y-84000625D02*
X107867219Y-83810149D01*
X107867219Y-83810149D02*
X107819600Y-83714911D01*
X107819600Y-83714911D02*
X107724361Y-83619673D01*
X107724361Y-83619673D02*
X107533885Y-83572054D01*
X107533885Y-83572054D02*
X107200552Y-83572054D01*
X107200552Y-83572054D02*
X107010076Y-83619673D01*
X107010076Y-83619673D02*
X106914838Y-83714911D01*
X106914838Y-83714911D02*
X106867219Y-83810149D01*
X106867219Y-84857768D02*
X106867219Y-85048244D01*
X106867219Y-85048244D02*
X106914838Y-85143482D01*
X106914838Y-85143482D02*
X107010076Y-85238720D01*
X107010076Y-85238720D02*
X107200552Y-85286339D01*
X107200552Y-85286339D02*
X107533885Y-85286339D01*
X107533885Y-85286339D02*
X107724361Y-85238720D01*
X107724361Y-85238720D02*
X107819600Y-85143482D01*
X107819600Y-85143482D02*
X107867219Y-85048244D01*
X107867219Y-85048244D02*
X107867219Y-84857768D01*
X107867219Y-84857768D02*
X107819600Y-84762530D01*
X107819600Y-84762530D02*
X107724361Y-84667292D01*
X107724361Y-84667292D02*
X107533885Y-84619673D01*
X107533885Y-84619673D02*
X107200552Y-84619673D01*
X107200552Y-84619673D02*
X107010076Y-84667292D01*
X107010076Y-84667292D02*
X106914838Y-84762530D01*
X106914838Y-84762530D02*
X106867219Y-84857768D01*
X106867219Y-85572054D02*
X106867219Y-86143482D01*
X107867219Y-85857768D02*
X106867219Y-85857768D01*
X131606517Y-52867219D02*
X132177945Y-52867219D01*
X131892231Y-52867219D02*
X131892231Y-51867219D01*
X131892231Y-51867219D02*
X131987469Y-52010076D01*
X131987469Y-52010076D02*
X132082707Y-52105314D01*
X132082707Y-52105314D02*
X132177945Y-52152933D01*
X131225564Y-51962457D02*
X131177945Y-51914838D01*
X131177945Y-51914838D02*
X131082707Y-51867219D01*
X131082707Y-51867219D02*
X130844612Y-51867219D01*
X130844612Y-51867219D02*
X130749374Y-51914838D01*
X130749374Y-51914838D02*
X130701755Y-51962457D01*
X130701755Y-51962457D02*
X130654136Y-52057695D01*
X130654136Y-52057695D02*
X130654136Y-52152933D01*
X130654136Y-52152933D02*
X130701755Y-52295790D01*
X130701755Y-52295790D02*
X131273183Y-52867219D01*
X131273183Y-52867219D02*
X130654136Y-52867219D01*
X130225564Y-52486266D02*
X129463660Y-52486266D01*
X129035088Y-51962457D02*
X128987469Y-51914838D01*
X128987469Y-51914838D02*
X128892231Y-51867219D01*
X128892231Y-51867219D02*
X128654136Y-51867219D01*
X128654136Y-51867219D02*
X128558898Y-51914838D01*
X128558898Y-51914838D02*
X128511279Y-51962457D01*
X128511279Y-51962457D02*
X128463660Y-52057695D01*
X128463660Y-52057695D02*
X128463660Y-52152933D01*
X128463660Y-52152933D02*
X128511279Y-52295790D01*
X128511279Y-52295790D02*
X129082707Y-52867219D01*
X129082707Y-52867219D02*
X128463660Y-52867219D01*
X127606517Y-52200552D02*
X127606517Y-52867219D01*
X127844612Y-51819600D02*
X128082707Y-52533885D01*
X128082707Y-52533885D02*
X127463660Y-52533885D01*
X127225564Y-51867219D02*
X126892231Y-52867219D01*
X126892231Y-52867219D02*
X126558898Y-51867219D01*
%LPC*%
D11*
%TO.C,H3*%
X135000000Y-45000000D03*
%TD*%
%TO.C,H4*%
X135000000Y-85000000D03*
%TD*%
D12*
%TO.C,H1*%
X95000000Y-45000000D03*
%TD*%
%TO.C,H2*%
X95000000Y-85000000D03*
%TD*%
D13*
%TO.C,J1*%
X135305000Y-77700000D03*
D14*
X135305000Y-72620000D03*
X135305000Y-67540000D03*
X135305000Y-62460000D03*
X135305000Y-57380000D03*
X135305000Y-52300000D03*
%TD*%
D15*
%TO.C,J2*%
X99880000Y-87500000D03*
D16*
X102420000Y-87500000D03*
X104960000Y-87500000D03*
X107500000Y-87500000D03*
X110040000Y-87500000D03*
X112580000Y-87500000D03*
X115120000Y-87500000D03*
%TD*%
%LPD*%
M02*
